<svg xmlns="http://www.w3.org/2000/svg" xmlns:xlink="http://www.w3.org/1999/xlink" width="816" zoomAndPan="magnify" viewBox="0 0 612 790.499977" height="1054" preserveAspectRatio="xMidYMid meet" version="1.0"><defs><filter x="0%" y="0%" width="100%" height="100%" id="7afc96c23c"><feColorMatrix values="0 0 0 0 1 0 0 0 0 1 0 0 0 0 1 0 0 0 1 0" color-interpolation-filters="sRGB"/></filter><clipPath id="efadfc9f46"><path d="M 0.195312 0 L 611.527344 0 L 611.527344 789.636719 L 0.195312 789.636719 Z M 0.195312 0 " clip-rule="nonzero"/></clipPath><clipPath id="28789f19a4"><path d="M 87 630 L 536 630 L 536 677.304688 L 87 677.304688 Z M 87 630 " clip-rule="nonzero"/></clipPath><mask id="b6f731d68b"><g filter="url(#7afc96c23c)"><rect x="-61.2" width="734.4" fill="#000000" y="-79.049998" height="948.599972" fill-opacity="0.2"/></g></mask><clipPath id="05ed5ca3bd"><path d="M 0.320312 0.566406 L 261.753906 0.566406 L 261.753906 145.671875 L 0.320312 145.671875 Z M 0.320312 0.566406 " clip-rule="nonzero"/></clipPath><clipPath id="7b95c4d3f0"><rect x="0" width="262" y="0" height="146"/></clipPath></defs><g clip-path="url(#efadfc9f46)"><path fill="#ffffff" d="M 0.195312 0 L 611.527344 0 L 611.527344 789.636719 L 0.195312 789.636719 Z M 0.195312 0 " fill-opacity="1" fill-rule="nonzero"/><path fill="#ffffff" d="M 0.195312 0 L 611.527344 0 L 611.527344 789.636719 L 0.195312 789.636719 Z M 0.195312 0 " fill-opacity="1" fill-rule="nonzero"/></g><g clip-path="url(#28789f19a4)"><path fill="#102770" d="M 535.808594 653.722656 C 535.808594 654.105469 535.71875 654.488281 535.539062 654.867188 C 535.355469 655.25 535.085938 655.628906 534.726562 656.011719 C 534.367188 656.390625 533.917969 656.769531 533.378906 657.148438 C 532.84375 657.527344 532.214844 657.902344 531.5 658.277344 C 530.78125 658.652344 529.980469 659.023438 529.085938 659.394531 C 528.195312 659.765625 527.21875 660.132812 526.152344 660.5 C 525.085938 660.863281 523.9375 661.226562 522.699219 661.585938 C 521.464844 661.945312 520.144531 662.300781 518.738281 662.65625 C 517.335938 663.007812 515.847656 663.359375 514.28125 663.703125 C 512.710938 664.046875 511.0625 664.390625 509.332031 664.726562 C 507.601562 665.0625 505.792969 665.394531 503.90625 665.722656 C 502.019531 666.050781 500.058594 666.375 498.019531 666.691406 C 495.980469 667.007812 493.867188 667.320312 491.683594 667.628906 C 489.496094 667.933594 487.238281 668.234375 484.910156 668.53125 C 482.582031 668.824219 480.1875 669.117188 477.722656 669.398438 C 475.257812 669.679688 472.730469 669.957031 470.136719 670.226562 C 467.539062 670.5 464.882812 670.761719 462.164062 671.019531 C 459.445312 671.273438 456.667969 671.523438 453.832031 671.765625 C 450.996094 672.007812 448.101562 672.242188 445.15625 672.472656 C 442.207031 672.699219 439.207031 672.917969 436.15625 673.132812 C 433.105469 673.34375 430.007812 673.546875 426.859375 673.742188 C 423.710938 673.941406 420.519531 674.128906 417.285156 674.308594 C 414.046875 674.488281 410.769531 674.660156 407.453125 674.824219 C 404.136719 674.988281 400.78125 675.140625 397.390625 675.289062 C 394.003906 675.433594 390.578125 675.570312 387.125 675.699219 C 383.667969 675.828125 380.1875 675.949219 376.675781 676.058594 C 373.164062 676.171875 369.628906 676.273438 366.066406 676.363281 C 362.507812 676.457031 358.929688 676.542969 355.332031 676.617188 C 351.730469 676.691406 348.117188 676.757812 344.488281 676.8125 C 340.855469 676.867188 337.214844 676.914062 333.566406 676.953125 C 329.914062 676.988281 326.253906 677.019531 322.589844 677.035156 C 318.925781 677.054688 315.257812 677.066406 311.585938 677.066406 C 307.917969 677.066406 304.25 677.054688 300.585938 677.035156 C 296.921875 677.019531 293.261719 676.988281 289.609375 676.953125 C 285.957031 676.914062 282.316406 676.867188 278.6875 676.8125 C 275.058594 676.757812 271.441406 676.691406 267.84375 676.617188 C 264.246094 676.542969 260.664062 676.457031 257.105469 676.363281 C 253.546875 676.273438 250.011719 676.171875 246.5 676.058594 C 242.988281 675.949219 239.503906 675.828125 236.050781 675.699219 C 232.59375 675.570312 229.171875 675.433594 225.78125 675.289062 C 222.390625 675.140625 219.039062 674.988281 215.722656 674.824219 C 212.402344 674.660156 209.125 674.488281 205.890625 674.308594 C 202.65625 674.128906 199.460938 673.941406 196.316406 673.742188 C 193.167969 673.546875 190.070312 673.34375 187.015625 673.132812 C 183.964844 672.917969 180.96875 672.699219 178.019531 672.472656 C 175.070312 672.242188 172.179688 672.007812 169.34375 671.765625 C 166.507812 671.523438 163.730469 671.273438 161.011719 671.019531 C 158.292969 670.761719 155.632812 670.5 153.039062 670.226562 C 150.445312 669.957031 147.914062 669.679688 145.453125 669.398438 C 142.988281 669.117188 140.589844 668.824219 138.261719 668.53125 C 135.933594 668.234375 133.679688 667.933594 131.492188 667.628906 C 129.304688 667.320312 127.195312 667.007812 125.15625 666.691406 C 123.117188 666.375 121.152344 666.050781 119.265625 665.722656 C 117.378906 665.394531 115.574219 665.0625 113.84375 664.726562 C 112.113281 664.390625 110.464844 664.046875 108.894531 663.703125 C 107.324219 663.359375 105.839844 663.007812 104.433594 662.65625 C 103.03125 662.300781 101.710938 661.945312 100.472656 661.585938 C 99.238281 661.226562 98.085938 660.863281 97.023438 660.5 C 95.957031 660.132812 94.976562 659.765625 94.085938 659.394531 C 93.195312 659.023438 92.390625 658.652344 91.675781 658.277344 C 90.960938 657.902344 90.332031 657.527344 89.792969 657.148438 C 89.253906 656.769531 88.804688 656.390625 88.445312 656.011719 C 88.085938 655.628906 87.816406 655.25 87.636719 654.867188 C 87.457031 654.488281 87.367188 654.105469 87.367188 653.722656 C 87.367188 653.339844 87.457031 652.960938 87.636719 652.578125 C 87.816406 652.195312 88.085938 651.816406 88.445312 651.433594 C 88.804688 651.054688 89.253906 650.675781 89.792969 650.296875 C 90.332031 649.921875 90.960938 649.542969 91.675781 649.167969 C 92.390625 648.792969 93.195312 648.421875 94.085938 648.050781 C 94.976562 647.679688 95.957031 647.3125 97.023438 646.945312 C 98.085938 646.582031 99.238281 646.21875 100.472656 645.859375 C 101.710938 645.5 103.03125 645.144531 104.433594 644.789062 C 105.839844 644.4375 107.324219 644.089844 108.894531 643.742188 C 110.464844 643.398438 112.113281 643.054688 113.84375 642.71875 C 115.574219 642.382812 117.378906 642.050781 119.265625 641.722656 C 121.152344 641.394531 123.117188 641.074219 125.15625 640.753906 C 127.195312 640.4375 129.304688 640.125 131.492188 639.816406 C 133.679688 639.511719 135.933594 639.210938 138.261719 638.914062 C 140.589844 638.621094 142.988281 638.332031 145.453125 638.046875 C 147.914062 637.765625 150.445312 637.488281 153.039062 637.21875 C 155.632812 636.949219 158.292969 636.683594 161.011719 636.425781 C 163.730469 636.171875 166.507812 635.921875 169.34375 635.679688 C 172.179688 635.4375 175.070312 635.203125 178.019531 634.972656 C 180.96875 634.746094 183.964844 634.527344 187.015625 634.316406 C 190.070312 634.101562 193.167969 633.898438 196.316406 633.703125 C 199.460938 633.503906 202.65625 633.316406 205.890625 633.136719 C 209.125 632.957031 212.402344 632.785156 215.722656 632.621094 C 219.039062 632.457031 222.390625 632.304688 225.78125 632.15625 C 229.171875 632.011719 232.59375 631.875 236.050781 631.746094 C 239.503906 631.617188 242.988281 631.496094 246.5 631.386719 C 250.011719 631.273438 253.546875 631.171875 257.105469 631.082031 C 260.664062 630.988281 264.246094 630.902344 267.84375 630.828125 C 271.441406 630.753906 275.058594 630.691406 278.6875 630.632812 C 282.316406 630.578125 285.957031 630.53125 289.609375 630.492188 C 293.261719 630.457031 296.921875 630.429688 300.585938 630.410156 C 304.25 630.390625 307.917969 630.382812 311.585938 630.382812 C 315.257812 630.382812 318.925781 630.390625 322.589844 630.410156 C 326.253906 630.429688 329.914062 630.457031 333.566406 630.492188 C 337.214844 630.53125 340.855469 630.578125 344.488281 630.632812 C 348.117188 630.691406 351.730469 630.753906 355.332031 630.828125 C 358.929688 630.902344 362.507812 630.988281 366.066406 631.082031 C 369.628906 631.171875 373.164062 631.273438 376.675781 631.386719 C 380.1875 631.496094 383.667969 631.617188 387.125 631.746094 C 390.578125 631.875 394.003906 632.011719 397.390625 632.15625 C 400.78125 632.304688 404.136719 632.457031 407.453125 632.621094 C 410.769531 632.785156 414.046875 632.957031 417.285156 633.136719 C 420.519531 633.316406 423.710938 633.503906 426.859375 633.703125 C 430.007812 633.898438 433.105469 634.101562 436.15625 634.316406 C 439.207031 634.527344 442.207031 634.746094 445.15625 634.972656 C 448.101562 635.203125 450.996094 635.4375 453.832031 635.679688 C 456.667969 635.921875 459.445312 636.171875 462.164062 636.425781 C 464.882812 636.683594 467.539062 636.949219 470.136719 637.21875 C 472.730469 637.488281 475.257812 637.765625 477.722656 638.046875 C 480.1875 638.332031 482.582031 638.621094 484.910156 638.914062 C 487.238281 639.210938 489.496094 639.511719 491.683594 639.816406 C 493.867188 640.125 495.980469 640.4375 498.019531 640.753906 C 500.058594 641.074219 502.019531 641.394531 503.90625 641.722656 C 505.792969 642.050781 507.601562 642.382812 509.332031 642.71875 C 511.0625 643.054688 512.710938 643.398438 514.28125 643.742188 C 515.847656 644.089844 517.335938 644.4375 518.738281 644.789062 C 520.144531 645.144531 521.464844 645.5 522.699219 645.859375 C 523.9375 646.21875 525.085938 646.582031 526.152344 646.945312 C 527.21875 647.3125 528.195312 647.679688 529.085938 648.050781 C 529.980469 648.421875 530.78125 648.792969 531.5 649.167969 C 532.214844 649.542969 532.84375 649.921875 533.378906 650.296875 C 533.917969 650.675781 534.367188 651.054688 534.726562 651.433594 C 535.085938 651.816406 535.355469 652.195312 535.539062 652.578125 C 535.71875 652.960938 535.808594 653.339844 535.808594 653.722656 Z M 535.808594 653.722656 " fill-opacity="0.2" fill-rule="nonzero"/></g><path fill="#19b5fe" d="M 440.796875 437.429688 C 441.644531 509.128906 385.136719 575.632812 306.089844 579.601562 C 302.460938 579.792969 298.914062 579.878906 295.433594 579.855469 C 294.964844 579.855469 294.5 579.835938 294.03125 579.835938 C 292.398438 579.8125 290.785156 579.773438 289.171875 579.707031 C 233.8125 577.648438 198.746094 550.847656 181.636719 518.0625 C 170.875 497.480469 167.203125 474.542969 170.023438 453.894531 C 177.773438 397.066406 199.59375 354.882812 233.175781 329.929688 C 263.105469 307.667969 374.972656 283.4375 424.070312 373.832031 C 435.277344 394.5 440.5625 416.1875 440.796875 437.429688 Z M 440.796875 437.429688 " fill-opacity="1" fill-rule="nonzero"/><path fill="#ffffff" d="M 228.101562 341.664062 C 258.03125 319.402344 369.898438 295.171875 418.996094 385.566406 C 430.203125 406.214844 435.488281 427.921875 435.722656 449.140625 C 435.914062 465.226562 433.21875 481.035156 428.039062 495.933594 C 436.253906 477.726562 440.625 457.777344 440.390625 437.429688 C 440.160156 416.1875 434.875 394.5 423.664062 373.855469 C 374.589844 283.457031 262.722656 307.691406 232.773438 329.949219 C 210.441406 346.542969 193.3125 370.753906 182.0625 401.820312 C 193.164062 376.335938 208.65625 356.113281 228.101562 341.664062 Z M 228.101562 341.664062 " fill-opacity="0.6" fill-rule="nonzero"/><path fill="#7fdcff" d="M 399.722656 536.886719 C 399.722656 536.90625 399.699219 536.90625 399.679688 536.929688 C 375.96875 561.351562 343.195312 577.691406 305.175781 579.621094 C 301.867188 579.773438 298.617188 579.855469 295.433594 579.878906 C 294.964844 579.878906 294.5 579.878906 294.03125 579.855469 C 292.335938 579.855469 290.65625 579.835938 289 579.773438 C 289.066406 579.75 289.109375 579.75 289.171875 579.75 C 348.054688 568.3125 383.226562 528.078125 387.515625 476.367188 C 389.363281 454.023438 385.457031 429.554688 375.226562 404.304688 C 360.492188 367.996094 334.789062 346.375 307.554688 336.101562 C 308.53125 336.1875 383.058594 341.664062 395.304688 404.304688 C 397.367188 414.828125 406.132812 428.917969 412.820312 445.726562 C 422.835938 470.890625 428.273438 502.191406 399.722656 536.886719 Z M 399.722656 536.886719 " fill-opacity="1" fill-rule="nonzero"/><path fill="#102770" d="M 295.941406 583.929688 C 243.046875 583.929688 211.96875 562.625 194.945312 544.101562 C 172.421875 519.570312 161.597656 485.660156 166.011719 453.363281 C 173.824219 396.175781 196.199219 352.378906 230.777344 326.683594 C 248.734375 313.335938 297.238281 298.394531 344.253906 308.75 C 380.746094 316.792969 409.59375 338.628906 427.65625 371.902344 C 450.984375 414.851562 450.496094 466.140625 426.339844 509.128906 C 401.566406 553.246094 356.695312 581.109375 306.300781 583.65625 C 302.757812 583.847656 299.296875 583.929688 295.941406 583.929688 Z M 233.175781 329.949219 L 235.59375 333.21875 C 202.820312 357.578125 181.550781 399.507812 174.035156 454.46875 C 169.960938 484.386719 180 515.835938 200.910156 538.605469 C 216.808594 555.898438 245.953125 575.804688 295.941406 575.804688 C 299.167969 575.804688 302.460938 575.71875 305.855469 575.546875 C 353.445312 573.152344 395.816406 546.839844 419.207031 505.164062 C 441.964844 464.632812 442.429688 416.25 420.460938 375.785156 C 403.308594 344.210938 377.074219 324.328125 342.453125 316.6875 C 297.894531 306.863281 252.34375 320.738281 235.574219 333.195312 Z M 233.175781 329.949219 " fill-opacity="1" fill-rule="nonzero"/><path fill="#102770" d="M 398.339844 542.976562 C 397.449219 542.976562 396.558594 542.679688 395.835938 542.042969 C 394.265625 540.664062 394.097656 538.265625 395.476562 536.675781 C 433.21875 493.40625 415.089844 455.867188 401.867188 428.472656 C 397.554688 419.539062 393.820312 411.835938 392.503906 405.046875 C 387.644531 380.242188 372.125 361.757812 346.355469 350.128906 C 326.785156 341.28125 308.359375 339.921875 308.191406 339.902344 C 306.089844 339.753906 304.519531 337.949219 304.667969 335.847656 C 304.816406 333.746094 306.640625 332.179688 308.722656 332.328125 C 309.527344 332.390625 328.503906 333.769531 349.285156 343.105469 C 377.15625 355.625 394.691406 376.546875 399.976562 403.605469 C 401.121094 409.4375 404.644531 416.738281 408.722656 425.183594 C 422.074219 452.835938 442.261719 494.636719 401.230469 541.683594 C 400.464844 542.53125 399.402344 542.976562 398.339844 542.976562 Z M 398.339844 542.976562 " fill-opacity="1" fill-rule="nonzero"/><g mask="url(#b6f731d68b)"><g transform="matrix(1, 0, 0, 1, 180, 435)"><g clip-path="url(#7b95c4d3f0)"><path fill="#1a1a5a" d="M 260.796875 2.429688 C 261.644531 74.128906 205.136719 140.632812 126.089844 144.601562 C 122.460938 144.792969 118.914062 144.878906 115.433594 144.855469 C 114.964844 144.855469 114.5 144.855469 114.03125 144.835938 C 112.335938 144.835938 110.65625 144.8125 109 144.75 C 109.066406 144.730469 109.109375 144.730469 109.171875 144.730469 C 53.8125 142.671875 18.746094 115.871094 1.636719 83.085938 C 103.292969 122.300781 172.894531 75.847656 207.515625 41.347656 C 224.285156 24.625 232.839844 10.726562 232.839844 10.726562 C 245.46875 16.964844 254.574219 11.066406 260.796875 2.429688 Z M 260.796875 2.429688 " fill-opacity="1" fill-rule="nonzero"/><g clip-path="url(#05ed5ca3bd)"><path fill="#102770" d="M 116.347656 145.40625 C 116.027344 145.40625 115.730469 145.40625 115.414062 145.40625 C 114.945312 145.40625 114.476562 145.40625 114.011719 145.386719 C 114.011719 145.386719 114.011719 145.386719 113.988281 145.386719 C 112.3125 145.386719 110.613281 145.367188 108.960938 145.300781 L 103.632812 145.109375 L 104.183594 145.027344 C 40.546875 140.929688 12.355469 104.855469 1.125 83.339844 L 0.46875 82.066406 L 1.804688 82.574219 C 104.394531 122.152344 174.464844 73.472656 207.089844 40.964844 C 223.628906 24.496094 232.246094 10.578125 232.332031 10.429688 L 232.585938 10.003906 L 233.03125 10.214844 C 243.515625 15.394531 252.707031 12.65625 260.328125 2.089844 L 261.285156 0.753906 L 261.304688 2.40625 C 261.730469 37.992188 248.398438 72.390625 223.777344 99.253906 C 198.410156 126.945312 163.703125 143.222656 126.089844 145.132812 C 122.757812 145.324219 119.488281 145.40625 116.347656 145.40625 Z M 111.867188 144.285156 C 112.589844 144.304688 113.3125 144.304688 114.03125 144.304688 C 114.5 144.324219 114.964844 144.324219 115.433594 144.324219 C 118.828125 144.347656 122.394531 144.261719 126.066406 144.070312 C 200.40625 140.335938 260.285156 77.675781 260.265625 4.042969 C 252.664062 13.738281 243.285156 16.285156 233.007812 11.425781 C 231.4375 13.867188 222.90625 26.769531 207.875 41.75 C 191.914062 57.664062 165.421875 79.011719 129.867188 90.40625 C 90.066406 103.136719 47.316406 101.039062 2.78125 84.144531 C 14.648438 106.128906 43.855469 141.78125 109.171875 144.21875 Z M 111.867188 144.285156 " fill-opacity="1" fill-rule="nonzero"/></g></g></g></g><path fill="#b5ea24" d="M 466.691406 389.472656 C 464.230469 391.191406 461.746094 392.824219 459.242188 394.375 L 384.714844 441.671875 L 346.164062 371.457031 L 381.0625 342.382812 L 409.996094 318.277344 C 416.128906 314.011719 421.753906 310.40625 426.023438 307.5625 C 447.546875 293.21875 517.53125 266.90625 529.480469 294.40625 C 541.433594 321.929688 507.957031 360.78125 466.691406 389.472656 Z M 466.691406 389.472656 " fill-opacity="1" fill-rule="nonzero"/><path fill="#102770" d="M 527.335938 294.425781 C 527.296875 294.320312 527.230469 294.214844 527.1875 294.109375 C 518.507812 320.953125 489.128906 351.019531 455.144531 374.957031 C 452.320312 376.929688 449.476562 378.839844 446.613281 380.621094 L 374.484375 427.007812 L 382.527344 441.671875 L 457.054688 394.375 C 459.558594 392.824219 462.042969 391.191406 464.507812 389.472656 C 505.8125 360.78125 539.308594 321.929688 527.335938 294.425781 Z M 527.335938 294.425781 " fill-opacity="0.2" fill-rule="nonzero"/><path fill="#ffffff" d="M 422.921875 324.410156 C 457.117188 299.394531 513.945312 276.453125 525.894531 303.957031 C 527.910156 308.601562 527.402344 315.625 524.300781 324.285156 C 530.011719 312.441406 531.605469 301.070312 527.296875 291.160156 C 515.34375 263.660156 445.359375 289.972656 423.835938 304.316406 C 419.570312 307.160156 413.945312 310.746094 407.808594 315.03125 L 378.875 339.136719 L 343.980469 368.210938 L 349.203125 377.714844 C 349.203125 377.695312 384.183594 352.761719 422.921875 324.410156 Z M 422.921875 324.410156 " fill-opacity="0.6" fill-rule="nonzero"/><path fill="#102770" d="M 384.691406 445.746094 C 384.351562 445.746094 384.011719 445.703125 383.675781 445.621094 C 382.589844 445.34375 381.65625 444.621094 381.125 443.644531 L 342.601562 373.40625 C 341.664062 371.710938 342.070312 369.566406 343.554688 368.335938 L 407.382812 315.160156 C 407.46875 315.097656 407.574219 315.011719 407.660156 314.945312 C 412.03125 311.890625 416.109375 309.21875 419.695312 306.863281 C 421.160156 305.90625 422.519531 305.015625 423.75 304.1875 C 442.046875 292.007812 491.824219 272.445312 517.765625 280.082031 C 525.300781 282.289062 530.480469 286.574219 533.195312 292.792969 C 546.824219 324.136719 508.957031 365.003906 468.984375 392.804688 C 466.4375 394.5625 463.871094 396.261719 461.34375 397.8125 L 386.859375 445.089844 C 386.222656 445.511719 385.457031 445.746094 384.691406 445.746094 Z M 351.324219 372.453125 L 386.179688 435.941406 L 457.054688 390.957031 C 459.496094 389.449219 461.9375 387.835938 464.359375 386.160156 C 499.976562 361.398438 537.441406 322.925781 525.746094 296.0625 C 524.027344 292.09375 520.671875 289.417969 515.472656 287.890625 C 492.863281 281.230469 446.144531 299.054688 428.25 310.980469 C 427 311.808594 425.617188 312.71875 424.152344 313.695312 C 420.652344 315.988281 416.683594 318.597656 412.4375 321.546875 Z M 466.691406 389.472656 Z M 466.691406 389.472656 " fill-opacity="1" fill-rule="nonzero"/><path fill="#102770" d="M 381.0625 346.457031 C 379.980469 346.457031 378.898438 346.035156 378.113281 345.183594 C 376.648438 343.636719 376.625 341.195312 378.089844 339.625 C 385.542969 331.667969 395.222656 323.605469 407.660156 314.96875 C 409.445312 313.738281 411.882812 314.121094 413.199219 315.839844 C 414.515625 317.578125 414.242188 320.019531 412.5625 321.417969 L 383.632812 345.523438 C 382.910156 346.140625 381.976562 346.457031 381.0625 346.457031 Z M 381.0625 346.457031 " fill-opacity="1" fill-rule="nonzero"/><path fill="#b5ea24" d="M 462.214844 621.660156 C 462.066406 622 461.917969 622.359375 461.769531 622.699219 C 461.769531 622.699219 461.769531 622.699219 461.769531 622.71875 C 457.925781 631.082031 452.152344 636.578125 448.523438 639.441406 C 448.160156 639.71875 447.820312 639.972656 447.523438 640.207031 C 446.144531 641.222656 444.660156 642.007812 443.066406 642.605469 C 442.367188 642.859375 441.496094 643.15625 440.5 643.496094 C 435.277344 645.214844 426.234375 647.738281 415.960938 648.4375 C 413.644531 648.609375 411.269531 648.671875 408.871094 648.609375 C 402.417969 648.460938 395.730469 647.441406 389.425781 644.960938 C 389.277344 644.917969 389.109375 644.832031 388.960938 644.769531 C 363.847656 634.605469 335.320312 543.929688 335.320312 543.929688 L 383.675781 496.058594 L 386.261719 493.511719 C 386.261719 493.511719 393.394531 499.6875 403.371094 509.34375 C 423.324219 528.632812 454.613281 561.734375 462.785156 586.648438 C 462.914062 586.988281 463.019531 587.347656 463.125 587.6875 C 467.457031 601.925781 465.84375 613.214844 462.214844 621.660156 Z M 462.214844 621.660156 " fill-opacity="1" fill-rule="nonzero"/><path fill="#ffffff" d="M 462.214844 621.660156 C 458.03125 600.015625 447.417969 579.410156 434.765625 561.078125 C 422.476562 543.273438 408.167969 526.996094 394.777344 510.023438 C 392.269531 506.859375 386.199219 501.195312 383.675781 496.058594 L 386.261719 493.511719 C 386.261719 493.511719 393.394531 499.6875 403.371094 509.34375 C 423.324219 528.632812 454.613281 561.734375 462.785156 586.648438 C 462.914062 586.988281 463.019531 587.347656 463.125 587.6875 C 467.457031 601.925781 465.84375 613.214844 462.214844 621.660156 Z M 462.214844 621.660156 " fill-opacity="0.6" fill-rule="nonzero"/><path fill="#102770" d="M 461.769531 622.699219 C 457.925781 631.058594 452.152344 636.578125 448.523438 639.441406 C 448.160156 639.71875 447.820312 639.972656 447.523438 640.207031 C 446.144531 641.222656 444.660156 642.007812 443.066406 642.605469 C 442.367188 642.859375 441.496094 643.15625 440.5 643.496094 C 435.277344 645.214844 426.234375 647.738281 415.960938 648.4375 C 413.644531 648.609375 411.269531 648.671875 408.871094 648.609375 C 402.417969 648.460938 395.730469 647.441406 389.425781 644.960938 C 389.277344 644.917969 389.109375 644.832031 388.960938 644.769531 C 363.847656 634.605469 335.320312 543.929688 335.320312 543.929688 L 386.242188 493.511719 C 386.242188 493.511719 393.375 499.6875 403.351562 509.34375 C 404.433594 518.488281 399.296875 530.074219 391.953125 540.195312 C 378.199219 559.167969 379.300781 585.417969 395.347656 602.476562 C 409.082031 617.078125 430.605469 621.765625 462.746094 586.667969 C 462.871094 587.007812 462.976562 587.367188 463.082031 587.707031 C 467.625 602.519531 465.714844 614.125 461.769531 622.699219 Z M 461.769531 622.699219 " fill-opacity="0.2" fill-rule="nonzero"/><path fill="#102770" d="M 410.546875 652.683594 C 409.953125 652.683594 409.359375 652.683594 408.765625 652.660156 C 401.164062 652.492188 394.160156 651.175781 387.984375 648.757812 C 387.792969 648.695312 387.621094 648.628906 387.429688 648.546875 C 361.257812 637.957031 334.40625 554.625 331.414062 545.140625 C 330.96875 543.699219 331.347656 542.105469 332.433594 541.046875 L 383.355469 490.625 C 384.863281 489.140625 387.261719 489.054688 388.875 490.4375 C 391.589844 492.792969 455.378906 548.429688 466.945312 586.476562 C 471.128906 600.207031 470.640625 612.917969 465.484375 624.226562 C 465.460938 624.289062 465.441406 624.332031 465.417969 624.398438 C 461.34375 633.289062 455.316406 639.207031 450.984375 642.625 C 450.707031 642.835938 450.433594 643.050781 450.179688 643.242188 L 449.921875 643.429688 C 448.226562 644.683594 446.378906 645.679688 444.425781 646.402344 C 443.726562 646.65625 442.8125 646.976562 441.75 647.335938 C 435.871094 649.289062 426.679688 651.769531 416.214844 652.472656 C 414.324219 652.621094 412.414062 652.683594 410.546875 652.683594 Z M 339.945312 545.054688 C 348.4375 571.347656 371.914062 633.480469 390.464844 640.992188 C 390.59375 641.054688 390.679688 641.074219 390.765625 641.117188 C 390.804688 641.140625 390.847656 641.140625 390.890625 641.160156 C 396.199219 643.242188 402.269531 644.363281 408.957031 644.535156 C 411.121094 644.578125 413.390625 644.535156 415.664062 644.363281 C 425.789062 643.664062 434.746094 641.097656 439.183594 639.613281 C 440.136719 639.292969 440.945312 639.015625 441.601562 638.761719 C 442.855469 638.296875 444.023438 637.679688 445.0625 636.894531 L 445.316406 636.703125 C 445.527344 636.554688 445.742188 636.386719 445.953125 636.214844 C 448.902344 633.902344 454.359375 628.851562 457.96875 621.128906 C 457.988281 621.085938 458.011719 621.023438 458.03125 620.980469 C 462.40625 611.496094 462.785156 600.671875 459.179688 588.832031 C 449.605469 557.34375 398.9375 510.339844 386.371094 499.050781 Z M 461.769531 622.699219 Z M 461.769531 622.699219 " fill-opacity="1" fill-rule="nonzero"/><path fill="#ffffff" d="M 441.050781 639.546875 C 441.050781 640.90625 440.859375 642.222656 440.5 643.472656 C 435.296875 645.191406 426.234375 647.71875 415.960938 648.417969 C 414.007812 646 412.820312 642.921875 412.820312 639.546875 C 412.820312 631.761719 419.144531 625.4375 426.933594 625.4375 C 432.285156 625.4375 436.910156 628.40625 439.308594 632.757812 C 439.375 632.90625 439.457031 633.054688 439.542969 633.203125 C 440.5 635.113281 441.050781 637.277344 441.050781 639.546875 Z M 441.050781 639.546875 " fill-opacity="1" fill-rule="nonzero"/><path fill="#102770" d="M 415.707031 648.992188 L 415.535156 648.777344 C 413.414062 646.125 412.289062 642.941406 412.289062 639.570312 C 412.289062 631.484375 418.867188 624.925781 426.933594 624.925781 C 432.285156 624.925781 437.207031 627.835938 439.796875 632.546875 C 439.882812 632.714844 439.945312 632.84375 440.011719 632.992188 C 441.050781 635.027344 441.582031 637.296875 441.582031 639.589844 C 441.582031 640.96875 441.390625 642.347656 441.007812 643.664062 L 440.921875 643.941406 L 440.648438 644.027344 C 436 645.574219 426.617188 648.269531 415.980469 648.992188 Z M 426.933594 625.988281 C 419.460938 625.988281 413.371094 632.078125 413.371094 639.546875 C 413.371094 642.582031 414.347656 645.445312 416.214844 647.867188 C 426.402344 647.125 435.402344 644.578125 440.050781 643.050781 C 440.351562 641.902344 440.519531 640.738281 440.519531 639.546875 C 440.519531 637.40625 440.03125 635.347656 439.078125 633.457031 C 438.992188 633.308594 438.90625 633.160156 438.84375 632.992188 C 436.445312 628.683594 431.878906 625.988281 426.933594 625.988281 Z M 426.933594 625.988281 " fill-opacity="1" fill-rule="nonzero"/><path fill="#ffffff" d="M 461.769531 622.699219 C 457.925781 631.058594 452.152344 636.578125 448.523438 639.421875 C 444.660156 638.847656 441.367188 636.492188 439.5625 633.222656 C 439.5625 633.222656 439.5625 633.203125 439.5625 633.203125 C 439.480469 633.054688 439.414062 632.90625 439.332031 632.757812 C 439.308594 632.757812 439.308594 632.738281 439.308594 632.714844 C 438.480469 631.058594 438.015625 629.191406 438.015625 627.21875 C 438.015625 620.429688 443.535156 614.910156 450.328125 614.910156 C 455.503906 614.933594 459.941406 618.136719 461.769531 622.699219 Z M 461.769531 622.699219 " fill-opacity="1" fill-rule="nonzero"/><path fill="#102770" d="M 448.671875 639.992188 L 448.4375 639.953125 C 444.53125 639.378906 441.050781 636.980469 439.117188 633.542969 L 439.011719 633.4375 L 439.011719 633.351562 C 438.96875 633.289062 438.949219 633.222656 438.90625 633.160156 L 438.777344 633.097656 L 438.757812 632.863281 C 437.910156 631.125 437.464844 629.191406 437.464844 627.21875 C 437.464844 620.132812 443.238281 614.359375 450.328125 614.359375 C 455.632812 614.359375 460.324219 617.542969 462.277344 622.464844 L 462.320312 622.804688 L 462.277344 622.910156 C 458.476562 631.167969 452.894531 636.664062 448.882812 639.824219 Z M 440.074219 633.074219 C 441.8125 636.132812 444.890625 638.273438 448.351562 638.847656 C 451.578125 636.28125 457.332031 630.890625 461.152344 622.679688 C 459.304688 618.285156 455.058594 615.464844 450.285156 615.464844 C 443.789062 615.464844 438.503906 620.746094 438.503906 627.242188 C 438.503906 629.023438 438.90625 630.785156 439.691406 632.375 L 439.714844 632.375 L 439.796875 632.566406 C 439.863281 632.695312 439.925781 632.820312 439.988281 632.949219 Z M 440.074219 633.074219 " fill-opacity="1" fill-rule="nonzero"/><path fill="#ffffff" d="M 412.820312 639.546875 C 412.820312 643.113281 411.289062 646.339844 408.871094 648.585938 C 402.417969 648.4375 395.730469 647.421875 389.425781 644.9375 C 388.640625 643.304688 388.195312 641.480469 388.195312 639.546875 C 388.195312 632.757812 393.691406 627.242188 400.507812 627.242188 C 407.300781 627.242188 412.820312 632.757812 412.820312 639.546875 Z M 412.820312 639.546875 " fill-opacity="1" fill-rule="nonzero"/><path fill="#102770" d="M 409.082031 649.140625 L 408.871094 649.140625 C 401.652344 648.96875 395.050781 647.738281 389.234375 645.445312 L 389.042969 645.363281 L 388.960938 645.171875 C 388.109375 643.410156 387.664062 641.523438 387.664062 639.546875 C 387.664062 632.460938 393.4375 626.6875 400.527344 626.6875 C 407.617188 626.6875 413.390625 632.460938 413.390625 639.546875 C 413.390625 643.113281 411.882812 646.550781 409.273438 648.992188 Z M 389.828125 644.511719 C 395.414062 646.679688 401.738281 647.867188 408.65625 648.035156 C 410.972656 645.828125 412.289062 642.730469 412.289062 639.546875 C 412.289062 633.054688 407.003906 627.769531 400.507812 627.769531 C 394.011719 627.769531 388.726562 633.054688 388.726562 639.546875 C 388.726562 641.289062 389.085938 642.964844 389.828125 644.511719 Z M 389.828125 644.511719 " fill-opacity="1" fill-rule="nonzero"/><path fill="#102770" d="M 415.960938 652.214844 C 414.8125 652.214844 413.730469 651.707031 413.007812 650.792969 C 410.441406 647.613281 409.039062 643.621094 409.039062 639.546875 C 409.039062 629.679688 417.085938 621.636719 426.957031 621.636719 C 433.492188 621.636719 439.5 625.203125 442.664062 630.933594 C 442.726562 631.039062 442.769531 631.125 442.8125 631.230469 L 442.875 631.335938 C 442.898438 631.378906 442.917969 631.421875 442.941406 631.464844 C 444.191406 633.925781 444.851562 636.726562 444.851562 639.527344 C 444.851562 641.222656 444.617188 642.902344 444.148438 644.511719 C 443.808594 645.703125 442.875 646.65625 441.707031 647.058594 C 435.851562 649.011719 426.679688 651.472656 416.234375 652.195312 C 416.128906 652.214844 416.046875 652.214844 415.960938 652.214844 Z M 426.933594 629.257812 C 421.246094 629.257812 416.617188 633.882812 416.617188 639.570312 C 416.617188 641.308594 417.042969 642.984375 417.847656 644.472656 C 425.722656 643.707031 432.730469 641.925781 437.1875 640.546875 C 437.207031 640.226562 437.230469 639.886719 437.230469 639.570312 C 437.230469 637.957031 436.867188 636.40625 436.167969 635.007812 C 436.082031 634.835938 436 634.6875 435.914062 634.519531 C 434.085938 631.25 430.648438 629.257812 426.933594 629.257812 Z M 440.476562 643.472656 Z M 440.476562 643.472656 " fill-opacity="1" fill-rule="nonzero"/><path fill="#102770" d="M 448.523438 643.21875 C 448.332031 643.21875 448.160156 643.199219 447.96875 643.175781 C 443.046875 642.457031 438.652344 639.421875 436.230469 635.070312 C 436.210938 635.050781 436.210938 635.027344 436.1875 635.007812 C 436.082031 634.835938 436 634.667969 435.914062 634.476562 C 435.914062 634.457031 435.890625 634.457031 435.890625 634.433594 C 434.789062 632.226562 434.195312 629.746094 434.195312 627.242188 C 434.195312 618.347656 441.433594 611.132812 450.304688 611.132812 C 456.949219 611.132812 462.828125 615.125 465.292969 621.300781 C 465.460938 621.746094 465.566406 622.234375 465.566406 622.699219 C 465.566406 623.25 465.441406 623.78125 465.226562 624.289062 C 461.171875 633.140625 455.1875 639.015625 450.878906 642.414062 C 450.199219 642.941406 449.371094 643.21875 448.523438 643.21875 Z M 442.898438 631.421875 C 443.914062 633.246094 445.613281 634.625 447.546875 635.28125 C 450.410156 632.820312 454.464844 628.621094 457.523438 622.699219 C 455.972656 620.238281 453.296875 618.710938 450.304688 618.710938 C 445.613281 618.710938 441.792969 622.53125 441.792969 627.21875 C 441.792969 628.492188 442.089844 629.765625 442.640625 630.910156 C 442.707031 631.019531 442.75 631.125 442.8125 631.230469 L 442.875 631.335938 C 442.875 631.378906 442.875 631.398438 442.898438 631.421875 Z M 442.898438 631.421875 " fill-opacity="1" fill-rule="nonzero"/><path fill="#102770" d="M 408.871094 652.386719 C 408.847656 652.386719 408.804688 652.386719 408.785156 652.386719 C 401.1875 652.214844 394.203125 650.902344 388.046875 648.480469 C 387.15625 648.140625 386.433594 647.464844 386.007812 646.59375 C 384.925781 644.386719 384.394531 642.007812 384.394531 639.546875 C 384.394531 630.65625 391.632812 623.441406 400.507812 623.441406 C 409.378906 623.441406 416.617188 630.679688 416.617188 639.546875 C 416.617188 644.027344 414.730469 648.332031 411.4375 651.367188 C 410.738281 652.023438 409.824219 652.386719 408.871094 652.386719 Z M 392.335938 641.96875 C 396.835938 643.539062 401.84375 644.472656 407.277344 644.726562 C 408.425781 643.242188 409.039062 641.457031 409.039062 639.546875 C 409.039062 634.859375 405.21875 631.039062 400.527344 631.039062 C 395.835938 631.039062 392.015625 634.859375 392.015625 639.546875 C 391.996094 640.398438 392.101562 641.203125 392.335938 641.96875 Z M 392.335938 641.96875 " fill-opacity="1" fill-rule="nonzero"/><path fill="#b5ea24" d="M 279.832031 634.792969 C 279.195312 649.246094 261.300781 653.722656 253.785156 653.722656 L 202.269531 653.722656 C 202.054688 653.722656 201.867188 653.722656 201.675781 653.703125 C 199.425781 653.636719 197.28125 653.128906 195.285156 652.238281 C 194.222656 651.769531 193.203125 651.175781 192.25 650.496094 C 190.167969 649.011719 188.40625 647.039062 187.132812 644.703125 C 185.160156 641.054688 183.484375 637.40625 182.082031 633.753906 C 169.28125 600.738281 178.089844 568.375 187.792969 546.964844 C 194.839844 531.367188 202.375 521.585938 202.375 521.585938 L 203.289062 522.136719 L 273.546875 565.234375 C 273.546875 565.234375 257.714844 577.902344 270.554688 605.703125 C 277.285156 620.300781 280.257812 625.035156 279.832031 634.792969 Z M 279.832031 634.792969 " fill-opacity="1" fill-rule="nonzero"/><path fill="#ffffff" d="M 191.082031 623.335938 C 193.164062 633.902344 196.960938 644.003906 201.675781 653.722656 C 199.425781 653.660156 197.28125 653.148438 195.285156 652.257812 C 194.222656 651.792969 193.203125 651.199219 192.25 650.519531 C 190.167969 649.035156 188.40625 647.058594 187.132812 644.726562 C 185.160156 641.074219 183.484375 637.425781 182.082031 633.777344 C 169.28125 600.757812 178.089844 568.398438 187.792969 546.988281 C 194.839844 531.390625 202.375 521.609375 202.375 521.609375 L 203.289062 522.160156 C 197.683594 536.292969 193.691406 551.0625 191.335938 566.085938 C 189.722656 576.332031 188.894531 586.710938 188.875 597.109375 C 188.832031 605.894531 189.363281 614.722656 191.082031 623.335938 Z M 191.082031 623.335938 " fill-opacity="0.6" fill-rule="nonzero"/><path fill="#102770" d="M 279.832031 634.792969 C 279.195312 649.246094 261.300781 653.722656 253.785156 653.722656 L 207.53125 653.722656 C 275.839844 624.25 208.59375 563.792969 187.769531 546.964844 C 194.816406 531.367188 202.355469 521.585938 202.355469 521.585938 L 273.507812 565.214844 C 273.507812 565.214844 257.671875 577.882812 270.511719 605.679688 C 277.285156 620.300781 280.257812 625.035156 279.832031 634.792969 Z M 279.832031 634.792969 " fill-opacity="0.2" fill-rule="nonzero"/><path fill="#102770" d="M 253.785156 657.796875 L 202.269531 657.796875 C 199.296875 657.796875 196.390625 657.183594 193.652344 655.972656 C 192.3125 655.378906 191.039062 654.65625 189.871094 653.808594 C 187.28125 651.960938 185.097656 649.480469 183.566406 646.636719 C 181.574219 642.941406 179.808594 639.125 178.304688 635.21875 C 168.898438 610.964844 169.515625 583.167969 180.128906 554.859375 C 188.089844 533.617188 198.703125 519.699219 199.148438 519.105469 C 200.421875 517.449219 202.714844 517.023438 204.496094 518.128906 L 275.671875 561.777344 C 276.796875 562.476562 277.519531 563.664062 277.601562 564.980469 C 277.6875 566.296875 277.113281 567.570312 276.074219 568.398438 C 275.566406 568.820312 263 579.664062 274.25 603.960938 C 275.121094 605.828125 275.90625 607.527344 276.648438 609.117188 C 281.761719 619.984375 284.332031 625.4375 283.90625 634.945312 C 283.121094 652.214844 263.273438 657.796875 253.785156 657.796875 Z M 203.480469 527.0625 C 195.414062 539.070312 167.691406 585.4375 185.859375 632.289062 C 187.238281 635.855469 188.875 639.378906 190.699219 642.773438 C 191.65625 644.554688 192.972656 646.042969 194.585938 647.1875 C 195.304688 647.71875 196.089844 648.164062 196.917969 648.523438 C 198.617188 649.265625 200.402344 649.648438 202.246094 649.648438 L 253.785156 649.648438 C 259.476562 649.648438 275.269531 646.082031 275.757812 634.605469 C 276.097656 627.09375 274.226562 623.144531 269.261719 612.597656 C 268.519531 611.007812 267.710938 609.289062 266.839844 607.398438 C 256.90625 585.925781 262.742188 572.429688 267.265625 566.167969 Z M 203.480469 527.0625 " fill-opacity="1" fill-rule="nonzero"/><path fill="#ffd54f" d="M 282.527344 579.367188 C 197.257812 572.960938 162.894531 506.160156 170.023438 453.917969 C 170.152344 453.089844 170.257812 452.261719 170.386719 451.433594 C 176.859375 406.574219 192.25 370.988281 215.34375 346.011719 L 215.367188 346.011719 C 246.015625 318.894531 320.121094 319.953125 360.875 376.484375 C 366.714844 384.589844 371.871094 393.84375 376.117188 404.304688 C 411.140625 490.648438 372.785156 566.445312 282.527344 579.367188 Z M 282.527344 579.367188 " fill-opacity="1" fill-rule="nonzero"/><path fill="#ffffff" d="M 291.210938 576.652344 C 205.941406 570.242188 171.574219 503.445312 178.707031 451.199219 C 178.835938 450.371094 178.941406 449.546875 179.066406 448.71875 C 185.542969 403.859375 200.929688 368.273438 224.027344 343.296875 C 229.417969 338.523438 236.167969 334.640625 243.851562 331.753906 C 232.558594 334.640625 222.6875 339.519531 215.34375 346.011719 L 215.324219 346.011719 C 192.226562 371.011719 176.839844 406.574219 170.363281 451.453125 C 170.238281 452.28125 170.132812 453.089844 170.003906 453.9375 C 162.871094 506.179688 197.257812 572.980469 282.507812 579.390625 C 293.121094 577.863281 302.992188 575.464844 312.140625 572.300781 C 305.515625 574.128906 298.53125 575.589844 291.210938 576.652344 Z M 291.210938 576.652344 " fill-opacity="0.6" fill-rule="nonzero"/><path fill="#102770" d="M 376.667969 404.304688 C 372.421875 393.84375 367.265625 384.589844 361.429688 376.484375 C 360.34375 374.976562 359.21875 373.515625 358.074219 372.070312 C 388.027344 455.824219 381.167969 557.574219 273.507812 565.234375 C 234.9375 567.972656 188.109375 536.3125 176.222656 504.609375 C 189.722656 541.851562 224.300781 574.933594 283.058594 579.367188 C 373.335938 566.445312 411.695312 490.648438 376.667969 404.304688 Z M 376.667969 404.304688 " fill-opacity="0.2" fill-rule="nonzero"/><path fill="#102770" d="M 360.875 376.484375 C 341.15625 406.300781 299.617188 436.261719 247.90625 448.738281 C 220.585938 455.339844 193.988281 457.097656 170.363281 454.703125 C 176.839844 409.84375 192.226562 371.011719 215.324219 346.011719 L 215.34375 346.011719 C 246.015625 318.894531 320.121094 319.953125 360.875 376.484375 Z M 360.875 376.484375 " fill-opacity="0.2" fill-rule="nonzero"/><path fill="#102770" d="M 282.527344 583.421875 C 282.421875 583.421875 282.316406 583.421875 282.230469 583.398438 C 233.175781 579.707031 205.199219 557.085938 190.359375 538.753906 C 171.042969 514.921875 161.957031 483.007812 165.992188 453.363281 C 172.359375 406.679688 187.960938 369.628906 212.351562 343.253906 C 212.5 343.085938 212.648438 342.957031 212.820312 342.808594 C 231.605469 326.34375 263.890625 320.441406 295.15625 327.785156 C 317.574219 333.046875 358.414062 349.8125 379.894531 402.753906 C 398.085938 447.613281 397.40625 490.964844 377.964844 524.789062 C 359.773438 556.410156 326.085938 577.226562 283.101562 583.378906 C 282.910156 583.421875 282.71875 583.421875 282.527344 583.421875 Z M 218.144531 348.960938 C 195.007812 374.085938 180.171875 409.589844 174.058594 454.46875 C 170.300781 481.925781 178.769531 511.527344 196.664062 533.660156 C 210.441406 550.699219 236.507812 571.707031 282.378906 575.273438 C 322.625 569.417969 354.0625 550.0625 370.894531 520.738281 C 389.066406 489.121094 389.597656 448.3125 372.339844 405.8125 C 352.238281 356.242188 314.175781 340.601562 293.269531 335.699219 C 264.484375 328.929688 235.023438 334.128906 218.144531 348.960938 Z M 218.144531 348.960938 " fill-opacity="1" fill-rule="nonzero"/><path fill="#102770" d="M 251.472656 442.351562 C 253.296875 453.386719 255.25 464.398438 257.542969 475.304688 C 259.792969 486.214844 262.425781 497.015625 265.523438 507.667969 C 268.6875 518.277344 272.402344 528.738281 277.136719 538.691406 C 281.804688 548.664062 287.644531 558.085938 295.074219 566.316406 L 295.09375 566.339844 C 295.496094 566.785156 295.453125 567.464844 295.007812 567.867188 C 294.605469 568.226562 293.988281 568.226562 293.585938 567.886719 C 284.734375 560.589844 277.792969 551.144531 272.339844 541.109375 C 270.9375 538.605469 269.707031 536.039062 268.433594 533.46875 C 267.265625 530.859375 266.078125 528.25 265.035156 525.597656 C 263.933594 522.964844 262.957031 520.292969 261.980469 517.617188 C 261.066406 514.921875 260.15625 512.230469 259.347656 509.492188 C 255.953125 498.625 253.574219 487.507812 251.832031 476.304688 C 251.003906 470.703125 250.328125 465.078125 249.878906 459.433594 C 249.457031 453.789062 249.136719 448.144531 249.285156 442.457031 C 249.308594 441.863281 249.796875 441.375 250.410156 441.398438 C 250.964844 441.4375 251.386719 441.84375 251.472656 442.351562 Z M 251.472656 442.351562 " fill-opacity="1" fill-rule="nonzero"/><path fill="#102770" d="M 196.769531 485.152344 C 199.996094 485.851562 203.414062 486.296875 206.769531 486.617188 C 210.144531 486.957031 213.519531 487.125 216.914062 487.1875 C 218.59375 487.253906 220.289062 487.210938 221.988281 487.230469 C 223.6875 487.167969 225.363281 487.148438 227.0625 487.0625 C 230.4375 486.914062 233.8125 486.679688 237.164062 486.296875 C 238.84375 486.128906 240.519531 485.957031 242.195312 485.726562 C 243.875 485.511719 245.550781 485.300781 247.207031 485.003906 C 248.863281 484.707031 250.539062 484.472656 252.195312 484.132812 C 253.851562 483.792969 255.527344 483.539062 257.160156 483.15625 L 262.105469 482.054688 L 267.011719 480.78125 C 268.644531 480.378906 270.257812 479.867188 271.894531 479.421875 C 273.527344 478.976562 275.140625 478.488281 276.753906 477.957031 C 283.226562 475.964844 289.53125 473.480469 295.835938 470.957031 C 298.9375 469.597656 302.097656 468.304688 305.132812 466.816406 L 309.761719 464.675781 L 314.304688 462.363281 C 326.445312 456.1875 338.164062 449.121094 349.625 441.585938 C 350.136719 441.246094 350.792969 441.398438 351.132812 441.90625 C 351.429688 442.371094 351.34375 442.988281 350.921875 443.328125 C 340.351562 452.238281 328.910156 460.175781 316.832031 467.074219 C 304.773438 473.992188 291.996094 479.785156 278.6875 484.089844 C 265.417969 488.484375 251.558594 491.261719 237.570312 492.113281 C 230.5625 492.472656 223.539062 492.453125 216.574219 491.6875 C 213.09375 491.347656 209.632812 490.796875 206.195312 490.097656 C 202.757812 489.375 199.402344 488.527344 196.027344 487.230469 C 195.476562 487.019531 195.179688 486.382812 195.414062 485.832031 C 195.601562 485.320312 196.132812 485.046875 196.664062 485.152344 Z M 196.769531 485.152344 " fill-opacity="1" fill-rule="nonzero"/><path fill="#102770" d="M 215.621094 536.78125 C 218.933594 537.3125 222.414062 537.628906 225.832031 537.820312 C 229.246094 538.054688 232.6875 538.054688 236.105469 538.054688 C 242.960938 537.945312 249.796875 537.480469 256.566406 536.546875 C 270.109375 534.765625 283.375 531.261719 296.199219 526.507812 C 297.8125 525.914062 299.359375 525.238281 300.953125 524.621094 L 303.328125 523.644531 L 305.664062 522.582031 C 307.214844 521.863281 308.804688 521.226562 310.335938 520.484375 L 314.941406 518.234375 C 321.035156 515.09375 327.019531 511.761719 332.792969 508.027344 C 344.382812 500.664062 355.335938 492.21875 365.800781 483.09375 C 366.246094 482.691406 366.945312 482.753906 367.328125 483.199219 C 367.691406 483.625 367.691406 484.238281 367.308594 484.644531 C 357.90625 495.019531 347.269531 504.355469 335.742188 512.460938 C 332.898438 514.542969 329.886719 516.386719 326.933594 518.320312 C 325.449219 519.292969 323.878906 520.101562 322.371094 521.011719 C 320.84375 521.882812 319.335938 522.816406 317.742188 523.601562 C 311.542969 527.019531 305.050781 529.882812 298.46875 532.492188 C 285.246094 537.609375 271.320312 540.980469 257.183594 542.277344 C 250.113281 542.890625 243.003906 542.976562 235.957031 542.488281 C 228.886719 541.9375 221.902344 541.003906 215.046875 538.839844 C 214.472656 538.648438 214.15625 538.054688 214.347656 537.480469 C 214.515625 536.949219 215.027344 536.652344 215.558594 536.738281 Z M 215.621094 536.78125 " fill-opacity="1" fill-rule="nonzero"/><path fill="#b5ea24" d="M 365.609375 298.015625 C 358.625 390.320312 291.210938 410.777344 258.859375 418.183594 C 163.761719 439.953125 142.113281 393.609375 137.292969 375.125 C 136.167969 370.777344 135.976562 367.953125 135.976562 367.953125 C 135.976562 367.953125 65.101562 329.398438 86.625 228.074219 C 108.167969 126.726562 213.984375 114.820312 267.542969 131.820312 C 317.171875 147.566406 353.46875 198.683594 363.382812 254.851562 C 365.886719 269.070312 366.714844 283.625 365.609375 298.015625 Z M 365.609375 298.015625 " fill-opacity="1" fill-rule="nonzero"/><path fill="#102770" d="M 365.609375 298.015625 C 358.625 390.320312 291.210938 410.777344 258.859375 418.183594 C 163.761719 439.953125 142.113281 393.609375 137.292969 375.125 C 170.34375 388.132812 209.847656 391.507812 260.367188 382.914062 C 336.273438 369.992188 357.226562 301.386719 363.382812 254.851562 C 365.886719 269.070312 366.714844 283.625 365.609375 298.015625 Z M 365.609375 298.015625 " fill-opacity="0.2" fill-rule="nonzero"/><path fill="#ffffff" d="M 365.695312 294.617188 C 361.46875 231.296875 322.753906 169.972656 267.542969 152.445312 C 259.136719 149.769531 249.433594 147.820312 238.96875 146.820312 C 238.96875 151.871094 226.742188 156.859375 211.355469 158.027344 C 195.710938 159.191406 182.738281 155.988281 182.335938 150.855469 C 139.839844 161.292969 99.085938 190.003906 86.601562 248.699219 C 84.714844 257.609375 83.546875 266.054688 82.972656 274.015625 C 81.890625 259.859375 82.78125 243.859375 86.601562 225.910156 C 108.167969 124.5625 213.964844 112.65625 267.542969 129.632812 C 329.375 149.261719 370.511719 223.828125 365.695312 294.617188 Z M 365.695312 294.617188 " fill-opacity="0.6" fill-rule="nonzero"/><path fill="#102770" d="M 213.457031 427.964844 C 190.507812 427.964844 171.828125 422.679688 157.605469 412.132812 C 137.738281 397.40625 133.175781 377.101562 132.175781 370.414062 C 127.082031 367.253906 112.585938 357.152344 99.871094 338.269531 C 85.710938 317.261719 71.257812 280.953125 82.675781 227.203125 C 90.679688 189.453125 111.4375 159.871094 142.664062 141.6875 C 183.972656 117.664062 235.765625 117.476562 268.773438 127.9375 C 299.382812 137.65625 326.617188 160.976562 345.445312 193.589844 C 363.785156 225.355469 372.382812 262.554688 369.664062 298.3125 C 366.566406 339.414062 351.304688 371.308594 324.300781 393.078125 C 302.183594 410.925781 276.882812 418.203125 259.773438 422.128906 C 242.8125 426.011719 227.359375 427.964844 213.457031 427.964844 Z M 222.625 129.421875 C 197.789062 129.421875 170.449219 134.9375 146.761719 148.710938 C 117.148438 165.941406 98.257812 192.933594 90.613281 228.902344 C 79.789062 279.847656 93.332031 314.035156 106.597656 333.746094 C 120.90625 354.988281 137.738281 364.304688 137.910156 364.390625 C 139.117188 365.046875 139.925781 366.300781 140.011719 367.679688 C 140.03125 367.890625 141.964844 390.53125 162.554688 405.703125 C 183.398438 421.066406 215.492188 423.933594 257.945312 414.214844 C 281.804688 408.761719 354.402344 392.125 361.554688 297.695312 C 367.03125 225.527344 325.195312 154.355469 266.308594 135.679688 C 253.957031 131.753906 238.820312 129.421875 222.625 129.421875 Z M 222.625 129.421875 " fill-opacity="1" fill-rule="nonzero"/><path fill="#ffffff" d="M 240.964844 648.183594 C 240.964844 650.199219 240.285156 652.089844 239.117188 653.722656 L 216.40625 653.722656 C 215.238281 652.109375 214.558594 650.199219 214.558594 648.183594 C 214.558594 642.179688 220.460938 637.320312 227.761719 637.320312 C 235.0625 637.339844 240.964844 642.199219 240.964844 648.183594 Z M 240.964844 648.183594 " fill-opacity="1" fill-rule="nonzero"/><path fill="#102770" d="M 239.394531 654.273438 L 216.152344 654.273438 L 215.980469 654.042969 C 214.707031 652.28125 214.027344 650.265625 214.027344 648.183594 C 214.027344 641.902344 220.207031 636.769531 227.785156 636.769531 C 235.363281 636.769531 241.515625 641.882812 241.515625 648.183594 C 241.515625 650.265625 240.839844 652.28125 239.5625 654.042969 Z M 216.703125 653.191406 L 238.84375 653.191406 C 239.882812 651.6875 240.414062 649.96875 240.414062 648.207031 C 240.414062 642.519531 234.746094 637.894531 227.761719 637.894531 C 220.777344 637.894531 215.109375 642.519531 215.109375 648.207031 C 215.109375 649.945312 215.664062 651.664062 216.703125 653.191406 Z M 216.703125 653.191406 " fill-opacity="1" fill-rule="nonzero"/><path fill="#ffffff" d="M 194.179688 643.578125 C 194.179688 646.210938 193.4375 648.628906 192.226562 650.496094 C 190.148438 649.011719 188.386719 647.039062 187.113281 644.703125 C 185.136719 641.054688 183.460938 637.40625 182.0625 633.753906 C 183.164062 633.074219 184.394531 632.714844 185.691406 632.714844 C 190.382812 632.714844 194.179688 637.574219 194.179688 643.578125 Z M 194.179688 643.578125 " fill-opacity="1" fill-rule="nonzero"/><path fill="#102770" d="M 192.398438 651.28125 L 191.929688 650.941406 C 189.722656 649.371094 187.941406 647.355469 186.667969 644.960938 C 184.734375 641.394531 183.035156 637.703125 181.574219 633.945312 L 181.402344 633.523438 L 181.785156 633.289062 C 182.996094 632.546875 184.351562 632.164062 185.710938 632.164062 C 190.679688 632.164062 194.734375 637.277344 194.734375 643.578125 C 194.734375 646.191406 194.011719 648.757812 192.695312 650.792969 Z M 182.738281 634.007812 C 184.140625 637.574219 185.773438 641.074219 187.601562 644.449219 C 188.726562 646.53125 190.210938 648.289062 192.078125 649.710938 C 193.097656 647.929688 193.628906 645.765625 193.628906 643.578125 C 193.628906 637.894531 190.0625 633.265625 185.691406 633.265625 C 184.691406 633.265625 183.695312 633.523438 182.738281 634.007812 Z M 182.738281 634.007812 " fill-opacity="1" fill-rule="nonzero"/><path fill="#ffffff" d="M 213.835938 646.445312 C 213.835938 649.160156 213.15625 651.664062 212.03125 653.722656 L 202.246094 653.722656 C 199.804688 653.722656 197.429688 653.214844 195.265625 652.238281 C 194.5625 650.496094 194.160156 648.523438 194.160156 646.421875 C 194.160156 639.464844 198.554688 633.820312 203.988281 633.820312 C 209.441406 633.839844 213.835938 639.484375 213.835938 646.445312 Z M 213.835938 646.445312 " fill-opacity="1" fill-rule="nonzero"/><path fill="#102770" d="M 212.351562 654.273438 L 202.246094 654.273438 C 199.765625 654.273438 197.34375 653.765625 195.050781 652.746094 L 194.859375 652.660156 L 194.777344 652.449219 C 194.011719 650.5625 193.628906 648.546875 193.628906 646.445312 C 193.628906 639.1875 198.277344 633.308594 204.007812 633.308594 C 209.71875 633.308594 214.367188 639.207031 214.367188 646.445312 C 214.367188 649.160156 213.710938 651.769531 212.5 654 Z M 195.710938 651.835938 C 197.789062 652.726562 199.996094 653.171875 202.269531 653.171875 L 211.714844 653.171875 C 212.753906 651.175781 213.304688 648.84375 213.304688 646.421875 C 213.304688 639.78125 209.144531 634.371094 204.03125 634.371094 C 198.914062 634.371094 194.734375 639.78125 194.734375 646.421875 C 194.734375 648.332031 195.050781 650.15625 195.710938 651.835938 Z M 195.710938 651.835938 " fill-opacity="1" fill-rule="nonzero"/><path fill="#102770" d="M 239.117188 656.992188 L 216.40625 656.992188 C 215.367188 656.992188 214.390625 656.480469 213.773438 655.632812 C 212.160156 653.40625 211.3125 650.835938 211.3125 648.183594 C 211.3125 640.398438 218.699219 634.074219 227.761719 634.074219 C 236.824219 634.074219 244.214844 640.417969 244.214844 648.183594 C 244.214844 650.835938 243.363281 653.40625 241.75 655.632812 C 241.15625 656.480469 240.179688 656.992188 239.117188 656.992188 Z M 218.296875 650.476562 L 237.25 650.476562 C 237.546875 649.734375 237.71875 648.96875 237.71875 648.207031 C 237.71875 644.003906 233.261719 640.609375 227.785156 640.609375 C 222.308594 640.609375 217.847656 644.027344 217.847656 648.207031 C 217.828125 648.96875 217.996094 649.734375 218.296875 650.476562 Z M 218.296875 650.476562 " fill-opacity="1" fill-rule="nonzero"/><path fill="#102770" d="M 192.25 653.765625 C 191.570312 653.765625 190.914062 653.554688 190.359375 653.148438 C 187.855469 651.367188 185.753906 648.96875 184.269531 646.253906 C 182.292969 642.605469 180.53125 638.804688 179.023438 634.941406 C 178.453125 633.480469 179.023438 631.804688 180.363281 630.996094 C 181.996094 630 183.84375 629.46875 185.691406 629.46875 C 192.164062 629.46875 197.429688 635.8125 197.429688 643.578125 C 197.429688 646.742188 196.578125 649.753906 194.964844 652.257812 C 194.476562 653 193.714844 653.53125 192.84375 653.703125 C 192.652344 653.746094 192.441406 653.765625 192.25 653.765625 Z M 186.539062 636.089844 C 187.578125 638.507812 188.746094 640.863281 190 643.175781 C 190.277344 643.664062 190.574219 644.152344 190.890625 644.597656 C 190.933594 644.257812 190.933594 643.917969 190.933594 643.578125 C 190.933594 639.867188 188.980469 636.683594 186.539062 636.089844 Z M 186.539062 636.089844 " fill-opacity="1" fill-rule="nonzero"/><path fill="#102770" d="M 212.03125 656.992188 L 202.246094 656.992188 C 199.382812 656.992188 196.601562 656.398438 193.949219 655.230469 C 193.164062 654.890625 192.546875 654.253906 192.25 653.46875 C 191.359375 651.261719 190.914062 648.90625 190.914062 646.445312 C 190.914062 637.703125 196.792969 630.59375 204.007812 630.59375 C 211.226562 630.59375 217.085938 637.703125 217.085938 646.445312 C 217.085938 649.628906 216.320312 652.683594 214.878906 655.292969 C 214.304688 656.332031 213.222656 656.992188 212.03125 656.992188 Z M 197.875 649.753906 C 199.296875 650.222656 200.761719 650.453125 202.246094 650.453125 L 209.929688 650.453125 C 210.355469 649.203125 210.589844 647.84375 210.589844 646.421875 C 210.589844 641.351562 207.574219 637.085938 204.03125 637.085938 C 200.464844 637.085938 197.449219 641.371094 197.449219 646.421875 C 197.449219 647.570312 197.597656 648.695312 197.875 649.753906 Z M 197.875 649.753906 " fill-opacity="1" fill-rule="nonzero"/><path fill="#b5ea24" d="M 260.367188 382.914062 C 260.367188 382.914062 278.917969 382.976562 281.296875 397.003906 C 283.652344 411.03125 215.578125 447.148438 170.683594 444.324219 C 170.683594 444.324219 167.136719 472.378906 172.042969 488.230469 C 172.042969 488.230469 145.847656 484.027344 124.070312 465.671875 C 121.628906 463.613281 119.25 461.386719 116.957031 458.945312 C 110.695312 452.28125 105.175781 444.175781 101.292969 434.332031 C 83.355469 388.898438 135.933594 345.398438 184.609375 336.675781 C 215.449219 331.160156 249.179688 331.730469 272.0625 336.804688 C 272.445312 336.886719 272.828125 336.972656 273.230469 337.058594 C 289.085938 340.730469 299.445312 346.628906 299.574219 354.226562 C 299.828125 372.75 260.367188 382.914062 260.367188 382.914062 Z M 260.367188 382.914062 " fill-opacity="1" fill-rule="nonzero"/><path fill="#102770" d="M 260.367188 382.914062 C 260.367188 382.914062 278.917969 382.976562 281.296875 397.003906 C 283.652344 411.03125 215.578125 447.148438 170.683594 444.324219 C 170.683594 444.324219 167.136719 472.378906 172.042969 488.230469 C 172.042969 488.230469 145.847656 484.027344 124.070312 465.671875 C 126.191406 464.800781 128.292969 463.804688 130.308594 462.679688 C 143.703125 455.230469 153.976562 440.3125 151.683594 425.164062 C 169.75 425.671875 187.875 423.828125 205.472656 419.6875 C 212.648438 417.992188 219.886719 415.867188 226.042969 411.792969 C 232.199219 407.71875 237.230469 401.441406 238.269531 394.140625 C 239.308594 386.839844 235.550781 378.691406 228.675781 376.019531 C 235.425781 373.832031 242.472656 372.75 249.308594 370.882812 C 256.140625 369.015625 262.976562 366.300781 268.09375 361.398438 C 273.210938 356.496094 276.371094 349.089844 274.714844 342.195312 C 274.226562 340.15625 273.292969 338.375 272.0625 336.847656 C 288.578125 340.496094 299.445312 346.5 299.550781 354.269531 C 299.828125 372.75 260.367188 382.914062 260.367188 382.914062 Z M 260.367188 382.914062 " fill-opacity="0.2" fill-rule="nonzero"/><path fill="#ffffff" d="M 116.957031 458.925781 C 110.695312 452.261719 105.175781 444.15625 101.292969 434.308594 C 83.355469 388.878906 135.933594 345.375 184.609375 336.65625 C 215.449219 331.136719 249.179688 331.710938 272.0625 336.78125 C 272.445312 336.867188 272.828125 336.953125 273.230469 337.035156 C 206.300781 329.714844 74.375 359.574219 116.957031 458.925781 Z M 116.957031 458.925781 " fill-opacity="0.6" fill-rule="nonzero"/><path fill="#102770" d="M 172.042969 492.28125 C 171.828125 492.28125 171.617188 492.261719 171.40625 492.238281 C 169.15625 491.878906 116.085938 482.882812 97.515625 435.835938 C 91.210938 419.859375 92.652344 402.882812 101.675781 386.714844 C 116.257812 360.589844 149.308594 338.882812 183.90625 332.6875 C 228.992188 324.625 281.019531 329.3125 297.515625 342.914062 C 301.527344 346.226562 303.585938 350.003906 303.648438 354.160156 C 303.839844 368.082031 287.304688 377.375 274.757812 382.40625 C 279.789062 385.035156 284.140625 389.40625 285.308594 396.324219 C 285.902344 399.804688 284.332031 403.5625 280.554688 407.761719 C 265.269531 424.71875 213.773438 448.527344 175.714844 448.527344 C 175.246094 448.527344 174.800781 448.527344 174.355469 448.503906 C 173.613281 456.460938 172.382812 475.453125 175.945312 487 C 176.351562 488.335938 176.054688 489.800781 175.140625 490.859375 C 174.332031 491.773438 173.207031 492.28125 172.042969 492.28125 Z M 229.84375 336.761719 C 215.746094 336.761719 200.527344 337.949219 185.308594 340.664062 C 153.46875 346.351562 121.988281 366.914062 108.742188 390.636719 C 100.847656 404.8125 99.59375 418.988281 105.050781 432.824219 C 118.378906 466.605469 152.660156 479.039062 166.628906 482.796875 C 163.867188 466.371094 166.523438 444.835938 166.648438 443.792969 C 166.925781 441.671875 168.792969 440.125 170.9375 440.25 C 206.554688 442.480469 259.878906 418.542969 274.484375 402.308594 C 277.410156 399.0625 277.285156 397.664062 277.285156 397.664062 C 275.523438 387.222656 260.960938 386.96875 260.34375 386.96875 C 258.308594 386.945312 256.589844 385.417969 256.355469 383.402344 C 256.101562 381.386719 257.394531 379.476562 259.367188 378.96875 C 268.816406 376.527344 295.710938 366.765625 295.519531 354.269531 C 295.496094 352.589844 294.4375 350.894531 292.355469 349.175781 C 283.546875 341.917969 259.179688 336.761719 229.84375 336.761719 Z M 229.84375 336.761719 " fill-opacity="1" fill-rule="nonzero"/><path fill="#102770" d="M 178.324219 327.636719 C 176.902344 332.285156 174.121094 336.570312 170.40625 339.988281 C 166.691406 343.402344 161.875 345.90625 156.628906 346.714844 C 154.019531 347.117188 151.324219 347.117188 148.734375 346.671875 C 146.144531 346.226562 143.660156 345.375 141.410156 344.210938 C 136.910156 341.855469 133.324219 338.394531 130.839844 334.40625 C 130.074219 333.195312 130.457031 331.605469 131.667969 330.839844 C 132.515625 330.308594 133.535156 330.332031 134.34375 330.796875 L 134.46875 330.863281 C 136.296875 331.945312 138.015625 333.003906 139.753906 333.917969 C 141.496094 334.808594 143.238281 335.550781 144.957031 336.125 C 148.394531 337.269531 151.8125 337.671875 155.167969 337.164062 C 158.519531 336.65625 161.789062 335.253906 164.761719 333.113281 C 167.730469 330.988281 170.320312 328.167969 172.550781 324.964844 L 172.613281 324.855469 C 173.632812 323.394531 175.628906 323.03125 177.09375 324.050781 C 178.261719 324.878906 178.707031 326.34375 178.324219 327.636719 Z M 178.324219 327.636719 " fill-opacity="1" fill-rule="nonzero"/><path fill="#102770" d="M 251.769531 308.433594 C 255.398438 309.917969 259.113281 310.851562 262.765625 311.023438 C 266.417969 311.210938 269.941406 310.597656 273.019531 309.195312 C 276.117188 307.796875 278.75 305.589844 281.019531 302.746094 C 282.144531 301.324219 283.1875 299.753906 284.183594 298.054688 C 285.136719 296.335938 286.007812 294.511719 286.941406 292.625 L 287.007812 292.496094 C 287.644531 291.222656 289.191406 290.714844 290.464844 291.351562 C 291.359375 291.796875 291.867188 292.6875 291.890625 293.621094 C 291.972656 298.3125 290.871094 303.171875 288.363281 307.582031 C 287.132812 309.789062 285.5 311.847656 283.566406 313.652344 C 281.636719 315.433594 279.363281 316.898438 276.964844 317.980469 C 272.125 320.167969 266.714844 320.699219 261.746094 319.847656 C 256.78125 319.019531 252.109375 316.941406 248.375 313.824219 C 247.015625 312.675781 246.84375 310.660156 247.96875 309.300781 C 248.882812 308.199219 250.390625 307.882812 251.640625 308.390625 Z M 251.769531 308.433594 " fill-opacity="1" fill-rule="nonzero"/><path fill="#102770" d="M 232.6875 389.027344 C 228.84375 389.960938 225.109375 390.808594 221.648438 391.976562 C 218.1875 393.121094 214.960938 394.480469 212.140625 396.347656 C 210.738281 397.28125 209.421875 398.339844 208.210938 399.507812 C 207.023438 400.695312 205.941406 402.035156 204.921875 403.476562 C 202.96875 406.40625 201.398438 409.800781 199.953125 413.535156 L 199.953125 413.554688 C 199.679688 414.277344 198.871094 414.636719 198.152344 414.363281 C 197.664062 414.171875 197.34375 413.726562 197.28125 413.238281 C 196.75 409.015625 197.300781 404.578125 199 400.355469 C 199.890625 398.277344 201.058594 396.261719 202.503906 394.4375 C 203.964844 392.632812 205.707031 391.042969 207.597656 389.703125 C 211.375 386.988281 215.789062 385.460938 220.140625 384.910156 C 222.328125 384.632812 224.515625 384.613281 226.679688 384.824219 C 228.84375 385.058594 230.925781 385.460938 233.027344 386.332031 C 233.75 386.628906 234.085938 387.433594 233.789062 388.15625 C 233.621094 388.582031 233.238281 388.878906 232.835938 388.984375 Z M 232.6875 389.027344 " fill-opacity="1" fill-rule="nonzero"/><path fill="#102770" d="M 455.101562 320.589844 C 462.46875 318.492188 469.960938 317.195312 477.730469 316.6875 C 479.683594 316.582031 481.636719 316.539062 483.652344 316.601562 C 485.648438 316.664062 487.6875 316.855469 489.828125 317.300781 C 490.382812 317.429688 490.914062 317.558594 491.464844 317.707031 C 492.039062 317.898438 492.566406 318.046875 493.164062 318.320312 C 494.308594 318.789062 495.5625 319.488281 496.75 320.613281 C 497.046875 320.929688 497.34375 321.269531 497.621094 321.632812 C 497.769531 321.824219 497.851562 321.949219 497.917969 322.078125 L 498.152344 322.460938 C 498.449219 322.988281 498.808594 323.476562 499.019531 324.070312 C 499.253906 324.644531 499.53125 325.195312 499.742188 325.769531 L 500.253906 327.550781 C 500.761719 329.972656 500.761719 332.539062 500.210938 334.914062 C 500.125 335.53125 499.871094 336.0625 499.699219 336.632812 C 499.507812 337.1875 499.339844 337.78125 499.0625 338.289062 L 498.277344 339.816406 C 498.023438 340.324219 497.746094 340.835938 497.40625 341.28125 C 494.925781 345.035156 491.738281 347.902344 488.429688 350.195312 C 481.785156 354.925781 474.484375 357.769531 467.222656 360.230469 L 469.304688 356.644531 C 469.347656 356.921875 469.347656 357.089844 469.367188 357.28125 C 469.386719 357.472656 469.386719 357.640625 469.386719 357.8125 C 469.410156 358.152344 469.410156 358.492188 469.386719 358.828125 C 469.367188 359.507812 469.304688 360.144531 469.21875 360.804688 C 469.027344 362.097656 468.773438 363.371094 468.371094 364.601562 C 467.582031 367.0625 466.394531 369.417969 464.78125 371.390625 C 464.398438 371.902344 463.933594 372.347656 463.53125 372.8125 L 462.894531 373.492188 L 462.191406 374.109375 C 461.726562 374.511719 461.257812 374.9375 460.75 375.296875 L 459.21875 376.316406 C 458.710938 376.675781 458.179688 376.972656 457.648438 377.226562 L 456.035156 378.035156 C 454.933594 378.5 453.808594 378.882812 452.703125 379.285156 C 452.003906 379.539062 451.238281 379.179688 450.984375 378.480469 C 450.773438 377.886719 451.003906 377.226562 451.515625 376.886719 L 451.664062 376.804688 C 452.578125 376.210938 453.511719 375.679688 454.402344 375.085938 L 455.65625 374.128906 C 456.078125 373.832031 456.503906 373.515625 456.863281 373.132812 L 457.988281 372.070312 C 458.351562 371.710938 458.648438 371.285156 458.988281 370.925781 L 459.476562 370.351562 L 459.898438 369.738281 C 460.175781 369.3125 460.496094 368.929688 460.726562 368.507812 C 461.726562 366.808594 462.40625 364.960938 462.785156 363.09375 C 462.976562 362.160156 463.0625 361.207031 463.105469 360.25 C 463.105469 359.785156 463.105469 359.316406 463.0625 358.851562 C 463.042969 358.617188 463.019531 358.40625 463 358.171875 C 462.976562 358.066406 462.976562 357.960938 462.957031 357.855469 C 462.933594 357.746094 462.914062 357.640625 462.914062 357.640625 C 462.277344 357.855469 461.597656 357.515625 461.386719 356.878906 C 461.195312 356.285156 461.46875 355.648438 462.042969 355.390625 L 464.996094 354.078125 L 470.003906 351.828125 C 471.660156 351.0625 473.230469 350.171875 474.863281 349.386719 C 476.457031 348.539062 477.964844 347.605469 479.511719 346.734375 L 481.699219 345.269531 L 482.804688 344.550781 L 483.824219 343.765625 C 486.625 341.746094 489 339.351562 490.65625 336.824219 C 492.335938 334.277344 492.929688 331.648438 492.460938 329.164062 C 492.378906 328.867188 492.292969 328.550781 492.226562 328.230469 C 492.121094 327.933594 491.996094 327.636719 491.867188 327.320312 C 491.78125 327 491.570312 326.746094 491.421875 326.449219 L 491.292969 326.234375 C 491.253906 326.152344 491.210938 326.066406 491.210938 326.085938 C 491.1875 326.066406 491.167969 326.046875 491.167969 326.003906 C 490.996094 325.832031 490.65625 325.535156 490.0625 325.261719 C 489.808594 325.113281 489.449219 325.003906 489.128906 324.878906 L 488.046875 324.539062 C 484.988281 323.691406 481.339844 323.394531 477.75 323.179688 C 470.492188 322.796875 463 323.03125 455.527344 323.179688 L 455.484375 323.179688 C 454.71875 323.203125 454.105469 322.585938 454.082031 321.84375 C 454.105469 321.292969 454.53125 320.761719 455.101562 320.589844 Z M 455.101562 320.589844 " fill-opacity="1" fill-rule="nonzero"/></svg>