<svg xmlns="http://www.w3.org/2000/svg" xmlns:xlink="http://www.w3.org/1999/xlink" width="816" zoomAndPan="magnify" viewBox="0 0 612 790.499977" height="1054" preserveAspectRatio="xMidYMid meet" version="1.0"><defs><clipPath id="7fc64f3d74"><path d="M 0.195312 0 L 611.527344 0 L 611.527344 789.636719 L 0.195312 789.636719 Z M 0.195312 0 " clip-rule="nonzero"/></clipPath><clipPath id="e0631c3ae6"><path d="M 85 211.066406 L 394 211.066406 L 394 520 L 85 520 Z M 85 211.066406 " clip-rule="nonzero"/></clipPath></defs><g clip-path="url(#7fc64f3d74)"><path fill="#ffffff" d="M 0.195312 0 L 611.527344 0 L 611.527344 789.636719 L 0.195312 789.636719 Z M 0.195312 0 " fill-opacity="1" fill-rule="nonzero"/><path fill="#ffffff" d="M 0.195312 0 L 611.527344 0 L 611.527344 789.636719 L 0.195312 789.636719 Z M 0.195312 0 " fill-opacity="1" fill-rule="nonzero"/></g><path fill="#689709" d="M 562.152344 468.789062 C 549.652344 473.503906 537.488281 477.496094 525.671875 480.910156 C 392.261719 519.25 303.511719 479.089844 303.511719 479.089844 L 309.5625 452.691406 L 207.734375 231.882812 L 360.148438 231.882812 C 525.351562 246.585938 557.132812 364.9375 562.152344 428.597656 C 564.0625 452.585938 562.152344 468.789062 562.152344 468.789062 Z M 562.152344 468.789062 " fill-opacity="1" fill-rule="nonzero"/><path fill="#5c8704" d="M 562.152344 468.789062 C 549.652344 473.503906 537.488281 477.496094 525.671875 480.910156 C 524.351562 472.125 523.472656 461.476562 523.121094 448.792969 C 519.269531 312.992188 413.058594 274 353.066406 262.800781 C 324.519531 251.195312 299.535156 240.820312 278.847656 231.882812 L 360.148438 231.882812 C 525.351562 246.582031 557.132812 364.9375 562.152344 428.597656 C 564.0625 452.585938 562.152344 468.789062 562.152344 468.789062 Z M 562.152344 468.789062 " fill-opacity="1" fill-rule="nonzero"/><path fill="#cff58e" d="M 554.09375 529.527344 C 549.945312 534.40625 544.0625 537.347656 537.804688 537.734375 C 537.328125 537.765625 536.847656 537.78125 536.367188 537.78125 C 535.390625 537.78125 534.398438 537.71875 533.425781 537.597656 C 513.636719 535.085938 475.90625 525.546875 452.925781 489.710938 L 504.425781 468.914062 L 512.644531 465.601562 L 528.5625 476.269531 L 551.804688 496.929688 C 561.296875 505.371094 562.316406 519.851562 554.097656 529.527344 Z M 554.09375 529.527344 " fill-opacity="1" fill-rule="nonzero"/><path fill="#bfeb73" d="M 554.09375 529.527344 C 549.945312 534.40625 544.0625 537.347656 537.804688 537.734375 C 547.019531 518.8125 548.394531 493.832031 509.65625 472.027344 C 507.800781 470.972656 506.050781 469.9375 504.425781 468.914062 L 512.644531 465.601562 L 528.5625 476.273438 L 551.804688 496.929688 C 561.296875 505.371094 562.316406 519.851562 554.097656 529.527344 Z M 554.09375 529.527344 " fill-opacity="1" fill-rule="nonzero"/><path fill="#81b222" d="M 422.976562 457.40625 C 421.550781 457.40625 420.273438 456.394531 420 454.941406 L 404.203125 372.109375 L 357.546875 348.996094 C 356.042969 348.25 355.429688 346.429688 356.171875 344.925781 C 356.917969 343.425781 358.738281 342.8125 360.242188 343.554688 L 408.253906 367.339844 C 409.105469 367.761719 409.707031 368.558594 409.886719 369.492188 L 425.960938 453.800781 C 426.277344 455.449219 425.195312 457.039062 423.550781 457.351562 C 423.359375 457.390625 423.167969 457.40625 422.980469 457.40625 Z M 422.976562 457.40625 " fill-opacity="1" fill-rule="nonzero"/><path fill="#81b222" d="M 406.90625 373.097656 C 405.984375 373.097656 405.070312 372.675781 404.472656 371.878906 C 403.46875 370.539062 403.742188 368.632812 405.085938 367.628906 L 505.242188 292.628906 C 506.585938 291.625 508.484375 291.894531 509.492188 293.238281 C 510.496094 294.582031 510.222656 296.484375 508.878906 297.488281 L 408.722656 372.492188 C 408.175781 372.898438 407.539062 373.097656 406.90625 373.097656 Z M 406.90625 373.097656 " fill-opacity="1" fill-rule="nonzero"/><path fill="#8ec426" d="M 562.148438 468.792969 C 408.703125 526.679688 303.503906 479.09375 303.503906 479.09375 L 309.554688 452.683594 C 366.847656 457.25 476.484375 460.308594 562.148438 428.597656 C 564.054688 452.578125 562.148438 468.789062 562.148438 468.789062 Z M 562.148438 468.792969 " fill-opacity="1" fill-rule="nonzero"/><path fill="#cff58e" d="M 155.304688 471.300781 C 139.960938 495.472656 98.902344 504.671875 75.675781 508 C 74.59375 508.15625 73.507812 508.234375 72.425781 508.234375 C 63.894531 508.234375 55.964844 503.386719 52.125 495.550781 C 51.722656 494.730469 51.382812 493.910156 51.101562 493.070312 C 47.851562 483.796875 50.949219 473.34375 59.03125 467.394531 L 116.816406 424.839844 L 147.160156 461.480469 L 155.304688 471.296875 Z M 155.304688 471.300781 " fill-opacity="1" fill-rule="nonzero"/><path fill="#bfeb73" d="M 155.304688 471.300781 C 139.960938 495.472656 98.902344 504.671875 75.675781 508 C 74.59375 508.15625 73.507812 508.234375 72.425781 508.234375 C 63.894531 508.234375 55.964844 503.386719 52.125 495.550781 C 51.722656 494.730469 51.382812 493.910156 51.101562 493.070312 C 68.398438 499.453125 97.074219 498.910156 140.007812 466.527344 C 142.5 464.65625 144.886719 462.96875 147.160156 461.480469 L 155.304688 471.296875 Z M 155.304688 471.300781 " fill-opacity="1" fill-rule="nonzero"/><g clip-path="url(#e0631c3ae6)"><path fill="#ade54e" d="M 393.191406 365.265625 C 393.191406 399.472656 382.027344 431.082031 363.140625 456.617188 C 339.171875 489.0625 302.722656 511.734375 260.886719 517.570312 C 253.871094 518.5625 246.703125 519.074219 239.410156 519.074219 C 210.703125 519.074219 183.828125 511.207031 160.832031 497.503906 L 160.832031 497.488281 C 144.824219 487.960938 130.6875 475.605469 119.121094 461.09375 C 109.785156 449.402344 102.121094 436.300781 96.5 422.160156 C 89.488281 404.566406 85.628906 385.363281 85.628906 365.265625 C 85.628906 280.320312 154.484375 211.453125 239.410156 211.453125 C 289.871094 211.453125 334.648438 235.75 362.691406 273.304688 C 381.859375 298.949219 393.191406 330.773438 393.191406 365.261719 Z M 393.191406 365.265625 " fill-opacity="1" fill-rule="nonzero"/></g><path fill="#9bd13f" d="M 393.191406 365.265625 C 393.191406 399.472656 382.027344 431.082031 363.140625 456.617188 C 339.171875 489.0625 302.722656 511.734375 260.886719 517.570312 C 253.871094 518.5625 246.703125 519.074219 239.410156 519.074219 C 210.703125 519.074219 183.828125 511.207031 160.832031 497.503906 L 160.832031 497.488281 C 160.832031 497.488281 382.351562 539.980469 363.140625 280.152344 C 362.96875 277.8125 362.8125 275.535156 362.691406 273.304688 C 381.859375 298.953125 393.191406 330.777344 393.191406 365.265625 Z M 393.191406 365.265625 " fill-opacity="1" fill-rule="nonzero"/><path fill="#9bced4" d="M 119.121094 461.09375 C 109.785156 449.402344 102.121094 436.300781 96.5 422.160156 C 108.128906 418.582031 121.351562 410.4375 126.941406 392.148438 C 137.886719 356.3125 128.9375 347.808594 155.304688 332.386719 C 161.324219 335.089844 170.183594 336.441406 180.1875 337.25 C 180.1875 337.25 164.765625 351.324219 175.714844 372.726562 C 186.011719 392.859375 199.402344 436.34375 119.121094 461.09375 Z M 119.121094 461.09375 " fill-opacity="1" fill-rule="nonzero"/><path fill="#9bced4" d="M 363.140625 456.617188 C 339.171875 489.0625 302.722656 511.734375 260.886719 517.570312 C 277.113281 500.941406 285.800781 487.621094 289.546875 476.007812 C 297.457031 451.675781 283.847656 434.75 273.089844 410.203125 C 256.507812 372.355469 304.628906 356.265625 304.628906 356.265625 C 314.027344 360.183594 324.695312 362.398438 337.3125 362.089844 C 310.292969 375.332031 308.761719 410.203125 334.480469 420.023438 C 336.460938 420.9375 338.320312 421.914062 340.054688 422.933594 C 355.210938 431.761719 361.4375 444.214844 363.140625 456.617188 Z M 363.140625 456.617188 " fill-opacity="1" fill-rule="nonzero"/><path fill="#8ec5cc" d="M 363.140625 456.617188 C 339.171875 489.0625 302.722656 511.734375 260.886719 517.570312 C 277.113281 500.941406 285.800781 487.621094 289.546875 476.007812 C 308.792969 464.421875 326.628906 447.480469 340.054688 422.933594 C 355.210938 431.761719 361.4375 444.214844 363.140625 456.617188 Z M 363.140625 456.617188 " fill-opacity="1" fill-rule="nonzero"/><path fill="#ffffff" d="M 207.730469 418.199219 C 207.730469 418.199219 211.710938 394.304688 231.617188 395.632812 C 251.527344 396.960938 248.207031 424.835938 248.207031 424.835938 Z M 207.730469 418.199219 " fill-opacity="1" fill-rule="nonzero"/><path fill="#cff58e" d="M 392.03125 510.757812 C 373.792969 534.21875 327.109375 578.574219 242.105469 564.355469 C 239.921875 563.984375 237.800781 563.226562 235.914062 562.09375 C 233.464844 560.640625 230.230469 558.269531 227.800781 554.910156 C 225.910156 552.292969 224.5 549.070312 224.347656 545.214844 C 224.054688 538.417969 227.984375 532.128906 233.960938 528.878906 C 251.722656 519.230469 305.433594 488.707031 335.886719 456.851562 C 345.195312 447.109375 358.417969 441.8125 371.824219 443.023438 C 381.054688 443.859375 390.4375 447.683594 396.195312 458.074219 C 399.214844 463.511719 401.230469 470.757812 401.722656 480.3125 C 402.28125 491.292969 398.78125 502.070312 392.03125 510.761719 Z M 392.03125 510.757812 " fill-opacity="1" fill-rule="nonzero"/><path fill="#547a07" d="M 182.089844 341.167969 C 158.242188 341.167969 141.960938 330.351562 141.183594 329.824219 C 139.410156 328.621094 138.945312 326.203125 140.148438 324.429688 C 141.347656 322.65625 143.761719 322.1875 145.535156 323.386719 C 145.730469 323.519531 165.320312 336.429688 191.933594 332.714844 C 194.058594 332.421875 196.019531 333.902344 196.316406 336.027344 C 196.613281 338.152344 195.128906 340.113281 193.007812 340.410156 C 189.226562 340.9375 185.574219 341.171875 182.09375 341.171875 Z M 182.089844 341.167969 " fill-opacity="1" fill-rule="nonzero"/><path fill="#547a07" d="M 333.78125 365.976562 C 309.933594 365.976562 293.652344 355.15625 292.875 354.632812 C 291.101562 353.425781 290.636719 351.011719 291.839844 349.238281 C 293.039062 347.460938 295.449219 346.996094 297.226562 348.195312 C 297.421875 348.328125 317.011719 361.238281 343.621094 357.523438 C 345.75 357.230469 347.710938 358.710938 348.007812 360.832031 C 348.304688 362.957031 346.820312 364.921875 344.695312 365.21875 C 340.914062 365.746094 337.265625 365.976562 333.78125 365.976562 Z M 333.78125 365.976562 " fill-opacity="1" fill-rule="nonzero"/><path fill="#bfeb73" d="M 392.03125 510.757812 C 373.792969 534.21875 327.109375 578.574219 242.105469 564.355469 C 239.921875 563.984375 237.800781 563.226562 235.914062 562.09375 C 233.464844 560.640625 230.230469 558.269531 227.800781 554.910156 C 277.625 558.378906 365.863281 550.464844 396.195312 458.074219 C 399.214844 463.507812 401.230469 470.757812 401.722656 480.3125 C 402.28125 491.292969 398.78125 502.070312 392.03125 510.757812 Z M 392.03125 510.757812 " fill-opacity="1" fill-rule="nonzero"/><path fill="#547a07" d="M 177.261719 305.371094 C 175.414062 305.371094 173.777344 304.050781 173.441406 302.171875 C 173.0625 300.058594 174.46875 298.039062 176.582031 297.664062 L 212.515625 291.234375 C 214.628906 290.847656 216.644531 292.261719 217.023438 294.375 C 217.402344 296.484375 215.996094 298.503906 213.882812 298.882812 L 177.949219 305.308594 C 177.71875 305.351562 177.488281 305.371094 177.261719 305.371094 Z M 177.261719 305.371094 " fill-opacity="1" fill-rule="nonzero"/><path fill="#547a07" d="M 310.378906 336.714844 C 309.453125 336.714844 308.523438 336.386719 307.78125 335.71875 L 280.648438 311.296875 C 279.050781 309.863281 278.921875 307.40625 280.359375 305.8125 C 281.792969 304.214844 284.25 304.085938 285.84375 305.523438 L 312.980469 329.945312 C 314.574219 331.378906 314.703125 333.835938 313.269531 335.429688 C 312.5 336.28125 311.441406 336.71875 310.378906 336.71875 Z M 310.378906 336.714844 " fill-opacity="1" fill-rule="nonzero"/></svg>