<svg xmlns="http://www.w3.org/2000/svg" xmlns:xlink="http://www.w3.org/1999/xlink" width="40" zoomAndPan="magnify" viewBox="0 0 30 30.000001" height="40" preserveAspectRatio="xMidYMid meet" version="1.0"><defs><clipPath id="5a764ee6c4"><path d="M 0.484375 0 L 29.515625 0 L 29.515625 29.03125 L 0.484375 29.03125 Z M 0.484375 0 " clip-rule="nonzero"/></clipPath><clipPath id="1ea477aaba"><path d="M 9 5 L 28.667969 5 L 28.667969 20 L 9 20 Z M 9 5 " clip-rule="nonzero"/></clipPath><clipPath id="eb21f5c897"><path d="M 13 5 L 28.667969 5 L 28.667969 19 L 13 19 Z M 13 5 " clip-rule="nonzero"/></clipPath><clipPath id="833306e385"><path d="M 22 18 L 28.667969 18 L 28.667969 23 L 22 23 Z M 22 18 " clip-rule="nonzero"/></clipPath><clipPath id="6920e05916"><path d="M 25 18 L 28.667969 18 L 28.667969 23 L 25 23 Z M 25 18 " clip-rule="nonzero"/></clipPath><clipPath id="d0fe4a00fd"><path d="M 14 16 L 28.667969 16 L 28.667969 20 L 14 20 Z M 14 16 " clip-rule="nonzero"/></clipPath><clipPath id="cb6b591896"><path d="M 1.089844 15 L 7 15 L 7 21 L 1.089844 21 Z M 1.089844 15 " clip-rule="nonzero"/></clipPath><clipPath id="84085e9bd7"><path d="M 1.089844 17 L 7 17 L 7 21 L 1.089844 21 Z M 1.089844 17 " clip-rule="nonzero"/></clipPath><clipPath id="59b527a815"><path d="M 3 4.605469 L 20 4.605469 L 20 22 L 3 22 Z M 3 4.605469 " clip-rule="nonzero"/></clipPath></defs><g clip-path="url(#5a764ee6c4)"><path fill="#ffffff" d="M 0.484375 0 L 29.515625 0 L 29.515625 29.03125 L 0.484375 29.03125 Z M 0.484375 0 " fill-opacity="1" fill-rule="nonzero"/><path fill="#ffffff" d="M 0.484375 0 L 29.515625 0 L 29.515625 29.03125 L 0.484375 29.03125 Z M 0.484375 0 " fill-opacity="1" fill-rule="nonzero"/></g><g clip-path="url(#1ea477aaba)"><path fill="#689709" d="M 28.570312 18.335938 C 27.902344 18.585938 27.25 18.800781 26.621094 18.980469 C 19.492188 21.023438 14.75 18.886719 14.75 18.886719 L 15.074219 17.476562 L 9.632812 5.710938 L 17.777344 5.710938 C 26.601562 6.492188 28.300781 12.800781 28.570312 16.195312 C 28.671875 17.472656 28.570312 18.335938 28.570312 18.335938 Z M 28.570312 18.335938 " fill-opacity="1" fill-rule="nonzero"/></g><g clip-path="url(#eb21f5c897)"><path fill="#5c8704" d="M 28.570312 18.335938 C 27.902344 18.585938 27.25 18.800781 26.621094 18.980469 C 26.550781 18.515625 26.503906 17.945312 26.484375 17.269531 C 26.277344 10.03125 20.601562 7.953125 17.398438 7.359375 C 15.871094 6.738281 14.539062 6.1875 13.429688 5.710938 L 17.777344 5.710938 C 26.601562 6.492188 28.300781 12.800781 28.570312 16.195312 C 28.671875 17.472656 28.570312 18.335938 28.570312 18.335938 Z M 28.570312 18.335938 " fill-opacity="1" fill-rule="nonzero"/></g><g clip-path="url(#833306e385)"><path fill="#cff58e" d="M 28.136719 21.574219 C 27.917969 21.832031 27.601562 21.988281 27.269531 22.011719 C 27.242188 22.011719 27.21875 22.011719 27.191406 22.011719 C 27.140625 22.011719 27.085938 22.011719 27.035156 22.003906 C 25.976562 21.871094 23.960938 21.359375 22.734375 19.453125 L 25.484375 18.34375 L 25.925781 18.167969 L 26.773438 18.734375 L 28.015625 19.835938 C 28.523438 20.285156 28.578125 21.058594 28.136719 21.574219 Z M 28.136719 21.574219 " fill-opacity="1" fill-rule="nonzero"/></g><g clip-path="url(#6920e05916)"><path fill="#bfeb73" d="M 28.136719 21.574219 C 27.917969 21.832031 27.601562 21.988281 27.269531 22.011719 C 27.761719 21.003906 27.835938 19.671875 25.765625 18.507812 C 25.664062 18.453125 25.570312 18.398438 25.484375 18.34375 L 25.925781 18.167969 L 26.773438 18.734375 L 28.015625 19.835938 C 28.523438 20.285156 28.578125 21.058594 28.136719 21.574219 Z M 28.136719 21.574219 " fill-opacity="1" fill-rule="nonzero"/></g><path fill="#81b222" d="M 21.132812 17.730469 C 21.054688 17.730469 20.988281 17.675781 20.972656 17.597656 L 20.128906 13.183594 L 17.636719 11.953125 C 17.554688 11.910156 17.523438 11.816406 17.5625 11.734375 C 17.601562 11.65625 17.699219 11.621094 17.78125 11.660156 L 20.347656 12.929688 C 20.390625 12.953125 20.421875 12.996094 20.433594 13.042969 L 21.292969 17.539062 C 21.308594 17.625 21.25 17.710938 21.164062 17.726562 C 21.152344 17.726562 21.144531 17.730469 21.132812 17.730469 Z M 21.132812 17.730469 " fill-opacity="1" fill-rule="nonzero"/><path fill="#81b222" d="M 20.273438 13.234375 C 20.226562 13.234375 20.175781 13.214844 20.144531 13.171875 C 20.089844 13.101562 20.105469 13 20.175781 12.945312 L 25.527344 8.949219 C 25.601562 8.894531 25.703125 8.910156 25.753906 8.980469 C 25.808594 9.050781 25.792969 9.152344 25.722656 9.207031 L 20.371094 13.203125 C 20.34375 13.226562 20.308594 13.234375 20.273438 13.234375 Z M 20.273438 13.234375 " fill-opacity="1" fill-rule="nonzero"/><g clip-path="url(#d0fe4a00fd)"><path fill="#8ec426" d="M 28.570312 18.335938 C 20.371094 21.421875 14.75 18.886719 14.75 18.886719 L 15.074219 17.476562 C 18.132812 17.722656 23.992188 17.882812 28.570312 16.195312 C 28.671875 17.472656 28.570312 18.335938 28.570312 18.335938 Z M 28.570312 18.335938 " fill-opacity="1" fill-rule="nonzero"/></g><g clip-path="url(#cb6b591896)"><path fill="#cff58e" d="M 6.832031 18.46875 C 6.011719 19.757812 3.816406 20.25 2.574219 20.425781 C 2.519531 20.433594 2.460938 20.4375 2.402344 20.4375 C 1.945312 20.4375 1.523438 20.179688 1.316406 19.761719 C 1.296875 19.71875 1.277344 19.675781 1.261719 19.628906 C 1.089844 19.136719 1.253906 18.578125 1.6875 18.261719 L 4.773438 15.992188 L 6.394531 17.945312 Z M 6.832031 18.46875 " fill-opacity="1" fill-rule="nonzero"/></g><g clip-path="url(#84085e9bd7)"><path fill="#bfeb73" d="M 6.832031 18.46875 C 6.011719 19.757812 3.816406 20.25 2.574219 20.425781 C 2.519531 20.433594 2.460938 20.4375 2.402344 20.4375 C 1.945312 20.4375 1.523438 20.179688 1.316406 19.761719 C 1.296875 19.71875 1.277344 19.675781 1.261719 19.628906 C 2.1875 19.96875 3.71875 19.941406 6.011719 18.214844 C 6.148438 18.117188 6.273438 18.027344 6.394531 17.945312 Z M 6.832031 18.46875 " fill-opacity="1" fill-rule="nonzero"/></g><g clip-path="url(#59b527a815)"><path fill="#ade54e" d="M 19.542969 12.820312 C 19.542969 14.640625 18.945312 16.328125 17.933594 17.6875 C 16.65625 19.417969 14.707031 20.625 12.472656 20.9375 C 12.097656 20.988281 11.714844 21.015625 11.324219 21.015625 C 9.789062 21.015625 8.355469 20.597656 7.125 19.867188 C 6.269531 19.359375 5.515625 18.699219 4.898438 17.925781 C 4.398438 17.304688 3.988281 16.605469 3.6875 15.851562 C 3.3125 14.914062 3.109375 13.890625 3.109375 12.820312 C 3.109375 8.292969 6.785156 4.621094 11.324219 4.621094 C 14.019531 4.621094 16.414062 5.914062 17.910156 7.917969 C 18.9375 9.285156 19.542969 10.980469 19.542969 12.820312 Z M 19.542969 12.820312 " fill-opacity="1" fill-rule="nonzero"/></g><path fill="#9bd13f" d="M 19.542969 12.820312 C 19.542969 14.640625 18.945312 16.328125 17.933594 17.6875 C 16.65625 19.417969 14.707031 20.625 12.472656 20.9375 C 12.097656 20.988281 11.714844 21.015625 11.324219 21.015625 C 9.789062 21.015625 8.355469 20.597656 7.125 19.867188 C 7.125 19.867188 18.960938 22.128906 17.933594 8.28125 C 17.925781 8.15625 17.917969 8.035156 17.910156 7.917969 C 18.9375 9.285156 19.542969 10.980469 19.542969 12.820312 Z M 19.542969 12.820312 " fill-opacity="1" fill-rule="nonzero"/><path fill="#9bced4" d="M 4.898438 17.925781 C 4.398438 17.304688 3.988281 16.605469 3.6875 15.851562 C 4.308594 15.660156 5.015625 15.226562 5.316406 14.25 C 5.898438 12.339844 5.421875 11.886719 6.832031 11.066406 C 7.152344 11.210938 7.625 11.28125 8.160156 11.324219 C 8.160156 11.324219 7.335938 12.074219 7.921875 13.214844 C 8.472656 14.289062 9.1875 16.605469 4.898438 17.925781 Z M 4.898438 17.925781 " fill-opacity="1" fill-rule="nonzero"/><path fill="#9bced4" d="M 17.933594 17.6875 C 16.65625 19.417969 14.707031 20.625 12.472656 20.9375 C 13.339844 20.050781 13.804688 19.339844 14.003906 18.722656 C 14.425781 17.425781 13.699219 16.523438 13.125 15.214844 C 12.238281 13.195312 14.808594 12.339844 14.808594 12.339844 C 15.3125 12.546875 15.882812 12.664062 16.554688 12.648438 C 15.113281 13.355469 15.03125 15.214844 16.402344 15.738281 C 16.511719 15.785156 16.609375 15.835938 16.703125 15.890625 C 17.511719 16.363281 17.84375 17.027344 17.933594 17.6875 Z M 17.933594 17.6875 " fill-opacity="1" fill-rule="nonzero"/><path fill="#8ec5cc" d="M 17.933594 17.6875 C 16.65625 19.417969 14.707031 20.625 12.472656 20.9375 C 13.339844 20.050781 13.804688 19.339844 14.003906 18.722656 C 15.03125 18.101562 15.984375 17.199219 16.703125 15.890625 C 17.511719 16.363281 17.84375 17.027344 17.933594 17.6875 Z M 17.933594 17.6875 " fill-opacity="1" fill-rule="nonzero"/><path fill="#ffffff" d="M 9.632812 15.640625 C 9.632812 15.640625 9.84375 14.367188 10.90625 14.4375 C 11.972656 14.507812 11.792969 15.992188 11.792969 15.992188 Z M 9.632812 15.640625 " fill-opacity="1" fill-rule="nonzero"/><path fill="#cff58e" d="M 19.480469 20.574219 C 18.503906 21.824219 16.011719 24.1875 11.46875 23.429688 C 11.351562 23.410156 11.238281 23.371094 11.136719 23.308594 C 11.007812 23.230469 10.832031 23.105469 10.703125 22.925781 C 10.601562 22.785156 10.527344 22.613281 10.519531 22.410156 C 10.503906 22.046875 10.714844 21.710938 11.035156 21.539062 C 11.980469 21.023438 14.851562 19.398438 16.480469 17.699219 C 16.976562 17.179688 17.683594 16.898438 18.398438 16.960938 C 18.894531 17.007812 19.394531 17.210938 19.703125 17.765625 C 19.863281 18.054688 19.96875 18.441406 19.996094 18.949219 C 20.027344 19.535156 19.839844 20.109375 19.480469 20.574219 Z M 19.480469 20.574219 " fill-opacity="1" fill-rule="nonzero"/><path fill="#547a07" d="M 8.261719 11.535156 C 6.988281 11.535156 6.117188 10.957031 6.074219 10.929688 C 5.980469 10.867188 5.957031 10.738281 6.019531 10.640625 C 6.085938 10.546875 6.214844 10.523438 6.308594 10.585938 C 6.320312 10.59375 7.367188 11.28125 8.789062 11.082031 C 8.902344 11.066406 9.007812 11.148438 9.023438 11.261719 C 9.039062 11.375 8.957031 11.476562 8.84375 11.492188 C 8.644531 11.523438 8.449219 11.535156 8.261719 11.535156 Z M 8.261719 11.535156 " fill-opacity="1" fill-rule="nonzero"/><path fill="#547a07" d="M 16.367188 12.855469 C 15.09375 12.855469 14.222656 12.28125 14.179688 12.25 C 14.085938 12.1875 14.0625 12.058594 14.125 11.964844 C 14.191406 11.871094 14.320312 11.84375 14.414062 11.910156 C 14.425781 11.914062 15.472656 12.605469 16.894531 12.40625 C 17.007812 12.390625 17.109375 12.46875 17.128906 12.582031 C 17.144531 12.695312 17.0625 12.800781 16.949219 12.816406 C 16.746094 12.84375 16.554688 12.855469 16.367188 12.855469 Z M 16.367188 12.855469 " fill-opacity="1" fill-rule="nonzero"/><path fill="#bfeb73" d="M 19.480469 20.574219 C 18.503906 21.824219 16.011719 24.1875 11.46875 23.429688 C 11.351562 23.410156 11.238281 23.371094 11.136719 23.308594 C 11.007812 23.230469 10.832031 23.105469 10.703125 22.925781 C 13.367188 23.109375 18.082031 22.6875 19.703125 17.765625 C 19.863281 18.054688 19.96875 18.441406 19.996094 18.949219 C 20.027344 19.535156 19.839844 20.109375 19.480469 20.574219 Z M 19.480469 20.574219 " fill-opacity="1" fill-rule="nonzero"/><path fill="#547a07" d="M 8.003906 9.625 C 7.90625 9.625 7.816406 9.554688 7.800781 9.457031 C 7.78125 9.34375 7.855469 9.234375 7.96875 9.214844 L 9.886719 8.871094 C 10 8.851562 10.109375 8.929688 10.128906 9.039062 C 10.148438 9.152344 10.074219 9.261719 9.960938 9.28125 L 8.039062 9.625 C 8.027344 9.625 8.015625 9.625 8.003906 9.625 Z M 8.003906 9.625 " fill-opacity="1" fill-rule="nonzero"/><path fill="#547a07" d="M 15.117188 11.296875 C 15.066406 11.296875 15.015625 11.28125 14.976562 11.242188 L 13.527344 9.941406 C 13.441406 9.867188 13.4375 9.734375 13.511719 9.648438 C 13.589844 9.566406 13.71875 9.558594 13.804688 9.632812 L 15.253906 10.9375 C 15.339844 11.011719 15.347656 11.144531 15.269531 11.226562 C 15.230469 11.273438 15.171875 11.296875 15.117188 11.296875 Z M 15.117188 11.296875 " fill-opacity="1" fill-rule="nonzero"/></svg>