<svg xmlns="http://www.w3.org/2000/svg" xmlns:xlink="http://www.w3.org/1999/xlink" width="40" zoomAndPan="magnify" viewBox="0 0 30 30.000001" height="40" preserveAspectRatio="xMidYMid meet" version="1.0"><defs><clipPath id="5d8d2f0d26"><path d="M 0.484375 0 L 29.515625 0 L 29.515625 29.03125 L 0.484375 29.03125 Z M 0.484375 0 " clip-rule="nonzero"/></clipPath><clipPath id="2e736b2a1d"><path d="M 2 16 L 28 16 L 28 25.402344 L 2 25.402344 Z M 2 16 " clip-rule="nonzero"/></clipPath><clipPath id="163998e8f4"><path d="M 12 16.746094 L 28 16.746094 L 28 22 L 12 22 Z M 12 16.746094 " clip-rule="nonzero"/></clipPath><clipPath id="c09ceb94c0"><path d="M 2.445312 18.148438 C 2.722656 20.070312 3.980469 21.769531 5.585938 22.886719 C 7.191406 24.003906 9.117188 24.585938 11.054688 24.894531 C 14.351562 25.410156 17.589844 25.183594 20.777344 24.214844 C 22.246094 23.765625 23.683594 23.152344 24.933594 22.257812 C 26.183594 21.367188 27.246094 20.179688 27.839844 18.769531 C 27.945312 18.53125 28.015625 18.207031 27.808594 18.039062 C 27.648438 17.90625 27.402344 17.957031 27.199219 18.011719 C 22.746094 19.214844 18.273438 19.285156 13.78125 18.214844 C 11.925781 17.769531 10.109375 17.128906 8.21875 16.890625 C 6.324219 16.652344 4.277344 16.871094 2.742188 17.992188 " clip-rule="nonzero"/></clipPath><clipPath id="78c8b20a54"><path d="M 26 18 L 28 18 L 28 21 L 26 21 Z M 26 18 " clip-rule="nonzero"/></clipPath><clipPath id="ed85c693a2"><path d="M 2.445312 18.148438 C 2.722656 20.070312 3.980469 21.769531 5.585938 22.886719 C 7.191406 24.003906 9.117188 24.585938 11.054688 24.894531 C 14.351562 25.410156 17.589844 25.183594 20.777344 24.214844 C 22.246094 23.765625 23.683594 23.152344 24.933594 22.257812 C 26.183594 21.367188 27.246094 20.179688 27.839844 18.769531 C 27.945312 18.53125 28.015625 18.207031 27.808594 18.039062 C 27.648438 17.90625 27.402344 17.957031 27.199219 18.011719 C 22.746094 19.214844 18.273438 19.285156 13.78125 18.214844 C 11.925781 17.769531 10.109375 17.128906 8.21875 16.890625 C 6.324219 16.652344 4.277344 16.871094 2.742188 17.992188 " clip-rule="nonzero"/></clipPath><clipPath id="497748b8f1"><path d="M 25 18 L 28 18 L 28 22 L 25 22 Z M 25 18 " clip-rule="nonzero"/></clipPath><clipPath id="df75dc57d0"><path d="M 2.445312 18.148438 C 2.722656 20.070312 3.980469 21.769531 5.585938 22.886719 C 7.191406 24.003906 9.117188 24.585938 11.054688 24.894531 C 14.351562 25.410156 17.589844 25.183594 20.777344 24.214844 C 22.246094 23.765625 23.683594 23.152344 24.933594 22.257812 C 26.183594 21.367188 27.246094 20.179688 27.839844 18.769531 C 27.945312 18.53125 28.015625 18.207031 27.808594 18.039062 C 27.648438 17.90625 27.402344 17.957031 27.199219 18.011719 C 22.746094 19.214844 18.273438 19.285156 13.78125 18.214844 C 11.925781 17.769531 10.109375 17.128906 8.21875 16.890625 C 6.324219 16.652344 4.277344 16.871094 2.742188 17.992188 " clip-rule="nonzero"/></clipPath><clipPath id="afa4b17338"><path d="M 2.445312 17 L 5 17 L 5 22 L 2.445312 22 Z M 2.445312 17 " clip-rule="nonzero"/></clipPath><clipPath id="fc402d1583"><path d="M 2.445312 18.148438 C 2.722656 20.070312 3.980469 21.769531 5.585938 22.886719 C 7.191406 24.003906 9.117188 24.585938 11.054688 24.894531 C 14.351562 25.410156 17.589844 25.183594 20.777344 24.214844 C 22.246094 23.765625 23.683594 23.152344 24.933594 22.257812 C 26.183594 21.367188 27.246094 20.179688 27.839844 18.769531 C 27.945312 18.53125 28.015625 18.207031 27.808594 18.039062 C 27.648438 17.90625 27.402344 17.957031 27.199219 18.011719 C 22.746094 19.214844 18.273438 19.285156 13.78125 18.214844 C 11.925781 17.769531 10.109375 17.128906 8.21875 16.890625 C 6.324219 16.652344 4.277344 16.871094 2.742188 17.992188 " clip-rule="nonzero"/></clipPath><clipPath id="2414fbce7a"><path d="M 2.445312 17 L 5 17 L 5 20 L 2.445312 20 Z M 2.445312 17 " clip-rule="nonzero"/></clipPath><clipPath id="8922656738"><path d="M 2.445312 18.148438 C 2.722656 20.070312 3.980469 21.769531 5.585938 22.886719 C 7.191406 24.003906 9.117188 24.585938 11.054688 24.894531 C 14.351562 25.410156 17.589844 25.183594 20.777344 24.214844 C 22.246094 23.765625 23.683594 23.152344 24.933594 22.257812 C 26.183594 21.367188 27.246094 20.179688 27.839844 18.769531 C 27.945312 18.53125 28.015625 18.207031 27.808594 18.039062 C 27.648438 17.90625 27.402344 17.957031 27.199219 18.011719 C 22.746094 19.214844 18.273438 19.285156 13.78125 18.214844 C 11.925781 17.769531 10.109375 17.128906 8.21875 16.890625 C 6.324219 16.652344 4.277344 16.871094 2.742188 17.992188 " clip-rule="nonzero"/></clipPath><clipPath id="2db6735a2c"><path d="M 2.445312 17 L 7 17 L 7 21 L 2.445312 21 Z M 2.445312 17 " clip-rule="nonzero"/></clipPath><clipPath id="a79ae690fa"><path d="M 2.445312 18.148438 C 2.722656 20.070312 3.980469 21.769531 5.585938 22.886719 C 7.191406 24.003906 9.117188 24.585938 11.054688 24.894531 C 14.351562 25.410156 17.589844 25.183594 20.777344 24.214844 C 22.246094 23.765625 23.683594 23.152344 24.933594 22.257812 C 26.183594 21.367188 27.246094 20.179688 27.839844 18.769531 C 27.945312 18.53125 28.015625 18.207031 27.808594 18.039062 C 27.648438 17.90625 27.402344 17.957031 27.199219 18.011719 C 22.746094 19.214844 18.273438 19.285156 13.78125 18.214844 C 11.925781 17.769531 10.109375 17.128906 8.21875 16.890625 C 6.324219 16.652344 4.277344 16.871094 2.742188 17.992188 " clip-rule="nonzero"/></clipPath><clipPath id="b054c65ebf"><path d="M 2.445312 18 L 18 18 L 18 24 L 2.445312 24 Z M 2.445312 18 " clip-rule="nonzero"/></clipPath><clipPath id="180f92805e"><path d="M 2.445312 18.148438 C 2.722656 20.070312 3.980469 21.769531 5.585938 22.886719 C 7.191406 24.003906 9.117188 24.585938 11.054688 24.894531 C 14.351562 25.410156 17.589844 25.183594 20.777344 24.214844 C 22.246094 23.765625 23.683594 23.152344 24.933594 22.257812 C 26.183594 21.367188 27.246094 20.179688 27.839844 18.769531 C 27.945312 18.53125 28.015625 18.207031 27.808594 18.039062 C 27.648438 17.90625 27.402344 17.957031 27.199219 18.011719 C 22.746094 19.214844 18.273438 19.285156 13.78125 18.214844 C 11.925781 17.769531 10.109375 17.128906 8.21875 16.890625 C 6.324219 16.652344 4.277344 16.871094 2.742188 17.992188 " clip-rule="nonzero"/></clipPath><clipPath id="ffea87de39"><path d="M 11 20 L 21 20 L 21 25.207031 L 11 25.207031 Z M 11 20 " clip-rule="nonzero"/></clipPath><clipPath id="32100a4c1e"><path d="M 2.445312 18.148438 C 2.722656 20.070312 3.980469 21.769531 5.585938 22.886719 C 7.191406 24.003906 9.117188 24.585938 11.054688 24.894531 C 14.351562 25.410156 17.589844 25.183594 20.777344 24.214844 C 22.246094 23.765625 23.683594 23.152344 24.933594 22.257812 C 26.183594 21.367188 27.246094 20.179688 27.839844 18.769531 C 27.945312 18.53125 28.015625 18.207031 27.808594 18.039062 C 27.648438 17.90625 27.402344 17.957031 27.199219 18.011719 C 22.746094 19.214844 18.273438 19.285156 13.78125 18.214844 C 11.925781 17.769531 10.109375 17.128906 8.21875 16.890625 C 6.324219 16.652344 4.277344 16.871094 2.742188 17.992188 " clip-rule="nonzero"/></clipPath><clipPath id="2340678b97"><path d="M 19 19 L 24 19 L 24 25.207031 L 19 25.207031 Z M 19 19 " clip-rule="nonzero"/></clipPath><clipPath id="acdb9605b4"><path d="M 2.445312 18.148438 C 2.722656 20.070312 3.980469 21.769531 5.585938 22.886719 C 7.191406 24.003906 9.117188 24.585938 11.054688 24.894531 C 14.351562 25.410156 17.589844 25.183594 20.777344 24.214844 C 22.246094 23.765625 23.683594 23.152344 24.933594 22.257812 C 26.183594 21.367188 27.246094 20.179688 27.839844 18.769531 C 27.945312 18.53125 28.015625 18.207031 27.808594 18.039062 C 27.648438 17.90625 27.402344 17.957031 27.199219 18.011719 C 22.746094 19.214844 18.273438 19.285156 13.78125 18.214844 C 11.925781 17.769531 10.109375 17.128906 8.21875 16.890625 C 6.324219 16.652344 4.277344 16.871094 2.742188 17.992188 " clip-rule="nonzero"/></clipPath><clipPath id="90aa92a115"><path d="M 24 18 L 27 18 L 27 23 L 24 23 Z M 24 18 " clip-rule="nonzero"/></clipPath><clipPath id="59e118d908"><path d="M 2.445312 18.148438 C 2.722656 20.070312 3.980469 21.769531 5.585938 22.886719 C 7.191406 24.003906 9.117188 24.585938 11.054688 24.894531 C 14.351562 25.410156 17.589844 25.183594 20.777344 24.214844 C 22.246094 23.765625 23.683594 23.152344 24.933594 22.257812 C 26.183594 21.367188 27.246094 20.179688 27.839844 18.769531 C 27.945312 18.53125 28.015625 18.207031 27.808594 18.039062 C 27.648438 17.90625 27.402344 17.957031 27.199219 18.011719 C 22.746094 19.214844 18.273438 19.285156 13.78125 18.214844 C 11.925781 17.769531 10.109375 17.128906 8.21875 16.890625 C 6.324219 16.652344 4.277344 16.871094 2.742188 17.992188 " clip-rule="nonzero"/></clipPath><clipPath id="128bb10f49"><path d="M 2 3 L 28.964844 3 L 28.964844 19 L 2 19 Z M 2 3 " clip-rule="nonzero"/></clipPath><clipPath id="e23fe98b03"><path d="M 20 5 L 28 5 L 28 14 L 20 14 Z M 20 5 " clip-rule="nonzero"/></clipPath><clipPath id="6583ce2271"><path d="M 28.058594 17.277344 C 19.375 19.28125 10.824219 18.84375 2.40625 15.960938 L 2.425781 15.59375 C 2.675781 12.398438 4.027344 9.269531 6.289062 6.949219 C 8.554688 4.628906 11.738281 3.152344 15.015625 3.03125 C 18.296875 2.910156 21.632812 4.171875 23.875 6.515625 C 26.421875 9.171875 27.410156 12.898438 27.984375 16.496094 Z M 28.058594 17.277344 " clip-rule="nonzero"/></clipPath><clipPath id="a69eaf5b6b"><path d="M 13 7 L 22 7 L 22 15 L 13 15 Z M 13 7 " clip-rule="nonzero"/></clipPath><clipPath id="cab4962b0c"><path d="M 28.058594 17.277344 C 19.375 19.28125 10.824219 18.84375 2.40625 15.960938 L 2.425781 15.59375 C 2.675781 12.398438 4.027344 9.269531 6.289062 6.949219 C 8.554688 4.628906 11.738281 3.152344 15.015625 3.03125 C 18.296875 2.910156 21.632812 4.171875 23.875 6.515625 C 26.421875 9.171875 27.410156 12.898438 27.984375 16.496094 Z M 28.058594 17.277344 " clip-rule="nonzero"/></clipPath><clipPath id="127e58b326"><path d="M 19 14 L 28.097656 14 L 28.097656 18.503906 L 19 18.503906 Z M 19 14 " clip-rule="nonzero"/></clipPath><clipPath id="37b318678c"><path d="M 28.058594 17.277344 C 19.375 19.28125 10.824219 18.84375 2.40625 15.960938 L 2.425781 15.59375 C 2.675781 12.398438 4.027344 9.269531 6.289062 6.949219 C 8.554688 4.628906 11.738281 3.152344 15.015625 3.03125 C 18.296875 2.910156 21.632812 4.171875 23.875 6.515625 C 26.421875 9.171875 27.410156 12.898438 27.984375 16.496094 Z M 28.058594 17.277344 " clip-rule="nonzero"/></clipPath><clipPath id="af64d65dc6"><path d="M 12 3.019531 L 24 3.019531 L 24 8 L 12 8 Z M 12 3.019531 " clip-rule="nonzero"/></clipPath><clipPath id="2d97044f49"><path d="M 28.058594 17.277344 C 19.375 19.28125 10.824219 18.84375 2.40625 15.960938 L 2.425781 15.59375 C 2.675781 12.398438 4.027344 9.269531 6.289062 6.949219 C 8.554688 4.628906 11.738281 3.152344 15.015625 3.03125 C 18.296875 2.910156 21.632812 4.171875 23.875 6.515625 C 26.421875 9.171875 27.410156 12.898438 27.984375 16.496094 Z M 28.058594 17.277344 " clip-rule="nonzero"/></clipPath><clipPath id="232e8ea25e"><path d="M 5 3.019531 L 15 3.019531 L 15 10 L 5 10 Z M 5 3.019531 " clip-rule="nonzero"/></clipPath><clipPath id="ff9b76d708"><path d="M 28.058594 17.277344 C 19.375 19.28125 10.824219 18.84375 2.40625 15.960938 L 2.425781 15.59375 C 2.675781 12.398438 4.027344 9.269531 6.289062 6.949219 C 8.554688 4.628906 11.738281 3.152344 15.015625 3.03125 C 18.296875 2.910156 21.632812 4.171875 23.875 6.515625 C 26.421875 9.171875 27.410156 12.898438 27.984375 16.496094 Z M 28.058594 17.277344 " clip-rule="nonzero"/></clipPath><clipPath id="30d7c2b5bd"><path d="M 2.363281 6 L 7 6 L 7 15 L 2.363281 15 Z M 2.363281 6 " clip-rule="nonzero"/></clipPath><clipPath id="7aa280eafb"><path d="M 28.058594 17.277344 C 19.375 19.28125 10.824219 18.84375 2.40625 15.960938 L 2.425781 15.59375 C 2.675781 12.398438 4.027344 9.269531 6.289062 6.949219 C 8.554688 4.628906 11.738281 3.152344 15.015625 3.03125 C 18.296875 2.910156 21.632812 4.171875 23.875 6.515625 C 26.421875 9.171875 27.410156 12.898438 27.984375 16.496094 Z M 28.058594 17.277344 " clip-rule="nonzero"/></clipPath><clipPath id="ab4a77b31d"><path d="M 6 10 L 15 10 L 15 18 L 6 18 Z M 6 10 " clip-rule="nonzero"/></clipPath><clipPath id="a78bda5f0e"><path d="M 28.058594 17.277344 C 19.375 19.28125 10.824219 18.84375 2.40625 15.960938 L 2.425781 15.59375 C 2.675781 12.398438 4.027344 9.269531 6.289062 6.949219 C 8.554688 4.628906 11.738281 3.152344 15.015625 3.03125 C 18.296875 2.910156 21.632812 4.171875 23.875 6.515625 C 26.421875 9.171875 27.410156 12.898438 27.984375 16.496094 Z M 28.058594 17.277344 " clip-rule="nonzero"/></clipPath><clipPath id="a765e19de7"><path d="M 13 15 L 20 15 L 20 18.503906 L 13 18.503906 Z M 13 15 " clip-rule="nonzero"/></clipPath><clipPath id="7229f97dd5"><path d="M 28.058594 17.277344 C 19.375 19.28125 10.824219 18.84375 2.40625 15.960938 L 2.425781 15.59375 C 2.675781 12.398438 4.027344 9.269531 6.289062 6.949219 C 8.554688 4.628906 11.738281 3.152344 15.015625 3.03125 C 18.296875 2.910156 21.632812 4.171875 23.875 6.515625 C 26.421875 9.171875 27.410156 12.898438 27.984375 16.496094 Z M 28.058594 17.277344 " clip-rule="nonzero"/></clipPath><clipPath id="edf4a96208"><path d="M 20 14 L 28.097656 14 L 28.097656 18.503906 L 20 18.503906 Z M 20 14 " clip-rule="nonzero"/></clipPath><clipPath id="a646436ee9"><path d="M 28.058594 17.277344 C 19.375 19.28125 10.824219 18.84375 2.40625 15.960938 L 2.425781 15.59375 C 2.675781 12.398438 4.027344 9.269531 6.289062 6.949219 C 8.554688 4.628906 11.738281 3.152344 15.015625 3.03125 C 18.296875 2.910156 21.632812 4.171875 23.875 6.515625 C 26.421875 9.171875 27.410156 12.898438 27.984375 16.496094 Z M 28.058594 17.277344 " clip-rule="nonzero"/></clipPath><clipPath id="e915b0eae3"><path d="M 21 6 L 28 6 L 28 13 L 21 13 Z M 21 6 " clip-rule="nonzero"/></clipPath><clipPath id="311fde305f"><path d="M 28.058594 17.277344 C 19.375 19.28125 10.824219 18.84375 2.40625 15.960938 L 2.425781 15.59375 C 2.675781 12.398438 4.027344 9.269531 6.289062 6.949219 C 8.554688 4.628906 11.738281 3.152344 15.015625 3.03125 C 18.296875 2.910156 21.632812 4.171875 23.875 6.515625 C 26.421875 9.171875 27.410156 12.898438 27.984375 16.496094 Z M 28.058594 17.277344 " clip-rule="nonzero"/></clipPath><clipPath id="de64de636f"><path d="M 13 8 L 21 8 L 21 15 L 13 15 Z M 13 8 " clip-rule="nonzero"/></clipPath><clipPath id="eec37cdc62"><path d="M 28.058594 17.277344 C 19.375 19.28125 10.824219 18.84375 2.40625 15.960938 L 2.425781 15.59375 C 2.675781 12.398438 4.027344 9.269531 6.289062 6.949219 C 8.554688 4.628906 11.738281 3.152344 15.015625 3.03125 C 18.296875 2.910156 21.632812 4.171875 23.875 6.515625 C 26.421875 9.171875 27.410156 12.898438 27.984375 16.496094 Z M 28.058594 17.277344 " clip-rule="nonzero"/></clipPath><clipPath id="72d816f11a"><path d="M 13 3.019531 L 22 3.019531 L 22 7 L 13 7 Z M 13 3.019531 " clip-rule="nonzero"/></clipPath><clipPath id="5feafc1f0b"><path d="M 28.058594 17.277344 C 19.375 19.28125 10.824219 18.84375 2.40625 15.960938 L 2.425781 15.59375 C 2.675781 12.398438 4.027344 9.269531 6.289062 6.949219 C 8.554688 4.628906 11.738281 3.152344 15.015625 3.03125 C 18.296875 2.910156 21.632812 4.171875 23.875 6.515625 C 26.421875 9.171875 27.410156 12.898438 27.984375 16.496094 Z M 28.058594 17.277344 " clip-rule="nonzero"/></clipPath><clipPath id="00cf917b41"><path d="M 6 3.019531 L 14 3.019531 L 14 9 L 6 9 Z M 6 3.019531 " clip-rule="nonzero"/></clipPath><clipPath id="786615de8f"><path d="M 28.058594 17.277344 C 19.375 19.28125 10.824219 18.84375 2.40625 15.960938 L 2.425781 15.59375 C 2.675781 12.398438 4.027344 9.269531 6.289062 6.949219 C 8.554688 4.628906 11.738281 3.152344 15.015625 3.03125 C 18.296875 2.910156 21.632812 4.171875 23.875 6.515625 C 26.421875 9.171875 27.410156 12.898438 27.984375 16.496094 Z M 28.058594 17.277344 " clip-rule="nonzero"/></clipPath><clipPath id="ea82371691"><path d="M 2.363281 8 L 6 8 L 6 15 L 2.363281 15 Z M 2.363281 8 " clip-rule="nonzero"/></clipPath><clipPath id="75c717e093"><path d="M 28.058594 17.277344 C 19.375 19.28125 10.824219 18.84375 2.40625 15.960938 L 2.425781 15.59375 C 2.675781 12.398438 4.027344 9.269531 6.289062 6.949219 C 8.554688 4.628906 11.738281 3.152344 15.015625 3.03125 C 18.296875 2.910156 21.632812 4.171875 23.875 6.515625 C 26.421875 9.171875 27.410156 12.898438 27.984375 16.496094 Z M 28.058594 17.277344 " clip-rule="nonzero"/></clipPath><clipPath id="c6618425c0"><path d="M 7 10 L 14 10 L 14 17 L 7 17 Z M 7 10 " clip-rule="nonzero"/></clipPath><clipPath id="ad214d8dbd"><path d="M 28.058594 17.277344 C 19.375 19.28125 10.824219 18.84375 2.40625 15.960938 L 2.425781 15.59375 C 2.675781 12.398438 4.027344 9.269531 6.289062 6.949219 C 8.554688 4.628906 11.738281 3.152344 15.015625 3.03125 C 18.296875 2.910156 21.632812 4.171875 23.875 6.515625 C 26.421875 9.171875 27.410156 12.898438 27.984375 16.496094 Z M 28.058594 17.277344 " clip-rule="nonzero"/></clipPath><clipPath id="7f48025a56"><path d="M 14 16 L 19 16 L 19 18.503906 L 14 18.503906 Z M 14 16 " clip-rule="nonzero"/></clipPath><clipPath id="c794ad9b78"><path d="M 28.058594 17.277344 C 19.375 19.28125 10.824219 18.84375 2.40625 15.960938 L 2.425781 15.59375 C 2.675781 12.398438 4.027344 9.269531 6.289062 6.949219 C 8.554688 4.628906 11.738281 3.152344 15.015625 3.03125 C 18.296875 2.910156 21.632812 4.171875 23.875 6.515625 C 26.421875 9.171875 27.410156 12.898438 27.984375 16.496094 Z M 28.058594 17.277344 " clip-rule="nonzero"/></clipPath><clipPath id="8e3be2ec0c"><path d="M 3.425781 17 L 6 17 L 6 20 L 3.425781 20 Z M 3.425781 17 " clip-rule="nonzero"/></clipPath><clipPath id="429cab0a0e"><path d="M 3.46875 18.28125 C 4.78125 18.875 5.441406 20.320312 6.566406 21.207031 C 7.902344 22.261719 9.804688 22.417969 11.472656 22.019531 C 13.144531 21.621094 14.644531 20.734375 16.113281 19.859375 C 15.589844 19.316406 14.886719 18.980469 14.199219 18.664062 C 13.0625 18.132812 11.917969 17.609375 10.714844 17.257812 C 9.507812 16.910156 8.230469 16.734375 6.988281 16.925781 C 5.742188 17.113281 4.605469 17.644531 3.484375 18.183594 " clip-rule="nonzero"/></clipPath><clipPath id="ab582cb094"><path d="M 3.425781 17 L 7 17 L 7 20 L 3.425781 20 Z M 3.425781 17 " clip-rule="nonzero"/></clipPath><clipPath id="dc439aa851"><path d="M 3.46875 18.28125 C 4.78125 18.875 5.441406 20.320312 6.566406 21.207031 C 7.902344 22.261719 9.804688 22.417969 11.472656 22.019531 C 13.144531 21.621094 14.644531 20.734375 16.113281 19.859375 C 15.589844 19.316406 14.886719 18.980469 14.199219 18.664062 C 13.0625 18.132812 11.917969 17.609375 10.714844 17.257812 C 9.507812 16.910156 8.230469 16.734375 6.988281 16.925781 C 5.742188 17.113281 4.605469 17.644531 3.484375 18.183594 " clip-rule="nonzero"/></clipPath><clipPath id="ff87ae73db"><path d="M 4 17 L 16.167969 17 L 16.167969 21 L 4 21 Z M 4 17 " clip-rule="nonzero"/></clipPath><clipPath id="06ad1cba69"><path d="M 3.46875 18.28125 C 4.78125 18.875 5.441406 20.320312 6.566406 21.207031 C 7.902344 22.261719 9.804688 22.417969 11.472656 22.019531 C 13.144531 21.621094 14.644531 20.734375 16.113281 19.859375 C 15.589844 19.316406 14.886719 18.980469 14.199219 18.664062 C 13.0625 18.132812 11.917969 17.609375 10.714844 17.257812 C 9.507812 16.910156 8.230469 16.734375 6.988281 16.925781 C 5.742188 17.113281 4.605469 17.644531 3.484375 18.183594 " clip-rule="nonzero"/></clipPath><clipPath id="26859242b7"><path d="M 13 19 L 16 19 L 16 21 L 13 21 Z M 13 19 " clip-rule="nonzero"/></clipPath><clipPath id="3cf20cd060"><path d="M 3.46875 18.28125 C 4.78125 18.875 5.441406 20.320312 6.566406 21.207031 C 7.902344 22.261719 9.804688 22.417969 11.472656 22.019531 C 13.144531 21.621094 14.644531 20.734375 16.113281 19.859375 C 15.589844 19.316406 14.886719 18.980469 14.199219 18.664062 C 13.0625 18.132812 11.917969 17.609375 10.714844 17.257812 C 9.507812 16.910156 8.230469 16.734375 6.988281 16.925781 C 5.742188 17.113281 4.605469 17.644531 3.484375 18.183594 " clip-rule="nonzero"/></clipPath><clipPath id="442a0f634c"><path d="M 13 19 L 16 19 L 16 22 L 13 22 Z M 13 19 " clip-rule="nonzero"/></clipPath><clipPath id="736243d951"><path d="M 3.46875 18.28125 C 4.78125 18.875 5.441406 20.320312 6.566406 21.207031 C 7.902344 22.261719 9.804688 22.417969 11.472656 22.019531 C 13.144531 21.621094 14.644531 20.734375 16.113281 19.859375 C 15.589844 19.316406 14.886719 18.980469 14.199219 18.664062 C 13.0625 18.132812 11.917969 17.609375 10.714844 17.257812 C 9.507812 16.910156 8.230469 16.734375 6.988281 16.925781 C 5.742188 17.113281 4.605469 17.644531 3.484375 18.183594 " clip-rule="nonzero"/></clipPath><clipPath id="66cae1d6ba"><path d="M 12 19 L 15 19 L 15 22.253906 L 12 22.253906 Z M 12 19 " clip-rule="nonzero"/></clipPath><clipPath id="701b397ded"><path d="M 3.46875 18.28125 C 4.78125 18.875 5.441406 20.320312 6.566406 21.207031 C 7.902344 22.261719 9.804688 22.417969 11.472656 22.019531 C 13.144531 21.621094 14.644531 20.734375 16.113281 19.859375 C 15.589844 19.316406 14.886719 18.980469 14.199219 18.664062 C 13.0625 18.132812 11.917969 17.609375 10.714844 17.257812 C 9.507812 16.910156 8.230469 16.734375 6.988281 16.925781 C 5.742188 17.113281 4.605469 17.644531 3.484375 18.183594 " clip-rule="nonzero"/></clipPath><clipPath id="4ace03835d"><path d="M 5 18 L 10 18 L 10 20 L 5 20 Z M 5 18 " clip-rule="nonzero"/></clipPath><clipPath id="2fc45d185f"><path d="M 3.46875 18.28125 C 4.78125 18.875 5.441406 20.320312 6.566406 21.207031 C 7.902344 22.261719 9.804688 22.417969 11.472656 22.019531 C 13.144531 21.621094 14.644531 20.734375 16.113281 19.859375 C 15.589844 19.316406 14.886719 18.980469 14.199219 18.664062 C 13.0625 18.132812 11.917969 17.609375 10.714844 17.257812 C 9.507812 16.910156 8.230469 16.734375 6.988281 16.925781 C 5.742188 17.113281 4.605469 17.644531 3.484375 18.183594 " clip-rule="nonzero"/></clipPath><clipPath id="3d85c5f764"><path d="M 11 19 L 15 19 L 15 22.253906 L 11 22.253906 Z M 11 19 " clip-rule="nonzero"/></clipPath><clipPath id="b13d86b65e"><path d="M 3.46875 18.28125 C 4.78125 18.875 5.441406 20.320312 6.566406 21.207031 C 7.902344 22.261719 9.804688 22.417969 11.472656 22.019531 C 13.144531 21.621094 14.644531 20.734375 16.113281 19.859375 C 15.589844 19.316406 14.886719 18.980469 14.199219 18.664062 C 13.0625 18.132812 11.917969 17.609375 10.714844 17.257812 C 9.507812 16.910156 8.230469 16.734375 6.988281 16.925781 C 5.742188 17.113281 4.605469 17.644531 3.484375 18.183594 " clip-rule="nonzero"/></clipPath><clipPath id="48176be44f"><path d="M 1.382812 15 L 28.964844 15 L 28.964844 21 L 1.382812 21 Z M 1.382812 15 " clip-rule="nonzero"/></clipPath></defs><g clip-path="url(#5d8d2f0d26)"><path fill="#ffffff" d="M 0.484375 0 L 29.515625 0 L 29.515625 29.03125 L 0.484375 29.03125 Z M 0.484375 0 " fill-opacity="1" fill-rule="nonzero"/><path fill="#ffffff" d="M 0.484375 0 L 29.515625 0 L 29.515625 29.03125 L 0.484375 29.03125 Z M 0.484375 0 " fill-opacity="1" fill-rule="nonzero"/></g><g clip-path="url(#2e736b2a1d)"><path fill="#f7e966" d="M 2.445312 18.148438 C 2.722656 20.070312 3.980469 21.769531 5.585938 22.886719 C 7.191406 24.003906 9.117188 24.585938 11.054688 24.894531 C 14.351562 25.410156 17.589844 25.183594 20.777344 24.214844 C 22.246094 23.765625 23.683594 23.152344 24.933594 22.257812 C 26.183594 21.367188 27.246094 20.179688 27.839844 18.769531 C 27.945312 18.53125 28.015625 18.207031 27.808594 18.039062 C 27.648438 17.90625 27.402344 17.957031 27.199219 18.011719 C 22.746094 19.214844 18.273438 19.285156 13.78125 18.214844 C 11.925781 17.769531 10.109375 17.128906 8.21875 16.890625 C 6.324219 16.652344 4.277344 16.871094 2.742188 17.992188 " fill-opacity="1" fill-rule="nonzero"/></g><g clip-path="url(#163998e8f4)"><g clip-path="url(#c09ceb94c0)"><path fill="#ddcd58" d="M 13.402344 21.222656 C 16.269531 20.523438 19.257812 21.230469 22.164062 20.878906 C 24.925781 20.550781 27.4375 19.601562 29.707031 18.03125 C 30.34375 17.585938 29.734375 16.546875 29.089844 16.996094 C 26.929688 18.5 24.390625 19.476562 21.746094 19.726562 C 18.855469 20 15.929688 19.371094 13.078125 20.070312 C 12.3125 20.257812 12.636719 21.410156 13.402344 21.222656 Z M 13.402344 21.222656 " fill-opacity="1" fill-rule="nonzero"/></g></g><g clip-path="url(#78c8b20a54)"><g clip-path="url(#ed85c693a2)"><path fill="#ddcd58" d="M 26.910156 19.464844 C 26.910156 19.464844 27.054688 19.519531 27 19.492188 C 26.945312 19.46875 27.070312 19.539062 27.082031 19.542969 C 27.171875 19.59375 27.078125 19.535156 27.121094 19.574219 C 27.164062 19.613281 27.191406 19.640625 27.222656 19.675781 C 27.183594 19.628906 27.214844 19.65625 27.234375 19.691406 C 27.257812 19.722656 27.285156 19.769531 27.308594 19.8125 C 27.332031 19.859375 27.300781 19.757812 27.324219 19.855469 C 27.328125 19.882812 27.363281 20.042969 27.347656 19.921875 C 27.386719 20.242188 27.601562 20.519531 27.960938 20.519531 C 28.261719 20.519531 28.613281 20.246094 28.574219 19.921875 C 28.480469 19.160156 28 18.539062 27.234375 18.308594 C 27.074219 18.273438 26.921875 18.292969 26.78125 18.375 C 26.636719 18.457031 26.542969 18.578125 26.5 18.734375 C 26.453125 18.886719 26.472656 19.039062 26.550781 19.179688 C 26.632812 19.320312 26.75 19.417969 26.910156 19.464844 Z M 26.910156 19.464844 " fill-opacity="1" fill-rule="nonzero"/></g></g><g clip-path="url(#497748b8f1)"><g clip-path="url(#df75dc57d0)"><path fill="#ddcd58" d="M 25.613281 19.855469 C 25.992188 19.816406 26.53125 19.71875 26.832031 20.003906 C 27.132812 20.289062 27.085938 20.832031 27.054688 21.210938 C 27 21.980469 28.226562 21.976562 28.28125 21.210938 C 28.335938 20.484375 28.25 19.703125 27.699219 19.15625 C 27.148438 18.613281 26.351562 18.585938 25.613281 18.65625 C 25.289062 18.6875 25.003906 18.910156 25.003906 19.253906 C 25.003906 19.554688 25.285156 19.886719 25.613281 19.855469 Z M 25.613281 19.855469 " fill-opacity="1" fill-rule="nonzero"/></g></g><g clip-path="url(#afa4b17338)"><g clip-path="url(#fc402d1583)"><path fill="#ddcd58" d="M 3.308594 20.125 C 2.878906 19.417969 4.039062 19.007812 4.535156 18.890625 C 5.300781 18.707031 4.976562 17.550781 4.207031 17.734375 C 3.488281 17.90625 2.769531 18.214844 2.339844 18.832031 C 2.140625 19.113281 2.03125 19.425781 2.015625 19.765625 C 2 20.109375 2.078125 20.429688 2.253906 20.730469 C 2.65625 21.390625 3.714844 20.789062 3.316406 20.125 Z M 3.308594 20.125 " fill-opacity="1" fill-rule="nonzero"/></g></g><g clip-path="url(#2414fbce7a)"><g clip-path="url(#8922656738)"><path fill="#ddcd58" d="M 3.039062 19.230469 C 3.148438 18.878906 3.378906 18.640625 3.734375 18.519531 C 3.894531 18.46875 4.015625 18.375 4.097656 18.234375 C 4.179688 18.09375 4.199219 17.941406 4.160156 17.785156 C 4.078125 17.484375 3.722656 17.265625 3.40625 17.367188 C 3.03125 17.480469 2.707031 17.675781 2.433594 17.953125 C 2.15625 18.226562 1.964844 18.546875 1.855469 18.914062 C 1.632812 19.65625 2.816406 19.972656 3.035156 19.234375 Z M 3.039062 19.230469 " fill-opacity="1" fill-rule="nonzero"/></g></g><g clip-path="url(#2db6735a2c)"><g clip-path="url(#a79ae690fa)"><path fill="#ddcd58" d="M 6.175781 19.070312 C 5.394531 18.742188 4.589844 18.417969 3.722656 18.550781 C 3.347656 18.601562 3.015625 18.742188 2.71875 18.972656 C 2.421875 19.199219 2.203125 19.484375 2.066406 19.828125 L 3.183594 19.6875 C 2.746094 19.074219 2.414062 18.40625 2.191406 17.6875 C 1.96875 16.953125 0.785156 17.265625 1.011719 18.007812 C 1.257812 18.828125 1.628906 19.589844 2.128906 20.292969 C 2.445312 20.742188 3.046875 20.632812 3.246094 20.148438 C 3.375 19.839844 3.808594 19.71875 4.117188 19.714844 C 4.613281 19.703125 5.109375 19.914062 5.554688 20.101562 C 5.863281 20.230469 6.207031 20.191406 6.394531 19.886719 C 6.546875 19.636719 6.476562 19.195312 6.175781 19.070312 Z M 6.175781 19.070312 " fill-opacity="1" fill-rule="nonzero"/></g></g><g clip-path="url(#b054c65ebf)"><g clip-path="url(#180f92805e)"><path fill="#cebb3a" d="M 2.222656 18.261719 C 2.695312 19.394531 3.382812 20.382812 4.28125 21.230469 C 5.179688 22.078125 6.210938 22.722656 7.375 23.164062 C 8.550781 23.609375 9.769531 23.792969 11.027344 23.707031 C 12.308594 23.617188 13.519531 23.28125 14.660156 22.695312 C 15.800781 22.113281 16.765625 21.328125 17.558594 20.339844 C 17.652344 20.21875 17.746094 20.097656 17.832031 19.972656 C 17.921875 19.851562 17.710938 19.726562 17.621094 19.851562 C 16.902344 20.851562 16.003906 21.65625 14.925781 22.273438 C 13.851562 22.894531 12.691406 23.277344 11.453125 23.425781 C 10.234375 23.570312 9.042969 23.453125 7.875 23.082031 C 6.726562 22.710938 5.695312 22.132812 4.785156 21.355469 C 3.875 20.578125 3.160156 19.660156 2.636719 18.597656 C 2.574219 18.464844 2.515625 18.332031 2.457031 18.195312 C 2.398438 18.058594 2.164062 18.117188 2.222656 18.261719 Z M 2.222656 18.261719 " fill-opacity="1" fill-rule="nonzero"/></g></g><g clip-path="url(#ffea87de39)"><g clip-path="url(#32100a4c1e)"><path fill="#cebb3a" d="M 20.226562 20.320312 C 19.636719 21.4375 18.851562 22.398438 17.863281 23.207031 C 17.039062 23.878906 16.125 24.398438 15.121094 24.769531 C 14.117188 25.136719 13.078125 25.335938 12.003906 25.359375 C 11.949219 25.359375 11.921875 25.386719 11.921875 25.441406 C 11.921875 25.492188 11.949219 25.519531 12.003906 25.519531 C 13.425781 25.484375 14.78125 25.160156 16.058594 24.546875 C 17.960938 23.625 19.394531 22.246094 20.367188 20.40625 C 20.417969 20.3125 20.277344 20.230469 20.226562 20.324219 Z M 20.226562 20.320312 " fill-opacity="1" fill-rule="nonzero"/></g></g><g clip-path="url(#2340678b97)"><g clip-path="url(#acdb9605b4)"><path fill="#cebb3a" d="M 23.632812 19.785156 C 23.117188 21.566406 22.109375 23.027344 20.617188 24.167969 C 20.203125 24.484375 19.765625 24.757812 19.300781 24.992188 C 19.207031 25.039062 19.289062 25.175781 19.382812 25.128906 C 21.097656 24.253906 22.378906 22.964844 23.230469 21.269531 C 23.460938 20.804688 23.648438 20.328125 23.789062 19.832031 C 23.796875 19.785156 23.777344 19.753906 23.730469 19.738281 C 23.683594 19.726562 23.648438 19.742188 23.632812 19.789062 Z M 23.632812 19.785156 " fill-opacity="1" fill-rule="nonzero"/></g></g><g clip-path="url(#90aa92a115)"><g clip-path="url(#59e118d908)"><path fill="#cebb3a" d="M 26.585938 18.769531 C 26.453125 20.285156 25.921875 21.648438 24.984375 22.863281 C 24.921875 22.941406 25.066406 23.023438 25.125 22.941406 C 25.859375 21.988281 26.351562 20.925781 26.601562 19.757812 C 26.671875 19.429688 26.71875 19.101562 26.746094 18.769531 C 26.753906 18.667969 26.59375 18.667969 26.585938 18.769531 Z M 26.585938 18.769531 " fill-opacity="1" fill-rule="nonzero"/></g></g><g clip-path="url(#128bb10f49)"><path fill="#a07050" d="M 28.058594 17.277344 C 23.804688 18.257812 19.496094 18.636719 15.132812 18.414062 C 10.769531 18.191406 6.527344 17.371094 2.40625 15.960938 L 2.425781 15.59375 C 2.675781 12.398438 4.027344 9.269531 6.289062 6.949219 C 8.554688 4.628906 11.738281 3.152344 15.015625 3.03125 C 18.296875 2.910156 21.632812 4.171875 23.875 6.515625 C 26.421875 9.171875 27.410156 12.898438 27.984375 16.496094 Z M 28.058594 17.277344 " fill-opacity="1" fill-rule="nonzero"/></g><g clip-path="url(#e23fe98b03)"><g clip-path="url(#6583ce2271)"><path fill="#c68b61" d="M 24.929688 5.914062 L 22.785156 6.648438 C 22.230469 6.839844 21.609375 6.992188 21.144531 7.363281 C 20.746094 7.675781 20.53125 8.15625 20.660156 8.652344 C 20.796875 9.1875 21.246094 9.5625 21.53125 10.019531 C 21.851562 10.539062 22.019531 11.136719 22.347656 11.652344 C 22.65625 12.140625 23.066406 12.53125 23.570312 12.820312 C 24.742188 13.503906 26.140625 13.546875 27.464844 13.566406 C 27.988281 13.578125 27.988281 12.777344 27.464844 12.769531 C 26.371094 12.753906 25.207031 12.746094 24.207031 12.25 C 23.746094 12.035156 23.371094 11.71875 23.085938 11.304688 C 22.808594 10.882812 22.644531 10.40625 22.421875 9.960938 C 22.214844 9.546875 21.917969 9.21875 21.65625 8.84375 C 21.339844 8.394531 21.425781 8.070312 21.917969 7.816406 C 22.371094 7.585938 22.890625 7.457031 23.371094 7.292969 L 25.144531 6.683594 C 25.632812 6.515625 25.425781 5.742188 24.925781 5.914062 Z M 24.929688 5.914062 " fill-opacity="1" fill-rule="nonzero"/></g></g><g clip-path="url(#a69eaf5b6b)"><g clip-path="url(#cab4962b0c)"><path fill="#c68b61" d="M 17.964844 8.519531 L 19.324219 10.402344 C 19.75 10.988281 20.230469 11.5625 20.589844 12.1875 C 20.910156 12.738281 20.992188 13.328125 20.269531 13.5625 C 19.621094 13.773438 18.894531 13.828125 18.222656 13.945312 C 17.519531 14.066406 16.6875 14.332031 15.980469 14.125 C 15.34375 13.9375 14.9375 13.339844 14.691406 12.773438 C 14.433594 12.160156 14.242188 11.527344 14.117188 10.875 C 14.011719 10.304688 13.996094 9.644531 14.425781 9.191406 C 14.890625 8.703125 15.675781 8.53125 16.304688 8.367188 C 16.894531 8.21875 18.15625 8.082031 18.195312 8.984375 C 18.21875 9.496094 19.035156 9.5 19.011719 8.984375 C 18.976562 8.21875 18.371094 7.636719 17.617188 7.484375 C 16.769531 7.3125 15.808594 7.628906 15.023438 7.925781 C 14.28125 8.203125 13.628906 8.640625 13.363281 9.410156 C 13.105469 10.152344 13.273438 10.976562 13.480469 11.710938 C 13.710938 12.535156 13.96875 13.394531 14.535156 14.066406 C 14.800781 14.390625 15.128906 14.632812 15.519531 14.792969 C 15.910156 14.953125 16.316406 15.015625 16.738281 14.976562 C 17.71875 14.90625 18.710938 14.667969 19.679688 14.5 C 20.410156 14.375 21.25 14.210938 21.558594 13.460938 C 21.933594 12.558594 21.234375 11.667969 20.730469 10.972656 L 18.667969 8.117188 C 18.367188 7.703125 17.65625 8.101562 17.960938 8.515625 Z M 17.964844 8.519531 " fill-opacity="1" fill-rule="nonzero"/></g></g><g clip-path="url(#127e58b326)"><g clip-path="url(#37b318678c)"><path fill="#c68b61" d="M 27.902344 14.820312 C 26.890625 14.566406 25.859375 14.386719 24.820312 14.285156 C 24.316406 14.238281 23.796875 14.179688 23.292969 14.199219 C 22.773438 14.222656 22.417969 14.484375 22 14.757812 L 20.707031 15.628906 C 20.363281 15.859375 19.863281 16.078125 19.621094 16.421875 C 19.359375 16.789062 19.578125 17.257812 19.683594 17.644531 L 20.109375 19.160156 C 20.246094 19.65625 21.035156 19.445312 20.894531 18.949219 L 20.574219 17.792969 L 20.390625 17.140625 C 20.320312 16.890625 20.308594 16.855469 20.535156 16.707031 C 21.246094 16.230469 21.960938 15.757812 22.671875 15.28125 C 22.84375 15.167969 23.011719 15.03125 23.226562 15.003906 C 23.421875 14.988281 23.617188 14.992188 23.8125 15.015625 C 24.226562 15.035156 24.640625 15.066406 25.050781 15.109375 C 25.941406 15.210938 26.820312 15.371094 27.6875 15.589844 C 28.199219 15.71875 28.414062 14.949219 27.90625 14.820312 Z M 27.902344 14.820312 " fill-opacity="1" fill-rule="nonzero"/></g></g><g clip-path="url(#af64d65dc6)"><g clip-path="url(#2d97044f49)"><path fill="#c68b61" d="M 12.550781 3.257812 C 13.425781 3.957031 14.246094 4.710938 15.015625 5.519531 C 15.347656 5.867188 15.652344 6.308594 16.070312 6.566406 C 16.507812 6.832031 17.082031 6.871094 17.578125 6.941406 C 18.125 7.019531 18.675781 7.070312 19.230469 7.089844 C 19.730469 7.109375 20.210938 7.144531 20.628906 6.835938 C 21.546875 6.164062 22.355469 5.28125 23.125 4.460938 C 23.480469 4.082031 22.90625 3.519531 22.546875 3.898438 C 21.855469 4.636719 21.125 5.347656 20.359375 6.015625 C 20.195312 6.160156 20.0625 6.28125 19.832031 6.300781 C 19.578125 6.308594 19.328125 6.304688 19.074219 6.285156 C 18.542969 6.261719 18.011719 6.207031 17.488281 6.125 C 17.03125 6.054688 16.601562 6.019531 16.265625 5.683594 C 15.929688 5.347656 15.625 4.980469 15.292969 4.640625 C 14.609375 3.949219 13.886719 3.300781 13.128906 2.695312 C 12.722656 2.371094 12.148438 2.933594 12.550781 3.257812 Z M 12.550781 3.257812 " fill-opacity="1" fill-rule="nonzero"/></g></g><g clip-path="url(#232e8ea25e)"><g clip-path="url(#ff9b76d708)"><path fill="#c68b61" d="M 11.074219 3.902344 L 12.371094 5.21875 C 12.75 5.601562 13.28125 6 13.550781 6.46875 C 13.832031 6.957031 13.21875 7.1875 12.859375 7.367188 C 12.351562 7.617188 11.871094 7.90625 11.417969 8.238281 C 11.210938 8.394531 11.007812 8.578125 10.777344 8.695312 C 10.507812 8.835938 10.289062 8.808594 10 8.730469 C 9.402344 8.570312 8.808594 8.398438 8.210938 8.226562 C 7.898438 8.140625 7.585938 8.046875 7.273438 7.964844 C 7.046875 7.90625 7.128906 7.96875 7.050781 7.835938 C 6.992188 7.738281 6.976562 7.492188 6.953125 7.378906 C 6.832031 6.773438 6.722656 6.160156 6.628906 5.546875 C 6.546875 5.042969 5.761719 5.257812 5.839844 5.761719 C 5.960938 6.539062 6.042969 7.382812 6.285156 8.132812 C 6.484375 8.75 7.296875 8.800781 7.839844 8.953125 C 8.589844 9.164062 9.355469 9.457031 10.125 9.578125 C 10.828125 9.6875 11.304688 9.324219 11.832031 8.929688 C 12.378906 8.519531 12.976562 8.234375 13.570312 7.902344 C 14.046875 7.640625 14.480469 7.246094 14.457031 6.671875 C 14.433594 6.011719 13.816406 5.527344 13.386719 5.09375 L 11.652344 3.335938 C 11.289062 2.96875 10.710938 3.53125 11.078125 3.902344 Z M 11.074219 3.902344 " fill-opacity="1" fill-rule="nonzero"/></g></g><g clip-path="url(#30d7c2b5bd)"><g clip-path="url(#7aa280eafb)"><path fill="#c68b61" d="M 4.5 7.320312 C 4.832031 8.09375 5.179688 8.863281 5.5 9.640625 C 5.847656 10.488281 5.664062 11.273438 5.488281 12.136719 C 5.445312 12.335938 5.40625 12.53125 5.359375 12.726562 C 5.320312 12.875 5.300781 13.1875 5.203125 13.308594 C 5.09375 13.441406 4.828125 13.449219 4.664062 13.488281 C 4.460938 13.535156 4.257812 13.582031 4.046875 13.625 C 3.148438 13.8125 2.25 13.914062 1.339844 13.800781 C 0.820312 13.738281 0.824219 14.539062 1.339844 14.601562 C 2.375 14.726562 3.40625 14.582031 4.417969 14.359375 C 4.828125 14.273438 5.429688 14.234375 5.753906 13.949219 C 6.050781 13.683594 6.097656 13.152344 6.179688 12.789062 C 6.382812 11.898438 6.675781 10.894531 6.472656 9.980469 C 6.367188 9.5 6.121094 9.039062 5.929688 8.589844 L 5.289062 7.105469 C 5.085938 6.640625 4.296875 6.84375 4.5 7.316406 Z M 4.5 7.320312 " fill-opacity="1" fill-rule="nonzero"/></g></g><g clip-path="url(#ab4a77b31d)"><g clip-path="url(#a78bda5f0e)"><path fill="#c68b61" d="M 7.53125 14.375 C 7.597656 13.707031 7.683594 13.042969 7.792969 12.378906 C 7.84375 12.070312 7.898438 11.761719 7.957031 11.453125 C 7.972656 11.359375 8 10.960938 8.0625 10.914062 C 8.128906 10.863281 8.402344 10.894531 8.484375 10.890625 C 9.128906 10.847656 9.765625 10.886719 10.402344 11 C 10.683594 11.046875 10.964844 11.117188 11.234375 11.207031 C 11.585938 11.335938 11.726562 11.539062 11.84375 11.875 C 12.027344 12.429688 12.261719 12.960938 12.546875 13.472656 C 12.703125 13.738281 12.871094 13.996094 13.054688 14.246094 C 13.222656 14.480469 13.414062 14.707031 13.335938 15.007812 C 13.269531 15.277344 13.121094 15.542969 13.011719 15.796875 C 12.910156 16.039062 12.835938 16.390625 12.542969 16.445312 C 11.976562 16.558594 11.246094 16.328125 10.695312 16.207031 C 9.945312 16.039062 9.199219 15.851562 8.449219 15.671875 C 8.191406 15.605469 7.6875 15.585938 7.550781 15.335938 C 7.433594 15.121094 7.523438 14.777344 7.570312 14.558594 C 7.683594 14.058594 6.894531 13.84375 6.785156 14.347656 C 6.65625 14.917969 6.589844 15.625 7.09375 16.042969 C 7.386719 16.28125 7.796875 16.335938 8.15625 16.421875 L 9.566406 16.761719 C 10.429688 16.96875 11.292969 17.191406 12.183594 17.246094 C 12.960938 17.296875 13.390625 16.984375 13.683594 16.296875 C 13.976562 15.605469 14.390625 14.9375 14.003906 14.214844 C 13.824219 13.878906 13.5625 13.582031 13.363281 13.257812 C 13.117188 12.855469 12.910156 12.4375 12.746094 12 C 12.621094 11.667969 12.546875 11.308594 12.332031 11.019531 C 12.117188 10.730469 11.796875 10.554688 11.453125 10.4375 C 10.664062 10.167969 9.769531 10.070312 8.9375 10.074219 C 8.539062 10.074219 8.019531 10.046875 7.648438 10.210938 C 7.234375 10.398438 7.226562 10.9375 7.15625 11.316406 C 6.960938 12.332031 6.816406 13.351562 6.714844 14.375 C 6.660156 14.886719 7.480469 14.882812 7.53125 14.375 Z M 7.53125 14.375 " fill-opacity="1" fill-rule="nonzero"/></g></g><g clip-path="url(#a765e19de7)"><g clip-path="url(#7229f97dd5)"><path fill="#c68b61" d="M 14.582031 18.03125 C 14.613281 17.671875 14.695312 16.878906 15.128906 16.78125 C 15.539062 16.691406 16.074219 16.941406 16.457031 17.050781 L 17.183594 17.261719 C 17.347656 17.308594 17.710938 17.339844 17.832031 17.464844 C 17.976562 17.609375 17.984375 17.996094 18.042969 18.183594 C 18.121094 18.421875 18.214844 18.65625 18.324219 18.886719 C 18.535156 19.355469 19.242188 18.949219 19.027344 18.488281 C 18.761719 17.902344 18.796875 17.046875 18.144531 16.734375 C 17.871094 16.597656 17.546875 16.539062 17.253906 16.453125 C 16.871094 16.34375 16.484375 16.226562 16.097656 16.117188 C 15.5625 15.972656 14.949219 15.863281 14.476562 16.222656 C 13.949219 16.621094 13.816406 17.425781 13.765625 18.035156 C 13.722656 18.546875 14.539062 18.542969 14.582031 18.035156 Z M 14.582031 18.03125 " fill-opacity="1" fill-rule="nonzero"/></g></g><g clip-path="url(#edf4a96208)"><g clip-path="url(#a646436ee9)"><path fill="#c68b61" d="M 23.386719 14.894531 C 23.148438 15.125 22.675781 15.070312 22.367188 15.152344 C 21.953125 15.261719 21.625 15.507812 21.320312 15.796875 C 21.179688 15.933594 21.046875 16.082031 20.890625 16.203125 C 20.734375 16.324219 20.5625 16.410156 20.453125 16.570312 C 20.191406 16.933594 20.304688 17.457031 20.417969 17.847656 C 20.476562 18.050781 20.699219 18.246094 20.929688 18.226562 C 21.625 18.160156 22.253906 17.828125 22.941406 17.691406 C 23.683594 17.539062 24.429688 17.410156 25.179688 17.285156 C 25.914062 17.164062 26.648438 17.058594 27.382812 16.992188 C 27.902344 16.945312 28.679688 16.816406 28.519531 16.109375 C 28.382812 15.519531 27.644531 15.40625 27.140625 15.34375 C 26.394531 15.257812 25.652344 15.132812 24.921875 14.972656 C 24.609375 14.902344 24.308594 14.804688 23.996094 14.910156 C 23.683594 15.011719 23.410156 15.214844 23.125 15.363281 C 22.460938 15.710938 21.78125 16.03125 21.085938 16.320312 C 20.601562 16.527344 20.851562 17.324219 21.355469 17.289062 C 22.640625 17.203125 23.832031 16.574219 25.121094 16.59375 C 25.804688 16.605469 25.804688 15.570312 25.121094 15.558594 C 23.8125 15.539062 22.640625 16.164062 21.355469 16.25 L 21.625 17.21875 C 22.132812 17.003906 22.632812 16.777344 23.125 16.535156 C 23.394531 16.402344 23.664062 16.261719 23.925781 16.121094 C 24.132812 16.007812 24.253906 15.890625 24.480469 15.941406 C 25.054688 16.070312 25.625 16.179688 26.207031 16.265625 C 26.519531 16.308594 26.828125 16.34375 27.140625 16.382812 C 27.234375 16.398438 27.328125 16.421875 27.421875 16.433594 C 27.46875 16.445312 27.511719 16.460938 27.550781 16.484375 C 27.804688 16.09375 27.820312 15.910156 27.59375 15.9375 C 27.355469 15.890625 26.996094 15.992188 26.753906 16.019531 C 26.472656 16.050781 26.191406 16.089844 25.910156 16.128906 C 25.335938 16.207031 24.765625 16.304688 24.191406 16.40625 C 23.621094 16.507812 23.066406 16.601562 22.507812 16.722656 C 21.980469 16.835938 21.464844 17.140625 20.929688 17.191406 L 21.441406 17.570312 C 21.40625 17.445312 21.3125 17.207031 21.359375 17.078125 C 21.300781 17.238281 21.625 16.949219 21.6875 16.894531 C 21.933594 16.683594 22.132812 16.40625 22.414062 16.246094 C 22.664062 16.101562 22.972656 16.097656 23.253906 16.046875 C 23.59375 16 23.886719 15.859375 24.140625 15.628906 C 24.628906 15.160156 23.875 14.429688 23.386719 14.894531 Z M 23.386719 14.894531 " fill-opacity="1" fill-rule="nonzero"/></g></g><g clip-path="url(#e915b0eae3)"><g clip-path="url(#311fde305f)"><path fill="#c68b61" d="M 24.214844 6.691406 C 23.605469 7.261719 22.714844 7.285156 21.980469 7.609375 C 20.90625 8.082031 21.753906 9.285156 22.101562 9.964844 C 22.320312 10.386719 22.519531 10.839844 22.777344 11.242188 C 23.019531 11.625 23.347656 11.828125 23.769531 12 C 24.757812 12.398438 25.769531 12.714844 26.8125 12.949219 C 27.21875 13.039062 27.710938 12.574219 27.414062 12.1875 C 26.488281 10.980469 26.25 9.539062 25.703125 8.167969 C 25.484375 7.628906 24.882812 6.730469 24.207031 7.277344 C 23.992188 7.453125 23.867188 7.648438 23.59375 7.757812 C 23.28125 7.882812 22.929688 7.917969 22.59375 7.953125 C 22.140625 8 21.785156 8.691406 22.324219 8.921875 C 22.9375 9.171875 23.570312 9.347656 24.226562 9.449219 C 24.84375 9.546875 25.40625 9.394531 25.640625 8.777344 C 25.734375 8.53125 25.535156 8.1875 25.269531 8.140625 C 24.816406 8.058594 24.398438 7.875 23.933594 8.011719 C 23.511719 8.132812 23.371094 8.632812 22.917969 8.632812 C 22.824219 8.632812 22.734375 8.65625 22.652344 8.707031 C 22.574219 8.753906 22.507812 8.816406 22.460938 8.894531 C 22.414062 8.976562 22.390625 9.0625 22.390625 9.152344 C 22.390625 9.246094 22.414062 9.332031 22.460938 9.414062 C 22.800781 9.964844 23.347656 10.347656 23.683594 10.898438 C 24.054688 11.507812 24.507812 11.789062 25.199219 11.96875 C 25.34375 12.003906 25.476562 11.984375 25.601562 11.914062 C 25.730469 11.84375 25.8125 11.742188 25.855469 11.605469 C 26.097656 10.886719 25.699219 10.285156 25.257812 9.738281 C 24.875 9.269531 24.710938 8.621094 24.054688 8.445312 C 23.699219 8.347656 23.246094 8.703125 23.402344 9.082031 C 23.566406 9.484375 23.734375 9.871094 23.917969 10.257812 C 24.074219 10.59375 24.222656 11.015625 24.59375 11.175781 C 24.753906 11.246094 24.921875 11.253906 25.089844 11.203125 C 25.261719 11.152344 25.394531 11.054688 25.492188 10.910156 C 25.710938 10.59375 25.609375 10.234375 25.46875 9.90625 C 25.234375 9.378906 24.527344 9.730469 24.476562 10.167969 C 24.449219 10.410156 24.414062 10.867188 24.082031 10.859375 C 23.636719 10.84375 23.476562 11.300781 23.625 11.640625 C 23.976562 12.449219 24.828125 12.886719 25.695312 12.941406 C 26.378906 12.980469 26.378906 11.941406 25.695312 11.902344 C 25.441406 11.894531 25.207031 11.820312 25 11.675781 C 24.789062 11.53125 24.636719 11.347656 24.539062 11.113281 L 24.082031 11.894531 C 25.09375 11.929688 25.449219 10.988281 25.539062 10.167969 L 24.550781 10.433594 C 25.039062 10.507812 25.222656 10.453125 25.09375 10.261719 C 25.058594 10.203125 25.027344 10.140625 25 10.078125 C 24.933594 9.941406 24.867188 9.804688 24.800781 9.664062 C 24.667969 9.382812 24.542969 9.097656 24.425781 8.808594 L 23.773438 9.445312 C 23.875 9.476562 23.941406 9.65625 23.988281 9.746094 C 24.089844 9.929688 24.207031 10.105469 24.335938 10.265625 C 24.574219 10.566406 24.96875 10.917969 24.828125 11.332031 L 25.480469 10.96875 C 25.257812 10.910156 24.996094 10.863281 24.828125 10.703125 C 24.65625 10.546875 24.546875 10.269531 24.398438 10.074219 C 24.082031 9.660156 23.652344 9.335938 23.378906 8.890625 L 22.921875 9.671875 C 23.328125 9.679688 23.683594 9.554688 23.988281 9.292969 C 24.121094 9.179688 24.195312 9 24.378906 8.992188 C 24.558594 8.984375 24.800781 9.109375 24.992188 9.140625 L 24.621094 8.503906 C 24.648438 8.421875 24.324219 8.410156 24.242188 8.394531 C 24.101562 8.367188 23.960938 8.339844 23.824219 8.308594 C 23.496094 8.242188 23.175781 8.148438 22.867188 8.023438 L 22.597656 8.992188 C 23.050781 8.945312 23.507812 8.898438 23.933594 8.738281 C 24.136719 8.667969 24.324219 8.570312 24.496094 8.445312 C 24.59375 8.378906 24.683594 8.300781 24.769531 8.21875 L 24.839844 8.132812 C 24.925781 8.042969 24.914062 8.042969 24.804688 8.132812 L 24.394531 8.082031 C 24.722656 8.238281 24.8125 8.804688 24.910156 9.105469 C 25.042969 9.527344 25.175781 9.953125 25.316406 10.371094 C 25.605469 11.199219 25.957031 12.007812 26.5 12.714844 L 27.097656 11.953125 C 26.28125 11.769531 25.476562 11.535156 24.691406 11.25 C 24.355469 11.125 23.902344 11.03125 23.695312 10.722656 C 23.472656 10.390625 23.308594 10.003906 23.125 9.648438 C 22.9375 9.292969 22.738281 8.929688 22.570312 8.5625 C 22.519531 8.449219 22.542969 8.355469 22.457031 8.472656 C 22.347656 8.625 22.523438 8.515625 22.589844 8.496094 C 22.765625 8.4375 22.945312 8.386719 23.121094 8.335938 C 23.796875 8.140625 24.449219 7.910156 24.964844 7.425781 C 25.460938 6.964844 24.707031 6.230469 24.214844 6.695312 Z M 24.214844 6.691406 " fill-opacity="1" fill-rule="nonzero"/></g></g><g clip-path="url(#de64de636f)"><g clip-path="url(#eec37cdc62)"><path fill="#c68b61" d="M 14.945312 9.945312 C 15.101562 9.414062 15.929688 9.40625 16.386719 9.335938 C 16.632812 9.296875 17.046875 9.15625 17.296875 9.238281 C 17.523438 9.3125 17.65625 9.59375 17.785156 9.769531 C 18.167969 10.296875 18.554688 10.820312 18.929688 11.347656 C 19.121094 11.605469 19.300781 11.875 19.464844 12.152344 C 19.53125 12.273438 19.597656 12.394531 19.652344 12.519531 C 19.691406 12.601562 19.726562 12.6875 19.753906 12.773438 C 19.78125 12.894531 19.792969 12.914062 19.785156 12.839844 C 19.796875 12.757812 19.757812 12.769531 19.667969 12.855469 C 19.582031 12.886719 19.496094 12.910156 19.40625 12.929688 C 19.253906 12.96875 19.097656 13.003906 18.945312 13.035156 C 18.605469 13.105469 18.265625 13.167969 17.925781 13.214844 C 17.582031 13.257812 17.238281 13.292969 16.894531 13.308594 C 16.652344 13.324219 16.214844 13.417969 16.007812 13.289062 C 15.828125 13.171875 15.738281 12.808594 15.65625 12.621094 C 15.53125 12.328125 15.410156 12.035156 15.292969 11.746094 C 15.105469 11.273438 14.679688 10.53125 14.886719 10.027344 L 14.371094 10.40625 L 14.425781 10.402344 L 14.050781 10.25 C 14.125 10.3125 14.183594 10.59375 14.214844 10.6875 C 14.285156 10.875 14.347656 11.066406 14.417969 11.253906 C 14.53125 11.574219 14.652344 11.894531 14.792969 12.203125 C 15.054688 12.816406 15.429688 13.351562 15.917969 13.808594 C 16.238281 14.097656 16.851562 13.914062 16.824219 13.441406 C 16.742188 12.101562 15.734375 10.90625 16.023438 9.523438 L 14.992188 9.523438 C 15.210938 10.257812 15.472656 10.976562 15.789062 11.671875 C 16.0625 12.28125 16.351562 12.941406 16.898438 13.363281 C 17.285156 13.664062 17.941406 13.402344 17.785156 12.859375 C 17.4375 11.65625 17.179688 10.433594 17.011719 9.195312 L 15.96875 9.332031 C 16.320312 10.820312 16.742188 12.328125 17.835938 13.472656 C 18.152344 13.804688 18.742188 13.546875 18.742188 13.109375 C 18.742188 12.488281 18.492188 11.898438 18.347656 11.300781 C 18.1875 10.648438 18.070312 9.984375 18 9.3125 L 17.011719 9.574219 C 17.292969 10.179688 17.65625 10.738281 18.023438 11.296875 C 18.203125 11.5625 18.382812 11.832031 18.550781 12.105469 C 18.632812 12.246094 18.714844 12.382812 18.796875 12.523438 C 18.832031 12.585938 18.972656 12.921875 19.003906 12.847656 L 19.25 12.535156 L 19.175781 12.574219 L 19.582031 12.523438 C 19.480469 12.503906 19.285156 12.140625 19.234375 12.054688 C 19.109375 11.855469 18.996094 11.648438 18.898438 11.4375 C 18.6875 10.980469 17.847656 11.191406 17.910156 11.699219 L 18.089844 13.160156 L 19.082031 12.898438 C 18.015625 11.425781 16.5625 10.421875 15.027344 9.457031 C 14.691406 9.242188 14.21875 9.519531 14.226562 9.902344 C 14.246094 10.441406 14.367188 10.957031 14.589844 11.453125 C 14.703125 11.710938 15.089844 11.765625 15.316406 11.636719 C 15.589844 11.484375 15.617188 11.183594 15.503906 10.929688 C 15.367188 10.601562 15.292969 10.257812 15.289062 9.902344 L 14.492188 10.351562 C 15.859375 11.214844 17.207031 12.101562 18.164062 13.421875 C 18.429688 13.789062 19.226562 13.722656 19.152344 13.160156 L 18.972656 11.699219 L 17.980469 11.957031 C 18.214844 12.457031 18.625 13.328125 19.210938 13.507812 C 19.902344 13.71875 20.191406 13.003906 19.964844 12.484375 C 19.417969 11.269531 18.492188 10.257812 17.929688 9.050781 C 17.714844 8.589844 16.886719 8.808594 16.9375 9.3125 C 17.003906 9.972656 17.109375 10.625 17.25 11.277344 C 17.382812 11.867188 17.675781 12.496094 17.679688 13.105469 L 18.585938 12.738281 C 17.628906 11.734375 17.300781 10.355469 16.992188 9.054688 C 16.859375 8.496094 15.871094 8.605469 15.949219 9.191406 C 16.121094 10.527344 16.394531 11.839844 16.761719 13.132812 L 17.648438 12.628906 C 17.175781 12.261719 16.941406 11.671875 16.707031 11.148438 C 16.433594 10.527344 16.203125 9.894531 16.019531 9.246094 C 15.882812 8.777344 15.101562 8.726562 14.992188 9.246094 C 14.84375 9.964844 14.921875 10.679688 15.125 11.382812 C 15.320312 12.046875 15.71875 12.746094 15.757812 13.441406 L 16.664062 13.074219 C 16.078125 12.542969 15.753906 11.84375 15.488281 11.117188 C 15.347656 10.742188 15.222656 10.359375 15.078125 9.984375 C 14.953125 9.664062 14.773438 9.335938 14.371094 9.367188 C 14.109375 9.375 13.9375 9.503906 13.859375 9.746094 C 13.601562 10.375 13.910156 11.078125 14.136719 11.671875 C 14.378906 12.324219 14.625 13.007812 14.953125 13.625 C 15.285156 14.261719 15.898438 14.382812 16.578125 14.359375 C 17.335938 14.332031 18.089844 14.25 18.835938 14.113281 C 19.449219 14 20.339844 13.910156 20.703125 13.335938 C 21.050781 12.777344 20.632812 12.066406 20.339844 11.570312 C 19.988281 10.976562 19.550781 10.425781 19.144531 9.863281 C 18.777344 9.359375 18.410156 8.625 17.824219 8.332031 C 17.179688 8.011719 16.226562 8.296875 15.554688 8.421875 C 14.816406 8.558594 14.136719 8.925781 13.917969 9.671875 C 13.726562 10.3125 14.75 10.589844 14.941406 9.945312 Z M 14.945312 9.945312 " fill-opacity="1" fill-rule="nonzero"/></g></g><g clip-path="url(#72d816f11a)"><g clip-path="url(#5feafc1f0b)"><path fill="#c68b61" d="M 13.652344 3.136719 L 15.355469 4.972656 C 15.617188 5.253906 15.867188 5.578125 16.1875 5.796875 C 16.511719 6.015625 16.902344 6.070312 17.296875 6.121094 L 18.546875 6.292969 C 18.925781 6.34375 19.316406 6.429688 19.699219 6.378906 C 20.445312 6.28125 21.046875 5.519531 21.578125 5.050781 C 21.851562 4.8125 21.734375 4.417969 21.46875 4.238281 C 19.617188 2.960938 17.367188 2.84375 15.175781 2.800781 C 14.625 2.792969 14.484375 3.496094 14.90625 3.769531 C 15.832031 4.367188 16.765625 4.949219 17.804688 5.34375 C 18.589844 5.644531 19.894531 6.089844 20.460938 5.222656 C 20.652344 4.933594 20.460938 4.554688 20.144531 4.460938 L 18.28125 3.914062 C 17.761719 3.761719 17.070312 3.417969 16.523438 3.546875 C 16.402344 3.574219 16.292969 3.625 16.195312 3.703125 C 16.101562 3.78125 16.027344 3.875 15.976562 3.988281 C 15.925781 4.097656 15.902344 4.214844 15.90625 4.335938 C 15.914062 4.457031 15.945312 4.570312 16.007812 4.679688 C 16.25 5.109375 16.773438 5.382812 17.222656 5.558594 C 17.796875 5.785156 18.121094 4.910156 17.632812 4.613281 C 17.449219 4.496094 17.25 4.453125 17.03125 4.476562 C 16.816406 4.503906 16.632812 4.589844 16.484375 4.742188 C 15.988281 5.207031 16.742188 5.941406 17.234375 5.476562 L 17.09375 5.507812 L 17.503906 4.558594 C 17.371094 4.507812 17.25 4.4375 17.136719 4.351562 C 17.085938 4.316406 17.039062 4.277344 16.996094 4.234375 C 16.714844 4.4375 16.664062 4.550781 16.847656 4.578125 C 16.960938 4.664062 17.238281 4.691406 17.378906 4.734375 L 17.84375 4.867188 L 19.863281 5.460938 L 19.542969 4.695312 C 19.574219 4.648438 19.585938 4.695312 19.527344 4.683594 C 19.445312 4.671875 19.359375 4.683594 19.277344 4.671875 C 19.097656 4.644531 18.921875 4.605469 18.75 4.558594 C 18.34375 4.445312 17.949219 4.300781 17.570312 4.117188 C 16.828125 3.761719 16.132812 3.316406 15.445312 2.867188 L 15.179688 3.835938 C 17.191406 3.871094 19.230469 3.953125 20.9375 5.125 L 20.824219 4.316406 L 20.046875 5.003906 C 19.820312 5.203125 19.675781 5.363281 19.355469 5.351562 C 18.671875 5.332031 17.953125 5.179688 17.277344 5.078125 C 16.972656 5.050781 16.726562 4.921875 16.53125 4.691406 C 16.296875 4.449219 16.070312 4.195312 15.839844 3.949219 L 14.402344 2.402344 C 13.941406 1.90625 13.191406 2.640625 13.652344 3.136719 Z M 13.652344 3.136719 " fill-opacity="1" fill-rule="nonzero"/></g></g><g clip-path="url(#00cf917b41)"><g clip-path="url(#786615de8f)"><path fill="#c68b61" d="M 6.636719 5.949219 C 6.472656 6.996094 7.015625 7.925781 8.019531 8.324219 L 8.300781 7.320312 L 7.558594 7.109375 C 7.011719 6.957031 6.722656 7.601562 7.039062 7.976562 C 7.339844 8.332031 7.785156 8.457031 8.222656 8.566406 C 8.71875 8.691406 9.222656 8.851562 9.734375 8.933594 C 10.722656 9.085938 11.703125 8.378906 12.5 7.886719 C 13.207031 7.445312 14.164062 6.734375 13.488281 5.84375 C 13.171875 5.425781 12.714844 5.085938 12.332031 4.726562 L 11.058594 3.542969 C 10.554688 3.070312 9.894531 3.765625 10.308594 4.277344 C 10.929688 5.042969 11.472656 5.859375 11.941406 6.722656 L 12.777344 6.09375 C 12.003906 5.460938 11.289062 4.773438 10.621094 4.03125 C 10.277344 3.644531 9.570312 4.054688 9.734375 4.535156 C 10.054688 5.480469 10.507812 6.359375 11.09375 7.175781 C 11.484375 7.710938 12.355469 7.242188 12.011719 6.652344 C 11.484375 5.75 10.941406 4.867188 10.273438 4.058594 C 9.9375 3.660156 9.21875 4.089844 9.382812 4.5625 L 10.363281 7.355469 L 11.335938 6.957031 C 10.84375 6.1875 10.382812 5.398438 9.945312 4.597656 C 9.660156 4.0625 8.839844 4.4375 8.976562 4.996094 C 9.214844 5.960938 9.492188 6.917969 9.808594 7.863281 L 10.78125 7.464844 L 9.652344 4.867188 C 9.429688 4.355469 8.683594 4.667969 8.664062 5.128906 C 8.621094 6.019531 8.726562 6.890625 8.976562 7.746094 L 10 7.46875 L 9.019531 5.015625 C 8.800781 4.472656 8.023438 4.550781 7.976562 5.152344 C 7.90625 5.992188 8.03125 6.800781 8.355469 7.578125 C 8.597656 8.179688 9.589844 7.957031 9.378906 7.304688 C 9.152344 6.59375 8.839844 5.917969 8.441406 5.285156 C 8.222656 4.9375 7.546875 4.945312 7.46875 5.410156 C 7.367188 5.949219 7.386719 6.488281 7.527344 7.019531 L 8.5 6.621094 C 8.347656 6.429688 8.222656 6.226562 8.125 6.003906 C 8.015625 5.742188 7.773438 5.5625 7.472656 5.640625 C 7.21875 5.707031 6.992188 6.019531 7.101562 6.28125 C 7.222656 6.589844 7.382812 6.878906 7.582031 7.144531 C 7.921875 7.597656 8.710938 7.351562 8.550781 6.746094 C 8.453125 6.398438 8.433594 6.042969 8.492188 5.6875 L 7.523438 5.8125 C 7.875 6.371094 8.152344 6.960938 8.355469 7.582031 L 9.378906 7.308594 C 9.085938 6.617188 8.972656 5.902344 9.039062 5.15625 L 7.996094 5.296875 L 8.984375 7.746094 C 9.230469 8.351562 10.203125 8.128906 10.007812 7.472656 C 9.785156 6.707031 9.695312 5.925781 9.734375 5.128906 L 8.746094 5.390625 L 9.871094 7.988281 C 10.105469 8.53125 11.027344 8.144531 10.84375 7.589844 C 10.527344 6.644531 10.25 5.6875 10.011719 4.722656 L 9.039062 5.121094 C 9.476562 5.925781 9.9375 6.710938 10.429688 7.484375 C 10.734375 7.960938 11.601562 7.660156 11.398438 7.082031 L 10.417969 4.289062 L 9.53125 4.796875 C 10.140625 5.53125 10.621094 6.359375 11.105469 7.179688 L 12.019531 6.652344 C 11.484375 5.917969 11.066406 5.117188 10.769531 4.261719 L 9.878906 4.765625 C 10.542969 5.507812 11.261719 6.195312 12.03125 6.832031 C 12.484375 7.203125 13.164062 6.742188 12.867188 6.203125 C 12.347656 5.261719 11.746094 4.375 11.0625 3.542969 L 10.3125 4.277344 L 12.160156 6 C 12.285156 6.117188 12.492188 6.246094 12.582031 6.398438 C 12.652344 6.503906 12.691406 6.449219 12.5625 6.582031 C 12.335938 6.816406 11.988281 6.980469 11.71875 7.140625 C 11.15625 7.476562 10.449219 8.027344 9.761719 7.882812 C 9.386719 7.800781 9.019531 7.695312 8.648438 7.601562 C 8.347656 7.519531 8.003906 7.488281 7.792969 7.242188 L 7.277344 8.113281 L 8.019531 8.324219 C 8.691406 8.511719 8.917969 7.566406 8.300781 7.320312 C 8.085938 7.226562 7.917969 7.078125 7.800781 6.875 C 7.683594 6.675781 7.636719 6.457031 7.664062 6.226562 C 7.707031 5.949219 7.589844 5.671875 7.292969 5.589844 C 7.039062 5.519531 6.679688 5.675781 6.636719 5.949219 Z M 6.636719 5.949219 " fill-opacity="1" fill-rule="nonzero"/></g></g><g clip-path="url(#ea82371691)"><g clip-path="url(#75c717e093)"><path fill="#c68b61" d="M 4.167969 8.847656 C 4.34375 9.246094 4.636719 9.585938 4.796875 9.988281 C 4.984375 10.445312 4.75 10.949219 4.632812 11.402344 L 4.449219 12.140625 C 4.417969 12.269531 4.34375 12.453125 4.335938 12.585938 L 4.308594 12.6875 C 4.390625 12.621094 4.390625 12.605469 4.292969 12.644531 C 4.097656 12.613281 3.707031 12.804688 3.515625 12.855469 L 2.585938 13.109375 L 3.101562 13.976562 C 3.59375 13.417969 3.8125 12.734375 4.082031 12.054688 C 4.386719 11.296875 4.730469 10.558594 5.109375 9.832031 L 4.121094 9.570312 C 4.0625 10.664062 3.542969 11.714844 3.152344 12.726562 C 2.90625 13.351562 3.9375 13.621094 4.175781 13 C 4.609375 11.882812 5.117188 10.777344 5.183594 9.570312 C 5.210938 9.0625 4.429688 8.851562 4.195312 9.304688 C 3.839844 9.980469 3.519531 10.667969 3.222656 11.367188 C 2.964844 11.980469 2.800781 12.722656 2.347656 13.238281 C 2.015625 13.617188 2.324219 14.253906 2.863281 14.105469 L 3.953125 13.808594 C 4.257812 13.726562 4.621094 13.675781 4.898438 13.515625 C 5.457031 13.195312 5.5 12.292969 5.636719 11.75 C 5.789062 11.140625 6.035156 10.5 5.867188 9.871094 C 5.714844 9.304688 5.3125 8.847656 5.074219 8.320312 C 4.804688 7.707031 3.886719 8.238281 4.160156 8.84375 Z M 4.167969 8.847656 " fill-opacity="1" fill-rule="nonzero"/></g></g><g clip-path="url(#c6618425c0)"><g clip-path="url(#ad214d8dbd)"><path fill="#c68b61" d="M 8.359375 15.472656 C 8.367188 14.636719 8.398438 13.804688 8.453125 12.96875 C 8.476562 12.601562 8.507812 12.238281 8.542969 11.875 C 8.550781 11.769531 8.5625 11.667969 8.574219 11.5625 C 8.316406 11.707031 8.308594 11.75 8.550781 11.691406 C 8.757812 11.675781 8.96875 11.667969 9.175781 11.675781 C 9.550781 11.695312 9.917969 11.734375 10.289062 11.800781 C 10.433594 11.824219 10.730469 11.816406 10.859375 11.898438 C 10.765625 11.851562 10.777344 11.886719 10.890625 12 C 10.945312 12.082031 10.996094 12.167969 11.050781 12.25 C 11.433594 12.859375 11.648438 13.546875 12.027344 14.148438 C 12.191406 14.410156 12.488281 14.609375 12.382812 14.921875 C 12.328125 15.082031 12.207031 15.539062 12.066406 15.621094 C 11.976562 15.675781 11.546875 15.546875 11.4375 15.527344 L 10.800781 15.429688 C 10.429688 15.367188 10.058594 15.308594 9.6875 15.242188 C 9.476562 15.207031 9.265625 15.171875 9.054688 15.132812 L 8.734375 15.070312 C 8.582031 15.019531 8.59375 15.070312 8.773438 15.230469 C 8.738281 15.230469 8.816406 14.273438 8.832031 14.148438 C 8.933594 13.324219 9.132812 12.507812 9.296875 11.691406 L 8.277344 11.691406 C 8.695312 12.851562 8.195312 14.117188 8.625 15.292969 C 8.820312 15.824219 9.660156 15.765625 9.667969 15.152344 C 9.675781 13.898438 9.769531 12.644531 9.9375 11.398438 L 8.875 11.398438 C 9.015625 12.710938 9.261719 14 9.609375 15.273438 C 9.769531 15.851562 10.628906 15.710938 10.652344 15.136719 C 10.703125 14 10.421875 12.832031 10.757812 11.722656 L 9.730469 11.722656 C 10.019531 13.121094 9.9375 14.59375 10.703125 15.863281 C 10.957031 16.285156 11.730469 16.132812 11.691406 15.601562 L 11.4375 12.054688 L 10.394531 12.199219 L 11.449219 15.550781 C 11.632812 16.125 12.449219 15.988281 12.492188 15.410156 C 12.507812 15.242188 12.363281 14.816406 12.449219 14.671875 L 11.613281 14.777344 L 11.613281 14.8125 C 11.613281 15.480469 12.675781 15.480469 12.675781 14.8125 C 12.679688 14.515625 12.578125 14.257812 12.367188 14.042969 C 12.136719 13.785156 11.699219 13.882812 11.53125 14.148438 C 11.265625 14.582031 11.46875 14.953125 11.433594 15.410156 L 12.476562 15.273438 L 11.417969 11.921875 C 11.25 11.386719 10.332031 11.453125 10.375 12.058594 L 10.628906 15.605469 L 11.621094 15.34375 C 10.917969 14.179688 11.019531 12.738281 10.757812 11.449219 C 10.648438 10.925781 9.871094 10.984375 9.734375 11.449219 C 9.367188 12.660156 9.644531 13.902344 9.589844 15.140625 L 10.632812 15 C 10.304688 13.820312 10.074219 12.621094 9.9375 11.402344 C 9.863281 10.730469 8.964844 10.742188 8.875 11.402344 C 8.707031 12.648438 8.617188 13.902344 8.605469 15.160156 L 9.648438 15.023438 C 9.21875 13.863281 9.730469 12.597656 9.300781 11.421875 C 9.136719 10.980469 8.386719 10.878906 8.277344 11.421875 C 8.105469 12.257812 7.917969 13.089844 7.800781 13.933594 C 7.71875 14.535156 7.457031 15.621094 8.148438 15.976562 C 8.472656 16.140625 8.894531 16.15625 9.246094 16.214844 C 9.695312 16.292969 10.144531 16.367188 10.59375 16.441406 C 11.285156 16.550781 12.277344 16.914062 12.832031 16.335938 C 13.0625 16.097656 13.167969 15.765625 13.292969 15.464844 C 13.441406 15.109375 13.566406 14.792969 13.433594 14.410156 C 13.332031 14.109375 13.109375 13.890625 12.945312 13.625 C 12.726562 13.273438 12.59375 12.875 12.40625 12.503906 C 12.113281 11.917969 11.753906 11.046875 11.042969 10.878906 C 10.207031 10.675781 9.253906 10.574219 8.398438 10.671875 C 8.03125 10.714844 7.683594 10.804688 7.5625 11.191406 C 7.441406 11.582031 7.460938 12.085938 7.429688 12.5 C 7.351562 13.488281 7.308594 14.480469 7.300781 15.472656 C 7.296875 16.140625 8.359375 16.144531 8.363281 15.472656 Z M 8.359375 15.472656 " fill-opacity="1" fill-rule="nonzero"/></g></g><g clip-path="url(#7f48025a56)"><g clip-path="url(#c794ad9b78)"><path fill="#c68b61" d="M 15.246094 17.886719 C 15.605469 17.601562 16.234375 17.886719 16.601562 18 L 16.949219 18.101562 L 17.085938 18.144531 C 17.246094 18.210938 17.269531 18.207031 17.160156 18.132812 C 17.082031 18.050781 17.070312 18.058594 17.125 18.144531 L 17.160156 18.210938 C 17.230469 18.300781 17.3125 18.375 17.40625 18.4375 L 17.941406 17.539062 C 17.609375 17.386719 17.339844 17.15625 17.03125 16.96875 C 16.71875 16.792969 16.386719 16.664062 16.03125 16.585938 C 15.707031 16.507812 15.320312 16.363281 15.011719 16.566406 C 14.875 16.652344 14.78125 16.773438 14.730469 16.925781 C 14.679688 17.078125 14.683594 17.226562 14.738281 17.375 C 14.984375 17.988281 16.015625 17.722656 15.761719 17.101562 L 15.484375 17.523438 L 15.617188 17.554688 C 15.703125 17.585938 15.789062 17.605469 15.878906 17.621094 C 16.078125 17.664062 16.261719 17.734375 16.441406 17.832031 C 16.769531 18.023438 17.054688 18.277344 17.410156 18.4375 C 18.035156 18.722656 18.492188 17.9375 17.945312 17.542969 C 18.195312 17.722656 17.925781 17.433594 17.882812 17.386719 C 17.773438 17.292969 17.648438 17.226562 17.507812 17.1875 C 17.167969 17.070312 16.8125 16.972656 16.464844 16.875 C 15.757812 16.679688 15.085938 16.6875 14.496094 17.152344 C 13.96875 17.574219 14.722656 18.304688 15.246094 17.886719 Z M 15.246094 17.886719 " fill-opacity="1" fill-rule="nonzero"/></g></g><path fill="#99b547" d="M 3.46875 18.28125 C 4.78125 18.875 5.441406 20.320312 6.566406 21.207031 C 7.902344 22.261719 9.804688 22.417969 11.472656 22.019531 C 13.144531 21.621094 14.644531 20.734375 16.113281 19.859375 C 15.589844 19.316406 14.886719 18.980469 14.199219 18.664062 C 13.0625 18.132812 11.917969 17.609375 10.714844 17.257812 C 9.507812 16.910156 8.230469 16.734375 6.988281 16.925781 C 5.742188 17.113281 4.605469 17.644531 3.484375 18.183594 " fill-opacity="1" fill-rule="nonzero"/><g clip-path="url(#8e3be2ec0c)"><g clip-path="url(#429cab0a0e)"><path fill="#839934" d="M 4.382812 19.273438 C 4.300781 18.582031 4.8125 18.121094 5.363281 17.78125 C 5.71875 17.5625 5.390625 17.011719 5.039062 17.230469 C 4.308594 17.683594 3.625 18.359375 3.734375 19.273438 C 3.785156 19.671875 4.4375 19.683594 4.390625 19.273438 Z M 4.382812 19.273438 " fill-opacity="1" fill-rule="nonzero"/></g></g><g clip-path="url(#ab582cb094)"><g clip-path="url(#dc439aa851)"><path fill="#839934" d="M 4.585938 19.195312 C 4.632812 18.914062 4.984375 18.695312 5.207031 18.539062 C 5.464844 18.359375 5.742188 18.207031 6.03125 18.082031 C 6.414062 17.910156 6.082031 17.363281 5.703125 17.527344 C 5.320312 17.699219 4.964844 17.914062 4.632812 18.167969 C 4.34375 18.394531 4.023438 18.648438 3.960938 19.027344 C 3.890625 19.425781 4.523438 19.601562 4.589844 19.195312 Z M 4.585938 19.195312 " fill-opacity="1" fill-rule="nonzero"/></g></g><g clip-path="url(#ff87ae73db)"><g clip-path="url(#06ad1cba69)"><path fill="#839934" d="M 4.59375 19.207031 C 6.125 17.679688 8.464844 18.597656 10.132812 19.359375 C 11.046875 19.78125 11.964844 20.203125 12.957031 20.410156 C 14.007812 20.632812 15.085938 20.664062 16.15625 20.691406 C 16.578125 20.703125 16.578125 20.066406 16.15625 20.054688 C 14.96875 20.023438 13.765625 19.992188 12.617188 19.667969 C 11.539062 19.367188 10.554688 18.824219 9.527344 18.398438 C 7.796875 17.679688 5.59375 17.296875 4.132812 18.757812 C 3.839844 19.050781 4.296875 19.503906 4.597656 19.207031 Z M 4.59375 19.207031 " fill-opacity="1" fill-rule="nonzero"/></g></g><g clip-path="url(#26859242b7)"><g clip-path="url(#3cf20cd060)"><path fill="#839934" d="M 13.246094 20.0625 L 14.789062 20.429688 C 15.199219 20.527344 15.371094 19.914062 14.960938 19.816406 L 13.421875 19.449219 C 13.011719 19.351562 12.835938 19.964844 13.246094 20.0625 Z M 13.246094 20.0625 " fill-opacity="1" fill-rule="nonzero"/></g></g><g clip-path="url(#442a0f634c)"><g clip-path="url(#736243d951)"><path fill="#839934" d="M 13.820312 20.429688 C 13.933594 20.429688 14.042969 20.449219 14.144531 20.496094 C 14.25 20.542969 14.335938 20.609375 14.40625 20.695312 C 14.480469 20.78125 14.527344 20.878906 14.550781 20.984375 C 14.578125 21.09375 14.574219 21.203125 14.546875 21.308594 C 14.453125 21.707031 15.085938 21.878906 15.179688 21.480469 C 15.230469 21.277344 15.234375 21.070312 15.1875 20.867188 C 15.144531 20.660156 15.054688 20.476562 14.921875 20.3125 C 14.789062 20.144531 14.628906 20.019531 14.433594 19.925781 C 14.242188 19.835938 14.035156 19.792969 13.820312 19.792969 C 13.402344 19.792969 13.402344 20.429688 13.820312 20.429688 Z M 13.820312 20.429688 " fill-opacity="1" fill-rule="nonzero"/></g></g><g clip-path="url(#66cae1d6ba)"><g clip-path="url(#701b397ded)"><path fill="#839934" d="M 12.777344 20.3125 C 13.125 20.390625 14.046875 20.398438 13.976562 20.925781 C 13.917969 21.355469 13.480469 21.785156 13.164062 22.042969 C 12.851562 22.304688 13.308594 22.761719 13.628906 22.496094 C 14.105469 22.097656 14.757812 21.351562 14.625 20.679688 C 14.46875 19.898438 13.585938 19.839844 12.949219 19.695312 C 12.542969 19.601562 12.367188 20.214844 12.777344 20.308594 Z M 12.777344 20.3125 " fill-opacity="1" fill-rule="nonzero"/></g></g><g clip-path="url(#4ace03835d)"><g clip-path="url(#2fc45d185f)"><path fill="#839934" d="M 6.261719 19.632812 C 6.800781 19.679688 7.175781 19.375 7.605469 19.109375 C 8.160156 18.765625 8.785156 18.851562 9.402344 18.949219 C 9.8125 19.019531 9.992188 18.402344 9.578125 18.335938 C 9.011719 18.242188 8.410156 18.140625 7.847656 18.300781 C 7.300781 18.453125 6.847656 19.042969 6.265625 18.992188 C 5.84375 18.957031 5.847656 19.59375 6.265625 19.628906 Z M 6.261719 19.632812 " fill-opacity="1" fill-rule="nonzero"/></g></g><g clip-path="url(#3d85c5f764)"><g clip-path="url(#b13d86b65e)"><path fill="#839934" d="M 11.445312 20.40625 C 11.800781 20.519531 12.164062 20.589844 12.535156 20.617188 C 12.863281 20.640625 13.199219 20.554688 13.515625 20.585938 C 13.945312 20.628906 13.667969 21.046875 13.503906 21.265625 C 13.285156 21.542969 13.011719 21.746094 12.6875 21.882812 C 12.304688 22.054688 12.636719 22.601562 13.011719 22.433594 C 13.695312 22.132812 14.652344 21.269531 14.359375 20.441406 C 14.214844 20.027344 13.792969 19.929688 13.390625 19.957031 C 12.773438 19.996094 12.21875 19.976562 11.621094 19.789062 C 11.21875 19.664062 11.046875 20.277344 11.449219 20.40625 Z M 11.445312 20.40625 " fill-opacity="1" fill-rule="nonzero"/></g></g><g clip-path="url(#48176be44f)"><path fill="#7f5049" d="M 28.261719 18.214844 C 28.488281 18.121094 28.730469 18.015625 28.855469 17.808594 C 28.957031 17.640625 28.964844 17.441406 28.949219 17.25 C 28.9375 17.074219 28.898438 16.910156 28.824219 16.75 C 28.75 16.585938 28.628906 16.464844 28.464844 16.390625 C 28.300781 16.320312 28.15625 16.332031 27.964844 16.402344 L 27.742188 16.480469 C 23.832031 17.714844 19.617188 18.441406 15.613281 17.542969 C 12.5 16.847656 9.503906 15.1875 6.332031 15.539062 C 4.863281 15.699219 3.785156 16.417969 2.398438 15.90625 C 2.277344 15.878906 2.152344 15.878906 2.027344 15.910156 C 1.902344 15.9375 1.792969 15.992188 1.691406 16.070312 C 1.59375 16.148438 1.515625 16.242188 1.460938 16.355469 C 1.40625 16.46875 1.382812 16.585938 1.382812 16.710938 C 1.394531 17.285156 1.710938 17.925781 2.144531 18.195312 C 2.863281 18.644531 3.792969 18.621094 4.628906 18.457031 C 5.46875 18.292969 6.289062 18.007812 7.140625 17.972656 C 8.566406 17.921875 9.902344 18.578125 11.230469 19.085938 C 16.605469 21.148438 22.875 20.867188 28.035156 18.335938 Z M 28.261719 18.214844 " fill-opacity="1" fill-rule="nonzero"/></g><path fill="#f4f4dc" d="M 7.5625 18.199219 C 7.5625 18.390625 7.523438 18.574219 7.449219 18.753906 C 7.375 18.929688 7.265625 19.085938 7.128906 19.21875 C 6.988281 19.355469 6.832031 19.460938 6.648438 19.53125 C 6.46875 19.605469 6.28125 19.640625 6.085938 19.640625 C 5.890625 19.640625 5.699219 19.605469 5.519531 19.53125 C 5.339844 19.460938 5.179688 19.355469 5.039062 19.21875 C 4.902344 19.085938 4.796875 18.929688 4.722656 18.753906 C 4.644531 18.574219 4.609375 18.390625 4.609375 18.199219 C 4.609375 18.007812 4.644531 17.824219 4.722656 17.648438 C 4.796875 17.472656 4.902344 17.316406 5.039062 17.179688 C 5.179688 17.046875 5.339844 16.941406 5.519531 16.867188 C 5.699219 16.792969 5.890625 16.757812 6.085938 16.757812 C 6.28125 16.757812 6.46875 16.792969 6.648438 16.867188 C 6.832031 16.941406 6.988281 17.046875 7.128906 17.179688 C 7.265625 17.316406 7.375 17.472656 7.449219 17.648438 C 7.523438 17.824219 7.5625 18.007812 7.5625 18.199219 Z M 7.5625 18.199219 " fill-opacity="1" fill-rule="nonzero"/><path fill="#2e5419" d="M 7.007812 18.210938 C 7.007812 18.351562 6.980469 18.488281 6.925781 18.621094 C 6.867188 18.75 6.789062 18.867188 6.6875 18.964844 C 6.585938 19.066406 6.464844 19.144531 6.332031 19.199219 C 6.199219 19.25 6.058594 19.277344 5.914062 19.277344 C 5.769531 19.277344 5.628906 19.25 5.496094 19.199219 C 5.363281 19.144531 5.242188 19.066406 5.140625 18.964844 C 5.039062 18.867188 4.960938 18.75 4.902344 18.621094 C 4.847656 18.488281 4.820312 18.351562 4.820312 18.210938 C 4.820312 18.070312 4.847656 17.933594 4.902344 17.800781 C 4.960938 17.671875 5.039062 17.554688 5.140625 17.457031 C 5.242188 17.355469 5.363281 17.277344 5.496094 17.222656 C 5.628906 17.171875 5.769531 17.144531 5.914062 17.144531 C 6.058594 17.144531 6.199219 17.171875 6.332031 17.222656 C 6.464844 17.277344 6.585938 17.355469 6.6875 17.457031 C 6.789062 17.554688 6.867188 17.671875 6.925781 17.800781 C 6.980469 17.933594 7.007812 18.070312 7.007812 18.210938 Z M 7.007812 18.210938 " fill-opacity="1" fill-rule="nonzero"/><path fill="#23420f" d="M 6.386719 18.179688 C 6.386719 18.316406 6.335938 18.4375 6.234375 18.535156 C 6.132812 18.632812 6.011719 18.683594 5.867188 18.683594 C 5.726562 18.683594 5.605469 18.632812 5.503906 18.535156 C 5.402344 18.4375 5.351562 18.316406 5.351562 18.179688 C 5.351562 18.039062 5.402344 17.921875 5.503906 17.820312 C 5.605469 17.722656 5.726562 17.671875 5.867188 17.671875 C 6.011719 17.671875 6.132812 17.722656 6.234375 17.820312 C 6.335938 17.921875 6.386719 18.039062 6.386719 18.179688 Z M 6.386719 18.179688 " fill-opacity="1" fill-rule="nonzero"/><path fill="#f4f4dc" d="M 6.964844 17.917969 C 6.964844 18.058594 6.914062 18.175781 6.8125 18.277344 C 6.710938 18.375 6.589844 18.425781 6.445312 18.425781 C 6.304688 18.425781 6.179688 18.375 6.082031 18.277344 C 5.980469 18.175781 5.929688 18.058594 5.929688 17.917969 C 5.929688 17.777344 5.980469 17.660156 6.082031 17.5625 C 6.179688 17.460938 6.304688 17.414062 6.445312 17.414062 C 6.589844 17.414062 6.710938 17.460938 6.8125 17.5625 C 6.914062 17.660156 6.964844 17.777344 6.964844 17.917969 Z M 6.964844 17.917969 " fill-opacity="1" fill-rule="nonzero"/><path fill="#f4f4dc" d="M 13.441406 19.105469 C 13.441406 19.296875 13.402344 19.480469 13.328125 19.660156 C 13.253906 19.835938 13.144531 19.992188 13.007812 20.125 C 12.867188 20.261719 12.710938 20.367188 12.527344 20.4375 C 12.347656 20.511719 12.160156 20.550781 11.964844 20.550781 C 11.769531 20.550781 11.578125 20.511719 11.398438 20.4375 C 11.21875 20.367188 11.058594 20.261719 10.917969 20.125 C 10.78125 19.992188 10.675781 19.835938 10.601562 19.660156 C 10.523438 19.480469 10.488281 19.296875 10.488281 19.105469 C 10.488281 18.914062 10.523438 18.730469 10.601562 18.554688 C 10.675781 18.378906 10.78125 18.222656 10.917969 18.085938 C 11.058594 17.953125 11.21875 17.847656 11.398438 17.773438 C 11.578125 17.703125 11.769531 17.664062 11.964844 17.664062 C 12.160156 17.664062 12.347656 17.703125 12.527344 17.773438 C 12.710938 17.847656 12.867188 17.953125 13.007812 18.085938 C 13.144531 18.222656 13.253906 18.378906 13.328125 18.554688 C 13.402344 18.730469 13.441406 18.914062 13.441406 19.105469 Z M 13.441406 19.105469 " fill-opacity="1" fill-rule="nonzero"/><path fill="#2e5419" d="M 12.886719 19.117188 C 12.886719 19.257812 12.859375 19.394531 12.800781 19.527344 C 12.746094 19.65625 12.667969 19.773438 12.566406 19.871094 C 12.460938 19.972656 12.34375 20.050781 12.210938 20.105469 C 12.078125 20.15625 11.9375 20.183594 11.792969 20.183594 C 11.648438 20.183594 11.507812 20.15625 11.375 20.105469 C 11.238281 20.050781 11.121094 19.972656 11.019531 19.871094 C 10.917969 19.773438 10.835938 19.65625 10.78125 19.527344 C 10.726562 19.394531 10.699219 19.257812 10.699219 19.117188 C 10.699219 18.976562 10.726562 18.839844 10.78125 18.707031 C 10.835938 18.578125 10.917969 18.460938 11.019531 18.363281 C 11.121094 18.261719 11.238281 18.183594 11.375 18.128906 C 11.507812 18.078125 11.648438 18.050781 11.792969 18.050781 C 11.9375 18.050781 12.078125 18.078125 12.210938 18.128906 C 12.34375 18.183594 12.460938 18.261719 12.566406 18.363281 C 12.667969 18.460938 12.746094 18.578125 12.800781 18.707031 C 12.859375 18.839844 12.886719 18.976562 12.886719 19.117188 Z M 12.886719 19.117188 " fill-opacity="1" fill-rule="nonzero"/><path fill="#23420f" d="M 12.265625 19.085938 C 12.265625 19.226562 12.214844 19.34375 12.113281 19.445312 C 12.011719 19.542969 11.890625 19.589844 11.746094 19.589844 C 11.605469 19.589844 11.484375 19.542969 11.382812 19.445312 C 11.28125 19.34375 11.230469 19.226562 11.230469 19.085938 C 11.230469 18.945312 11.28125 18.828125 11.382812 18.730469 C 11.484375 18.628906 11.605469 18.582031 11.746094 18.582031 C 11.890625 18.582031 12.011719 18.628906 12.113281 18.730469 C 12.214844 18.828125 12.265625 18.945312 12.265625 19.085938 Z M 12.265625 19.085938 " fill-opacity="1" fill-rule="nonzero"/><path fill="#f4f4dc" d="M 12.839844 18.824219 C 12.839844 18.964844 12.789062 19.085938 12.691406 19.183594 C 12.589844 19.28125 12.464844 19.332031 12.324219 19.332031 C 12.179688 19.332031 12.058594 19.28125 11.957031 19.183594 C 11.855469 19.085938 11.808594 18.964844 11.808594 18.824219 C 11.808594 18.6875 11.855469 18.566406 11.957031 18.46875 C 12.058594 18.371094 12.179688 18.320312 12.324219 18.320312 C 12.464844 18.320312 12.589844 18.371094 12.691406 18.46875 C 12.789062 18.566406 12.839844 18.6875 12.839844 18.824219 Z M 12.839844 18.824219 " fill-opacity="1" fill-rule="nonzero"/><path fill="#d3a281" d="M 7.019531 7.527344 C 7.5625 6.886719 8.25 6.328125 8.933594 5.84375 C 9.265625 5.605469 9.613281 5.394531 9.976562 5.203125 C 10.320312 5.023438 10.71875 4.875 11.019531 4.628906 C 11.132812 4.539062 11.035156 4.363281 10.90625 4.359375 C 10.496094 4.355469 10.054688 4.554688 9.695312 4.730469 C 9.289062 4.933594 8.90625 5.167969 8.542969 5.4375 C 7.820312 5.976562 7.304688 6.636719 6.847656 7.394531 C 6.785156 7.496094 6.9375 7.621094 7.019531 7.523438 Z M 7.019531 7.527344 " fill-opacity="1" fill-rule="nonzero"/><path fill="#d3a281" d="M 5.335938 8.898438 C 4.792969 9.261719 4.464844 10.078125 4.199219 10.640625 C 4.046875 10.949219 3.917969 11.269531 3.804688 11.59375 C 3.699219 11.898438 3.546875 12.238281 3.640625 12.558594 C 3.660156 12.617188 3.699219 12.652344 3.753906 12.667969 C 3.8125 12.679688 3.863281 12.667969 3.910156 12.628906 C 4.128906 12.40625 4.179688 12.078125 4.277344 11.789062 C 4.382812 11.488281 4.496094 11.183594 4.625 10.886719 C 4.761719 10.566406 4.914062 10.253906 5.085938 9.949219 C 5.246094 9.660156 5.472656 9.378906 5.546875 9.054688 C 5.574219 8.945312 5.445312 8.824219 5.335938 8.894531 Z M 5.335938 8.898438 " fill-opacity="1" fill-rule="nonzero"/><path fill="#d3a281" d="M 7.53125 13.457031 C 7.792969 12.734375 7.898438 11.613281 8.644531 11.199219 C 9.453125 10.746094 10.214844 11.320312 11.019531 11.394531 C 11.148438 11.40625 11.21875 11.222656 11.125 11.140625 C 10.472656 10.546875 9.234375 10.316406 8.429688 10.734375 C 7.382812 11.273438 7.640625 12.492188 7.367188 13.414062 C 7.335938 13.515625 7.492188 13.554688 7.527344 13.457031 Z M 7.53125 13.457031 " fill-opacity="1" fill-rule="nonzero"/><path fill="#d3a281" d="M 11.910156 11.96875 C 11.996094 11.960938 12.039062 11.917969 12.039062 11.832031 C 12.039062 11.75 11.996094 11.703125 11.910156 11.699219 C 11.824219 11.703125 11.78125 11.75 11.78125 11.832031 C 11.78125 11.917969 11.824219 11.960938 11.910156 11.96875 Z M 11.910156 11.96875 " fill-opacity="1" fill-rule="nonzero"/><path fill="#d3a281" d="M 14.324219 11.410156 C 14.148438 10.496094 14.640625 9.496094 15.40625 8.972656 C 15.773438 8.730469 16.175781 8.585938 16.621094 8.550781 C 17.097656 8.507812 17.511719 8.640625 17.972656 8.734375 C 18.132812 8.765625 18.296875 8.558594 18.148438 8.433594 C 17.296875 7.742188 15.863281 7.988281 15.042969 8.597656 C 14.121094 9.28125 13.859375 10.417969 14.078125 11.476562 C 14.109375 11.636719 14.355469 11.570312 14.324219 11.410156 Z M 14.324219 11.410156 " fill-opacity="1" fill-rule="nonzero"/><path fill="#d3a281" d="M 14.171875 3.679688 C 15.300781 3.742188 16.414062 3.898438 17.515625 4.148438 C 18.597656 4.402344 19.582031 4.832031 20.621094 5.199219 C 20.886719 5.292969 21.019531 4.910156 20.804688 4.769531 C 19.871094 4.164062 18.679688 3.820312 17.597656 3.59375 C 16.464844 3.355469 15.324219 3.300781 14.171875 3.425781 C 14.089844 3.433594 14.050781 3.472656 14.050781 3.554688 C 14.050781 3.632812 14.089844 3.675781 14.171875 3.679688 Z M 14.171875 3.679688 " fill-opacity="1" fill-rule="nonzero"/><path fill="#d3a281" d="M 23.125 7.230469 C 22.484375 7.199219 21.855469 7.183594 21.453125 7.769531 C 21.226562 8.09375 21.125 8.976562 21.71875 9 C 21.816406 9 21.867188 8.949219 21.871094 8.851562 C 21.886719 8.691406 21.78125 8.550781 21.789062 8.386719 C 21.804688 8.203125 21.890625 8.054688 22.042969 7.945312 C 22.339844 7.707031 22.789062 7.566406 23.164062 7.515625 C 23.335938 7.488281 23.28125 7.238281 23.125 7.230469 Z M 23.125 7.230469 " fill-opacity="1" fill-rule="nonzero"/><path fill="#d3a281" d="M 16.933594 9.5625 C 17.152344 9.53125 17.371094 9.539062 17.585938 9.578125 C 17.746094 9.605469 17.886719 9.671875 18.050781 9.648438 C 18.125 9.636719 18.125 9.546875 18.089844 9.5 C 17.847656 9.199219 17.203125 9.28125 16.875 9.359375 C 16.734375 9.390625 16.796875 9.585938 16.933594 9.5625 Z M 16.933594 9.5625 " fill-opacity="1" fill-rule="nonzero"/><path fill="#d3a281" d="M 17.917969 10.296875 L 18.15625 10.28125 C 18.230469 10.273438 18.304688 10.28125 18.359375 10.226562 C 18.402344 10.183594 18.394531 10.140625 18.34375 10.109375 C 18.285156 10.066406 18.210938 10.085938 18.140625 10.09375 L 17.917969 10.117188 C 17.804688 10.128906 17.800781 10.304688 17.917969 10.296875 Z M 17.917969 10.296875 " fill-opacity="1" fill-rule="nonzero"/><path fill="#d3a281" d="M 18.472656 10.824219 C 18.566406 10.867188 18.671875 10.929688 18.773438 10.875 C 18.804688 10.855469 18.820312 10.832031 18.820312 10.792969 C 18.820312 10.683594 18.710938 10.621094 18.628906 10.558594 C 18.535156 10.5 18.460938 10.515625 18.40625 10.609375 C 18.351562 10.703125 18.371094 10.777344 18.472656 10.824219 Z M 18.472656 10.824219 " fill-opacity="1" fill-rule="nonzero"/><path fill="#d3a281" d="M 19.144531 11.5 C 19.351562 11.5 19.351562 11.183594 19.144531 11.183594 C 18.9375 11.183594 18.9375 11.5 19.144531 11.5 Z M 19.144531 11.5 " fill-opacity="1" fill-rule="nonzero"/><path fill="#d3a281" d="M 19.273438 11.734375 C 19.289062 11.773438 19.300781 11.816406 19.316406 11.851562 C 19.34375 11.917969 19.390625 11.96875 19.449219 12.003906 C 19.496094 12.027344 19.539062 12.03125 19.585938 12.011719 C 19.628906 11.992188 19.660156 11.960938 19.675781 11.914062 C 19.703125 11.820312 19.695312 11.726562 19.652344 11.632812 C 19.617188 11.511719 19.535156 11.464844 19.410156 11.5 C 19.285156 11.535156 19.238281 11.613281 19.273438 11.734375 Z M 19.273438 11.734375 " fill-opacity="1" fill-rule="nonzero"/><path fill="#d3a281" d="M 10.292969 12.140625 C 10.476562 12.164062 10.648438 12.222656 10.8125 12.316406 C 10.9375 12.390625 11.039062 12.527344 11.195312 12.503906 C 11.238281 12.492188 11.257812 12.464844 11.257812 12.425781 C 11.273438 12.25 11.027344 12.132812 10.894531 12.070312 C 10.714844 11.984375 10.523438 11.933594 10.324219 11.917969 C 10.195312 11.90625 10.164062 12.121094 10.292969 12.140625 Z M 10.292969 12.140625 " fill-opacity="1" fill-rule="nonzero"/><path fill="#d3a281" d="M 11.300781 13.347656 C 11.398438 13.363281 11.566406 13.414062 11.601562 13.28125 C 11.617188 13.210938 11.589844 13.164062 11.523438 13.140625 C 11.472656 13.121094 11.421875 13.105469 11.371094 13.097656 C 11.285156 13.074219 11.230469 13.105469 11.207031 13.1875 C 11.183594 13.273438 11.214844 13.328125 11.300781 13.347656 Z M 11.300781 13.347656 " fill-opacity="1" fill-rule="nonzero"/><path fill="#d3a281" d="M 12.109375 14.1875 C 12.339844 14.1875 12.339844 13.835938 12.109375 13.835938 C 11.878906 13.835938 11.875 14.1875 12.109375 14.1875 Z M 12.109375 14.1875 " fill-opacity="1" fill-rule="nonzero"/><path fill="#d3a281" d="M 11.441406 5.828125 L 11.867188 5.824219 C 11.988281 5.824219 12.121094 5.839844 12.222656 5.773438 C 12.25 5.757812 12.265625 5.730469 12.265625 5.699219 C 12.265625 5.667969 12.25 5.640625 12.222656 5.625 C 12.121094 5.558594 11.988281 5.574219 11.867188 5.574219 L 11.441406 5.574219 C 11.359375 5.582031 11.320312 5.625 11.320312 5.703125 C 11.320312 5.78125 11.359375 5.824219 11.441406 5.832031 Z M 11.441406 5.828125 " fill-opacity="1" fill-rule="nonzero"/><path fill="#d3a281" d="M 12.597656 6.609375 C 12.679688 6.605469 12.71875 6.5625 12.71875 6.480469 C 12.71875 6.402344 12.679688 6.359375 12.597656 6.351562 C 12.515625 6.359375 12.476562 6.402344 12.476562 6.480469 C 12.476562 6.5625 12.515625 6.605469 12.597656 6.609375 Z M 12.597656 6.609375 " fill-opacity="1" fill-rule="nonzero"/><path fill="#d3a281" d="M 12.859375 6.949219 C 12.886719 6.976562 12.917969 7 12.953125 7.023438 C 12.960938 7.027344 12.96875 7.035156 12.980469 7.039062 C 13.003906 7.054688 13.03125 7.0625 13.0625 7.066406 C 13.089844 7.070312 13.117188 7.066406 13.140625 7.0625 C 13.214844 7.042969 13.257812 7 13.277344 6.929688 C 13.28125 6.914062 13.28125 6.894531 13.285156 6.875 C 13.28125 6.839844 13.273438 6.804688 13.253906 6.773438 C 13.25 6.761719 13.246094 6.753906 13.238281 6.742188 C 13.21875 6.710938 13.1875 6.679688 13.164062 6.648438 C 13.121094 6.609375 13.070312 6.589844 13.011719 6.589844 C 12.917969 6.589844 12.851562 6.632812 12.8125 6.71875 C 12.777344 6.804688 12.792969 6.882812 12.859375 6.949219 Z M 12.859375 6.949219 " fill-opacity="1" fill-rule="nonzero"/></svg>