<svg xmlns="http://www.w3.org/2000/svg" xmlns:xlink="http://www.w3.org/1999/xlink" width="40" zoomAndPan="magnify" viewBox="0 0 30 30.000001" height="40" preserveAspectRatio="xMidYMid meet" version="1.0"><defs><filter x="0%" y="0%" width="100%" height="100%" id="dc3e793531"><feColorMatrix values="0 0 0 0 1 0 0 0 0 1 0 0 0 0 1 0 0 0 1 0" color-interpolation-filters="sRGB"/></filter><clipPath id="6359767bd7"><path d="M 0.484375 0 L 29.515625 0 L 29.515625 29.03125 L 0.484375 29.03125 Z M 0.484375 0 " clip-rule="nonzero"/></clipPath><clipPath id="b7ed9f90dd"><path d="M 4 25 L 26.960938 25 L 26.960938 27.953125 L 4 27.953125 Z M 4 25 " clip-rule="nonzero"/></clipPath><mask id="3b47a44287"><g filter="url(#dc3e793531)"><rect x="-3" width="36" fill="#000000" y="-3" height="36.000001" fill-opacity="0.2"/></g></mask><clipPath id="39223f5be0"><path d="M 0.078125 0.257812 L 13 0.257812 L 13 7.457031 L 0.078125 7.457031 Z M 0.078125 0.257812 " clip-rule="nonzero"/></clipPath><clipPath id="2f35e3147e"><rect x="0" width="14" y="0" height="8"/></clipPath><clipPath id="b3ae3f537b"><path d="M 17 9 L 26.960938 9 L 26.960938 17 L 17 17 Z M 17 9 " clip-rule="nonzero"/></clipPath><clipPath id="92479007bb"><path d="M 18 9 L 26.960938 9 L 26.960938 17 L 18 17 Z M 18 9 " clip-rule="nonzero"/></clipPath><clipPath id="98d09e6de7"><path d="M 17 9 L 26.960938 9 L 26.960938 14 L 17 14 Z M 17 9 " clip-rule="nonzero"/></clipPath><clipPath id="de427321d5"><path d="M 17 8 L 26.960938 8 L 26.960938 17 L 17 17 Z M 17 8 " clip-rule="nonzero"/></clipPath><clipPath id="14f45b185d"><path d="M 8 20 L 15 20 L 15 27.953125 L 8 27.953125 Z M 8 20 " clip-rule="nonzero"/></clipPath><clipPath id="5dcbc09568"><path d="M 4 1.097656 L 19 1.097656 L 19 16 L 4 16 Z M 4 1.097656 " clip-rule="nonzero"/></clipPath><clipPath id="c41a574bd3"><path d="M 4 1.097656 L 19 1.097656 L 19 10 L 4 10 Z M 4 1.097656 " clip-rule="nonzero"/></clipPath><clipPath id="a4a0f6f3ef"><path d="M 4 1.097656 L 19 1.097656 L 19 17 L 4 17 Z M 4 1.097656 " clip-rule="nonzero"/></clipPath></defs><g clip-path="url(#6359767bd7)"><path fill="#ffffff" d="M 0.484375 0 L 29.515625 0 L 29.515625 29.03125 L 0.484375 29.03125 Z M 0.484375 0 " fill-opacity="1" fill-rule="nonzero"/><path fill="#ffffff" d="M 0.484375 0 L 29.515625 0 L 29.515625 29.03125 L 0.484375 29.03125 Z M 0.484375 0 " fill-opacity="1" fill-rule="nonzero"/></g><g clip-path="url(#b7ed9f90dd)"><path fill="#102770" d="M 26.429688 26.832031 C 26.429688 26.90625 26.359375 26.976562 26.222656 27.046875 C 26.082031 27.121094 25.878906 27.1875 25.605469 27.257812 C 25.335938 27.324219 25.003906 27.386719 24.609375 27.449219 C 24.214844 27.507812 23.765625 27.566406 23.261719 27.617188 C 22.761719 27.667969 22.214844 27.714844 21.625 27.753906 C 21.035156 27.796875 20.414062 27.828125 19.757812 27.855469 C 19.101562 27.886719 18.425781 27.90625 17.726562 27.921875 C 17.03125 27.933594 16.328125 27.941406 15.621094 27.941406 C 14.910156 27.941406 14.207031 27.933594 13.511719 27.921875 C 12.8125 27.90625 12.136719 27.886719 11.480469 27.855469 C 10.828125 27.828125 10.203125 27.796875 9.613281 27.753906 C 9.023438 27.714844 8.476562 27.667969 7.976562 27.617188 C 7.472656 27.566406 7.023438 27.507812 6.628906 27.449219 C 6.238281 27.386719 5.902344 27.324219 5.632812 27.257812 C 5.359375 27.1875 5.15625 27.121094 5.015625 27.046875 C 4.878906 26.976562 4.808594 26.90625 4.808594 26.832031 C 4.808594 26.757812 4.878906 26.6875 5.015625 26.617188 C 5.15625 26.542969 5.359375 26.472656 5.632812 26.40625 C 5.902344 26.339844 6.238281 26.277344 6.628906 26.214844 C 7.023438 26.15625 7.472656 26.097656 7.976562 26.046875 C 8.476562 25.996094 9.023438 25.949219 9.613281 25.910156 C 10.203125 25.867188 10.828125 25.835938 11.480469 25.808594 C 12.136719 25.777344 12.8125 25.757812 13.511719 25.742188 C 14.207031 25.730469 14.910156 25.722656 15.621094 25.722656 C 16.328125 25.722656 17.03125 25.730469 17.726562 25.742188 C 18.425781 25.757812 19.101562 25.777344 19.757812 25.808594 C 20.414062 25.835938 21.035156 25.867188 21.625 25.910156 C 22.214844 25.949219 22.761719 25.996094 23.261719 26.046875 C 23.765625 26.097656 24.214844 26.15625 24.609375 26.214844 C 25.003906 26.277344 25.335938 26.339844 25.605469 26.40625 C 25.878906 26.472656 26.082031 26.542969 26.222656 26.617188 C 26.359375 26.6875 26.429688 26.757812 26.429688 26.832031 Z M 26.429688 26.832031 " fill-opacity="0.2" fill-rule="nonzero"/></g><path fill="#19b5fe" d="M 21.847656 16.550781 C 21.890625 19.957031 19.164062 23.121094 15.355469 23.308594 C 15.179688 23.316406 15.007812 23.320312 14.839844 23.320312 C 14.816406 23.320312 14.796875 23.320312 14.773438 23.320312 C 14.695312 23.316406 14.617188 23.316406 14.539062 23.3125 C 11.871094 23.214844 10.179688 21.941406 9.355469 20.382812 C 8.835938 19.402344 8.65625 18.3125 8.792969 17.332031 C 9.167969 14.628906 10.21875 12.625 11.839844 11.4375 C 13.28125 10.378906 18.675781 9.226562 21.042969 13.527344 C 21.582031 14.507812 21.835938 15.539062 21.847656 16.550781 Z M 21.847656 16.550781 " fill-opacity="1" fill-rule="nonzero"/><path fill="#ffffff" d="M 11.59375 11.996094 C 13.039062 10.9375 18.429688 9.785156 20.796875 14.082031 C 21.339844 15.066406 21.59375 16.097656 21.605469 17.105469 C 21.613281 17.871094 21.484375 18.621094 21.234375 19.332031 C 21.628906 18.464844 21.839844 17.515625 21.828125 16.550781 C 21.816406 15.539062 21.5625 14.507812 21.023438 13.527344 C 18.65625 9.230469 13.261719 10.382812 11.820312 11.441406 C 10.742188 12.230469 9.917969 13.378906 9.375 14.855469 C 9.910156 13.644531 10.65625 12.683594 11.59375 11.996094 Z M 11.59375 11.996094 " fill-opacity="0.6" fill-rule="nonzero"/><path fill="#7fdcff" d="M 19.867188 21.277344 C 19.867188 21.277344 19.867188 21.277344 19.867188 21.28125 C 18.722656 22.441406 17.144531 23.21875 15.308594 23.308594 C 15.152344 23.316406 14.992188 23.320312 14.839844 23.320312 C 14.816406 23.320312 14.796875 23.320312 14.773438 23.320312 C 14.691406 23.320312 14.609375 23.320312 14.53125 23.316406 C 14.535156 23.316406 14.535156 23.316406 14.539062 23.316406 C 17.378906 22.769531 19.074219 20.859375 19.28125 18.398438 C 19.371094 17.339844 19.179688 16.175781 18.6875 14.972656 C 17.976562 13.25 16.738281 12.21875 15.425781 11.730469 C 15.472656 11.734375 19.066406 11.996094 19.65625 14.972656 C 19.753906 15.476562 20.179688 16.144531 20.5 16.945312 C 20.984375 18.140625 21.246094 19.628906 19.867188 21.277344 Z M 19.867188 21.277344 " fill-opacity="1" fill-rule="nonzero"/><path fill="#102770" d="M 14.863281 23.515625 C 12.316406 23.515625 10.816406 22.5 9.996094 21.621094 C 8.910156 20.453125 8.386719 18.84375 8.601562 17.308594 C 8.976562 14.589844 10.054688 12.507812 11.722656 11.285156 C 12.589844 10.648438 14.925781 9.941406 17.195312 10.433594 C 18.953125 10.8125 20.34375 11.851562 21.214844 13.433594 C 22.339844 15.476562 22.316406 17.914062 21.152344 19.957031 C 19.957031 22.054688 17.792969 23.378906 15.363281 23.5 C 15.195312 23.511719 15.027344 23.515625 14.863281 23.515625 Z M 11.839844 11.441406 L 11.957031 11.59375 C 10.375 12.753906 9.351562 14.746094 8.988281 17.359375 C 8.792969 18.78125 9.273438 20.277344 10.285156 21.359375 C 11.050781 22.179688 12.453125 23.128906 14.863281 23.128906 C 15.019531 23.128906 15.179688 23.125 15.34375 23.117188 C 17.636719 23 19.679688 21.75 20.808594 19.769531 C 21.90625 17.84375 21.929688 15.542969 20.867188 13.617188 C 20.042969 12.117188 18.777344 11.171875 17.109375 10.808594 C 14.960938 10.34375 12.761719 11 11.953125 11.59375 Z M 11.839844 11.441406 " fill-opacity="1" fill-rule="nonzero"/><path fill="#102770" d="M 19.800781 21.566406 C 19.757812 21.566406 19.714844 21.554688 19.679688 21.523438 C 19.605469 21.457031 19.597656 21.34375 19.664062 21.265625 C 21.484375 19.210938 20.609375 17.425781 19.972656 16.125 C 19.765625 15.699219 19.585938 15.332031 19.519531 15.011719 C 19.285156 13.832031 18.539062 12.953125 17.296875 12.398438 C 16.351562 11.976562 15.464844 11.914062 15.457031 11.914062 C 15.355469 11.90625 15.277344 11.820312 15.285156 11.71875 C 15.292969 11.621094 15.382812 11.546875 15.480469 11.550781 C 15.519531 11.554688 16.433594 11.621094 17.4375 12.066406 C 18.78125 12.660156 19.625 13.65625 19.882812 14.941406 C 19.9375 15.21875 20.105469 15.566406 20.300781 15.96875 C 20.945312 17.28125 21.917969 19.269531 19.941406 21.503906 C 19.90625 21.546875 19.851562 21.566406 19.800781 21.566406 Z M 19.800781 21.566406 " fill-opacity="1" fill-rule="nonzero"/><g mask="url(#3b47a44287)"><g transform="matrix(1, 0, 0, 1, 9, 16)"><g clip-path="url(#2f35e3147e)"><g clip-path="url(#39223f5be0)"><path fill="#1a1a5a" d="M 12.847656 0.550781 C 12.890625 3.957031 10.164062 7.121094 6.355469 7.308594 C 6.179688 7.316406 6.007812 7.320312 5.839844 7.320312 C 5.816406 7.320312 5.796875 7.320312 5.773438 7.320312 C 5.691406 7.320312 5.609375 7.316406 5.53125 7.316406 C 5.535156 7.3125 5.535156 7.3125 5.539062 7.3125 C 2.871094 7.214844 1.179688 5.941406 0.355469 4.382812 C 5.253906 6.246094 8.609375 4.039062 10.28125 2.398438 C 11.089844 1.605469 11.5 0.945312 11.5 0.945312 C 12.109375 1.242188 12.550781 0.960938 12.847656 0.550781 Z M 12.847656 0.550781 " fill-opacity="1" fill-rule="nonzero"/><path fill="#102770" d="M 5.882812 7.347656 C 5.871094 7.347656 5.855469 7.347656 5.839844 7.347656 C 5.816406 7.347656 5.792969 7.347656 5.773438 7.34375 C 5.773438 7.34375 5.773438 7.34375 5.769531 7.34375 C 5.691406 7.34375 5.609375 7.34375 5.527344 7.339844 L 5.273438 7.332031 L 5.296875 7.328125 C 2.230469 7.132812 0.871094 5.417969 0.328125 4.394531 L 0.296875 4.335938 L 0.363281 4.359375 C 5.308594 6.242188 8.6875 3.925781 10.257812 2.382812 C 11.058594 1.597656 11.472656 0.9375 11.476562 0.929688 L 11.488281 0.910156 L 11.511719 0.917969 C 12.015625 1.164062 12.460938 1.035156 12.828125 0.53125 L 12.871094 0.46875 L 12.875 0.546875 C 12.894531 2.238281 12.25 3.875 11.0625 5.152344 C 9.839844 6.46875 8.167969 7.242188 6.355469 7.332031 C 6.195312 7.34375 6.035156 7.347656 5.882812 7.347656 Z M 5.667969 7.292969 C 5.703125 7.292969 5.738281 7.292969 5.773438 7.292969 C 5.796875 7.296875 5.816406 7.296875 5.839844 7.296875 C 6.003906 7.296875 6.175781 7.292969 6.351562 7.28125 C 9.9375 7.105469 12.824219 4.125 12.824219 0.625 C 12.457031 1.085938 12.003906 1.207031 11.507812 0.976562 C 11.433594 1.09375 11.023438 1.707031 10.296875 2.417969 C 9.527344 3.175781 8.25 4.191406 6.535156 4.730469 C 4.617188 5.335938 2.554688 5.238281 0.410156 4.433594 C 0.980469 5.480469 2.390625 7.175781 5.539062 7.289062 Z M 5.667969 7.292969 " fill-opacity="1" fill-rule="nonzero"/></g></g></g></g><g clip-path="url(#b3ae3f537b)"><path fill="#b5ea24" d="M 23.097656 14.269531 C 22.980469 14.351562 22.859375 14.429688 22.738281 14.503906 L 19.144531 16.75 L 17.285156 13.414062 L 18.96875 12.03125 L 20.363281 10.886719 C 20.660156 10.683594 20.929688 10.511719 21.136719 10.375 C 22.175781 9.695312 25.546875 8.441406 26.125 9.75 C 26.699219 11.058594 25.085938 12.90625 23.097656 14.269531 Z M 23.097656 14.269531 " fill-opacity="1" fill-rule="nonzero"/></g><g clip-path="url(#92479007bb)"><path fill="#102770" d="M 26.023438 9.75 C 26.019531 9.746094 26.015625 9.742188 26.015625 9.734375 C 25.597656 11.011719 24.179688 12.441406 22.539062 13.578125 C 22.40625 13.671875 22.269531 13.765625 22.128906 13.847656 L 18.652344 16.054688 L 19.039062 16.75 L 22.632812 14.503906 C 22.753906 14.429688 22.875 14.351562 22.992188 14.269531 C 24.984375 12.90625 26.597656 11.058594 26.023438 9.75 Z M 26.023438 9.75 " fill-opacity="0.2" fill-rule="nonzero"/></g><g clip-path="url(#98d09e6de7)"><path fill="#ffffff" d="M 20.988281 11.175781 C 22.636719 9.988281 25.375 8.898438 25.953125 10.203125 C 26.050781 10.425781 26.023438 10.757812 25.875 11.171875 C 26.152344 10.609375 26.226562 10.066406 26.019531 9.59375 C 25.441406 8.289062 22.070312 9.539062 21.03125 10.222656 C 20.824219 10.355469 20.554688 10.527344 20.257812 10.730469 L 18.863281 11.875 L 17.179688 13.257812 L 17.433594 13.710938 C 17.433594 13.710938 19.121094 12.523438 20.988281 11.175781 Z M 20.988281 11.175781 " fill-opacity="0.6" fill-rule="nonzero"/></g><g clip-path="url(#de427321d5)"><path fill="#102770" d="M 19.144531 16.945312 C 19.128906 16.945312 19.113281 16.941406 19.09375 16.9375 C 19.042969 16.925781 18.996094 16.890625 18.972656 16.84375 L 17.113281 13.503906 C 17.070312 13.425781 17.089844 13.324219 17.160156 13.265625 L 20.238281 10.738281 C 20.242188 10.734375 20.246094 10.730469 20.25 10.726562 C 20.460938 10.582031 20.660156 10.453125 20.832031 10.34375 C 20.902344 10.296875 20.96875 10.253906 21.027344 10.214844 C 21.910156 9.636719 24.308594 8.707031 25.558594 9.070312 C 25.921875 9.175781 26.171875 9.378906 26.304688 9.671875 C 26.960938 11.164062 25.136719 13.105469 23.207031 14.429688 C 23.085938 14.511719 22.960938 14.59375 22.839844 14.664062 L 19.25 16.914062 C 19.21875 16.933594 19.179688 16.945312 19.144531 16.945312 Z M 17.535156 13.460938 L 19.214844 16.480469 L 22.632812 14.339844 C 22.75 14.269531 22.867188 14.191406 22.984375 14.113281 C 24.703125 12.933594 26.507812 11.105469 25.945312 9.828125 C 25.863281 9.640625 25.699219 9.511719 25.449219 9.441406 C 24.359375 9.125 22.105469 9.972656 21.246094 10.539062 C 21.183594 10.578125 21.117188 10.621094 21.046875 10.667969 C 20.878906 10.777344 20.6875 10.898438 20.480469 11.039062 Z M 23.097656 14.269531 Z M 23.097656 14.269531 " fill-opacity="1" fill-rule="nonzero"/></g><path fill="#102770" d="M 18.96875 12.222656 C 18.917969 12.222656 18.863281 12.203125 18.828125 12.164062 C 18.757812 12.089844 18.753906 11.972656 18.824219 11.898438 C 19.183594 11.519531 19.652344 11.136719 20.25 10.726562 C 20.335938 10.667969 20.457031 10.6875 20.519531 10.769531 C 20.582031 10.851562 20.570312 10.96875 20.488281 11.035156 L 19.09375 12.179688 C 19.058594 12.210938 19.011719 12.222656 18.96875 12.222656 Z M 18.96875 12.222656 " fill-opacity="1" fill-rule="nonzero"/><path fill="#b5ea24" d="M 22.882812 25.308594 C 22.875 25.324219 22.867188 25.339844 22.859375 25.355469 C 22.859375 25.355469 22.859375 25.355469 22.859375 25.359375 C 22.675781 25.753906 22.398438 26.015625 22.222656 26.152344 C 22.203125 26.167969 22.1875 26.179688 22.171875 26.1875 C 22.105469 26.238281 22.035156 26.273438 21.957031 26.304688 C 21.925781 26.316406 21.882812 26.328125 21.835938 26.34375 C 21.582031 26.425781 21.148438 26.546875 20.652344 26.582031 C 20.539062 26.589844 20.425781 26.589844 20.308594 26.589844 C 20 26.582031 19.675781 26.535156 19.371094 26.414062 C 19.363281 26.414062 19.355469 26.410156 19.351562 26.40625 C 18.140625 25.921875 16.761719 21.613281 16.761719 21.613281 L 19.09375 19.335938 L 19.21875 19.214844 C 19.21875 19.214844 19.5625 19.507812 20.042969 19.96875 C 21.007812 20.886719 22.515625 22.457031 22.910156 23.644531 C 22.914062 23.660156 22.921875 23.675781 22.925781 23.691406 C 23.132812 24.371094 23.058594 24.90625 22.882812 25.308594 Z M 22.882812 25.308594 " fill-opacity="1" fill-rule="nonzero"/><path fill="#ffffff" d="M 22.882812 25.308594 C 22.679688 24.277344 22.167969 23.300781 21.558594 22.425781 C 20.964844 21.582031 20.277344 20.808594 19.628906 20 C 19.507812 19.851562 19.214844 19.582031 19.09375 19.335938 L 19.21875 19.214844 C 19.21875 19.214844 19.5625 19.507812 20.042969 19.96875 C 21.007812 20.886719 22.515625 22.457031 22.910156 23.644531 C 22.914062 23.660156 22.921875 23.675781 22.925781 23.691406 C 23.132812 24.371094 23.058594 24.90625 22.882812 25.308594 Z M 22.882812 25.308594 " fill-opacity="0.6" fill-rule="nonzero"/><path fill="#102770" d="M 22.859375 25.355469 C 22.675781 25.753906 22.398438 26.015625 22.222656 26.152344 C 22.203125 26.167969 22.1875 26.179688 22.171875 26.1875 C 22.105469 26.238281 22.035156 26.273438 21.957031 26.304688 C 21.925781 26.316406 21.882812 26.328125 21.835938 26.34375 C 21.582031 26.425781 21.148438 26.546875 20.652344 26.582031 C 20.539062 26.589844 20.425781 26.589844 20.308594 26.589844 C 20 26.582031 19.675781 26.535156 19.371094 26.414062 C 19.363281 26.414062 19.355469 26.410156 19.351562 26.40625 C 18.140625 25.921875 16.761719 21.613281 16.761719 21.613281 L 19.21875 19.214844 C 19.21875 19.214844 19.5625 19.507812 20.042969 19.96875 C 20.097656 20.402344 19.847656 20.953125 19.492188 21.433594 C 18.832031 22.335938 18.882812 23.585938 19.65625 24.394531 C 20.320312 25.089844 21.359375 25.3125 22.90625 23.644531 C 22.914062 23.660156 22.917969 23.675781 22.921875 23.695312 C 23.144531 24.398438 23.050781 24.949219 22.859375 25.355469 Z M 22.859375 25.355469 " fill-opacity="0.2" fill-rule="nonzero"/><path fill="#102770" d="M 20.390625 26.78125 C 20.363281 26.78125 20.332031 26.78125 20.304688 26.78125 C 19.9375 26.773438 19.601562 26.710938 19.304688 26.597656 C 19.292969 26.59375 19.285156 26.589844 19.277344 26.585938 C 18.015625 26.082031 16.71875 22.121094 16.574219 21.667969 C 16.554688 21.601562 16.570312 21.527344 16.625 21.476562 L 19.078125 19.078125 C 19.152344 19.007812 19.269531 19.003906 19.347656 19.070312 C 19.476562 19.179688 22.550781 21.828125 23.109375 23.636719 C 23.3125 24.289062 23.289062 24.890625 23.039062 25.429688 C 23.039062 25.433594 23.039062 25.433594 23.035156 25.4375 C 22.839844 25.859375 22.550781 26.140625 22.339844 26.304688 C 22.328125 26.3125 22.3125 26.324219 22.300781 26.332031 L 22.289062 26.34375 C 22.207031 26.402344 22.117188 26.449219 22.023438 26.484375 C 21.992188 26.496094 21.945312 26.511719 21.894531 26.527344 C 21.613281 26.621094 21.167969 26.738281 20.664062 26.773438 C 20.574219 26.78125 20.480469 26.78125 20.390625 26.78125 Z M 16.988281 21.664062 C 17.394531 22.914062 18.527344 25.871094 19.421875 26.226562 C 19.429688 26.230469 19.433594 26.230469 19.4375 26.234375 C 19.4375 26.234375 19.441406 26.234375 19.441406 26.234375 C 19.699219 26.332031 19.992188 26.386719 20.3125 26.394531 C 20.417969 26.398438 20.527344 26.394531 20.636719 26.386719 C 21.125 26.355469 21.558594 26.230469 21.769531 26.160156 C 21.816406 26.144531 21.855469 26.132812 21.886719 26.121094 C 21.949219 26.097656 22.003906 26.070312 22.054688 26.03125 L 22.066406 26.023438 C 22.078125 26.015625 22.085938 26.007812 22.097656 26 C 22.238281 25.890625 22.503906 25.648438 22.675781 25.28125 C 22.679688 25.28125 22.679688 25.277344 22.679688 25.273438 C 22.890625 24.824219 22.910156 24.308594 22.734375 23.746094 C 22.273438 22.25 19.832031 20.015625 19.226562 19.480469 Z M 22.859375 25.355469 Z M 22.859375 25.355469 " fill-opacity="1" fill-rule="nonzero"/><path fill="#ffffff" d="M 21.859375 26.15625 C 21.859375 26.222656 21.851562 26.285156 21.835938 26.34375 C 21.582031 26.425781 21.148438 26.546875 20.652344 26.578125 C 20.558594 26.464844 20.5 26.320312 20.5 26.15625 C 20.5 25.789062 20.804688 25.488281 21.179688 25.488281 C 21.4375 25.488281 21.660156 25.628906 21.777344 25.835938 C 21.78125 25.84375 21.785156 25.847656 21.789062 25.855469 C 21.835938 25.945312 21.859375 26.050781 21.859375 26.15625 Z M 21.859375 26.15625 " fill-opacity="1" fill-rule="nonzero"/><path fill="#102770" d="M 20.640625 26.605469 L 20.632812 26.597656 C 20.527344 26.472656 20.472656 26.320312 20.472656 26.160156 C 20.472656 25.773438 20.792969 25.464844 21.179688 25.464844 C 21.4375 25.464844 21.675781 25.601562 21.800781 25.824219 C 21.804688 25.832031 21.808594 25.839844 21.8125 25.847656 C 21.859375 25.941406 21.886719 26.050781 21.886719 26.160156 C 21.886719 26.226562 21.878906 26.292969 21.859375 26.355469 L 21.855469 26.367188 L 21.84375 26.371094 C 21.617188 26.445312 21.164062 26.574219 20.652344 26.605469 Z M 21.179688 25.511719 C 20.820312 25.511719 20.527344 25.804688 20.527344 26.15625 C 20.527344 26.300781 20.574219 26.4375 20.664062 26.554688 C 21.15625 26.519531 21.589844 26.398438 21.8125 26.324219 C 21.828125 26.269531 21.835938 26.214844 21.835938 26.15625 C 21.835938 26.054688 21.8125 25.957031 21.765625 25.867188 C 21.761719 25.863281 21.757812 25.855469 21.753906 25.847656 C 21.640625 25.640625 21.417969 25.511719 21.179688 25.511719 Z M 21.179688 25.511719 " fill-opacity="1" fill-rule="nonzero"/><path fill="#ffffff" d="M 22.859375 25.355469 C 22.675781 25.753906 22.398438 26.015625 22.222656 26.152344 C 22.035156 26.125 21.875 26.011719 21.789062 25.855469 C 21.785156 25.847656 21.78125 25.84375 21.777344 25.835938 C 21.777344 25.835938 21.777344 25.835938 21.777344 25.832031 C 21.738281 25.753906 21.714844 25.664062 21.714844 25.570312 C 21.714844 25.25 21.980469 24.988281 22.308594 24.988281 C 22.558594 24.988281 22.773438 25.140625 22.859375 25.355469 Z M 22.859375 25.355469 " fill-opacity="1" fill-rule="nonzero"/><path fill="#102770" d="M 22.230469 26.179688 L 22.21875 26.175781 C 22.027344 26.148438 21.859375 26.035156 21.769531 25.871094 L 21.761719 25.867188 L 21.761719 25.863281 C 21.761719 25.859375 21.761719 25.855469 21.757812 25.855469 L 21.75 25.851562 L 21.75 25.839844 C 21.710938 25.757812 21.6875 25.664062 21.6875 25.570312 C 21.6875 25.234375 21.964844 24.960938 22.308594 24.960938 C 22.5625 24.960938 22.789062 25.113281 22.882812 25.347656 L 22.886719 25.363281 L 22.882812 25.367188 C 22.703125 25.757812 22.433594 26.019531 22.238281 26.171875 Z M 21.8125 25.851562 C 21.898438 25.996094 22.046875 26.097656 22.214844 26.125 C 22.367188 26.003906 22.644531 25.746094 22.832031 25.355469 C 22.742188 25.148438 22.535156 25.011719 22.304688 25.011719 C 21.992188 25.011719 21.738281 25.265625 21.738281 25.574219 C 21.738281 25.65625 21.757812 25.742188 21.796875 25.816406 L 21.800781 25.824219 C 21.804688 25.832031 21.808594 25.839844 21.808594 25.84375 Z M 21.8125 25.851562 " fill-opacity="1" fill-rule="nonzero"/><path fill="#ffffff" d="M 20.5 26.15625 C 20.5 26.328125 20.425781 26.480469 20.308594 26.585938 C 20 26.582031 19.675781 26.53125 19.371094 26.414062 C 19.335938 26.335938 19.3125 26.25 19.3125 26.15625 C 19.3125 25.835938 19.578125 25.574219 19.90625 25.574219 C 20.234375 25.574219 20.5 25.835938 20.5 26.15625 Z M 20.5 26.15625 " fill-opacity="1" fill-rule="nonzero"/><path fill="#102770" d="M 20.320312 26.613281 L 20.308594 26.613281 C 19.960938 26.605469 19.644531 26.546875 19.363281 26.4375 L 19.355469 26.433594 L 19.351562 26.425781 C 19.308594 26.339844 19.289062 26.25 19.289062 26.15625 C 19.289062 25.820312 19.566406 25.546875 19.90625 25.546875 C 20.25 25.546875 20.527344 25.820312 20.527344 26.15625 C 20.527344 26.328125 20.457031 26.492188 20.328125 26.605469 Z M 19.390625 26.394531 C 19.660156 26.496094 19.964844 26.554688 20.300781 26.5625 C 20.410156 26.457031 20.472656 26.308594 20.472656 26.15625 C 20.472656 25.847656 20.21875 25.597656 19.90625 25.597656 C 19.59375 25.597656 19.339844 25.847656 19.339844 26.15625 C 19.339844 26.242188 19.355469 26.320312 19.390625 26.394531 Z M 19.390625 26.394531 " fill-opacity="1" fill-rule="nonzero"/><path fill="#102770" d="M 20.652344 26.761719 C 20.597656 26.761719 20.542969 26.734375 20.507812 26.691406 C 20.386719 26.542969 20.316406 26.351562 20.316406 26.15625 C 20.316406 25.6875 20.707031 25.304688 21.183594 25.304688 C 21.496094 25.304688 21.785156 25.476562 21.9375 25.75 C 21.941406 25.753906 21.945312 25.757812 21.945312 25.761719 L 21.949219 25.769531 C 21.949219 25.769531 21.953125 25.773438 21.953125 25.773438 C 22.011719 25.890625 22.042969 26.023438 22.042969 26.15625 C 22.042969 26.238281 22.035156 26.316406 22.011719 26.394531 C 21.996094 26.449219 21.949219 26.496094 21.894531 26.515625 C 21.609375 26.609375 21.167969 26.726562 20.664062 26.757812 C 20.660156 26.761719 20.65625 26.761719 20.652344 26.761719 Z M 21.179688 25.667969 C 20.90625 25.667969 20.683594 25.886719 20.683594 26.160156 C 20.683594 26.242188 20.703125 26.320312 20.742188 26.390625 C 21.121094 26.355469 21.460938 26.269531 21.675781 26.207031 C 21.675781 26.191406 21.675781 26.175781 21.675781 26.160156 C 21.675781 26.082031 21.660156 26.007812 21.625 25.941406 C 21.621094 25.933594 21.617188 25.925781 21.613281 25.917969 C 21.527344 25.761719 21.359375 25.667969 21.179688 25.667969 Z M 21.832031 26.34375 Z M 21.832031 26.34375 " fill-opacity="1" fill-rule="nonzero"/><path fill="#102770" d="M 22.222656 26.332031 C 22.210938 26.332031 22.203125 26.332031 22.195312 26.332031 C 21.957031 26.296875 21.746094 26.152344 21.628906 25.945312 C 21.628906 25.945312 21.628906 25.941406 21.628906 25.941406 C 21.621094 25.933594 21.617188 25.925781 21.613281 25.917969 C 21.613281 25.914062 21.613281 25.914062 21.613281 25.914062 C 21.558594 25.808594 21.53125 25.691406 21.53125 25.574219 C 21.53125 25.148438 21.878906 24.808594 22.308594 24.808594 C 22.628906 24.808594 22.910156 24.996094 23.03125 25.289062 C 23.039062 25.3125 23.042969 25.335938 23.042969 25.355469 C 23.042969 25.382812 23.039062 25.410156 23.027344 25.433594 C 22.832031 25.851562 22.542969 26.132812 22.335938 26.292969 C 22.300781 26.320312 22.261719 26.332031 22.222656 26.332031 Z M 21.949219 25.773438 C 22 25.859375 22.082031 25.925781 22.175781 25.957031 C 22.3125 25.839844 22.507812 25.636719 22.65625 25.355469 C 22.582031 25.238281 22.453125 25.167969 22.308594 25.167969 C 22.082031 25.167969 21.898438 25.347656 21.898438 25.570312 C 21.898438 25.632812 21.910156 25.691406 21.9375 25.746094 C 21.941406 25.753906 21.941406 25.757812 21.945312 25.761719 L 21.949219 25.769531 C 21.949219 25.769531 21.949219 25.769531 21.949219 25.773438 Z M 21.949219 25.773438 " fill-opacity="1" fill-rule="nonzero"/><path fill="#102770" d="M 20.308594 26.769531 C 20.308594 26.769531 20.308594 26.769531 20.304688 26.769531 C 19.9375 26.761719 19.601562 26.699219 19.304688 26.582031 C 19.261719 26.566406 19.226562 26.535156 19.207031 26.492188 C 19.15625 26.386719 19.128906 26.273438 19.128906 26.15625 C 19.128906 25.734375 19.480469 25.390625 19.90625 25.390625 C 20.335938 25.390625 20.683594 25.738281 20.683594 26.15625 C 20.683594 26.371094 20.59375 26.574219 20.433594 26.71875 C 20.398438 26.75 20.355469 26.769531 20.308594 26.769531 Z M 19.511719 26.273438 C 19.730469 26.347656 19.972656 26.390625 20.234375 26.402344 C 20.289062 26.332031 20.316406 26.25 20.316406 26.15625 C 20.316406 25.933594 20.132812 25.753906 19.90625 25.753906 C 19.679688 25.753906 19.496094 25.933594 19.496094 26.15625 C 19.496094 26.199219 19.5 26.238281 19.511719 26.273438 Z M 19.511719 26.273438 " fill-opacity="1" fill-rule="nonzero"/><path fill="#b5ea24" d="M 14.089844 25.933594 C 14.058594 26.617188 13.195312 26.832031 12.832031 26.832031 L 10.347656 26.832031 C 10.339844 26.832031 10.328125 26.832031 10.320312 26.832031 C 10.210938 26.828125 10.109375 26.804688 10.011719 26.761719 C 9.960938 26.738281 9.910156 26.710938 9.867188 26.679688 C 9.765625 26.609375 9.679688 26.515625 9.617188 26.402344 C 9.523438 26.230469 9.441406 26.054688 9.375 25.882812 C 8.757812 24.3125 9.183594 22.773438 9.652344 21.757812 C 9.992188 21.015625 10.355469 20.550781 10.355469 20.550781 L 10.398438 20.578125 L 13.785156 22.625 C 13.785156 22.625 13.023438 23.226562 13.640625 24.550781 C 13.964844 25.242188 14.109375 25.46875 14.089844 25.933594 Z M 14.089844 25.933594 " fill-opacity="1" fill-rule="nonzero"/><path fill="#ffffff" d="M 9.808594 25.386719 C 9.910156 25.890625 10.09375 26.371094 10.320312 26.832031 C 10.210938 26.828125 10.109375 26.804688 10.011719 26.761719 C 9.960938 26.738281 9.910156 26.710938 9.867188 26.679688 C 9.765625 26.609375 9.679688 26.515625 9.617188 26.402344 C 9.523438 26.230469 9.441406 26.058594 9.375 25.882812 C 8.757812 24.3125 9.183594 22.777344 9.652344 21.757812 C 9.992188 21.015625 10.355469 20.550781 10.355469 20.550781 L 10.398438 20.578125 C 10.128906 21.25 9.933594 21.953125 9.820312 22.664062 C 9.742188 23.152344 9.703125 23.644531 9.703125 24.140625 C 9.699219 24.558594 9.726562 24.976562 9.808594 25.386719 Z M 9.808594 25.386719 " fill-opacity="0.6" fill-rule="nonzero"/><path fill="#102770" d="M 14.089844 25.933594 C 14.058594 26.617188 13.195312 26.832031 12.832031 26.832031 L 10.601562 26.832031 C 13.894531 25.429688 10.652344 22.554688 9.648438 21.757812 C 9.988281 21.015625 10.351562 20.550781 10.351562 20.550781 L 13.785156 22.625 C 13.785156 22.625 13.019531 23.226562 13.640625 24.546875 C 13.964844 25.242188 14.109375 25.46875 14.089844 25.933594 Z M 14.089844 25.933594 " fill-opacity="0.2" fill-rule="nonzero"/><g clip-path="url(#14f45b185d)"><path fill="#102770" d="M 12.832031 27.027344 L 10.347656 27.027344 C 10.207031 27.027344 10.066406 26.996094 9.933594 26.9375 C 9.867188 26.910156 9.808594 26.875 9.75 26.835938 C 9.625 26.75 9.519531 26.628906 9.445312 26.496094 C 9.351562 26.320312 9.265625 26.136719 9.191406 25.953125 C 8.738281 24.800781 8.769531 23.476562 9.28125 22.132812 C 9.664062 21.121094 10.175781 20.460938 10.199219 20.433594 C 10.257812 20.351562 10.371094 20.332031 10.457031 20.386719 L 13.886719 22.460938 C 13.941406 22.492188 13.976562 22.550781 13.980469 22.613281 C 13.984375 22.675781 13.957031 22.734375 13.90625 22.777344 C 13.882812 22.796875 13.277344 23.3125 13.820312 24.464844 C 13.859375 24.554688 13.898438 24.636719 13.933594 24.710938 C 14.179688 25.226562 14.304688 25.488281 14.285156 25.9375 C 14.246094 26.761719 13.289062 27.027344 12.832031 27.027344 Z M 10.40625 20.808594 C 10.019531 21.382812 8.679688 23.585938 9.558594 25.8125 C 9.625 25.984375 9.703125 26.148438 9.789062 26.3125 C 9.835938 26.394531 9.902344 26.464844 9.976562 26.519531 C 10.011719 26.546875 10.050781 26.566406 10.089844 26.585938 C 10.171875 26.621094 10.257812 26.636719 10.347656 26.636719 L 12.832031 26.636719 C 13.105469 26.636719 13.867188 26.46875 13.890625 25.921875 C 13.910156 25.566406 13.816406 25.378906 13.578125 24.875 C 13.542969 24.800781 13.503906 24.71875 13.460938 24.628906 C 12.984375 23.609375 13.265625 22.96875 13.484375 22.667969 Z M 10.40625 20.808594 " fill-opacity="1" fill-rule="nonzero"/></g><path fill="#ffd54f" d="M 14.21875 23.296875 C 10.105469 22.992188 8.449219 19.816406 8.792969 17.332031 C 8.800781 17.292969 8.804688 17.253906 8.8125 17.214844 C 9.125 15.082031 9.867188 13.390625 10.980469 12.203125 C 12.457031 10.914062 16.03125 10.964844 17.996094 13.652344 C 18.277344 14.039062 18.527344 14.476562 18.730469 14.972656 C 20.417969 19.078125 18.570312 22.683594 14.21875 23.296875 Z M 14.21875 23.296875 " fill-opacity="1" fill-rule="nonzero"/><path fill="#ffffff" d="M 14.636719 23.167969 C 10.527344 22.863281 8.867188 19.6875 9.210938 17.203125 C 9.21875 17.164062 9.222656 17.125 9.230469 17.085938 C 9.542969 14.953125 10.285156 13.261719 11.398438 12.074219 C 11.65625 11.847656 11.984375 11.664062 12.355469 11.527344 C 11.808594 11.664062 11.332031 11.894531 10.980469 12.203125 L 10.976562 12.203125 C 9.863281 13.390625 9.121094 15.082031 8.808594 17.214844 C 8.804688 17.253906 8.800781 17.292969 8.792969 17.335938 C 8.449219 19.816406 10.105469 22.992188 14.21875 23.296875 C 14.730469 23.226562 15.203125 23.113281 15.644531 22.960938 C 15.328125 23.046875 14.988281 23.117188 14.636719 23.167969 Z M 14.636719 23.167969 " fill-opacity="0.6" fill-rule="nonzero"/><path fill="#102770" d="M 18.757812 14.972656 C 18.550781 14.476562 18.304688 14.039062 18.023438 13.652344 C 17.96875 13.582031 17.914062 13.511719 17.859375 13.441406 C 19.304688 17.425781 18.972656 22.261719 13.785156 22.625 C 11.921875 22.753906 9.667969 21.25 9.09375 19.742188 C 9.742188 21.511719 11.410156 23.085938 14.242188 23.296875 C 18.597656 22.683594 20.445312 19.078125 18.757812 14.972656 Z M 18.757812 14.972656 " fill-opacity="0.2" fill-rule="nonzero"/><path fill="#102770" d="M 17.996094 13.652344 C 17.046875 15.070312 15.042969 16.492188 12.550781 17.085938 C 11.230469 17.402344 9.949219 17.484375 8.808594 17.371094 C 9.121094 15.238281 9.863281 13.390625 10.976562 12.203125 L 10.980469 12.203125 C 12.457031 10.914062 16.03125 10.964844 17.996094 13.652344 Z M 17.996094 13.652344 " fill-opacity="0.2" fill-rule="nonzero"/><path fill="#102770" d="M 14.21875 23.488281 C 14.214844 23.488281 14.207031 23.488281 14.203125 23.488281 C 11.839844 23.3125 10.488281 22.238281 9.773438 21.367188 C 8.84375 20.234375 8.40625 18.714844 8.601562 17.308594 C 8.90625 15.085938 9.660156 13.324219 10.835938 12.070312 C 10.84375 12.0625 10.847656 12.058594 10.855469 12.050781 C 11.761719 11.269531 13.320312 10.988281 14.828125 11.335938 C 15.90625 11.585938 17.878906 12.382812 18.914062 14.902344 C 19.789062 17.035156 19.757812 19.09375 18.820312 20.703125 C 17.941406 22.207031 16.320312 23.195312 14.246094 23.488281 C 14.238281 23.488281 14.226562 23.488281 14.21875 23.488281 Z M 11.113281 12.34375 C 10 13.539062 9.285156 15.226562 8.988281 17.359375 C 8.808594 18.664062 9.214844 20.070312 10.078125 21.125 C 10.742188 21.933594 12 22.933594 14.210938 23.101562 C 16.152344 22.824219 17.667969 21.902344 18.480469 20.507812 C 19.355469 19.007812 19.378906 17.066406 18.546875 15.046875 C 17.578125 12.691406 15.746094 11.945312 14.734375 11.714844 C 13.347656 11.390625 11.929688 11.636719 11.113281 12.34375 Z M 11.113281 12.34375 " fill-opacity="1" fill-rule="nonzero"/><path fill="#102770" d="M 12.722656 16.785156 C 12.808594 17.308594 12.902344 17.832031 13.015625 18.351562 C 13.121094 18.867188 13.25 19.382812 13.398438 19.886719 C 13.550781 20.394531 13.730469 20.890625 13.957031 21.363281 C 14.183594 21.835938 14.464844 22.285156 14.824219 22.675781 C 14.84375 22.699219 14.839844 22.730469 14.820312 22.75 C 14.800781 22.765625 14.769531 22.765625 14.75 22.75 C 14.324219 22.402344 13.988281 21.957031 13.726562 21.476562 C 13.660156 21.359375 13.601562 21.238281 13.539062 21.113281 C 13.484375 20.992188 13.425781 20.867188 13.375 20.742188 C 13.320312 20.617188 13.273438 20.488281 13.226562 20.363281 C 13.183594 20.234375 13.140625 20.105469 13.101562 19.976562 C 12.9375 19.457031 12.824219 18.929688 12.738281 18.398438 C 12.699219 18.132812 12.664062 17.863281 12.644531 17.59375 C 12.625 17.328125 12.609375 17.058594 12.617188 16.789062 C 12.617188 16.761719 12.640625 16.738281 12.667969 16.738281 C 12.695312 16.738281 12.71875 16.757812 12.722656 16.785156 Z M 12.722656 16.785156 " fill-opacity="1" fill-rule="nonzero"/><path fill="#102770" d="M 10.082031 18.816406 C 10.238281 18.851562 10.402344 18.871094 10.566406 18.886719 C 10.726562 18.902344 10.890625 18.910156 11.054688 18.914062 C 11.136719 18.917969 11.21875 18.914062 11.300781 18.917969 C 11.382812 18.914062 11.460938 18.914062 11.542969 18.910156 C 11.707031 18.902344 11.871094 18.890625 12.03125 18.871094 C 12.113281 18.863281 12.191406 18.855469 12.273438 18.84375 C 12.355469 18.835938 12.433594 18.824219 12.515625 18.8125 C 12.59375 18.796875 12.675781 18.785156 12.753906 18.769531 C 12.835938 18.753906 12.917969 18.742188 12.996094 18.722656 L 13.234375 18.671875 L 13.46875 18.609375 C 13.550781 18.589844 13.625 18.566406 13.707031 18.546875 C 13.785156 18.523438 13.863281 18.5 13.941406 18.476562 C 14.253906 18.382812 14.554688 18.261719 14.859375 18.144531 C 15.007812 18.078125 15.160156 18.015625 15.308594 17.945312 L 15.53125 17.84375 L 15.75 17.734375 C 16.335938 17.441406 16.902344 17.105469 17.453125 16.746094 C 17.476562 16.730469 17.507812 16.738281 17.527344 16.761719 C 17.539062 16.785156 17.535156 16.8125 17.515625 16.828125 C 17.007812 17.253906 16.453125 17.628906 15.871094 17.957031 C 15.289062 18.289062 14.675781 18.5625 14.03125 18.765625 C 13.394531 18.976562 12.726562 19.109375 12.050781 19.148438 C 11.714844 19.167969 11.375 19.164062 11.039062 19.128906 C 10.871094 19.113281 10.703125 19.085938 10.539062 19.054688 C 10.371094 19.019531 10.210938 18.976562 10.046875 18.917969 C 10.019531 18.90625 10.007812 18.875 10.019531 18.851562 C 10.027344 18.824219 10.054688 18.8125 10.078125 18.816406 Z M 10.082031 18.816406 " fill-opacity="1" fill-rule="nonzero"/><path fill="#102770" d="M 10.992188 21.273438 C 11.152344 21.296875 11.320312 21.3125 11.484375 21.320312 C 11.648438 21.332031 11.816406 21.332031 11.980469 21.332031 C 12.3125 21.328125 12.640625 21.304688 12.964844 21.261719 C 13.621094 21.175781 14.257812 21.011719 14.878906 20.785156 C 14.957031 20.757812 15.03125 20.722656 15.105469 20.695312 L 15.222656 20.648438 L 15.332031 20.597656 C 15.410156 20.5625 15.484375 20.53125 15.558594 20.496094 L 15.78125 20.390625 C 16.074219 20.242188 16.363281 20.082031 16.640625 19.90625 C 17.199219 19.554688 17.730469 19.152344 18.234375 18.71875 C 18.253906 18.699219 18.289062 18.703125 18.308594 18.726562 C 18.324219 18.746094 18.324219 18.773438 18.304688 18.792969 C 17.851562 19.285156 17.339844 19.730469 16.785156 20.117188 C 16.648438 20.214844 16.5 20.304688 16.359375 20.394531 C 16.289062 20.441406 16.210938 20.480469 16.140625 20.523438 C 16.066406 20.5625 15.992188 20.609375 15.917969 20.644531 C 15.617188 20.808594 15.304688 20.945312 14.988281 21.070312 C 14.347656 21.3125 13.679688 21.472656 12.996094 21.535156 C 12.65625 21.5625 12.3125 21.566406 11.972656 21.542969 C 11.632812 21.515625 11.296875 21.472656 10.964844 21.371094 C 10.9375 21.359375 10.921875 21.332031 10.929688 21.304688 C 10.9375 21.28125 10.964844 21.265625 10.988281 21.269531 Z M 10.992188 21.273438 " fill-opacity="1" fill-rule="nonzero"/><g clip-path="url(#5dcbc09568)"><path fill="#b5ea24" d="M 18.222656 9.921875 C 17.886719 14.308594 14.636719 15.28125 13.078125 15.632812 C 8.492188 16.667969 7.449219 14.464844 7.214844 13.585938 C 7.160156 13.378906 7.152344 13.246094 7.152344 13.246094 C 7.152344 13.246094 3.734375 11.414062 4.773438 6.597656 C 5.8125 1.777344 10.914062 1.210938 13.496094 2.019531 C 15.886719 2.769531 17.636719 5.199219 18.117188 7.871094 C 18.238281 8.546875 18.277344 9.238281 18.222656 9.921875 Z M 18.222656 9.921875 " fill-opacity="1" fill-rule="nonzero"/></g><path fill="#102770" d="M 18.222656 9.921875 C 17.886719 14.308594 14.636719 15.28125 13.078125 15.632812 C 8.492188 16.667969 7.449219 14.464844 7.214844 13.585938 C 8.808594 14.207031 10.714844 14.367188 13.148438 13.957031 C 16.808594 13.34375 17.820312 10.082031 18.117188 7.871094 C 18.238281 8.546875 18.277344 9.238281 18.222656 9.921875 Z M 18.222656 9.921875 " fill-opacity="0.2" fill-rule="nonzero"/><g clip-path="url(#c41a574bd3)"><path fill="#ffffff" d="M 18.226562 9.761719 C 18.023438 6.75 16.15625 3.835938 13.496094 3 C 13.089844 2.875 12.621094 2.78125 12.117188 2.734375 C 12.117188 2.972656 11.527344 3.210938 10.785156 3.265625 C 10.03125 3.320312 9.40625 3.167969 9.386719 2.925781 C 7.339844 3.421875 5.375 4.785156 4.773438 7.578125 C 4.679688 8 4.625 8.402344 4.597656 8.78125 C 4.542969 8.109375 4.585938 7.347656 4.773438 6.492188 C 5.8125 1.675781 10.914062 1.109375 13.496094 1.917969 C 16.476562 2.851562 18.460938 6.394531 18.226562 9.761719 Z M 18.226562 9.761719 " fill-opacity="0.6" fill-rule="nonzero"/></g><g clip-path="url(#a4a0f6f3ef)"><path fill="#102770" d="M 10.886719 16.097656 C 9.78125 16.097656 8.882812 15.847656 8.195312 15.347656 C 7.238281 14.648438 7.015625 13.679688 6.96875 13.363281 C 6.722656 13.214844 6.023438 12.734375 5.410156 11.835938 C 4.730469 10.835938 4.03125 9.109375 4.582031 6.554688 C 4.96875 4.761719 5.96875 3.355469 7.476562 2.488281 C 9.464844 1.347656 11.964844 1.339844 13.554688 1.835938 C 15.03125 2.296875 16.34375 3.40625 17.25 4.957031 C 18.136719 6.46875 18.550781 8.234375 18.417969 9.9375 C 18.269531 11.890625 17.535156 13.40625 16.234375 14.441406 C 15.167969 15.289062 13.945312 15.636719 13.121094 15.820312 C 12.304688 16.007812 11.558594 16.097656 10.886719 16.097656 Z M 11.332031 1.90625 C 10.132812 1.90625 8.816406 2.167969 7.671875 2.824219 C 6.246094 3.644531 5.332031 4.925781 4.964844 6.636719 C 4.445312 9.058594 5.097656 10.683594 5.734375 11.621094 C 6.425781 12.628906 7.238281 13.074219 7.246094 13.078125 C 7.304688 13.109375 7.34375 13.167969 7.347656 13.234375 C 7.347656 13.242188 7.441406 14.320312 8.433594 15.042969 C 9.4375 15.769531 10.984375 15.90625 13.03125 15.445312 C 14.183594 15.1875 17.683594 14.394531 18.027344 9.90625 C 18.292969 6.476562 16.277344 3.09375 13.4375 2.203125 C 12.839844 2.015625 12.109375 1.90625 11.332031 1.90625 Z M 11.332031 1.90625 " fill-opacity="1" fill-rule="nonzero"/></g><path fill="#ffffff" d="M 12.214844 26.570312 C 12.214844 26.664062 12.183594 26.753906 12.125 26.832031 L 11.03125 26.832031 C 10.972656 26.753906 10.941406 26.664062 10.941406 26.570312 C 10.941406 26.28125 11.226562 26.050781 11.578125 26.050781 C 11.929688 26.054688 12.214844 26.285156 12.214844 26.570312 Z M 12.214844 26.570312 " fill-opacity="1" fill-rule="nonzero"/><path fill="#102770" d="M 12.140625 26.859375 L 11.019531 26.859375 L 11.011719 26.847656 C 10.949219 26.761719 10.914062 26.667969 10.914062 26.570312 C 10.914062 26.269531 11.214844 26.027344 11.578125 26.027344 C 11.945312 26.027344 12.242188 26.269531 12.242188 26.570312 C 12.242188 26.667969 12.207031 26.761719 12.148438 26.847656 Z M 11.042969 26.808594 L 12.113281 26.808594 C 12.164062 26.734375 12.1875 26.652344 12.1875 26.570312 C 12.1875 26.300781 11.914062 26.078125 11.578125 26.078125 C 11.242188 26.078125 10.96875 26.300781 10.96875 26.570312 C 10.96875 26.652344 10.996094 26.734375 11.042969 26.808594 Z M 11.042969 26.808594 " fill-opacity="1" fill-rule="nonzero"/><path fill="#ffffff" d="M 9.957031 26.351562 C 9.957031 26.476562 9.921875 26.589844 9.863281 26.679688 C 9.765625 26.609375 9.679688 26.515625 9.617188 26.402344 C 9.523438 26.230469 9.441406 26.054688 9.375 25.882812 C 9.425781 25.851562 9.488281 25.832031 9.550781 25.832031 C 9.777344 25.832031 9.957031 26.0625 9.957031 26.351562 Z M 9.957031 26.351562 " fill-opacity="1" fill-rule="nonzero"/><path fill="#102770" d="M 9.871094 26.714844 L 9.851562 26.699219 C 9.742188 26.625 9.65625 26.527344 9.597656 26.414062 C 9.503906 26.246094 9.421875 26.070312 9.351562 25.890625 L 9.34375 25.871094 L 9.359375 25.859375 C 9.417969 25.824219 9.484375 25.808594 9.550781 25.808594 C 9.789062 25.808594 9.984375 26.050781 9.984375 26.351562 C 9.984375 26.472656 9.949219 26.597656 9.886719 26.691406 Z M 9.40625 25.894531 C 9.476562 26.0625 9.554688 26.230469 9.640625 26.390625 C 9.695312 26.488281 9.765625 26.574219 9.859375 26.640625 C 9.90625 26.554688 9.933594 26.453125 9.933594 26.351562 C 9.933594 26.078125 9.761719 25.859375 9.550781 25.859375 C 9.5 25.859375 9.453125 25.871094 9.40625 25.894531 Z M 9.40625 25.894531 " fill-opacity="1" fill-rule="nonzero"/><path fill="#ffffff" d="M 10.90625 26.484375 C 10.90625 26.613281 10.875 26.734375 10.820312 26.832031 L 10.347656 26.832031 C 10.230469 26.832031 10.117188 26.808594 10.011719 26.761719 C 9.976562 26.679688 9.957031 26.585938 9.957031 26.484375 C 9.957031 26.152344 10.167969 25.886719 10.429688 25.886719 C 10.695312 25.886719 10.90625 26.15625 10.90625 26.484375 Z M 10.90625 26.484375 " fill-opacity="1" fill-rule="nonzero"/><path fill="#102770" d="M 10.835938 26.859375 L 10.347656 26.859375 C 10.226562 26.859375 10.109375 26.832031 10 26.785156 L 9.992188 26.78125 L 9.988281 26.769531 C 9.949219 26.679688 9.933594 26.585938 9.933594 26.484375 C 9.933594 26.140625 10.15625 25.863281 10.433594 25.863281 C 10.707031 25.863281 10.933594 26.140625 10.933594 26.484375 C 10.933594 26.613281 10.898438 26.738281 10.84375 26.84375 Z M 10.03125 26.742188 C 10.132812 26.785156 10.238281 26.804688 10.347656 26.804688 L 10.804688 26.804688 C 10.855469 26.710938 10.882812 26.601562 10.882812 26.484375 C 10.882812 26.167969 10.679688 25.910156 10.433594 25.910156 C 10.1875 25.910156 9.984375 26.167969 9.984375 26.484375 C 9.984375 26.574219 10 26.664062 10.03125 26.742188 Z M 10.03125 26.742188 " fill-opacity="1" fill-rule="nonzero"/><path fill="#102770" d="M 12.125 26.988281 L 11.03125 26.988281 C 10.980469 26.988281 10.933594 26.964844 10.902344 26.921875 C 10.824219 26.816406 10.785156 26.695312 10.785156 26.570312 C 10.785156 26.199219 11.140625 25.898438 11.578125 25.898438 C 12.015625 25.898438 12.371094 26.199219 12.371094 26.570312 C 12.371094 26.695312 12.332031 26.816406 12.253906 26.921875 C 12.222656 26.964844 12.175781 26.988281 12.125 26.988281 Z M 11.121094 26.675781 L 12.035156 26.675781 C 12.050781 26.640625 12.058594 26.605469 12.058594 26.570312 C 12.058594 26.371094 11.84375 26.207031 11.578125 26.207031 C 11.316406 26.207031 11.101562 26.371094 11.101562 26.570312 C 11.097656 26.605469 11.105469 26.640625 11.121094 26.675781 Z M 11.121094 26.675781 " fill-opacity="1" fill-rule="nonzero"/><path fill="#102770" d="M 9.867188 26.832031 C 9.832031 26.832031 9.800781 26.824219 9.773438 26.804688 C 9.652344 26.71875 9.550781 26.605469 9.480469 26.476562 C 9.386719 26.304688 9.300781 26.121094 9.226562 25.9375 C 9.199219 25.871094 9.226562 25.789062 9.292969 25.75 C 9.371094 25.703125 9.460938 25.679688 9.550781 25.679688 C 9.863281 25.679688 10.117188 25.980469 10.117188 26.351562 C 10.117188 26.5 10.074219 26.644531 9.996094 26.761719 C 9.972656 26.796875 9.9375 26.824219 9.894531 26.832031 C 9.886719 26.832031 9.875 26.832031 9.867188 26.832031 Z M 9.589844 25.992188 C 9.640625 26.109375 9.695312 26.21875 9.757812 26.332031 C 9.769531 26.355469 9.785156 26.375 9.800781 26.398438 C 9.800781 26.382812 9.800781 26.367188 9.800781 26.351562 C 9.800781 26.171875 9.707031 26.023438 9.589844 25.992188 Z M 9.589844 25.992188 " fill-opacity="1" fill-rule="nonzero"/><path fill="#102770" d="M 10.820312 26.988281 L 10.347656 26.988281 C 10.210938 26.988281 10.074219 26.957031 9.949219 26.902344 C 9.910156 26.886719 9.878906 26.855469 9.867188 26.820312 C 9.824219 26.714844 9.800781 26.601562 9.800781 26.484375 C 9.800781 26.070312 10.085938 25.730469 10.433594 25.730469 C 10.78125 25.730469 11.0625 26.070312 11.0625 26.484375 C 11.0625 26.636719 11.027344 26.78125 10.957031 26.90625 C 10.929688 26.957031 10.875 26.988281 10.820312 26.988281 Z M 10.136719 26.644531 C 10.207031 26.664062 10.277344 26.675781 10.347656 26.675781 L 10.71875 26.675781 C 10.738281 26.617188 10.75 26.550781 10.75 26.484375 C 10.75 26.242188 10.605469 26.039062 10.433594 26.039062 C 10.261719 26.039062 10.117188 26.246094 10.117188 26.484375 C 10.117188 26.539062 10.125 26.59375 10.136719 26.644531 Z M 10.136719 26.644531 " fill-opacity="1" fill-rule="nonzero"/><path fill="#b5ea24" d="M 13.148438 13.957031 C 13.148438 13.957031 14.042969 13.960938 14.160156 14.628906 C 14.273438 15.292969 10.992188 17.011719 8.824219 16.878906 C 8.824219 16.878906 8.65625 18.210938 8.890625 18.964844 C 8.890625 18.964844 7.628906 18.765625 6.578125 17.890625 C 6.460938 17.792969 6.347656 17.6875 6.234375 17.570312 C 5.933594 17.253906 5.667969 16.871094 5.480469 16.402344 C 4.617188 14.242188 7.152344 12.175781 9.496094 11.757812 C 10.984375 11.496094 12.609375 11.523438 13.714844 11.765625 C 13.730469 11.769531 13.75 11.773438 13.769531 11.777344 C 14.535156 11.953125 15.035156 12.234375 15.039062 12.59375 C 15.050781 13.472656 13.148438 13.957031 13.148438 13.957031 Z M 13.148438 13.957031 " fill-opacity="1" fill-rule="nonzero"/><path fill="#102770" d="M 13.148438 13.957031 C 13.148438 13.957031 14.042969 13.960938 14.160156 14.628906 C 14.273438 15.292969 10.992188 17.011719 8.824219 16.878906 C 8.824219 16.878906 8.65625 18.210938 8.890625 18.964844 C 8.890625 18.964844 7.628906 18.765625 6.578125 17.890625 C 6.679688 17.851562 6.78125 17.804688 6.878906 17.75 C 7.523438 17.394531 8.019531 16.6875 7.910156 15.964844 C 8.78125 15.992188 9.65625 15.902344 10.503906 15.707031 C 10.847656 15.625 11.199219 15.523438 11.496094 15.332031 C 11.792969 15.136719 12.035156 14.839844 12.085938 14.492188 C 12.132812 14.144531 11.953125 13.757812 11.621094 13.628906 C 11.949219 13.527344 12.285156 13.472656 12.617188 13.386719 C 12.945312 13.296875 13.277344 13.167969 13.523438 12.933594 C 13.769531 12.703125 13.921875 12.351562 13.839844 12.023438 C 13.816406 11.925781 13.773438 11.839844 13.714844 11.765625 C 14.511719 11.941406 15.035156 12.226562 15.039062 12.597656 C 15.050781 13.472656 13.148438 13.957031 13.148438 13.957031 Z M 13.148438 13.957031 " fill-opacity="0.2" fill-rule="nonzero"/><path fill="#ffffff" d="M 6.234375 17.570312 C 5.933594 17.253906 5.667969 16.867188 5.480469 16.402344 C 4.617188 14.242188 7.152344 12.171875 9.496094 11.757812 C 10.984375 11.496094 12.609375 11.523438 13.714844 11.765625 C 13.730469 11.769531 13.75 11.773438 13.769531 11.777344 C 10.542969 11.429688 4.183594 12.847656 6.234375 17.570312 Z M 6.234375 17.570312 " fill-opacity="0.6" fill-rule="nonzero"/><path fill="#102770" d="M 8.890625 19.15625 C 8.882812 19.15625 8.871094 19.15625 8.859375 19.15625 C 8.753906 19.136719 6.195312 18.710938 5.296875 16.472656 C 4.992188 15.714844 5.0625 14.90625 5.5 14.136719 C 6.203125 12.894531 7.796875 11.863281 9.464844 11.570312 C 11.636719 11.1875 14.144531 11.410156 14.941406 12.054688 C 15.132812 12.214844 15.234375 12.394531 15.238281 12.589844 C 15.246094 13.253906 14.449219 13.695312 13.84375 13.933594 C 14.085938 14.058594 14.296875 14.265625 14.351562 14.59375 C 14.382812 14.761719 14.304688 14.9375 14.125 15.140625 C 13.386719 15.945312 10.902344 17.078125 9.070312 17.078125 C 9.046875 17.078125 9.023438 17.078125 9.003906 17.074219 C 8.96875 17.453125 8.90625 18.355469 9.078125 18.90625 C 9.097656 18.96875 9.085938 19.039062 9.039062 19.089844 C 9 19.132812 8.949219 19.15625 8.890625 19.15625 Z M 11.679688 11.761719 C 11 11.761719 10.265625 11.820312 9.53125 11.949219 C 7.996094 12.21875 6.476562 13.195312 5.839844 14.324219 C 5.457031 15 5.398438 15.671875 5.660156 16.332031 C 6.304688 17.9375 7.957031 18.527344 8.628906 18.707031 C 8.496094 17.925781 8.625 16.902344 8.632812 16.851562 C 8.644531 16.75 8.734375 16.675781 8.839844 16.683594 C 10.554688 16.789062 13.125 15.652344 13.832031 14.878906 C 13.972656 14.726562 13.964844 14.660156 13.964844 14.660156 C 13.878906 14.164062 13.179688 14.148438 13.148438 14.148438 C 13.050781 14.148438 12.96875 14.078125 12.957031 13.980469 C 12.945312 13.886719 13.007812 13.792969 13.101562 13.769531 C 13.558594 13.652344 14.855469 13.191406 14.84375 12.597656 C 14.84375 12.515625 14.792969 12.433594 14.691406 12.355469 C 14.265625 12.007812 13.09375 11.761719 11.679688 11.761719 Z M 11.679688 11.761719 " fill-opacity="1" fill-rule="nonzero"/><path fill="#102770" d="M 9.195312 11.328125 C 9.125 11.550781 8.992188 11.753906 8.8125 11.917969 C 8.632812 12.078125 8.402344 12.199219 8.148438 12.238281 C 8.023438 12.253906 7.890625 12.253906 7.769531 12.234375 C 7.644531 12.214844 7.523438 12.171875 7.414062 12.117188 C 7.199219 12.003906 7.023438 11.839844 6.90625 11.652344 C 6.867188 11.59375 6.886719 11.519531 6.945312 11.480469 C 6.984375 11.457031 7.035156 11.457031 7.074219 11.480469 L 7.078125 11.484375 C 7.167969 11.535156 7.25 11.585938 7.335938 11.628906 C 7.417969 11.671875 7.503906 11.707031 7.585938 11.734375 C 7.75 11.789062 7.914062 11.808594 8.078125 11.78125 C 8.238281 11.757812 8.398438 11.691406 8.539062 11.589844 C 8.683594 11.488281 8.808594 11.355469 8.914062 11.203125 L 8.917969 11.199219 C 8.96875 11.128906 9.0625 11.109375 9.136719 11.160156 C 9.191406 11.199219 9.210938 11.269531 9.195312 11.328125 Z M 9.195312 11.328125 " fill-opacity="1" fill-rule="nonzero"/><path fill="#102770" d="M 12.734375 10.417969 C 12.910156 10.488281 13.089844 10.53125 13.265625 10.539062 C 13.441406 10.550781 13.613281 10.519531 13.761719 10.453125 C 13.910156 10.386719 14.035156 10.28125 14.144531 10.144531 C 14.199219 10.078125 14.25 10.003906 14.296875 9.921875 C 14.34375 9.839844 14.386719 9.753906 14.429688 9.664062 L 14.433594 9.660156 C 14.464844 9.597656 14.539062 9.574219 14.601562 9.605469 C 14.644531 9.625 14.667969 9.667969 14.667969 9.710938 C 14.671875 9.9375 14.621094 10.167969 14.5 10.375 C 14.441406 10.480469 14.363281 10.578125 14.269531 10.664062 C 14.175781 10.75 14.066406 10.820312 13.949219 10.871094 C 13.71875 10.976562 13.457031 11 13.214844 10.960938 C 12.976562 10.921875 12.75 10.820312 12.570312 10.671875 C 12.507812 10.617188 12.496094 10.523438 12.550781 10.457031 C 12.597656 10.40625 12.667969 10.390625 12.730469 10.414062 Z M 12.734375 10.417969 " fill-opacity="1" fill-rule="nonzero"/><path fill="#102770" d="M 11.816406 14.25 C 11.628906 14.292969 11.449219 14.332031 11.28125 14.386719 C 11.117188 14.441406 10.960938 14.507812 10.824219 14.597656 C 10.757812 14.640625 10.695312 14.691406 10.636719 14.746094 C 10.578125 14.804688 10.527344 14.867188 10.476562 14.933594 C 10.382812 15.074219 10.308594 15.234375 10.238281 15.414062 C 10.222656 15.449219 10.183594 15.464844 10.148438 15.453125 C 10.125 15.445312 10.109375 15.421875 10.109375 15.398438 C 10.082031 15.199219 10.109375 14.988281 10.191406 14.785156 C 10.234375 14.6875 10.289062 14.59375 10.359375 14.503906 C 10.429688 14.417969 10.515625 14.34375 10.605469 14.28125 C 10.789062 14.152344 11 14.078125 11.210938 14.050781 C 11.316406 14.039062 11.421875 14.039062 11.527344 14.046875 C 11.628906 14.058594 11.730469 14.078125 11.832031 14.121094 C 11.867188 14.132812 11.882812 14.171875 11.867188 14.207031 C 11.859375 14.226562 11.84375 14.242188 11.824219 14.246094 Z M 11.816406 14.25 " fill-opacity="1" fill-rule="nonzero"/><path fill="#102770" d="M 22.539062 10.996094 C 22.894531 10.894531 23.253906 10.832031 23.628906 10.808594 C 23.722656 10.804688 23.816406 10.800781 23.914062 10.804688 C 24.011719 10.808594 24.109375 10.816406 24.214844 10.839844 C 24.238281 10.84375 24.265625 10.851562 24.292969 10.859375 C 24.320312 10.867188 24.34375 10.875 24.375 10.886719 C 24.429688 10.910156 24.488281 10.941406 24.546875 10.996094 C 24.5625 11.011719 24.574219 11.027344 24.589844 11.042969 C 24.597656 11.054688 24.601562 11.058594 24.601562 11.066406 L 24.613281 11.082031 C 24.628906 11.109375 24.644531 11.132812 24.65625 11.160156 C 24.667969 11.1875 24.679688 11.214844 24.691406 11.242188 L 24.714844 11.324219 C 24.742188 11.441406 24.742188 11.5625 24.714844 11.675781 C 24.710938 11.703125 24.695312 11.730469 24.6875 11.757812 C 24.679688 11.785156 24.671875 11.8125 24.660156 11.835938 L 24.621094 11.910156 C 24.609375 11.933594 24.59375 11.957031 24.578125 11.976562 C 24.457031 12.15625 24.304688 12.292969 24.144531 12.402344 C 23.824219 12.628906 23.472656 12.761719 23.125 12.878906 L 23.222656 12.707031 C 23.226562 12.722656 23.226562 12.730469 23.226562 12.738281 C 23.226562 12.75 23.226562 12.757812 23.226562 12.765625 C 23.230469 12.78125 23.230469 12.796875 23.226562 12.8125 C 23.226562 12.84375 23.222656 12.875 23.21875 12.90625 C 23.210938 12.96875 23.199219 13.027344 23.179688 13.085938 C 23.140625 13.203125 23.082031 13.316406 23.003906 13.410156 C 22.988281 13.433594 22.964844 13.457031 22.945312 13.476562 L 22.914062 13.507812 L 22.878906 13.539062 C 22.859375 13.558594 22.835938 13.578125 22.8125 13.59375 L 22.738281 13.644531 C 22.710938 13.660156 22.6875 13.675781 22.660156 13.6875 L 22.582031 13.726562 C 22.53125 13.746094 22.476562 13.765625 22.421875 13.785156 C 22.390625 13.796875 22.351562 13.78125 22.339844 13.746094 C 22.328125 13.71875 22.339844 13.6875 22.367188 13.671875 L 22.371094 13.667969 C 22.417969 13.640625 22.460938 13.613281 22.503906 13.585938 L 22.566406 13.539062 C 22.585938 13.527344 22.605469 13.511719 22.625 13.492188 L 22.679688 13.441406 C 22.695312 13.425781 22.710938 13.40625 22.726562 13.386719 L 22.75 13.359375 L 22.769531 13.332031 C 22.785156 13.3125 22.796875 13.292969 22.808594 13.273438 C 22.859375 13.191406 22.890625 13.105469 22.910156 13.015625 C 22.917969 12.972656 22.921875 12.925781 22.925781 12.878906 C 22.925781 12.859375 22.925781 12.835938 22.921875 12.8125 C 22.921875 12.800781 22.921875 12.792969 22.917969 12.78125 C 22.917969 12.777344 22.917969 12.769531 22.917969 12.765625 C 22.917969 12.761719 22.914062 12.757812 22.914062 12.757812 C 22.882812 12.765625 22.851562 12.75 22.839844 12.71875 C 22.832031 12.691406 22.847656 12.660156 22.875 12.648438 L 23.015625 12.585938 L 23.257812 12.480469 C 23.335938 12.445312 23.414062 12.402344 23.492188 12.363281 C 23.570312 12.324219 23.640625 12.277344 23.714844 12.238281 L 23.820312 12.167969 L 23.875 12.132812 L 23.921875 12.097656 C 24.058594 12 24.171875 11.886719 24.253906 11.765625 C 24.332031 11.644531 24.363281 11.519531 24.339844 11.402344 C 24.335938 11.386719 24.332031 11.375 24.328125 11.359375 C 24.324219 11.34375 24.316406 11.328125 24.3125 11.316406 C 24.308594 11.300781 24.296875 11.289062 24.289062 11.273438 L 24.285156 11.261719 C 24.28125 11.257812 24.28125 11.253906 24.28125 11.257812 C 24.277344 11.253906 24.277344 11.253906 24.277344 11.253906 C 24.269531 11.242188 24.253906 11.230469 24.222656 11.214844 C 24.210938 11.210938 24.195312 11.203125 24.179688 11.199219 L 24.128906 11.183594 C 23.980469 11.140625 23.804688 11.128906 23.628906 11.117188 C 23.28125 11.101562 22.917969 11.109375 22.558594 11.117188 C 22.519531 11.117188 22.492188 11.089844 22.488281 11.054688 C 22.492188 11.027344 22.511719 11.003906 22.539062 10.996094 Z M 22.539062 10.996094 " fill-opacity="1" fill-rule="nonzero"/></svg>