<svg xmlns="http://www.w3.org/2000/svg" xmlns:xlink="http://www.w3.org/1999/xlink" width="50" zoomAndPan="magnify" viewBox="0 0 37.5 37.499999" height="50" preserveAspectRatio="xMidYMid meet" version="1.0"><defs><clipPath id="97f6f840c3"><path d="M 0 0 L 37.007812 0 L 37.007812 37.007812 L 0 37.007812 Z M 0 0 " clip-rule="nonzero"/></clipPath><clipPath id="9f938ad4bd"><path d="M 1 2 L 20.691406 2 L 20.691406 34 L 1 34 Z M 1 2 " clip-rule="nonzero"/></clipPath><clipPath id="d06dfd5778"><path d="M 0.710938 1.675781 L 20.691406 1.675781 L 20.691406 34.242188 L 0.710938 34.242188 Z M 0.710938 1.675781 " clip-rule="nonzero"/></clipPath><clipPath id="5577b70913"><path d="M 12.203125 14.757812 L 21 14.757812 L 21 27 L 12.203125 27 Z M 12.203125 14.757812 " clip-rule="nonzero"/></clipPath><clipPath id="b7dda1e51c"><path d="M 19 29 L 25 29 L 25 35.484375 L 19 35.484375 Z M 19 29 " clip-rule="nonzero"/></clipPath><clipPath id="402880375b"><path d="M 24 31 L 33 31 L 33 35.484375 L 24 35.484375 Z M 24 31 " clip-rule="nonzero"/></clipPath><clipPath id="e40b9d5e77"><path d="M 32 30 L 36.625 30 L 36.625 33 L 32 33 Z M 32 30 " clip-rule="nonzero"/></clipPath><clipPath id="60abeedf47"><path d="M 12.203125 18 L 15 18 L 15 20 L 12.203125 20 Z M 12.203125 18 " clip-rule="nonzero"/></clipPath><clipPath id="050f9ef855"><path d="M 12.203125 18 L 14 18 L 14 19 L 12.203125 19 Z M 12.203125 18 " clip-rule="nonzero"/></clipPath><clipPath id="1fb12f1e70"><path d="M 19 33 L 24 33 L 24 35.484375 L 19 35.484375 Z M 19 33 " clip-rule="nonzero"/></clipPath><clipPath id="8e54fd340f"><path d="M 24 33 L 28 33 L 28 35.484375 L 24 35.484375 Z M 24 33 " clip-rule="nonzero"/></clipPath><clipPath id="1d0d0d8c72"><path d="M 28 34 L 32 34 L 32 35.484375 L 28 35.484375 Z M 28 34 " clip-rule="nonzero"/></clipPath><clipPath id="1007aa3d8c"><path d="M 21 29 L 25 29 L 25 35.484375 L 21 35.484375 Z M 21 29 " clip-rule="nonzero"/></clipPath><clipPath id="37adf8d39a"><path d="M 26 32 L 29 32 L 29 35.484375 L 26 35.484375 Z M 26 32 " clip-rule="nonzero"/></clipPath><clipPath id="be776c8175"><path d="M 29 31 L 33 31 L 33 35.484375 L 29 35.484375 Z M 29 31 " clip-rule="nonzero"/></clipPath><clipPath id="ae04d319a5"><path d="M 32 30 L 36.625 30 L 36.625 33 L 32 33 Z M 32 30 " clip-rule="nonzero"/></clipPath><clipPath id="f08f158abe"><path d="M 12.203125 14.757812 L 21 14.757812 L 21 19 L 12.203125 19 Z M 12.203125 14.757812 " clip-rule="nonzero"/></clipPath><clipPath id="dc649bedef"><path d="M 12.203125 14.757812 L 36.625 14.757812 L 36.625 35.484375 L 12.203125 35.484375 Z M 12.203125 14.757812 " clip-rule="nonzero"/></clipPath></defs><g clip-path="url(#97f6f840c3)"><path fill="#ffffff" d="M 0 0 L 37.007812 0 L 37.007812 37.007812 L 0 37.007812 Z M 0 0 " fill-opacity="1" fill-rule="nonzero"/><path fill="#ffffff" d="M 0 0 L 37.007812 0 L 37.007812 37.007812 L 0 37.007812 Z M 0 0 " fill-opacity="1" fill-rule="nonzero"/></g><g clip-path="url(#9f938ad4bd)"><path fill="#393856" d="M 1.234375 2.222656 L 20.167969 2.222656 L 20.167969 33.695312 L 1.234375 33.695312 L 1.234375 2.222656 " fill-opacity="1" fill-rule="nonzero"/></g><path fill="#6b778a" d="M 11.753906 4.355469 L 11.753906 6.488281 L 18.0625 6.488281 L 18.0625 4.355469 L 11.753906 4.355469 " fill-opacity="1" fill-rule="nonzero"/><path fill="#75c9c1" d="M 3.339844 8.625 L 3.339844 10.757812 L 18.0625 10.757812 L 18.0625 8.625 L 3.339844 8.625 " fill-opacity="1" fill-rule="nonzero"/><path fill="#eff2fa" d="M 12.804688 13.957031 C 12.804688 13.074219 11.863281 12.359375 10.699219 12.359375 C 9.539062 12.359375 8.597656 13.074219 8.597656 13.957031 C 8.597656 14.839844 9.539062 15.558594 10.699219 15.558594 C 11.863281 15.558594 12.804688 14.839844 12.804688 13.957031 " fill-opacity="1" fill-rule="nonzero"/><path fill="#e4e8ed" d="M 3.339844 21.960938 L 5.441406 21.960938 L 5.441406 24.09375 L 3.339844 24.09375 L 3.339844 21.960938 " fill-opacity="1" fill-rule="nonzero"/><path fill="#e4e8ed" d="M 7.546875 21.960938 L 9.648438 21.960938 L 9.648438 24.09375 L 7.546875 24.09375 L 7.546875 21.960938 " fill-opacity="1" fill-rule="nonzero"/><path fill="#e4e8ed" d="M 11.753906 21.960938 L 13.855469 21.960938 L 13.855469 24.09375 L 11.753906 24.09375 L 11.753906 21.960938 " fill-opacity="1" fill-rule="nonzero"/><path fill="#f08015" d="M 15.960938 21.960938 L 18.0625 21.960938 L 18.0625 24.09375 L 15.960938 24.09375 L 15.960938 21.960938 " fill-opacity="1" fill-rule="nonzero"/><path fill="#e4e8ed" d="M 3.339844 25.695312 L 5.441406 25.695312 L 5.441406 27.828125 L 3.339844 27.828125 L 3.339844 25.695312 " fill-opacity="1" fill-rule="nonzero"/><path fill="#e4e8ed" d="M 7.546875 25.695312 L 9.648438 25.695312 L 9.648438 27.828125 L 7.546875 27.828125 L 7.546875 25.695312 " fill-opacity="1" fill-rule="nonzero"/><path fill="#e4e8ed" d="M 11.753906 25.695312 L 13.855469 25.695312 L 13.855469 27.828125 L 11.753906 27.828125 L 11.753906 25.695312 " fill-opacity="1" fill-rule="nonzero"/><path fill="#e4e8ed" d="M 15.960938 25.695312 L 18.0625 25.695312 L 18.0625 27.828125 L 15.960938 27.828125 L 15.960938 25.695312 " fill-opacity="1" fill-rule="nonzero"/><path fill="#ee2849" d="M 3.339844 29.429688 L 5.441406 29.429688 L 5.441406 31.5625 L 3.339844 31.5625 L 3.339844 29.429688 " fill-opacity="1" fill-rule="nonzero"/><path fill="#e4e8ed" d="M 7.546875 29.429688 L 9.648438 29.429688 L 9.648438 31.5625 L 7.546875 31.5625 L 7.546875 29.429688 " fill-opacity="1" fill-rule="nonzero"/><path fill="#e4e8ed" d="M 11.753906 29.429688 L 13.855469 29.429688 L 13.855469 31.5625 L 11.753906 31.5625 L 11.753906 29.429688 " fill-opacity="1" fill-rule="nonzero"/><path fill="#e4e8ed" d="M 15.960938 29.429688 L 18.0625 29.429688 L 18.0625 31.5625 L 15.960938 31.5625 L 15.960938 29.429688 " fill-opacity="1" fill-rule="nonzero"/><g clip-path="url(#d06dfd5778)"><path fill="#000000" d="M 19.640625 33.164062 L 1.761719 33.164062 L 1.761719 2.753906 L 19.640625 2.753906 Z M 20.167969 1.6875 L 1.234375 1.6875 C 0.945312 1.6875 0.710938 1.929688 0.710938 2.222656 L 0.710938 33.695312 C 0.710938 33.988281 0.945312 34.230469 1.234375 34.230469 L 20.167969 34.230469 C 20.457031 34.230469 20.691406 33.988281 20.691406 33.695312 L 20.691406 2.222656 C 20.691406 1.929688 20.457031 1.6875 20.167969 1.6875 " fill-opacity="1" fill-rule="nonzero"/></g><path fill="#000000" d="M 12.277344 4.890625 L 17.539062 4.890625 L 17.539062 5.957031 L 12.277344 5.957031 Z M 11.753906 7.023438 L 18.0625 7.023438 C 18.351562 7.023438 18.589844 6.785156 18.589844 6.488281 L 18.589844 4.355469 C 18.589844 4.0625 18.351562 3.820312 18.0625 3.820312 L 11.753906 3.820312 C 11.464844 3.820312 11.226562 4.0625 11.226562 4.355469 L 11.226562 6.488281 C 11.226562 6.785156 11.464844 7.023438 11.753906 7.023438 " fill-opacity="1" fill-rule="nonzero"/><path fill="#000000" d="M 3.863281 9.15625 L 17.539062 9.15625 L 17.539062 10.222656 L 3.863281 10.222656 Z M 3.339844 11.289062 L 18.0625 11.289062 C 18.351562 11.289062 18.589844 11.050781 18.589844 10.757812 L 18.589844 8.625 C 18.589844 8.328125 18.351562 8.089844 18.0625 8.089844 L 3.339844 8.089844 C 3.046875 8.089844 2.8125 8.328125 2.8125 8.625 L 2.8125 10.757812 C 2.8125 11.050781 3.046875 11.289062 3.339844 11.289062 " fill-opacity="1" fill-rule="nonzero"/><path fill="#000000" d="M 10.699219 15.023438 C 9.847656 15.023438 9.125 14.539062 9.125 13.957031 C 9.125 13.378906 9.847656 12.890625 10.699219 12.890625 C 11.554688 12.890625 12.277344 13.378906 12.277344 13.957031 C 12.277344 14.539062 11.554688 15.023438 10.699219 15.023438 Z M 13.332031 13.957031 C 13.332031 12.78125 12.152344 11.824219 10.699219 11.824219 C 9.25 11.824219 8.070312 12.78125 8.070312 13.957031 C 8.070312 15.136719 9.25 16.089844 10.699219 16.089844 C 12.152344 16.089844 13.332031 15.136719 13.332031 13.957031 " fill-opacity="1" fill-rule="nonzero"/><path fill="#000000" d="M 3.863281 22.492188 L 4.917969 22.492188 L 4.917969 23.558594 L 3.863281 23.558594 Z M 3.339844 24.628906 L 5.441406 24.628906 C 5.730469 24.628906 5.96875 24.386719 5.96875 24.09375 L 5.96875 21.960938 C 5.96875 21.664062 5.730469 21.425781 5.441406 21.425781 L 3.339844 21.425781 C 3.046875 21.425781 2.8125 21.664062 2.8125 21.960938 L 2.8125 24.09375 C 2.8125 24.386719 3.046875 24.628906 3.339844 24.628906 " fill-opacity="1" fill-rule="nonzero"/><path fill="#000000" d="M 9.125 23.558594 L 8.070312 23.558594 L 8.070312 22.492188 L 9.125 22.492188 Z M 9.648438 21.425781 L 7.546875 21.425781 C 7.257812 21.425781 7.019531 21.664062 7.019531 21.960938 L 7.019531 24.09375 C 7.019531 24.386719 7.257812 24.628906 7.546875 24.628906 L 9.648438 24.628906 C 9.9375 24.628906 10.175781 24.386719 10.175781 24.09375 L 10.175781 21.960938 C 10.175781 21.664062 9.9375 21.425781 9.648438 21.425781 " fill-opacity="1" fill-rule="nonzero"/><path fill="#000000" d="M 13.332031 23.558594 L 12.277344 23.558594 L 12.277344 22.492188 L 13.332031 22.492188 Z M 13.855469 21.425781 L 11.753906 21.425781 C 11.464844 21.425781 11.226562 21.664062 11.226562 21.960938 L 11.226562 24.09375 C 11.226562 24.386719 11.464844 24.628906 11.753906 24.628906 L 13.855469 24.628906 C 14.144531 24.628906 14.382812 24.386719 14.382812 24.09375 L 14.382812 21.960938 C 14.382812 21.664062 14.144531 21.425781 13.855469 21.425781 " fill-opacity="1" fill-rule="nonzero"/><path fill="#000000" d="M 17.539062 23.558594 L 16.484375 23.558594 L 16.484375 22.492188 L 17.539062 22.492188 Z M 18.0625 21.425781 L 15.960938 21.425781 C 15.671875 21.425781 15.433594 21.664062 15.433594 21.960938 L 15.433594 24.09375 C 15.433594 24.386719 15.671875 24.628906 15.960938 24.628906 L 18.0625 24.628906 C 18.351562 24.628906 18.589844 24.386719 18.589844 24.09375 L 18.589844 21.960938 C 18.589844 21.664062 18.351562 21.425781 18.0625 21.425781 " fill-opacity="1" fill-rule="nonzero"/><path fill="#000000" d="M 3.863281 26.226562 L 4.917969 26.226562 L 4.917969 27.292969 L 3.863281 27.292969 Z M 3.339844 28.359375 L 5.441406 28.359375 C 5.730469 28.359375 5.96875 28.121094 5.96875 27.828125 L 5.96875 25.695312 C 5.96875 25.398438 5.730469 25.160156 5.441406 25.160156 L 3.339844 25.160156 C 3.046875 25.160156 2.8125 25.398438 2.8125 25.695312 L 2.8125 27.828125 C 2.8125 28.121094 3.046875 28.359375 3.339844 28.359375 " fill-opacity="1" fill-rule="nonzero"/><path fill="#000000" d="M 9.125 27.292969 L 8.070312 27.292969 L 8.070312 26.226562 L 9.125 26.226562 Z M 9.648438 25.160156 L 7.546875 25.160156 C 7.257812 25.160156 7.019531 25.398438 7.019531 25.695312 L 7.019531 27.828125 C 7.019531 28.121094 7.257812 28.359375 7.546875 28.359375 L 9.648438 28.359375 C 9.9375 28.359375 10.175781 28.121094 10.175781 27.828125 L 10.175781 25.695312 C 10.175781 25.398438 9.9375 25.160156 9.648438 25.160156 " fill-opacity="1" fill-rule="nonzero"/><path fill="#000000" d="M 13.332031 27.292969 L 12.277344 27.292969 L 12.277344 26.226562 L 13.332031 26.226562 Z M 13.855469 25.160156 L 11.753906 25.160156 C 11.464844 25.160156 11.226562 25.398438 11.226562 25.695312 L 11.226562 27.828125 C 11.226562 28.121094 11.464844 28.359375 11.753906 28.359375 L 13.855469 28.359375 C 14.144531 28.359375 14.382812 28.121094 14.382812 27.828125 L 14.382812 25.695312 C 14.382812 25.398438 14.144531 25.160156 13.855469 25.160156 " fill-opacity="1" fill-rule="nonzero"/><path fill="#000000" d="M 17.539062 27.292969 L 16.484375 27.292969 L 16.484375 26.226562 L 17.539062 26.226562 Z M 18.0625 25.160156 L 15.960938 25.160156 C 15.671875 25.160156 15.433594 25.398438 15.433594 25.695312 L 15.433594 27.828125 C 15.433594 28.121094 15.671875 28.359375 15.960938 28.359375 L 18.0625 28.359375 C 18.351562 28.359375 18.589844 28.121094 18.589844 27.828125 L 18.589844 25.695312 C 18.589844 25.398438 18.351562 25.160156 18.0625 25.160156 " fill-opacity="1" fill-rule="nonzero"/><path fill="#000000" d="M 3.863281 29.960938 L 4.917969 29.960938 L 4.917969 31.027344 L 3.863281 31.027344 Z M 3.339844 32.09375 L 5.441406 32.09375 C 5.730469 32.09375 5.96875 31.855469 5.96875 31.5625 L 5.96875 29.429688 C 5.96875 29.132812 5.730469 28.894531 5.441406 28.894531 L 3.339844 28.894531 C 3.046875 28.894531 2.8125 29.132812 2.8125 29.429688 L 2.8125 31.5625 C 2.8125 31.855469 3.046875 32.09375 3.339844 32.09375 " fill-opacity="1" fill-rule="nonzero"/><path fill="#000000" d="M 9.125 31.027344 L 8.070312 31.027344 L 8.070312 29.960938 L 9.125 29.960938 Z M 9.648438 28.894531 L 7.546875 28.894531 C 7.257812 28.894531 7.019531 29.132812 7.019531 29.429688 L 7.019531 31.5625 C 7.019531 31.855469 7.257812 32.09375 7.546875 32.09375 L 9.648438 32.09375 C 9.9375 32.09375 10.175781 31.855469 10.175781 31.5625 L 10.175781 29.429688 C 10.175781 29.132812 9.9375 28.894531 9.648438 28.894531 " fill-opacity="1" fill-rule="nonzero"/><path fill="#000000" d="M 13.332031 31.027344 L 12.277344 31.027344 L 12.277344 29.960938 L 13.332031 29.960938 Z M 13.855469 28.894531 L 11.753906 28.894531 C 11.464844 28.894531 11.226562 29.132812 11.226562 29.429688 L 11.226562 31.5625 C 11.226562 31.855469 11.464844 32.09375 11.753906 32.09375 L 13.855469 32.09375 C 14.144531 32.09375 14.382812 31.855469 14.382812 31.5625 L 14.382812 29.429688 C 14.382812 29.132812 14.144531 28.894531 13.855469 28.894531 " fill-opacity="1" fill-rule="nonzero"/><path fill="#000000" d="M 17.539062 31.027344 L 16.484375 31.027344 L 16.484375 29.960938 L 17.539062 29.960938 Z M 18.0625 28.894531 L 15.960938 28.894531 C 15.671875 28.894531 15.433594 29.132812 15.433594 29.429688 L 15.433594 31.5625 C 15.433594 31.855469 15.671875 32.09375 15.960938 32.09375 L 18.0625 32.09375 C 18.351562 32.09375 18.589844 31.855469 18.589844 31.5625 L 18.589844 29.429688 C 18.589844 29.132812 18.351562 28.894531 18.0625 28.894531 " fill-opacity="1" fill-rule="nonzero"/><path fill="#000000" d="M 9.125 3.820312 L 4.917969 3.820312 L 4.917969 4.890625 L 9.125 4.890625 L 9.125 3.820312 " fill-opacity="1" fill-rule="nonzero"/><path fill="#000000" d="M 4.390625 13.425781 L 6.492188 13.425781 L 6.492188 12.359375 L 4.390625 12.359375 L 4.390625 13.425781 " fill-opacity="1" fill-rule="nonzero"/><path fill="#000000" d="M 14.90625 13.425781 L 17.011719 13.425781 L 17.011719 12.359375 L 14.90625 12.359375 L 14.90625 13.425781 " fill-opacity="1" fill-rule="nonzero"/><path fill="#000000" d="M 6.492188 14.492188 L 4.390625 14.492188 L 4.390625 15.558594 L 6.492188 15.558594 L 6.492188 14.492188 " fill-opacity="1" fill-rule="nonzero"/><path fill="#000000" d="M 14.90625 15.558594 L 17.011719 15.558594 L 17.011719 14.492188 L 14.90625 14.492188 L 14.90625 15.558594 " fill-opacity="1" fill-rule="nonzero"/><path fill="#000000" d="M 5.441406 17.160156 L 3.339844 17.160156 L 3.339844 18.226562 L 5.441406 18.226562 L 5.441406 17.160156 " fill-opacity="1" fill-rule="nonzero"/><path fill="#000000" d="M 18.0625 17.160156 L 15.960938 17.160156 L 15.960938 18.226562 L 18.0625 18.226562 L 18.0625 17.160156 " fill-opacity="1" fill-rule="nonzero"/><path fill="#000000" d="M 12.804688 18.226562 L 14.90625 18.226562 L 14.90625 17.160156 L 12.804688 17.160156 L 12.804688 18.226562 " fill-opacity="1" fill-rule="nonzero"/><path fill="#000000" d="M 6.492188 18.226562 L 8.597656 18.226562 L 8.597656 17.160156 L 6.492188 17.160156 L 6.492188 18.226562 " fill-opacity="1" fill-rule="nonzero"/><path fill="#000000" d="M 3.339844 20.359375 L 5.441406 20.359375 L 5.441406 19.292969 L 3.339844 19.292969 L 3.339844 20.359375 " fill-opacity="1" fill-rule="nonzero"/><path fill="#000000" d="M 15.960938 20.359375 L 18.0625 20.359375 L 18.0625 19.292969 L 15.960938 19.292969 L 15.960938 20.359375 " fill-opacity="1" fill-rule="nonzero"/><path fill="#000000" d="M 12.804688 20.359375 L 14.90625 20.359375 L 14.90625 19.292969 L 12.804688 19.292969 L 12.804688 20.359375 " fill-opacity="1" fill-rule="nonzero"/><path fill="#000000" d="M 8.597656 19.292969 L 6.492188 19.292969 L 6.492188 20.359375 L 8.597656 20.359375 L 8.597656 19.292969 " fill-opacity="1" fill-rule="nonzero"/><path fill="#000000" d="M 10.175781 5.957031 L 2.8125 5.957031 L 2.8125 7.023438 L 10.175781 7.023438 L 10.175781 5.957031 " fill-opacity="1" fill-rule="nonzero"/><path fill="#000000" d="M 11.753906 17.160156 L 9.648438 17.160156 L 9.648438 18.226562 L 11.753906 18.226562 L 11.753906 17.160156 " fill-opacity="1" fill-rule="nonzero"/><path fill="#000000" d="M 9.648438 20.359375 L 11.753906 20.359375 L 11.753906 19.292969 L 9.648438 19.292969 L 9.648438 20.359375 " fill-opacity="1" fill-rule="nonzero"/><g clip-path="url(#5577b70913)"><path fill="#9ad02b" d="M 14.199219 15.109375 C 14.199219 15.109375 15.226562 15.109375 15.9375 15.003906 C 16.652344 14.898438 17.1875 14.769531 17.664062 14.9375 C 18.136719 15.105469 18.808594 15.402344 18.808594 15.402344 C 18.808594 15.402344 19.488281 15.835938 19.695312 16.210938 C 19.902344 16.585938 20.164062 17.085938 20.164062 17.085938 C 20.164062 17.085938 20.4375 17.75 20.46875 18.019531 C 20.5 18.289062 20.703125 19.074219 20.570312 19.492188 C 20.441406 19.910156 20.449219 19.898438 20.449219 19.898438 C 20.449219 19.898438 20.050781 21.039062 19.789062 21.265625 C 19.988281 21.40625 20.390625 21.898438 20.503906 22.226562 C 20.617188 22.558594 20.890625 23.382812 20.621094 24.371094 C 20.367188 25.03125 20.113281 25.410156 20.105469 25.605469 C 20.09375 25.796875 20.140625 26.035156 20.140625 26.035156 C 20.140625 26.035156 19.347656 25.675781 18.660156 25.59375 C 17.972656 25.511719 17.515625 25.539062 17.515625 25.539062 C 17.515625 25.539062 16.9375 24.566406 16.917969 24.515625 C 16.898438 24.464844 16.566406 23.746094 16.484375 23.511719 C 16.402344 23.277344 16.179688 22.960938 16.097656 22.871094 C 16.011719 22.785156 15.203125 22.277344 15.203125 22.277344 C 15.203125 22.277344 14.066406 21.539062 13.644531 20.976562 C 13.222656 20.414062 12.820312 19.9375 12.621094 19.511719 C 12.417969 19.089844 12.242188 18.511719 12.507812 18.0625 C 12.773438 17.613281 12.96875 17.550781 12.96875 17.550781 C 12.96875 17.550781 12.601562 17.175781 12.753906 16.78125 C 12.90625 16.386719 13.40625 15.453125 13.535156 15.347656 C 13.667969 15.242188 13.8125 15.109375 14.199219 15.109375 Z M 14.199219 15.109375 " fill-opacity="1" fill-rule="nonzero"/></g><path fill="#9ad02b" d="M 17.578125 27.402344 L 17.226562 28.796875 L 16.660156 30.730469 L 16.34375 31.539062 C 16.34375 31.539062 16.042969 32.203125 16.324219 32.441406 C 16.609375 32.675781 17.304688 32.878906 17.910156 32.988281 C 18.511719 33.097656 19.351562 33.230469 19.996094 32.839844 C 20.230469 32.605469 20.277344 32.609375 20.289062 32.195312 C 20.300781 31.785156 20.316406 30.601562 20.316406 30.601562 C 20.316406 30.601562 19.476562 30.070312 18.964844 29.480469 C 18.449219 28.855469 18.046875 28.269531 17.914062 28.042969 C 17.777344 27.816406 17.578125 27.402344 17.578125 27.402344 Z M 17.578125 27.402344 " fill-opacity="1" fill-rule="nonzero"/><g clip-path="url(#b7dda1e51c)"><path fill="#9ad02b" d="M 21.179688 29.417969 C 21.179688 29.417969 20.785156 29.421875 20.746094 30.011719 C 20.707031 30.601562 20.664062 31.140625 20.664062 31.140625 C 20.664062 31.140625 20.542969 32.003906 20.429688 32.433594 C 20.316406 32.867188 20.042969 33.8125 20.042969 33.8125 C 20.042969 33.8125 19.757812 34.386719 20.261719 34.617188 C 20.765625 34.84375 21.652344 34.957031 21.652344 34.957031 C 21.652344 34.957031 22.878906 35.089844 23.175781 35.058594 C 23.476562 35.027344 23.714844 35.03125 23.84375 34.550781 C 23.972656 34.070312 23.972656 34.070312 23.972656 34.070312 C 23.972656 34.070312 24.042969 32.742188 24.039062 32.125 C 24.03125 31.507812 23.949219 31.199219 23.949219 31.199219 C 23.949219 31.199219 23.789062 30.589844 23.390625 30.253906 C 22.988281 29.917969 22.339844 29.535156 21.179688 29.417969 Z M 21.179688 29.417969 " fill-opacity="1" fill-rule="nonzero"/></g><g clip-path="url(#402880375b)"><path fill="#9ad02b" d="M 25.363281 32.398438 C 25.363281 32.398438 25.113281 33.792969 25.050781 33.972656 C 24.988281 34.152344 24.832031 34.410156 25.210938 34.667969 C 25.589844 34.925781 26.535156 35.066406 26.535156 35.066406 C 26.535156 35.066406 27.527344 35.136719 27.921875 34.9375 C 28.320312 34.742188 28.25 34.632812 28.25 34.632812 C 28.25 34.632812 28.242188 35.089844 28.59375 35.203125 C 28.945312 35.316406 29.886719 35.457031 30.21875 35.460938 C 30.554688 35.464844 31.636719 35.316406 32.140625 34.898438 C 32.355469 34.613281 32.457031 34.503906 32.429688 34.175781 C 32.398438 33.847656 32.109375 32.058594 32.109375 32.058594 L 31.949219 31.519531 C 31.949219 31.519531 31.960938 31.140625 31.425781 31.203125 C 30.882812 31.265625 29.917969 31.367188 29.328125 31.273438 C 29.054688 31.25 29.054688 31.25 29.054688 31.25 C 29.054688 31.25 28.625 31.296875 28.613281 31.742188 C 28.597656 32.1875 28.582031 32.644531 28.582031 32.644531 C 28.582031 32.644531 27.597656 32.699219 26.875 32.609375 C 26.148438 32.523438 25.363281 32.398438 25.363281 32.398438 Z M 25.363281 32.398438 " fill-opacity="1" fill-rule="nonzero"/></g><g clip-path="url(#e40b9d5e77)"><path fill="#9ad02b" d="M 32.71875 31.484375 C 32.730469 31.46875 33.410156 31.0625 33.671875 30.777344 C 33.902344 30.722656 34.78125 30.460938 34.78125 30.460938 C 34.78125 30.460938 35.730469 31.105469 35.949219 31.296875 C 36.171875 31.484375 36.335938 31.539062 36.386719 31.632812 C 36.441406 31.722656 36.621094 31.859375 36.222656 31.972656 C 35.828125 32.082031 35.082031 32.125 34.699219 32.074219 C 34.3125 32.023438 33.273438 31.742188 33.273438 31.742188 Z M 32.71875 31.484375 " fill-opacity="1" fill-rule="nonzero"/></g><path fill="#ffffff" d="M 16.367188 18.691406 C 16.367188 18.691406 15.816406 18.371094 15.757812 17.761719 C 15.734375 17.363281 15.730469 17.058594 16.328125 16.839844 C 16.632812 16.757812 17.054688 16.832031 17.324219 17.140625 C 17.558594 17.375 17.742188 17.75 17.566406 18.300781 C 17.378906 18.578125 17.078125 18.953125 16.367188 18.691406 Z M 16.367188 18.691406 " fill-opacity="1" fill-rule="nonzero"/><g clip-path="url(#60abeedf47)"><path fill="#fda49d" d="M 13.753906 18.503906 C 13.753906 18.503906 12.914062 18.480469 12.941406 18.628906 C 12.972656 18.777344 13.328125 19.167969 13.660156 19.238281 C 13.996094 19.3125 14.550781 19.417969 14.992188 19.195312 C 14.601562 19.042969 13.984375 18.761719 13.753906 18.503906 Z M 13.753906 18.503906 " fill-opacity="1" fill-rule="nonzero"/></g><g clip-path="url(#050f9ef855)"><path fill="#740200" d="M 13.328125 18.058594 C 13.328125 18.058594 12.898438 18.074219 12.9375 18.5625 C 13.253906 18.527344 13.707031 18.496094 13.707031 18.496094 Z M 13.328125 18.058594 " fill-opacity="1" fill-rule="nonzero"/></g><path fill="#d68613" d="M 20.542969 19.464844 C 20.542969 19.464844 21.746094 18.699219 22.511719 18.441406 C 23.277344 18.183594 24.375 17.917969 25.28125 17.90625 C 26.160156 17.894531 26.660156 17.929688 27.570312 18.15625 C 28.484375 18.382812 29.210938 18.6875 29.839844 18.917969 C 30.464844 19.152344 31.523438 19.761719 31.523438 19.761719 C 31.523438 19.761719 32.453125 20.484375 32.761719 20.710938 C 33.074219 20.9375 33.78125 21.972656 33.945312 22.34375 C 34.113281 22.714844 34.582031 23.816406 34.636719 24.054688 C 34.695312 24.292969 35.167969 25.714844 35.246094 26.527344 C 35.320312 27.339844 35.417969 28.144531 35.398438 28.15625 C 35.378906 28.171875 35.796875 28.351562 35.847656 28.773438 C 35.898438 29.195312 36.1875 30.050781 35.199219 30.328125 C 34.28125 30.625 32.839844 31.023438 31.585938 31.183594 C 30.484375 31.296875 29.351562 31.335938 28.324219 31.148438 C 27.488281 31.015625 26.398438 30.71875 25.203125 30.148438 C 24.007812 29.574219 22.859375 28.8125 22.460938 28.496094 C 22.023438 28.09375 21.089844 27.328125 20.691406 26.824219 C 20.289062 26.320312 19.898438 25.773438 20.15625 25.375 C 20.15625 25.375 20.691406 24.722656 20.707031 23.859375 C 20.726562 23.027344 20.757812 22.703125 20.441406 22.136719 C 20.125 21.570312 19.789062 21.265625 19.789062 21.265625 C 19.789062 21.265625 20.460938 20.234375 20.542969 19.464844 Z M 20.542969 19.464844 " fill-opacity="1" fill-rule="nonzero"/><path fill="#ebc122" d="M 17.136719 24.925781 L 17.53125 25.539062 C 17.53125 25.539062 18.253906 25.488281 18.628906 25.566406 C 19.003906 25.648438 20.15625 26.019531 20.15625 26.019531 C 20.15625 26.019531 20.457031 26.570312 20.746094 26.894531 C 21.039062 27.214844 21.640625 27.824219 22.140625 28.230469 C 22.644531 28.636719 23.492188 29.226562 23.613281 29.285156 C 23.734375 29.34375 24.914062 30.0625 25.246094 30.1875 C 25.574219 30.3125 26.675781 30.808594 27.101562 30.902344 C 27.53125 30.996094 28.390625 31.15625 28.683594 31.210938 C 28.972656 31.265625 29.066406 31.25 29.066406 31.25 C 29.066406 31.25 28.578125 31.335938 28.589844 31.753906 C 28.605469 32.167969 28.582031 32.644531 28.582031 32.644531 C 28.582031 32.644531 27.519531 32.730469 26.621094 32.585938 C 25.71875 32.445312 24.335938 32.210938 24.054688 32.089844 C 24.023438 31.773438 23.945312 31.078125 23.824219 30.839844 C 23.707031 30.597656 23.605469 30.402344 23.605469 30.402344 C 23.605469 30.402344 22.894531 29.730469 22.027344 29.539062 C 21.234375 29.359375 20.488281 29.242188 20.730469 29.894531 C 20.753906 30.308594 20.703125 30.808594 20.703125 30.808594 C 20.703125 30.808594 20.074219 30.507812 19.460938 29.960938 C 18.890625 29.421875 18.519531 29.035156 18.28125 28.613281 C 18.039062 28.195312 17.410156 27.085938 17.410156 27.085938 L 17.136719 26.835938 C 17.136719 26.835938 16.769531 26.496094 16.738281 26.003906 C 16.703125 25.574219 16.800781 25.117188 17.136719 24.925781 Z M 17.136719 24.925781 " fill-opacity="1" fill-rule="nonzero"/><path fill="#d68613" d="M 16.578125 23.789062 L 17.121094 24.90625 C 17.121094 24.90625 16.765625 25.285156 16.738281 25.503906 C 16.710938 25.726562 16.730469 26.070312 16.730469 26.070312 C 16.730469 26.070312 16.257812 25.875 16.082031 25.449219 C 16 25.175781 15.910156 24.542969 16.578125 23.789062 Z M 16.578125 23.789062 " fill-opacity="1" fill-rule="nonzero"/><path fill="#ebc122" d="M 31.679688 31.183594 C 31.679688 31.183594 31.875 31.257812 31.945312 31.46875 C 32.015625 31.679688 32.042969 31.832031 32.042969 31.832031 C 32.042969 31.832031 32.667969 31.519531 32.78125 31.460938 C 32.898438 31.402344 33.558594 30.910156 33.5625 30.910156 C 33.570312 30.90625 33.601562 30.796875 33.601562 30.796875 C 33.601562 30.796875 32.234375 31.171875 31.679688 31.183594 Z M 31.679688 31.183594 " fill-opacity="1" fill-rule="nonzero"/><path fill="#ebc122" d="M 21.230469 29.3125 C 21.230469 29.3125 20.804688 29.585938 20.746094 29.855469 C 20.628906 29.734375 20.523438 29.589844 20.601562 29.46875 C 20.679688 29.347656 21.023438 29.273438 21.230469 29.3125 Z M 21.230469 29.3125 " fill-opacity="1" fill-rule="nonzero"/><path fill="#683c03" d="M 35.378906 27.96875 C 34.960938 28.113281 33.074219 28.597656 32.160156 28.773438 C 31.476562 28.804688 30.527344 28.941406 30.511719 28.21875 C 30.542969 27.535156 30.671875 26.382812 30.671875 26.382812 L 30.769531 24.914062 C 30.769531 24.914062 30.683594 24.460938 31.472656 24.414062 C 32.261719 24.367188 33.554688 24.175781 33.628906 24.160156 C 33.707031 24.148438 34.640625 23.984375 34.632812 23.972656 C 34.621094 23.960938 34.417969 23.417969 34.417969 23.417969 C 34.417969 23.417969 32.839844 23.957031 31.972656 23.964844 C 31.328125 23.976562 30.816406 23.9375 30.890625 23.496094 C 30.96875 23.050781 31.046875 22.382812 30.941406 22.125 C 30.835938 21.871094 30.824219 21.34375 30.824219 21.34375 C 30.824219 21.34375 30.640625 20.976562 31.152344 20.808594 C 31.664062 20.640625 32.390625 20.394531 32.390625 20.394531 L 31.832031 19.96875 C 31.832031 19.96875 30.84375 20.542969 29.722656 20.332031 C 28.640625 20.109375 28.039062 19.945312 28.039062 19.945312 C 28.039062 19.945312 26.542969 19.503906 26.210938 19.3125 C 25.875 19.117188 25.496094 18.957031 25.3125 18.328125 C 25.144531 17.929688 25.144531 17.875 25.128906 17.894531 C 25.121094 17.898438 24.902344 17.914062 24.59375 17.945312 C 24.625 17.980469 24.652344 18.019531 24.675781 18.058594 C 24.699219 18.113281 24.710938 18.164062 24.71875 18.222656 C 24.777344 18.242188 24.828125 18.300781 24.820312 18.363281 C 24.820312 18.367188 24.824219 18.378906 24.820312 18.382812 C 24.824219 18.390625 24.824219 18.394531 24.828125 18.402344 C 24.828125 18.40625 24.835938 18.421875 24.835938 18.417969 C 24.835938 18.421875 24.835938 18.421875 24.835938 18.421875 C 24.839844 18.429688 24.84375 18.4375 24.847656 18.445312 C 24.851562 18.445312 24.851562 18.445312 24.851562 18.445312 C 24.855469 18.453125 24.859375 18.460938 24.863281 18.460938 C 24.886719 18.480469 24.898438 18.507812 24.902344 18.539062 C 24.933594 18.550781 24.957031 18.574219 24.976562 18.597656 C 25.015625 18.652344 25.054688 18.707031 25.09375 18.761719 C 25.128906 18.808594 25.171875 18.859375 25.199219 18.914062 C 25.226562 18.976562 25.246094 19.039062 25.261719 19.101562 C 25.285156 19.179688 25.304688 19.261719 25.273438 19.339844 C 25.265625 19.355469 25.261719 19.367188 25.253906 19.378906 C 25.246094 19.441406 25.222656 19.5 25.199219 19.5625 C 25.175781 19.632812 25.171875 19.707031 25.148438 19.773438 C 25.121094 19.851562 25.078125 19.914062 25.019531 19.972656 C 25 19.996094 24.976562 20.015625 24.957031 20.035156 C 24.945312 20.046875 24.933594 20.054688 24.925781 20.066406 C 24.921875 20.070312 24.914062 20.078125 24.910156 20.085938 C 24.90625 20.085938 24.90625 20.089844 24.90625 20.089844 C 24.902344 20.09375 24.898438 20.09375 24.898438 20.097656 C 24.886719 20.136719 24.859375 20.167969 24.828125 20.191406 C 24.867188 20.167969 24.832031 20.191406 24.824219 20.203125 C 24.820312 20.207031 24.816406 20.210938 24.8125 20.214844 C 24.800781 20.238281 24.777344 20.261719 24.765625 20.285156 C 24.738281 20.332031 24.714844 20.378906 24.6875 20.425781 C 24.617188 20.550781 24.523438 20.660156 24.460938 20.789062 C 24.457031 20.800781 24.449219 20.8125 24.4375 20.820312 C 24.441406 20.835938 24.4375 20.851562 24.433594 20.867188 C 24.359375 21.058594 24.230469 21.25 24.050781 21.359375 C 23.957031 21.414062 23.835938 21.445312 23.726562 21.429688 C 23.601562 21.417969 23.496094 21.367188 23.398438 21.289062 C 23.371094 21.269531 23.359375 21.242188 23.355469 21.207031 C 23.339844 21.203125 23.324219 21.191406 23.308594 21.179688 C 23.289062 21.164062 23.269531 21.144531 23.25 21.125 C 23.144531 21.074219 23.050781 21.003906 22.960938 20.933594 C 22.863281 20.859375 22.765625 20.78125 22.695312 20.679688 C 22.671875 20.664062 22.644531 20.648438 22.621094 20.632812 C 22.535156 20.574219 22.453125 20.511719 22.394531 20.425781 C 22.382812 20.410156 22.375 20.394531 22.375 20.375 C 22.371094 20.375 22.371094 20.375 22.367188 20.371094 C 22.28125 20.316406 22.203125 20.253906 22.128906 20.183594 C 22.058594 20.109375 22 20.03125 21.941406 19.949219 C 21.9375 19.945312 21.9375 19.945312 21.9375 19.945312 C 21.9375 19.945312 21.9375 19.941406 21.933594 19.941406 C 21.925781 19.929688 21.917969 19.921875 21.910156 19.914062 C 21.898438 19.898438 21.882812 19.882812 21.867188 19.867188 C 21.835938 19.835938 21.804688 19.804688 21.769531 19.773438 C 21.703125 19.714844 21.636719 19.65625 21.574219 19.589844 C 21.554688 19.570312 21.542969 19.546875 21.539062 19.519531 C 21.496094 19.511719 21.457031 19.488281 21.433594 19.449219 C 21.410156 19.410156 21.382812 19.367188 21.355469 19.328125 C 21.347656 19.320312 21.339844 19.308594 21.335938 19.300781 C 21.332031 19.300781 21.332031 19.296875 21.328125 19.292969 C 21.3125 19.277344 21.300781 19.257812 21.285156 19.242188 C 21.226562 19.175781 21.167969 19.117188 21.101562 19.0625 C 20.960938 19.148438 20.863281 19.226562 20.828125 19.292969 C 20.828125 19.292969 21.472656 20.003906 21.742188 20.210938 C 22.011719 20.414062 22.441406 20.820312 22.441406 20.820312 L 23 21.269531 C 23 21.269531 23.648438 21.847656 23.664062 21.972656 C 23.679688 22.097656 23.75 22.28125 23.714844 22.398438 C 23.679688 22.519531 23.386719 23.257812 23.386719 23.257812 L 22.804688 24.710938 C 22.804688 24.710938 22.621094 25.394531 22.222656 25.167969 C 22.164062 25.386719 22 25.492188 22.566406 26.0625 C 23.132812 26.632812 24.394531 27.59375 24.707031 27.808594 C 25.019531 28.023438 25.753906 28.582031 26.773438 28.90625 C 27.792969 29.234375 28.773438 29.386719 28.773438 29.386719 C 28.773438 29.386719 30.402344 29.632812 31.882812 29.40625 C 33.363281 29.179688 34.832031 28.78125 35.167969 28.644531 C 35.390625 28.492188 35.492188 28.289062 35.378906 27.96875 Z M 30.292969 25 C 30.292969 25.21875 30.3125 25.4375 30.273438 25.652344 C 30.28125 25.675781 30.285156 25.699219 30.285156 25.722656 C 30.285156 25.867188 30.292969 26.011719 30.277344 26.15625 C 30.269531 26.214844 30.257812 26.277344 30.257812 26.335938 C 30.257812 26.410156 30.253906 26.480469 30.222656 26.546875 C 30.230469 26.5625 30.234375 26.582031 30.234375 26.601562 C 30.234375 26.742188 30.234375 26.882812 30.222656 27.023438 C 30.21875 27.101562 30.207031 27.183594 30.183594 27.261719 C 30.179688 27.269531 30.179688 27.277344 30.175781 27.285156 C 30.1875 27.308594 30.191406 27.335938 30.191406 27.363281 C 30.183594 27.460938 30.15625 27.550781 30.136719 27.644531 C 30.132812 27.71875 30.132812 27.796875 30.132812 27.871094 C 30.128906 27.957031 30.121094 28.039062 30.105469 28.125 C 30.09375 28.191406 30.078125 28.253906 30.054688 28.320312 C 30.03125 28.386719 30 28.460938 29.960938 28.519531 C 29.871094 28.644531 29.75 28.71875 29.601562 28.757812 C 29.433594 28.796875 29.261719 28.828125 29.089844 28.800781 C 28.960938 28.777344 28.828125 28.742188 28.703125 28.695312 C 28.664062 28.707031 28.621094 28.710938 28.578125 28.699219 C 28.5 28.671875 28.421875 28.640625 28.34375 28.617188 C 28.265625 28.589844 28.183594 28.570312 28.101562 28.554688 C 27.960938 28.523438 27.816406 28.496094 27.679688 28.445312 C 27.613281 28.421875 27.546875 28.398438 27.480469 28.371094 C 27.449219 28.375 27.417969 28.375 27.386719 28.363281 C 27.261719 28.320312 27.140625 28.277344 27.019531 28.226562 C 26.847656 28.160156 26.679688 28.085938 26.507812 28.007812 C 26.460938 28.015625 26.410156 28.007812 26.367188 27.984375 C 26.179688 27.878906 25.992188 27.769531 25.792969 27.683594 C 25.640625 27.625 25.488281 27.574219 25.34375 27.496094 C 25.207031 27.417969 25.078125 27.332031 24.945312 27.246094 C 24.910156 27.226562 24.882812 27.195312 24.863281 27.164062 C 24.769531 27.121094 24.679688 27.070312 24.59375 27.015625 C 24.5 26.957031 24.410156 26.894531 24.316406 26.835938 C 24.230469 26.785156 24.140625 26.734375 24.058594 26.679688 C 23.964844 26.613281 23.882812 26.546875 23.8125 26.460938 C 23.785156 26.457031 23.757812 26.449219 23.734375 26.433594 C 23.660156 26.382812 23.574219 26.351562 23.503906 26.296875 C 23.414062 26.230469 23.339844 26.140625 23.253906 26.066406 C 23.207031 26.023438 23.160156 25.980469 23.125 25.925781 C 23.082031 25.859375 23.066406 25.789062 23.058594 25.714844 C 23.046875 25.613281 23.070312 25.507812 23.097656 25.410156 C 23.105469 25.371094 23.128906 25.335938 23.15625 25.3125 C 23.167969 25.242188 23.179688 25.171875 23.203125 25.101562 C 23.226562 25.035156 23.253906 24.972656 23.277344 24.910156 C 23.296875 24.863281 23.308594 24.8125 23.320312 24.761719 C 23.332031 24.703125 23.355469 24.644531 23.382812 24.59375 C 23.40625 24.554688 23.433594 24.519531 23.460938 24.488281 C 23.457031 24.457031 23.457031 24.421875 23.46875 24.394531 C 23.484375 24.34375 23.507812 24.292969 23.527344 24.246094 C 23.542969 24.203125 23.5625 24.160156 23.570312 24.117188 C 23.574219 24.082031 23.574219 24.046875 23.578125 24.011719 C 23.585938 23.9375 23.601562 23.875 23.640625 23.808594 C 23.65625 23.769531 23.683594 23.738281 23.703125 23.703125 C 23.722656 23.675781 23.742188 23.640625 23.757812 23.605469 C 23.769531 23.574219 23.78125 23.539062 23.796875 23.507812 C 23.804688 23.488281 23.8125 23.46875 23.820312 23.453125 C 23.820312 23.441406 23.824219 23.429688 23.828125 23.417969 C 23.84375 23.363281 23.875 23.328125 23.921875 23.296875 C 23.941406 23.277344 23.960938 23.257812 23.980469 23.238281 C 24.03125 23.160156 24.054688 23.074219 24.125 23.007812 C 24.203125 22.929688 24.308594 22.886719 24.398438 22.828125 C 24.425781 22.804688 24.453125 22.777344 24.488281 22.761719 C 24.53125 22.734375 24.578125 22.71875 24.628906 22.71875 C 24.640625 22.71875 24.652344 22.71875 24.664062 22.71875 C 24.691406 22.703125 24.726562 22.695312 24.757812 22.695312 C 25.09375 22.699219 25.445312 22.800781 25.714844 23.007812 C 25.722656 23.011719 25.730469 23.019531 25.738281 23.027344 C 25.804688 23.019531 25.871094 23.042969 25.917969 23.085938 C 25.921875 23.089844 25.925781 23.09375 25.929688 23.097656 C 25.949219 23.109375 25.96875 23.121094 25.992188 23.132812 C 26.054688 23.15625 26.117188 23.171875 26.179688 23.1875 C 26.269531 23.210938 26.351562 23.238281 26.433594 23.273438 C 26.582031 23.339844 26.714844 23.433594 26.863281 23.5 C 26.964844 23.539062 27.070312 23.574219 27.171875 23.609375 C 27.234375 23.632812 27.296875 23.660156 27.355469 23.695312 C 27.410156 23.683594 27.457031 23.691406 27.507812 23.714844 C 27.585938 23.742188 27.671875 23.75 27.753906 23.765625 C 27.851562 23.785156 27.949219 23.804688 28.042969 23.824219 C 28.234375 23.863281 28.410156 23.9375 28.601562 23.964844 C 28.644531 23.972656 28.6875 23.972656 28.730469 23.976562 C 28.804688 23.976562 28.863281 24.011719 28.902344 24.0625 C 28.910156 24.0625 28.914062 24.0625 28.917969 24.0625 C 29.183594 24.058594 29.441406 24.140625 29.699219 24.183594 C 29.757812 24.191406 29.816406 24.207031 29.871094 24.230469 C 29.925781 24.253906 29.984375 24.273438 30.039062 24.3125 C 30.097656 24.355469 30.148438 24.402344 30.183594 24.46875 C 30.207031 24.507812 30.21875 24.554688 30.234375 24.597656 C 30.257812 24.648438 30.28125 24.695312 30.292969 24.746094 C 30.308594 24.8125 30.308594 24.886719 30.285156 24.949219 C 30.289062 24.964844 30.292969 24.984375 30.292969 25 Z M 30.375 22.15625 C 30.371094 22.230469 30.351562 22.304688 30.339844 22.375 C 30.328125 22.507812 30.34375 22.640625 30.347656 22.773438 C 30.355469 23.035156 30.3125 23.425781 30.074219 23.574219 C 30.054688 23.605469 30.03125 23.628906 30.003906 23.648438 C 29.9375 23.691406 29.855469 23.703125 29.78125 23.707031 C 29.730469 23.710938 29.679688 23.714844 29.628906 23.71875 C 29.476562 23.726562 29.324219 23.6875 29.171875 23.65625 C 29.035156 23.628906 28.894531 23.59375 28.757812 23.558594 C 28.6875 23.542969 28.617188 23.527344 28.550781 23.507812 C 28.484375 23.484375 28.421875 23.457031 28.355469 23.4375 C 28.324219 23.425781 28.296875 23.410156 28.273438 23.390625 C 28.15625 23.382812 28.039062 23.355469 27.925781 23.328125 C 27.816406 23.300781 27.707031 23.273438 27.601562 23.230469 C 27.375 23.136719 27.144531 23.042969 26.910156 22.953125 C 26.878906 22.941406 26.851562 22.925781 26.824219 22.90625 C 26.820312 22.90625 26.8125 22.90625 26.808594 22.90625 C 26.722656 22.902344 26.636719 22.882812 26.550781 22.863281 C 26.484375 22.851562 26.417969 22.839844 26.351562 22.824219 C 26.230469 22.796875 26.113281 22.746094 25.996094 22.703125 C 25.878906 22.660156 25.757812 22.628906 25.636719 22.597656 C 25.402344 22.539062 25.179688 22.4375 24.984375 22.296875 C 24.960938 22.28125 24.9375 22.261719 24.921875 22.242188 C 24.851562 22.199219 24.78125 22.15625 24.738281 22.082031 C 24.683594 21.996094 24.667969 21.871094 24.660156 21.769531 C 24.648438 21.589844 24.722656 21.410156 24.847656 21.28125 C 24.851562 21.253906 24.859375 21.226562 24.871094 21.203125 C 24.910156 21.144531 24.945312 21.085938 24.972656 21.023438 C 24.996094 20.96875 25.019531 20.914062 25.054688 20.867188 C 25.078125 20.832031 25.105469 20.796875 25.136719 20.769531 C 25.152344 20.753906 25.164062 20.742188 25.179688 20.726562 C 25.21875 20.664062 25.25 20.597656 25.285156 20.535156 C 25.300781 20.507812 25.3125 20.484375 25.328125 20.460938 C 25.328125 20.457031 25.328125 20.453125 25.328125 20.453125 C 25.3125 20.402344 25.316406 20.328125 25.347656 20.285156 C 25.394531 20.222656 25.445312 20.167969 25.507812 20.128906 C 25.507812 20.125 25.507812 20.125 25.507812 20.121094 C 25.503906 20.027344 25.570312 19.945312 25.65625 19.917969 C 25.6875 19.871094 25.730469 19.835938 25.78125 19.820312 C 25.878906 19.789062 25.988281 19.769531 26.089844 19.777344 C 26.207031 19.785156 26.3125 19.824219 26.417969 19.859375 C 26.617188 19.921875 26.816406 19.992188 27.011719 20.0625 C 27.050781 20.078125 27.082031 20.097656 27.109375 20.121094 C 27.113281 20.125 27.117188 20.125 27.121094 20.128906 L 27.113281 20.125 C 27.171875 20.148438 27.230469 20.15625 27.289062 20.167969 C 27.351562 20.179688 27.410156 20.203125 27.46875 20.222656 C 27.59375 20.265625 27.714844 20.292969 27.84375 20.320312 C 27.96875 20.34375 28.097656 20.367188 28.222656 20.394531 C 28.355469 20.425781 28.484375 20.46875 28.609375 20.523438 C 28.6875 20.53125 28.765625 20.527344 28.84375 20.542969 C 28.898438 20.550781 28.953125 20.570312 29.003906 20.589844 C 29.054688 20.609375 29.105469 20.632812 29.160156 20.644531 C 29.210938 20.660156 29.265625 20.667969 29.320312 20.675781 C 29.429688 20.691406 29.539062 20.703125 29.648438 20.71875 C 29.746094 20.734375 29.847656 20.757812 29.945312 20.78125 C 30.003906 20.792969 30.046875 20.832031 30.074219 20.878906 C 30.101562 20.890625 30.125 20.90625 30.140625 20.925781 C 30.203125 21.003906 30.253906 21.082031 30.285156 21.179688 C 30.296875 21.230469 30.308594 21.285156 30.304688 21.332031 C 30.304688 21.363281 30.300781 21.390625 30.296875 21.417969 C 30.296875 21.417969 30.296875 21.421875 30.296875 21.425781 C 30.304688 21.457031 30.308594 21.484375 30.300781 21.515625 C 30.320312 21.546875 30.332031 21.582031 30.328125 21.617188 C 30.316406 21.699219 30.308594 21.785156 30.300781 21.871094 C 30.304688 21.902344 30.304688 21.925781 30.296875 21.953125 C 30.296875 21.964844 30.296875 21.976562 30.296875 21.992188 C 30.300781 21.996094 30.308594 22 30.3125 22.003906 C 30.347656 22.039062 30.378906 22.105469 30.375 22.15625 Z M 30.375 22.15625 " fill-opacity="1" fill-rule="nonzero"/><path fill="#d8fc81" d="M 16.292969 31.636719 C 16.292969 31.636719 16.5625 31.210938 16.988281 31.304688 C 17.125 31.394531 17.199219 31.765625 17.148438 32.058594 C 17.234375 32.039062 17.234375 32.042969 17.234375 32.042969 C 17.234375 32.042969 17.519531 31.457031 17.875 31.515625 C 18.035156 31.570312 18.105469 31.59375 18.160156 31.878906 C 18.214844 32.164062 18.265625 32.382812 18.265625 32.382812 C 18.265625 32.382812 18.46875 31.617188 18.949219 31.644531 C 19.171875 31.695312 19.335938 31.773438 19.347656 32.128906 C 19.359375 32.484375 19.410156 33.003906 19.410156 33.003906 C 19.410156 33.003906 18.613281 33.171875 17.378906 32.875 C 16.773438 32.699219 16.527344 32.644531 16.351562 32.472656 C 16.222656 32.316406 16.085938 32.042969 16.292969 31.636719 Z M 16.292969 31.636719 " fill-opacity="1" fill-rule="nonzero"/><g clip-path="url(#1fb12f1e70)"><path fill="#d8fc81" d="M 20.015625 33.867188 C 20.015625 33.867188 20.144531 33.3125 20.671875 33.449219 C 20.808594 33.496094 20.910156 33.917969 20.917969 34.183594 C 20.921875 34.449219 20.9375 34.382812 20.9375 34.382812 C 20.9375 34.382812 21.164062 33.480469 21.722656 33.644531 C 21.871094 33.695312 22.035156 34.191406 22.023438 34.488281 C 22.101562 34.386719 22.101562 34.386719 22.101562 34.386719 C 22.101562 34.386719 22.234375 33.738281 22.742188 33.785156 C 22.851562 33.78125 23.011719 34.0625 23.019531 34.335938 C 23.027344 34.605469 23.039062 35.054688 23.039062 35.054688 C 23.039062 35.054688 22.160156 35.117188 21.011719 34.859375 C 20.414062 34.683594 20.027344 34.558594 19.972656 34.226562 C 19.972656 33.960938 20.015625 33.867188 20.015625 33.867188 Z M 20.015625 33.867188 " fill-opacity="1" fill-rule="nonzero"/></g><g clip-path="url(#8e54fd340f)"><path fill="#d8fc81" d="M 24.980469 34.125 C 24.980469 34.125 25.074219 33.554688 25.648438 33.546875 C 25.765625 33.636719 25.847656 34.015625 25.847656 34.265625 C 25.847656 34.515625 25.847656 34.515625 25.847656 34.515625 C 25.847656 34.515625 26.066406 33.714844 26.523438 33.804688 C 26.636719 33.824219 26.761719 34.132812 26.761719 34.5 C 26.851562 34.363281 26.855469 34.308594 26.855469 34.308594 C 26.855469 34.308594 27.03125 33.734375 27.359375 33.933594 C 27.480469 34.019531 27.546875 34.367188 27.550781 34.375 C 27.550781 34.386719 27.601562 35.035156 27.601562 35.035156 C 27.601562 35.035156 26.851562 35.128906 26.054688 34.96875 C 25.554688 34.859375 24.851562 34.574219 24.980469 34.125 Z M 24.980469 34.125 " fill-opacity="1" fill-rule="nonzero"/></g><g clip-path="url(#1d0d0d8c72)"><path fill="#d8fc81" d="M 28.265625 34.710938 C 28.265625 34.710938 28.390625 34.285156 28.605469 34.152344 C 28.824219 34.019531 29.019531 33.96875 29.074219 34.167969 C 29.132812 34.367188 29.179688 34.859375 29.179688 34.859375 C 29.179688 34.859375 29.539062 33.914062 29.945312 34.144531 C 30.09375 34.300781 30.253906 34.808594 30.253906 34.808594 C 30.253906 34.808594 30.273438 33.832031 30.878906 34.101562 C 31.125 34.3125 31.425781 35.230469 31.425781 35.230469 C 31.425781 35.230469 30.8125 35.472656 29.941406 35.425781 C 29.070312 35.378906 28.589844 35.191406 28.589844 35.191406 C 28.589844 35.191406 28.183594 34.984375 28.265625 34.710938 Z M 28.265625 34.710938 " fill-opacity="1" fill-rule="nonzero"/></g><path fill="#70a626" d="M 19.449219 21.71875 C 19.449219 21.71875 19.929688 24.25 18.574219 24.742188 C 17.550781 25.105469 16.554688 23.738281 16.554688 23.738281 C 16.554688 23.738281 17.351562 25.363281 17.53125 25.515625 C 18.082031 25.554688 19.289062 25.535156 20.132812 26.054688 C 20.082031 25.753906 20.082031 25.554688 20.207031 25.34375 C 20.335938 25.136719 20.65625 24.179688 20.722656 23.972656 C 20.785156 23.765625 20.765625 23.011719 20.640625 22.644531 C 20.511719 22.28125 20.234375 21.75 20.234375 21.75 L 19.804688 21.261719 Z M 19.449219 21.71875 " fill-opacity="1" fill-rule="nonzero"/><path fill="#70a626" d="M 17.199219 22.78125 C 17.199219 22.78125 19.0625 22.367188 19.789062 21.226562 C 20 21.46875 20.265625 21.746094 20.253906 21.808594 C 20.242188 21.875 19.910156 22.230469 19.910156 22.230469 C 19.910156 22.230469 17.949219 23.085938 17.199219 22.78125 Z M 17.199219 22.78125 " fill-opacity="1" fill-rule="nonzero"/><path fill="#70a626" d="M 18.019531 31.542969 C 18.019531 31.542969 18.585938 29.597656 18.433594 28.835938 C 18.558594 29.035156 19.488281 30.117188 20.175781 30.523438 C 20.3125 30.601562 20.3125 30.601562 20.3125 30.601562 L 20.253906 32.15625 C 20.253906 32.15625 20.320312 32.753906 19.921875 32.871094 C 19.550781 33.003906 19.402344 33.03125 19.402344 33.03125 C 19.402344 33.03125 19.5 32.066406 19.109375 31.6875 C 18.972656 31.609375 18.710938 31.558594 18.527344 31.882812 C 18.347656 32.207031 18.253906 32.417969 18.253906 32.417969 C 18.253906 32.417969 18.265625 31.726562 18.019531 31.542969 Z M 18.019531 31.542969 " fill-opacity="1" fill-rule="nonzero"/><g clip-path="url(#1007aa3d8c)"><path fill="#70a626" d="M 22.425781 33.828125 C 22.425781 33.828125 22.96875 30.277344 21.5625 29.410156 C 22.296875 29.613281 23.015625 29.933594 23.191406 30.074219 C 23.371094 30.210938 23.648438 30.484375 23.648438 30.484375 C 23.648438 30.484375 23.945312 31.15625 24.003906 31.601562 C 24.0625 32.046875 24.058594 32.238281 24.058594 32.238281 C 24.058594 32.238281 24.109375 33.878906 23.875 34.472656 C 23.691406 34.867188 23.628906 35.03125 23.03125 35.035156 C 23.03125 34.347656 23.046875 33.9375 22.746094 33.777344 C 22.601562 33.753906 22.425781 33.828125 22.425781 33.828125 Z M 22.425781 33.828125 " fill-opacity="1" fill-rule="nonzero"/></g><g clip-path="url(#37adf8d39a)"><path fill="#70a626" d="M 26.648438 34 L 26.863281 32.625 C 26.863281 32.625 28.265625 32.699219 28.550781 32.644531 C 28.554688 32.875 28.480469 33.644531 28.476562 33.765625 C 28.472656 33.886719 28.277344 34.589844 28.277344 34.589844 C 28.277344 34.589844 28.027344 35.027344 27.59375 35.0625 C 27.585938 34.636719 27.484375 34.054688 27.382812 33.925781 C 27.285156 33.84375 27.058594 33.828125 26.925781 34.140625 C 26.796875 34.457031 26.765625 34.535156 26.765625 34.535156 Z M 26.648438 34 " fill-opacity="1" fill-rule="nonzero"/></g><g clip-path="url(#be776c8175)"><path fill="#70a626" d="M 30.941406 34.214844 C 30.941406 34.214844 30.46875 31.582031 29.59375 31.25 C 30.507812 31.289062 31.535156 31.253906 31.609375 31.21875 C 31.679688 31.183594 31.914062 31.207031 32.023438 31.773438 C 32.132812 32.339844 32.292969 33.382812 32.292969 33.382812 L 32.425781 34.261719 C 32.425781 34.261719 32.46875 34.742188 32.015625 34.96875 C 31.558594 35.195312 31.414062 35.238281 31.414062 35.238281 C 31.414062 35.238281 31.132812 34.28125 30.941406 34.214844 Z M 30.941406 34.214844 " fill-opacity="1" fill-rule="nonzero"/></g><g clip-path="url(#ae04d319a5)"><path fill="#70a626" d="M 33.769531 30.75 C 33.8125 30.777344 35.734375 31.59375 36.421875 31.683594 C 36.503906 31.839844 36.332031 31.964844 35.933594 32.015625 C 35.535156 32.066406 34.707031 32.121094 33.714844 31.863281 C 32.878906 31.582031 32.761719 31.480469 32.761719 31.480469 C 32.761719 31.480469 33.621094 30.988281 33.578125 30.8125 C 33.660156 30.8125 33.769531 30.75 33.769531 30.75 Z M 33.769531 30.75 " fill-opacity="1" fill-rule="nonzero"/></g><g clip-path="url(#f08f158abe)"><path fill="#d0fc63" d="M 20.457031 18.089844 C 20.457031 18.089844 19.792969 16.308594 18.605469 15.769531 C 17.417969 15.230469 17.316406 15.296875 16.734375 15.382812 C 16.15625 15.46875 14.390625 15.210938 13.972656 15.484375 C 13.554688 15.761719 13.410156 15.882812 13.335938 16.050781 C 13.257812 16.222656 12.75 17.023438 12.773438 17.15625 C 12.800781 17.285156 12.800781 17.285156 12.796875 17.269531 C 12.792969 17.25 12.625 17.027344 12.699219 16.847656 C 12.773438 16.667969 13.214844 15.804688 13.25 15.757812 C 13.28125 15.710938 13.390625 15.179688 14.117188 15.136719 C 14.84375 15.09375 15.308594 15.117188 16.054688 14.992188 C 16.800781 14.871094 17.304688 14.800781 17.519531 14.90625 C 17.734375 15.011719 18.570312 15.285156 18.757812 15.402344 C 18.941406 15.519531 19.574219 15.867188 19.863281 16.453125 C 20.148438 17.042969 20.332031 17.5 20.332031 17.5 Z M 20.457031 18.089844 " fill-opacity="1" fill-rule="nonzero"/></g><path fill="#d0fc63" d="M 16.726562 31.269531 C 16.726562 31.269531 17.789062 28.382812 17.675781 27.617188 C 17.550781 27.351562 17.550781 27.398438 17.550781 27.398438 C 17.550781 27.398438 16.972656 29.753906 16.875 30.066406 C 16.777344 30.375 16.429688 31.433594 16.429688 31.433594 Z M 16.726562 31.269531 " fill-opacity="1" fill-rule="nonzero"/><path fill="#d0fc63" d="M 20.5625 33.386719 C 20.5625 33.386719 21.09375 30.882812 20.808594 29.929688 C 20.667969 30.15625 20.710938 30.351562 20.710938 30.351562 C 20.710938 30.351562 20.675781 31.542969 20.5 32.199219 C 20.320312 32.859375 20.109375 33.671875 20.109375 33.671875 C 20.109375 33.671875 20.335938 33.355469 20.5625 33.386719 Z M 20.5625 33.386719 " fill-opacity="1" fill-rule="nonzero"/><path fill="#d0fc63" d="M 25.378906 33.550781 C 25.394531 33.554688 25.679688 32.457031 25.679688 32.457031 L 25.363281 32.402344 L 25.074219 33.828125 Z M 25.378906 33.550781 " fill-opacity="1" fill-rule="nonzero"/><path fill="#ba9315" d="M 24.019531 31.441406 C 24.019531 31.441406 24.261719 31.25 24.152344 31.097656 C 24.042969 30.945312 23.976562 30.652344 23.753906 30.554688 C 23.773438 30.714844 23.847656 30.964844 23.847656 30.964844 Z M 24.019531 31.441406 " fill-opacity="1" fill-rule="nonzero"/><path fill="#ba9315" d="M 20.738281 29.925781 C 20.738281 29.925781 20.914062 29.4375 21.101562 29.425781 C 20.871094 29.398438 20.503906 29.421875 20.738281 29.925781 Z M 20.738281 29.925781 " fill-opacity="1" fill-rule="nonzero"/><path fill="#ba9315" d="M 20.089844 25.992188 C 20.089844 25.992188 21.171875 28.371094 20.449219 29.203125 C 19.785156 29.9375 19.738281 29.820312 19.9375 30.035156 C 20.132812 30.246094 20.722656 30.550781 20.722656 30.550781 L 20.765625 29.800781 C 20.765625 29.800781 20.859375 29.375 21.25 29.414062 C 21.644531 29.453125 22.453125 29.628906 22.726562 29.800781 C 23.003906 29.972656 23.453125 30.273438 23.453125 30.273438 C 23.453125 30.273438 24.003906 30.820312 23.980469 31.4375 C 24.007812 32.027344 24.019531 31.757812 24.019531 31.757812 C 24.019531 31.757812 25.976562 32.496094 27.46875 32.648438 C 28.171875 32.648438 28.578125 32.671875 28.578125 32.671875 L 28.585938 31.609375 C 28.585938 31.609375 28.796875 31.265625 29.089844 31.246094 C 28.3125 31.15625 27.535156 31.046875 26.90625 30.851562 C 26.128906 30.546875 24.996094 30.121094 24.289062 29.699219 C 23.585938 29.277344 22.355469 28.527344 21.964844 28.066406 C 21.503906 27.664062 20.535156 26.765625 20.277344 26.246094 C 20.074219 25.914062 20.089844 25.992188 20.089844 25.992188 Z M 20.089844 25.992188 " fill-opacity="1" fill-rule="nonzero"/><path fill="#ba9315" d="M 31.636719 31.179688 C 31.636719 31.179688 31.902344 31.269531 31.972656 31.566406 C 32.046875 31.863281 32.035156 31.824219 32.035156 31.824219 C 32.035156 31.824219 32.6875 31.550781 32.867188 31.441406 C 33.042969 31.332031 33.539062 30.980469 33.554688 30.925781 C 33.570312 30.871094 33.550781 30.808594 33.542969 30.808594 C 33.53125 30.808594 32.914062 31.015625 32.578125 31.050781 C 32.246094 31.085938 31.636719 31.179688 31.636719 31.179688 Z M 31.636719 31.179688 " fill-opacity="1" fill-rule="nonzero"/><path fill="#aa650b" d="M 24.113281 26.671875 C 24.113281 26.671875 29.023438 28.140625 29.589844 24.160156 C 29.972656 24.207031 30.308594 24.289062 30.332031 25.066406 C 30.355469 25.847656 30.203125 27.144531 30.203125 27.144531 L 30.105469 28.152344 C 30.105469 28.152344 30.097656 28.9375 29.199219 28.773438 C 28.300781 28.609375 27.292969 28.363281 26.449219 28.03125 C 25.773438 27.71875 24.4375 27.015625 24.113281 26.671875 Z M 24.113281 26.671875 " fill-opacity="1" fill-rule="nonzero"/><path fill="#aa650b" d="M 20.535156 19.808594 L 21 19.554688 L 22.242188 20.644531 L 23.070312 21.34375 C 23.070312 21.34375 23.921875 21.871094 23.609375 22.597656 C 23.335938 23.316406 23.058594 24.132812 23.058594 24.132812 L 22.691406 24.917969 C 22.691406 24.917969 22.488281 25.375 22.234375 25.148438 C 22.425781 24.449219 22.496094 23.785156 22.453125 23.414062 C 22.410156 23.042969 22.414062 22.488281 22.226562 21.957031 C 22.035156 21.429688 21.796875 20.953125 21.40625 20.539062 C 21.019531 20.128906 20.660156 19.960938 20.648438 19.960938 C 20.636719 19.960938 20.488281 19.917969 20.484375 19.90625 C 20.476562 19.894531 20.535156 19.808594 20.535156 19.808594 Z M 20.535156 19.808594 " fill-opacity="1" fill-rule="nonzero"/><path fill="#aa650b" d="M 21.808594 19.78125 C 21.808594 19.78125 24.21875 20.460938 25.128906 18.867188 C 25.273438 18.988281 25.324219 19.261719 25.238281 19.496094 C 25.15625 19.730469 24.941406 20.085938 24.660156 20.453125 C 24.46875 20.765625 24.417969 20.949219 24.417969 20.949219 C 24.417969 20.949219 24.085938 21.675781 23.570312 21.34375 C 23.125 21.046875 22.957031 20.917969 22.492188 20.5 C 22.027344 20.078125 21.769531 19.882812 21.808594 19.78125 Z M 21.808594 19.78125 " fill-opacity="1" fill-rule="nonzero"/><path fill="#aa650b" d="M 24.628906 21.714844 C 25.007812 21.972656 27.789062 23.011719 29.042969 22.832031 C 30.296875 22.652344 30.34375 22.339844 30.355469 22.199219 C 30.449219 22.492188 30.351562 23.089844 30.351562 23.089844 C 30.351562 23.089844 30.285156 23.855469 29.441406 23.703125 C 28.625 23.546875 27.28125 23.109375 27.28125 23.109375 L 26.09375 22.710938 C 26.09375 22.710938 25.285156 22.550781 24.949219 22.285156 C 24.609375 22.023438 24.628906 21.714844 24.628906 21.714844 Z M 24.628906 21.714844 " fill-opacity="1" fill-rule="nonzero"/><path fill="#aa650b" d="M 30.867188 21.679688 C 30.867188 21.679688 31.65625 22.992188 32.464844 23.3125 C 33.277344 23.632812 34.09375 23.542969 34.09375 23.542969 C 34.09375 23.542969 32.828125 23.964844 32.007812 23.960938 C 31.425781 23.960938 30.824219 24.027344 30.902344 23.480469 C 30.976562 22.933594 30.957031 22.367188 30.972656 22.328125 C 30.984375 22.292969 30.867188 21.679688 30.867188 21.679688 Z M 30.867188 21.679688 " fill-opacity="1" fill-rule="nonzero"/><path fill="#aa650b" d="M 25.519531 18.640625 C 25.507812 18.605469 26.464844 19.265625 28.089844 19.675781 C 29.71875 20.082031 30.910156 20.191406 31.546875 20.097656 C 31.136719 20.292969 30.761719 20.523438 29.65625 20.304688 C 28.617188 20.113281 26.628906 19.503906 26.609375 19.503906 C 26.589844 19.503906 25.714844 19.238281 25.519531 18.640625 Z M 25.519531 18.640625 " fill-opacity="1" fill-rule="nonzero"/><path fill="#aa650b" d="M 30.679688 25.785156 C 30.707031 25.960938 32.585938 27.84375 35.300781 27.390625 C 35.441406 27.953125 35.390625 27.980469 35.382812 27.976562 C 35.378906 27.96875 34.054688 28.492188 32.859375 28.628906 C 31.75 28.785156 30.820312 29.0625 30.484375 28.246094 C 30.605469 27.15625 30.679688 25.785156 30.679688 25.785156 Z M 30.679688 25.785156 " fill-opacity="1" fill-rule="nonzero"/><path fill="#aa650b" d="M 20.277344 26.246094 C 20.277344 26.246094 25.882812 30.828125 29.757812 30.730469 C 33.632812 30.636719 35.851562 29.050781 35.851562 29.050781 L 35.898438 29.472656 C 35.898438 29.472656 36 30.128906 35.148438 30.347656 C 34.269531 30.636719 32.136719 31.25 30.914062 31.273438 C 29.691406 31.296875 28.046875 31.304688 26.90625 30.855469 C 25.765625 30.417969 24.144531 29.710938 23.109375 28.949219 C 22.277344 28.351562 21.214844 27.433594 20.65625 26.792969 C 20.359375 26.390625 20.277344 26.246094 20.277344 26.246094 Z M 20.277344 26.246094 " fill-opacity="1" fill-rule="nonzero"/><path fill="#aa650b" d="M 16.707031 25.859375 C 16.714844 25.882812 16.214844 25.363281 16.382812 24.847656 C 16.554688 24.332031 16.648438 23.984375 16.648438 23.984375 L 17.132812 24.890625 C 17.132812 24.890625 16.546875 25.40625 16.707031 25.859375 Z M 16.707031 25.859375 " fill-opacity="1" fill-rule="nonzero"/><path fill="#aa650b" d="M 20.4375 20.109375 C 20.4375 20.109375 22.589844 22.386719 21.476562 24.640625 C 20.625 26.378906 21.160156 27.058594 21.160156 27.058594 C 21.160156 27.058594 20.558594 26.605469 20.277344 26.246094 C 20.003906 25.871094 20.011719 25.542969 20.304688 25.109375 C 20.601562 24.675781 20.753906 23.800781 20.746094 23.746094 C 20.734375 23.691406 20.761719 22.957031 20.597656 22.507812 C 20.433594 22.058594 20.140625 21.519531 19.808594 21.246094 C 20.039062 20.894531 20.40625 20.082031 20.40625 20.082031 Z M 20.4375 20.109375 " fill-opacity="1" fill-rule="nonzero"/><path fill="#aa650b" d="M 21.351562 24.792969 C 21.351562 24.792969 20.988281 26.730469 22.453125 27.964844 C 21.589844 27.457031 20.742188 27.070312 20.761719 26.371094 C 20.78125 25.671875 21.351562 24.792969 21.351562 24.792969 Z M 21.351562 24.792969 " fill-opacity="1" fill-rule="nonzero"/><path fill="#000000" d="M 17.691406 17.726562 C 17.625 17.324219 17.3125 16.957031 16.910156 16.8125 C 16.566406 16.691406 16.222656 16.75 15.957031 16.980469 C 15.765625 17.148438 15.671875 17.402344 15.691406 17.691406 C 15.722656 18.074219 15.945312 18.472656 16.242188 18.660156 C 16.40625 18.765625 16.625 18.839844 16.84375 18.839844 C 17.03125 18.839844 17.222656 18.785156 17.386719 18.652344 C 17.636719 18.449219 17.75 18.101562 17.691406 17.726562 Z M 16.898438 18.121094 C 16.714844 18.121094 16.566406 17.972656 16.566406 17.789062 C 16.566406 17.609375 16.714844 17.460938 16.898438 17.460938 C 17.082031 17.460938 17.230469 17.609375 17.230469 17.789062 C 17.230469 17.972656 17.082031 18.121094 16.898438 18.121094 Z M 16.902344 18.433594 C 16.902344 18.515625 16.835938 18.578125 16.757812 18.578125 C 16.675781 18.578125 16.613281 18.515625 16.613281 18.433594 C 16.613281 18.355469 16.675781 18.289062 16.757812 18.289062 C 16.835938 18.289062 16.902344 18.355469 16.902344 18.433594 Z M 15.789062 17.683594 C 15.773438 17.5 15.804688 17.242188 16.019531 17.050781 C 16.179688 16.914062 16.363281 16.84375 16.5625 16.84375 C 16.664062 16.84375 16.769531 16.863281 16.875 16.902344 C 17.25 17.035156 17.539062 17.371094 17.597656 17.742188 C 17.601562 17.765625 17.605469 17.792969 17.605469 17.820312 C 17.527344 17.464844 17.207031 17.199219 16.824219 17.199219 C 16.382812 17.199219 16.023438 17.554688 16.023438 17.996094 C 16.023438 18.214844 16.109375 18.410156 16.253906 18.554688 C 16.003906 18.371094 15.8125 18.019531 15.789062 17.683594 Z M 15.789062 17.683594 " fill-opacity="1" fill-rule="nonzero"/><path fill="#000000" d="M 24.394531 32.125 C 24.410156 32.125 24.425781 32.117188 24.433594 32.101562 C 24.441406 32.09375 25.011719 31.300781 25.640625 30.980469 C 25.664062 30.96875 25.671875 30.941406 25.660156 30.917969 C 25.648438 30.894531 25.621094 30.882812 25.597656 30.894531 C 24.949219 31.226562 24.378906 32.015625 24.355469 32.046875 C 24.34375 32.070312 24.347656 32.097656 24.367188 32.113281 C 24.378906 32.121094 24.386719 32.125 24.394531 32.125 Z M 24.394531 32.125 " fill-opacity="1" fill-rule="nonzero"/><path fill="#000000" d="M 23.335938 26.238281 C 23.488281 26.332031 23.664062 26.453125 23.867188 26.589844 C 24.347656 26.917969 24.949219 27.328125 25.597656 27.675781 C 26.800781 28.324219 28.265625 28.722656 29.1875 28.832031 C 29.203125 28.835938 29.277344 28.851562 29.382812 28.851562 C 29.515625 28.851562 29.695312 28.824219 29.851562 28.714844 C 30.03125 28.589844 30.136719 28.382812 30.171875 28.101562 C 30.402344 26.082031 30.382812 25.171875 30.382812 25.164062 C 30.429688 24.160156 29.753906 24.109375 29.75 24.109375 C 27.625 23.867188 26.5625 23.335938 25.859375 22.984375 C 25.539062 22.828125 25.285156 22.699219 25.03125 22.644531 C 24.195312 22.46875 23.757812 23.453125 23.753906 23.464844 C 23.75 23.472656 23.371094 24.484375 23.054688 25.34375 C 23.050781 25.351562 22.796875 25.894531 23.335938 26.238281 Z M 23.144531 25.382812 C 23.460938 24.515625 23.839844 23.507812 23.84375 23.5 C 23.84375 23.492188 24.1875 22.71875 24.832031 22.71875 C 24.890625 22.71875 24.949219 22.726562 25.011719 22.738281 C 25.253906 22.789062 25.5 22.914062 25.816406 23.070312 C 26.523438 23.421875 27.597656 23.957031 29.742188 24.207031 C 29.765625 24.207031 30.328125 24.253906 30.285156 25.164062 C 30.285156 25.171875 30.308594 26.078125 30.074219 28.089844 C 30.046875 28.34375 29.953125 28.527344 29.796875 28.636719 C 29.542969 28.8125 29.207031 28.738281 29.203125 28.738281 C 29.203125 28.738281 29.199219 28.738281 29.199219 28.738281 C 28.289062 28.628906 26.835938 28.234375 25.640625 27.59375 C 25 27.246094 24.398438 26.839844 23.921875 26.511719 C 23.714844 26.375 23.539062 26.253906 23.390625 26.15625 C 22.921875 25.859375 23.132812 25.40625 23.144531 25.382812 Z M 23.144531 25.382812 " fill-opacity="1" fill-rule="nonzero"/><path fill="#000000" d="M 18.265625 22.46875 C 18.289062 22.457031 18.300781 22.429688 18.289062 22.40625 C 18.277344 22.382812 18.246094 22.371094 18.226562 22.382812 C 17.667969 22.664062 17.222656 22.765625 17.21875 22.765625 C 17.191406 22.773438 17.175781 22.796875 17.183594 22.824219 C 17.1875 22.84375 17.207031 22.859375 17.230469 22.859375 C 17.234375 22.859375 17.234375 22.859375 17.238281 22.859375 C 17.257812 22.855469 17.699219 22.753906 18.265625 22.46875 Z M 18.265625 22.46875 " fill-opacity="1" fill-rule="nonzero"/><path fill="#000000" d="M 25.957031 22.738281 C 26.066406 22.769531 26.171875 22.796875 26.269531 22.828125 C 26.523438 22.90625 26.78125 22.992188 27.03125 23.070312 C 27.359375 23.179688 27.695312 23.289062 28.03125 23.390625 C 28.125 23.421875 28.222656 23.453125 28.324219 23.484375 C 28.722656 23.617188 29.167969 23.761719 29.59375 23.761719 C 29.660156 23.761719 29.722656 23.757812 29.785156 23.75 C 29.847656 23.757812 30.261719 23.769531 30.382812 23.1875 C 30.457031 22.835938 30.429688 22.519531 30.402344 22.214844 C 30.382812 22.003906 30.363281 21.785156 30.382812 21.558594 C 30.425781 20.949219 30.144531 20.765625 29.714844 20.679688 C 29.714844 20.679688 29.710938 20.679688 29.710938 20.679688 C 29.691406 20.675781 27.398438 20.226562 26.363281 19.789062 C 26.355469 19.789062 25.898438 19.5625 25.589844 19.886719 C 25.421875 20.066406 25.328125 20.265625 25.230469 20.480469 C 25.160156 20.632812 25.085938 20.796875 24.976562 20.964844 C 24.945312 21.011719 24.914062 21.054688 24.882812 21.101562 C 24.648438 21.445312 24.445312 21.746094 24.71875 22.109375 C 24.992188 22.480469 25.503906 22.617188 25.957031 22.738281 Z M 24.960938 21.152344 C 24.992188 21.109375 25.023438 21.0625 25.054688 21.015625 C 25.167969 20.839844 25.242188 20.675781 25.316406 20.519531 C 25.410156 20.3125 25.5 20.117188 25.660156 19.949219 C 25.765625 19.839844 25.894531 19.804688 26.011719 19.804688 C 26.171875 19.804688 26.308594 19.871094 26.320312 19.878906 C 27.367188 20.316406 29.660156 20.765625 29.695312 20.769531 C 30.097656 20.855469 30.324219 21.007812 30.285156 21.550781 C 30.269531 21.785156 30.289062 22.007812 30.308594 22.222656 C 30.332031 22.523438 30.359375 22.828125 30.289062 23.167969 C 30.175781 23.703125 29.808594 23.660156 29.792969 23.65625 C 29.789062 23.65625 29.785156 23.65625 29.78125 23.65625 C 29.316406 23.710938 28.828125 23.550781 28.355469 23.394531 C 28.253906 23.363281 28.15625 23.332031 28.058594 23.300781 C 27.726562 23.199219 27.386719 23.089844 27.0625 22.984375 C 26.8125 22.902344 26.554688 22.816406 26.300781 22.738281 C 26.199219 22.707031 26.09375 22.679688 25.980469 22.648438 C 25.542969 22.53125 25.050781 22.398438 24.792969 22.054688 C 24.5625 21.742188 24.730469 21.496094 24.960938 21.152344 Z M 24.960938 21.152344 " fill-opacity="1" fill-rule="nonzero"/><g clip-path="url(#dc649bedef)"><path fill="#000000" d="M 35.699219 31.054688 C 35.414062 30.875 35.097656 30.675781 34.875 30.476562 C 35.050781 30.417969 35.238281 30.347656 35.417969 30.269531 C 35.566406 30.203125 35.449219 30.257812 35.554688 30.207031 C 35.652344 30.15625 35.808594 30.042969 35.886719 29.8125 C 35.945312 29.636719 35.96875 29.21875 35.890625 28.847656 C 35.878906 28.796875 35.882812 28.804688 35.875 28.761719 C 35.84375 28.644531 35.804688 28.535156 35.753906 28.4375 C 35.671875 28.292969 35.574219 28.195312 35.453125 28.152344 C 35.449219 28.117188 35.449219 28.050781 35.441406 27.960938 C 35.441406 27.957031 35.441406 27.957031 35.441406 27.953125 C 35.421875 27.617188 35.363281 26.933594 35.199219 26.0625 C 35.179688 25.957031 35.191406 26.027344 35.175781 25.925781 C 35.027344 25.183594 34.804688 24.3125 34.464844 23.40625 C 34.460938 23.40625 34.464844 23.40625 34.460938 23.40625 C 34.363281 23.140625 34.25 22.871094 34.128906 22.601562 C 33.746094 21.75 33.164062 20.988281 32.433594 20.367188 C 32.425781 20.359375 32.421875 20.355469 32.414062 20.351562 C 32.246094 20.207031 32.070312 20.074219 31.886719 19.945312 C 31.882812 19.945312 31.882812 19.941406 31.878906 19.941406 C 31.667969 19.796875 31.445312 19.660156 31.214844 19.539062 C 29.714844 18.738281 28.097656 18.160156 26.777344 17.945312 C 25.785156 17.789062 24.699219 17.839844 23.664062 18.0625 C 23.566406 18.085938 23.757812 18.042969 23.566406 18.085938 C 22.671875 18.285156 21.820312 18.617188 21.109375 19.050781 C 21.105469 19.054688 21.105469 19.054688 21.101562 19.054688 C 20.933594 19.160156 20.777344 19.265625 20.625 19.378906 C 20.757812 18.210938 20.078125 16.300781 19.292969 15.699219 C 18.472656 15.070312 17.382812 14.757812 16.992188 14.820312 C 16.566406 14.886719 15.125 15.082031 14.535156 15.082031 C 13.929688 15.082031 13.789062 15.101562 13.546875 15.296875 C 13.308594 15.488281 12.609375 16.734375 12.652344 17.023438 C 12.667969 17.109375 12.746094 17.308594 12.894531 17.554688 C 12.785156 17.613281 12.410156 17.859375 12.328125 18.480469 C 12.207031 19.339844 13.402344 20.992188 14.546875 21.898438 C 14.785156 22.085938 15.042969 22.238281 15.292969 22.386719 C 15.742188 22.65625 16.164062 22.90625 16.320312 23.289062 C 16.375 23.429688 16.4375 23.585938 16.511719 23.757812 C 16.441406 23.851562 16.175781 24.210938 16.039062 24.617188 C 16.003906 24.726562 16.03125 24.644531 16 24.753906 C 15.957031 24.917969 15.941406 25.085938 15.976562 25.242188 C 16.117188 25.878906 16.660156 26.09375 16.683594 26.101562 C 16.6875 26.105469 16.691406 26.105469 16.699219 26.105469 C 16.699219 26.105469 16.703125 26.105469 16.707031 26.105469 C 16.804688 26.546875 17.082031 26.84375 17.097656 26.859375 C 17.101562 26.859375 17.105469 26.863281 17.109375 26.867188 C 17.109375 26.867188 17.335938 27 17.488281 27.320312 L 17.507812 27.359375 C 17.511719 27.363281 17.515625 27.371094 17.519531 27.378906 C 17.515625 27.394531 17.417969 27.800781 17.277344 28.367188 C 17.265625 28.40625 17.265625 28.414062 17.265625 28.417969 C 17.265625 28.417969 17.261719 28.425781 17.253906 28.453125 C 17.136719 28.921875 16.984375 29.488281 16.824219 30.03125 C 16.800781 30.113281 16.828125 30.039062 16.796875 30.121094 C 16.617188 30.734375 16.425781 31.308594 16.257812 31.664062 C 16.253906 31.667969 15.9375 32.285156 16.488281 32.609375 C 16.820312 32.800781 17.492188 33 18.203125 33.082031 C 18.207031 33.082031 18.207031 33.082031 18.210938 33.082031 C 18.214844 33.082031 18.214844 33.082031 18.21875 33.082031 C 18.21875 33.082031 18.21875 33.082031 18.222656 33.082031 C 18.429688 33.105469 18.640625 33.117188 18.847656 33.117188 C 19.035156 33.117188 19.222656 33.105469 19.402344 33.082031 C 19.402344 33.082031 19.402344 33.082031 19.40625 33.082031 C 19.476562 33.074219 19.542969 33.0625 19.609375 33.046875 C 19.636719 33.042969 20.234375 32.9375 20.300781 32.472656 C 20.355469 32.070312 20.355469 30.910156 20.355469 30.683594 C 20.363281 30.6875 20.371094 30.691406 20.378906 30.695312 L 20.648438 30.847656 C 20.570312 31.59375 20.394531 32.707031 19.992188 33.835938 C 19.988281 33.84375 19.988281 33.847656 19.984375 33.855469 C 19.957031 33.902344 19.757812 34.320312 20.222656 34.632812 C 20.609375 34.894531 22.03125 35.105469 22.894531 35.105469 C 22.945312 35.105469 22.988281 35.101562 23.03125 35.101562 C 23.035156 35.101562 23.035156 35.101562 23.035156 35.101562 C 23.039062 35.101562 23.039062 35.101562 23.039062 35.101562 C 23.179688 35.097656 23.300781 35.085938 23.390625 35.066406 C 24.007812 34.933594 24.046875 33.894531 24.070312 33.132812 C 24.074219 33.078125 24.074219 33.023438 24.078125 32.972656 L 24.078125 32.949219 C 24.085938 32.722656 24.097656 32.449219 24.089844 32.160156 C 24.449219 32.253906 24.863281 32.351562 25.3125 32.4375 C 25.246094 32.863281 25.078125 33.855469 24.984375 34.011719 C 24.980469 34.019531 24.855469 34.195312 24.949219 34.417969 C 25.082031 34.726562 25.5625 34.949219 26.375 35.074219 C 26.65625 35.117188 26.898438 35.136719 27.105469 35.136719 C 27.652344 35.136719 27.953125 35.007812 28.117188 34.878906 C 28.152344 34.851562 28.183594 34.820312 28.210938 34.789062 C 28.214844 34.984375 28.316406 35.089844 28.582031 35.226562 C 28.6875 35.28125 28.882812 35.339844 29.132812 35.390625 C 29.132812 35.390625 29.136719 35.390625 29.136719 35.390625 C 29.140625 35.390625 29.140625 35.390625 29.144531 35.390625 C 29.429688 35.445312 29.785156 35.484375 30.160156 35.484375 C 30.585938 35.484375 31.039062 35.433594 31.4375 35.300781 C 31.4375 35.300781 31.4375 35.300781 31.441406 35.300781 C 31.441406 35.300781 31.441406 35.300781 31.441406 35.296875 C 31.671875 35.222656 31.882812 35.121094 32.066406 34.984375 C 32.117188 34.957031 32.503906 34.734375 32.453125 34.179688 C 32.417969 33.761719 32.242188 32.570312 32.085938 31.867188 C 32.324219 31.757812 32.535156 31.648438 32.714844 31.546875 C 32.882812 31.628906 33.957031 32.125 35.21875 32.125 C 35.417969 32.125 35.621094 32.113281 35.828125 32.082031 C 36.257812 32.023438 36.464844 31.933594 36.496094 31.792969 C 36.539062 31.578125 36.167969 31.347656 35.699219 31.054688 Z M 35.34375 27.929688 C 34.65625 28.226562 33.617188 28.425781 32.855469 28.574219 C 32.769531 28.589844 32.683594 28.605469 32.601562 28.621094 L 32.558594 28.632812 C 32.09375 28.722656 31.125 28.910156 30.726562 28.570312 C 30.601562 28.460938 30.546875 28.304688 30.558594 28.097656 C 30.570312 27.847656 30.609375 27.414062 30.648438 26.953125 C 30.703125 26.308594 30.765625 25.582031 30.789062 25.105469 C 30.800781 24.851562 30.878906 24.671875 31.019531 24.5625 C 31.21875 24.410156 31.484375 24.457031 31.488281 24.460938 C 31.492188 24.460938 31.496094 24.460938 31.496094 24.460938 C 32.4375 24.460938 34.394531 24.054688 34.578125 24.015625 C 35.160156 25.78125 35.308594 27.332031 35.34375 27.929688 Z M 34.042969 22.640625 C 34.160156 22.894531 34.261719 23.148438 34.359375 23.398438 C 33.667969 23.691406 31.960938 23.980469 31.484375 23.921875 C 31.214844 23.886719 31.074219 23.835938 31.003906 23.746094 C 30.941406 23.664062 30.925781 23.542969 30.953125 23.34375 C 30.960938 23.296875 30.96875 23.246094 30.976562 23.199219 C 31.03125 22.820312 31.082031 22.460938 30.953125 21.910156 C 30.800781 21.261719 30.792969 20.957031 31.144531 20.851562 C 31.507812 20.742188 32.230469 20.5 32.382812 20.449219 C 33.097656 21.058594 33.667969 21.808594 34.042969 22.640625 Z M 26.761719 18.042969 C 28.070312 18.25 29.679688 18.828125 31.167969 19.621094 C 31.375 19.730469 31.570312 19.851562 31.761719 19.976562 C 31.566406 20.074219 30.992188 20.324219 30.332031 20.347656 C 29.523438 20.371094 26.207031 19.425781 25.84375 19.0625 C 25.472656 18.695312 25.199219 17.984375 25.195312 17.976562 C 25.191406 17.972656 25.1875 17.964844 25.183594 17.960938 C 25.71875 17.933594 26.253906 17.960938 26.761719 18.042969 Z M 24.601562 18.003906 C 24.601562 18.007812 24.601562 18.011719 24.605469 18.015625 C 24.753906 18.335938 24.894531 18.535156 25.011719 18.699219 C 25.117188 18.84375 25.199219 18.960938 25.238281 19.105469 C 25.3125 19.363281 25.125 19.789062 24.738281 20.25 C 24.601562 20.410156 24.511719 20.59375 24.425781 20.769531 C 24.292969 21.035156 24.179688 21.265625 23.933594 21.371094 C 23.613281 21.507812 22.882812 20.816406 22.449219 20.402344 C 22.347656 20.304688 22.261719 20.222656 22.191406 20.164062 C 21.925781 19.925781 21.355469 19.277344 21.207031 19.105469 C 22.171875 18.527344 23.382812 18.140625 24.601562 18.003906 Z M 21.125 19.15625 C 21.257812 19.308594 21.847656 19.984375 22.128906 20.234375 C 22.195312 20.292969 22.28125 20.375 22.382812 20.46875 C 22.816406 20.878906 23.445312 21.480469 23.847656 21.480469 C 23.890625 21.480469 23.933594 21.472656 23.972656 21.457031 C 24.25 21.339844 24.378906 21.082031 24.511719 20.808594 C 24.597656 20.640625 24.683594 20.460938 24.8125 20.308594 C 25.007812 20.078125 25.445312 19.492188 25.332031 19.078125 C 25.285156 18.917969 25.199219 18.796875 25.089844 18.644531 C 24.980469 18.488281 24.84375 18.296875 24.699219 17.996094 C 24.839844 17.980469 24.976562 17.96875 25.117188 17.960938 C 25.105469 17.976562 25.101562 17.992188 25.105469 18.011719 C 25.117188 18.042969 25.394531 18.75 25.777344 19.128906 C 26.15625 19.507812 29.390625 20.441406 30.296875 20.441406 C 30.3125 20.441406 30.324219 20.441406 30.335938 20.441406 C 31.085938 20.417969 31.714844 20.109375 31.851562 20.039062 C 32.003906 20.144531 32.15625 20.257812 32.296875 20.375 C 32.074219 20.453125 31.445312 20.664062 31.117188 20.761719 C 30.65625 20.898438 30.726562 21.351562 30.859375 21.929688 C 30.984375 22.464844 30.9375 22.800781 30.878906 23.1875 C 30.875 23.234375 30.867188 23.285156 30.859375 23.332031 C 30.828125 23.558594 30.851562 23.703125 30.929688 23.804688 C 31.015625 23.914062 31.171875 23.976562 31.472656 24.015625 C 31.519531 24.019531 31.574219 24.023438 31.640625 24.023438 C 32.28125 24.023438 33.742188 23.761719 34.390625 23.488281 C 34.445312 23.636719 34.5 23.78125 34.546875 23.925781 C 34.316406 23.976562 32.421875 24.363281 31.5 24.367188 C 31.460938 24.359375 31.183594 24.316406 30.960938 24.488281 C 30.796875 24.613281 30.710938 24.820312 30.695312 25.101562 C 30.671875 25.578125 30.609375 26.304688 30.554688 26.945312 C 30.511719 27.425781 30.476562 27.84375 30.464844 28.09375 C 30.449219 28.328125 30.519531 28.511719 30.667969 28.640625 C 30.855469 28.808594 31.160156 28.859375 31.480469 28.859375 C 31.882812 28.859375 32.308594 28.777344 32.574219 28.722656 L 32.621094 28.714844 C 32.703125 28.699219 32.789062 28.683594 32.875 28.667969 C 33.628906 28.523438 34.652344 28.324219 35.351562 28.027344 C 35.355469 28.128906 35.359375 28.183594 35.359375 28.1875 C 35.359375 28.523438 35.195312 28.585938 35.1875 28.589844 C 31.664062 29.738281 28.71875 29.742188 26.183594 28.59375 C 24.355469 27.765625 22.527344 26.03125 22.34375 25.765625 L 22.320312 25.738281 C 22.207031 25.570312 22.175781 25.523438 22.238281 25.238281 C 22.277344 25.261719 22.320312 25.273438 22.359375 25.273438 C 22.371094 25.273438 22.386719 25.273438 22.398438 25.273438 C 22.601562 25.238281 22.75 24.9375 22.753906 24.921875 C 23.078125 24.269531 23.351562 23.496094 23.535156 22.984375 C 23.609375 22.78125 23.667969 22.617188 23.707031 22.527344 C 23.941406 21.964844 23.382812 21.527344 22.972656 21.207031 C 22.890625 21.140625 22.808594 21.078125 22.742188 21.019531 C 22.707031 20.988281 22.65625 20.945312 22.597656 20.894531 C 22.152344 20.503906 21.113281 19.59375 20.890625 19.308594 C 20.890625 19.308594 20.890625 19.308594 20.886719 19.304688 C 20.964844 19.253906 21.042969 19.203125 21.125 19.15625 Z M 20.8125 19.359375 C 20.816406 19.363281 20.816406 19.363281 20.816406 19.367188 C 21.042969 19.660156 22.050781 20.542969 22.535156 20.964844 C 22.59375 21.015625 22.644531 21.058594 22.679688 21.089844 C 22.75 21.148438 22.828125 21.214844 22.914062 21.28125 C 23.320312 21.597656 23.828125 21.992188 23.617188 22.488281 C 23.578125 22.585938 23.519531 22.746094 23.445312 22.953125 C 23.265625 23.460938 22.988281 24.234375 22.667969 24.882812 C 22.632812 24.957031 22.511719 25.15625 22.382812 25.179688 C 22.339844 25.183594 22.300781 25.171875 22.261719 25.136719 C 22.289062 25.03125 22.328125 24.898438 22.375 24.730469 C 22.59375 23.957031 22.574219 22.3125 21.976562 21.234375 C 21.433594 20.257812 20.617188 19.890625 20.582031 19.875 C 20.558594 19.863281 20.527344 19.875 20.519531 19.898438 C 20.507812 19.921875 20.519531 19.949219 20.542969 19.960938 C 20.550781 19.964844 21.367188 20.332031 21.894531 21.28125 C 22.480469 22.335938 22.496094 23.945312 22.285156 24.703125 C 22.058594 25.503906 22.058594 25.523438 22.246094 25.789062 L 22.265625 25.820312 C 22.476562 26.125 24.296875 27.839844 26.144531 28.679688 C 27.421875 29.257812 28.804688 29.546875 30.3125 29.546875 C 31.816406 29.546875 33.445312 29.257812 35.21875 28.679688 C 35.226562 28.675781 35.429688 28.605469 35.453125 28.257812 C 35.535156 28.296875 35.609375 28.371094 35.671875 28.484375 C 35.882812 28.871094 35.871094 29.554688 35.796875 29.78125 C 35.699219 30.078125 35.457031 30.148438 35.445312 30.152344 C 35.445312 30.152344 35.441406 30.15625 35.4375 30.15625 C 35.027344 30.347656 34.570312 30.476562 34.238281 30.570312 C 34.117188 30.605469 34.007812 30.632812 33.9375 30.660156 C 33.902344 30.671875 30.269531 31.902344 26.785156 30.742188 C 23.132812 29.527344 20.886719 27.097656 20.386719 26.339844 C 20.386719 26.339844 20.386719 26.335938 20.382812 26.335938 C 20.378906 26.332031 19.960938 25.816406 20.199219 25.417969 C 20.480469 24.941406 20.75 24.398438 20.789062 23.652344 C 20.816406 23.109375 20.730469 22.078125 19.855469 21.242188 C 20.132812 20.816406 20.492188 20.171875 20.605469 19.515625 C 20.671875 19.460938 20.742188 19.410156 20.8125 19.359375 Z M 32.167969 31.296875 C 32.152344 31.363281 32.046875 31.417969 31.976562 31.445312 C 31.972656 31.4375 31.96875 31.433594 31.96875 31.425781 C 31.960938 31.402344 31.925781 31.289062 31.828125 31.210938 C 31.921875 31.199219 32.015625 31.183594 32.105469 31.171875 C 32.105469 31.175781 32.109375 31.179688 32.109375 31.179688 C 32.15625 31.222656 32.175781 31.261719 32.167969 31.296875 Z M 28.554688 31.609375 C 28.554688 31.609375 28.554688 31.632812 28.554688 31.671875 C 28.488281 31.601562 28.417969 31.503906 28.429688 31.417969 C 28.441406 31.347656 28.5 31.292969 28.613281 31.246094 C 28.703125 31.257812 28.792969 31.265625 28.882812 31.277344 C 28.554688 31.375 28.554688 31.597656 28.554688 31.609375 Z M 16.40625 23.253906 C 16.242188 22.84375 15.804688 22.582031 15.34375 22.304688 C 15.09375 22.160156 14.839844 22.007812 14.605469 21.820312 C 13.359375 20.839844 12.316406 19.25 12.421875 18.492188 C 12.503906 17.898438 12.859375 17.679688 12.941406 17.632812 C 13.019531 17.757812 13.113281 17.894531 13.222656 18.03125 C 12.925781 18.160156 12.871094 18.351562 12.878906 18.492188 C 12.878906 18.523438 12.886719 18.554688 12.894531 18.585938 C 12.894531 18.589844 12.894531 18.589844 12.894531 18.59375 C 12.894531 18.59375 12.898438 18.59375 12.898438 18.59375 C 12.988281 18.925781 13.398438 19.246094 13.761719 19.332031 C 13.929688 19.371094 14.101562 19.386719 14.257812 19.386719 C 14.664062 19.386719 14.984375 19.289062 15.003906 19.285156 C 15.023438 19.277344 15.035156 19.261719 15.035156 19.242188 C 15.214844 19.285156 15.40625 19.3125 15.605469 19.3125 C 15.609375 19.3125 15.613281 19.3125 15.617188 19.3125 C 15.605469 19.359375 15.589844 19.414062 15.5625 19.46875 C 15.550781 19.492188 15.5625 19.519531 15.585938 19.53125 C 15.59375 19.535156 15.601562 19.535156 15.605469 19.535156 C 15.625 19.535156 15.640625 19.527344 15.648438 19.507812 C 15.8125 19.175781 15.652344 18.925781 15.648438 18.914062 C 15.632812 18.894531 15.601562 18.886719 15.582031 18.902344 C 15.558594 18.914062 15.554688 18.945312 15.566406 18.964844 C 15.570312 18.972656 15.632812 19.070312 15.628906 19.226562 C 15.621094 19.222656 15.613281 19.21875 15.609375 19.21875 C 14.601562 19.199219 13.839844 18.605469 13.359375 18.03125 C 13.359375 18.03125 13.359375 18.03125 13.355469 18.03125 C 13.351562 18.019531 13.34375 18.011719 13.335938 18.003906 C 12.96875 17.566406 12.769531 17.140625 12.746094 17.007812 C 12.710938 16.777344 13.382812 15.550781 13.605469 15.371094 C 13.816406 15.199219 13.921875 15.179688 14.535156 15.179688 C 15.132812 15.179688 16.578125 14.980469 17.007812 14.914062 C 17.371094 14.855469 18.445312 15.171875 19.234375 15.777344 C 20.023438 16.378906 20.707031 18.351562 20.515625 19.480469 C 20.40625 20.136719 20.042969 20.78125 19.761719 21.207031 C 19.761719 21.207031 19.757812 21.210938 19.753906 21.210938 C 19.746094 21.21875 19.742188 21.226562 19.742188 21.238281 C 19.558594 21.511719 19.414062 21.683594 19.414062 21.6875 C 19.394531 21.707031 19.398438 21.738281 19.417969 21.753906 C 19.425781 21.761719 19.4375 21.765625 19.449219 21.765625 C 19.460938 21.765625 19.476562 21.757812 19.484375 21.746094 C 19.488281 21.742188 19.625 21.582031 19.800781 21.320312 C 20.640625 22.128906 20.71875 23.121094 20.691406 23.648438 C 20.652344 24.410156 20.371094 24.9375 20.113281 25.367188 C 19.996094 25.566406 20.015625 25.777344 20.070312 25.960938 C 19.753906 25.808594 18.796875 25.414062 17.566406 25.488281 C 16.960938 24.628906 16.628906 23.800781 16.40625 23.253906 Z M 12.976562 18.519531 C 12.976562 18.507812 12.972656 18.496094 12.972656 18.488281 C 12.960938 18.285156 13.128906 18.171875 13.289062 18.105469 C 13.386719 18.222656 13.492188 18.339844 13.613281 18.449219 C 13.472656 18.441406 13.246094 18.449219 12.976562 18.519531 Z M 13.730469 18.558594 C 14.054688 18.835938 14.449219 19.082031 14.910156 19.210938 C 14.738281 19.253906 14.253906 19.351562 13.78125 19.238281 C 13.4375 19.160156 13.101562 18.875 13 18.613281 C 13.371094 18.511719 13.664062 18.546875 13.730469 18.558594 Z M 16.667969 25.792969 C 16.667969 25.863281 16.675781 25.933594 16.683594 26 C 16.574219 25.945312 16.179688 25.726562 16.070312 25.21875 C 15.960938 24.722656 16.40625 24.0625 16.554688 23.859375 C 16.691406 24.167969 16.859375 24.519531 17.070312 24.890625 C 16.96875 24.976562 16.667969 25.269531 16.667969 25.792969 Z M 16.949219 32.707031 C 16.785156 32.648438 16.644531 32.585938 16.535156 32.523438 C 16.0625 32.246094 16.328125 31.726562 16.339844 31.703125 C 16.355469 31.679688 16.367188 31.652344 16.378906 31.621094 C 16.398438 31.59375 16.628906 31.246094 16.933594 31.351562 C 17.257812 31.460938 17.101562 32.089844 16.996094 32.507812 C 16.980469 32.582031 16.960938 32.648438 16.949219 32.707031 Z M 18.175781 32.980469 C 17.757812 32.933594 17.359375 32.84375 17.039062 32.738281 C 17.054688 32.679688 17.070312 32.609375 17.089844 32.53125 C 17.101562 32.476562 17.117188 32.421875 17.128906 32.363281 C 17.152344 32.363281 17.171875 32.351562 17.175781 32.332031 C 17.179688 32.320312 17.4375 31.457031 17.886719 31.558594 C 18.25 31.636719 18.222656 32.570312 18.175781 32.980469 Z M 19.355469 32.992188 C 19.011719 33.035156 18.636719 33.03125 18.269531 32.992188 C 18.277344 32.910156 18.292969 32.730469 18.296875 32.527344 C 18.363281 32.285156 18.589844 31.679688 18.867188 31.679688 C 18.976562 31.679688 19.0625 31.714844 19.132812 31.785156 C 19.296875 31.953125 19.371094 32.339844 19.355469 32.992188 Z M 20.207031 32.457031 C 20.152344 32.851562 19.597656 32.953125 19.59375 32.953125 C 19.546875 32.964844 19.5 32.972656 19.449219 32.980469 C 19.464844 32.300781 19.386719 31.910156 19.199219 31.71875 C 19.113281 31.628906 19 31.585938 18.867188 31.585938 C 18.59375 31.585938 18.394531 31.980469 18.289062 32.25 C 18.265625 31.886719 18.171875 31.523438 17.910156 31.464844 C 17.566406 31.390625 17.332031 31.734375 17.203125 32.003906 C 17.25 31.671875 17.230469 31.351562 16.964844 31.261719 C 16.769531 31.195312 16.601562 31.273438 16.484375 31.367188 C 16.929688 30.21875 17.460938 28.035156 17.582031 27.511719 C 17.664062 27.675781 17.746094 27.828125 17.828125 27.976562 C 17.832031 27.976562 17.832031 27.980469 17.832031 27.980469 C 17.832031 27.984375 17.835938 27.988281 17.839844 27.992188 C 18.636719 29.386719 19.558594 30.183594 20.265625 30.625 C 20.261719 30.632812 20.261719 30.636719 20.261719 30.644531 C 20.261719 30.65625 20.265625 32.03125 20.207031 32.457031 Z M 20.429688 30.613281 C 20.351562 30.570312 20.273438 30.519531 20.195312 30.46875 C 20.285156 30.386719 20.507812 30.199219 20.703125 30.082031 C 20.695312 30.21875 20.683594 30.445312 20.65625 30.742188 Z M 20.851562 34.761719 C 20.59375 34.699219 20.386719 34.628906 20.273438 34.554688 C 19.859375 34.273438 20.0625 33.914062 20.070312 33.898438 C 20.070312 33.894531 20.070312 33.890625 20.074219 33.890625 C 20.074219 33.890625 20.074219 33.890625 20.074219 33.886719 C 20.074219 33.882812 20.078125 33.878906 20.078125 33.878906 C 20.105469 33.800781 20.277344 33.378906 20.613281 33.480469 C 20.941406 33.578125 20.898438 34.4375 20.851562 34.761719 Z M 21.945312 34.949219 C 21.597656 34.910156 21.242188 34.851562 20.945312 34.785156 C 20.945312 34.78125 20.945312 34.78125 20.945312 34.78125 C 20.949219 34.769531 20.957031 34.695312 20.964844 34.585938 C 20.976562 34.578125 20.984375 34.566406 20.988281 34.550781 C 20.988281 34.542969 21.128906 33.621094 21.625 33.664062 C 21.703125 33.671875 21.765625 33.707031 21.816406 33.773438 C 22.046875 34.0625 21.964844 34.820312 21.945312 34.949219 Z M 22.992188 35.007812 C 22.726562 35.011719 22.390625 34.996094 22.042969 34.957031 C 22.046875 34.914062 22.058594 34.808594 22.066406 34.671875 C 22.082031 34.601562 22.257812 33.792969 22.660156 33.804688 C 22.714844 33.804688 22.761719 33.828125 22.800781 33.871094 C 23.019531 34.109375 23 34.824219 22.992188 35.007812 Z M 23.984375 32.945312 L 23.980469 32.96875 C 23.980469 33.019531 23.976562 33.074219 23.976562 33.128906 C 23.953125 33.816406 23.917969 34.859375 23.371094 34.972656 C 23.296875 34.988281 23.199219 35 23.085938 35.003906 C 23.097656 34.800781 23.113281 34.070312 22.871094 33.808594 C 22.8125 33.742188 22.742188 33.710938 22.664062 33.707031 C 22.660156 33.707031 22.65625 33.707031 22.652344 33.707031 C 22.351562 33.707031 22.164062 34.054688 22.066406 34.328125 C 22.050781 34.097656 22.007812 33.859375 21.890625 33.710938 C 21.824219 33.628906 21.738281 33.578125 21.632812 33.570312 C 21.269531 33.535156 21.074219 33.902344 20.976562 34.195312 C 20.96875 33.851562 20.898438 33.46875 20.640625 33.390625 C 20.460938 33.335938 20.3125 33.402344 20.203125 33.507812 C 20.78125 31.6875 20.800781 30 20.800781 29.949219 C 20.816406 29.550781 21.125 29.480469 21.164062 29.472656 C 22.09375 29.496094 23.078125 29.917969 23.5625 30.496094 C 23.878906 30.875 23.972656 31.492188 23.992188 32.070312 C 23.992188 32.074219 23.988281 32.078125 23.988281 32.082031 C 23.984375 32.097656 23.988281 32.113281 23.996094 32.121094 C 24.003906 32.421875 23.992188 32.710938 23.984375 32.945312 Z M 20.757812 29.535156 C 20.804688 29.480469 20.882812 29.460938 20.960938 29.457031 C 20.875 29.511719 20.785156 29.605469 20.734375 29.757812 C 20.710938 29.660156 20.71875 29.585938 20.757812 29.535156 Z M 23.765625 30.621094 C 23.957031 30.804688 24.125 31.023438 24.117188 31.191406 C 24.113281 31.261719 24.082031 31.316406 24.019531 31.367188 C 23.972656 31.09375 23.890625 30.835938 23.765625 30.621094 Z M 24.089844 32.0625 C 24.082031 31.867188 24.066406 31.664062 24.039062 31.472656 C 24.148438 31.398438 24.207031 31.308594 24.214844 31.195312 C 24.230469 30.78125 23.46875 30.246094 23.410156 30.203125 C 23.054688 29.890625 22.566406 29.644531 22.035156 29.503906 C 22.277344 29.4375 22.523438 29.386719 22.769531 29.359375 C 22.796875 29.355469 22.816406 29.332031 22.8125 29.304688 C 22.808594 29.28125 22.785156 29.261719 22.757812 29.265625 C 22.453125 29.300781 22.148438 29.363281 21.847656 29.460938 C 21.625 29.410156 21.394531 29.382812 21.164062 29.375 C 21.125 29.367188 20.820312 29.3125 20.6875 29.476562 C 20.601562 29.578125 20.609375 29.742188 20.703125 29.957031 C 20.703125 29.960938 20.703125 29.964844 20.703125 29.972656 C 20.472656 30.101562 20.199219 30.335938 20.113281 30.414062 C 19.457031 29.960938 18.648438 29.210938 17.941406 27.980469 C 18.167969 27.875 19.234375 27.425781 20.851562 27.519531 C 20.878906 27.523438 20.902344 27.503906 20.902344 27.476562 C 20.90625 27.449219 20.882812 27.429688 20.859375 27.425781 C 19.210938 27.332031 18.117188 27.792969 17.894531 27.894531 C 17.792969 27.714844 17.691406 27.519531 17.59375 27.316406 L 17.574219 27.277344 C 17.421875 26.957031 17.203125 26.8125 17.164062 26.789062 C 17.121094 26.742188 16.765625 26.335938 16.765625 25.792969 C 16.765625 25.335938 17.019531 25.0625 17.121094 24.972656 C 17.222656 25.144531 17.332031 25.320312 17.453125 25.496094 C 17.378906 25.503906 17.304688 25.511719 17.226562 25.519531 C 17.199219 25.523438 17.183594 25.546875 17.1875 25.574219 C 17.191406 25.597656 17.214844 25.617188 17.238281 25.613281 C 18.792969 25.414062 19.980469 26.015625 20.125 26.089844 C 20.199219 26.253906 20.292969 26.375 20.308594 26.394531 C 20.8125 27.15625 23.078125 29.605469 26.753906 30.828125 C 27.324219 31.019531 27.894531 31.144531 28.453125 31.222656 C 28.386719 31.273438 28.347656 31.332031 28.335938 31.402344 C 28.3125 31.578125 28.492188 31.75 28.554688 31.800781 C 28.554688 31.984375 28.546875 32.277344 28.53125 32.605469 C 27.433594 32.660156 26.328125 32.53125 25.375 32.351562 C 25.375 32.351562 25.375 32.351562 25.371094 32.351562 C 24.894531 32.261719 24.464844 32.160156 24.089844 32.0625 Z M 25.777344 34.851562 C 25.285156 34.707031 25.101562 34.523438 25.039062 34.382812 C 24.964844 34.210938 25.058594 34.074219 25.066406 34.0625 C 25.082031 34.035156 25.097656 33.992188 25.113281 33.9375 C 25.121094 33.933594 25.128906 33.925781 25.132812 33.917969 C 25.132812 33.914062 25.324219 33.527344 25.609375 33.585938 C 25.816406 33.628906 25.820312 34.378906 25.777344 34.851562 Z M 26.714844 35.023438 C 26.613281 35.011719 26.503906 35 26.386719 34.980469 C 26.1875 34.949219 26.015625 34.914062 25.867188 34.875 C 25.867188 34.875 25.871094 34.871094 25.871094 34.871094 C 25.875 34.820312 25.882812 34.726562 25.886719 34.609375 C 25.890625 34.609375 25.890625 34.609375 25.890625 34.605469 C 25.960938 34.378906 26.199219 33.789062 26.46875 33.828125 C 26.703125 33.863281 26.742188 34.578125 26.714844 35.023438 Z M 26.808594 35.03125 C 26.8125 34.988281 26.820312 34.839844 26.816406 34.65625 C 26.859375 34.445312 27.011719 33.925781 27.246094 33.925781 C 27.25 33.925781 27.257812 33.925781 27.261719 33.925781 C 27.476562 33.941406 27.546875 34.574219 27.542969 34.972656 C 27.542969 34.984375 27.550781 34.996094 27.558594 35.007812 C 27.367188 35.042969 27.121094 35.054688 26.808594 35.03125 Z M 28.230469 34.578125 C 28.222656 34.597656 28.214844 34.613281 28.214844 34.617188 C 28.1875 34.671875 28.140625 34.742188 28.054688 34.808594 C 27.964844 34.878906 27.832031 34.949219 27.632812 34.992188 C 27.636719 34.988281 27.636719 34.980469 27.636719 34.972656 C 27.640625 34.859375 27.640625 33.859375 27.269531 33.832031 C 27.027344 33.8125 26.878906 34.113281 26.796875 34.355469 C 26.765625 34.054688 26.679688 33.765625 26.484375 33.738281 C 26.214844 33.695312 26.007812 34.058594 25.894531 34.320312 C 25.890625 33.953125 25.839844 33.539062 25.628906 33.492188 C 25.433594 33.453125 25.28125 33.566406 25.179688 33.679688 C 25.277344 33.253906 25.375 32.632812 25.402344 32.453125 C 26.199219 32.601562 27.097656 32.714844 28.011719 32.714844 C 28.183594 32.714844 28.355469 32.710938 28.527344 32.703125 C 28.5 33.179688 28.453125 33.710938 28.363281 34.058594 L 28.335938 34.160156 C 28.292969 34.320312 28.261719 34.449219 28.238281 34.558594 C 28.238281 34.5625 28.234375 34.570312 28.230469 34.578125 Z M 29.101562 35.289062 C 28.890625 35.246094 28.722656 35.191406 28.625 35.144531 C 28.332031 34.988281 28.265625 34.910156 28.328125 34.597656 C 28.398438 34.449219 28.613281 34.050781 28.902344 34.101562 C 29.183594 34.148438 29.148438 34.933594 29.101562 35.289062 Z M 29.195312 35.308594 C 29.203125 35.253906 29.214844 35.160156 29.222656 35.046875 C 29.222656 35.042969 29.226562 35.039062 29.226562 35.035156 C 29.226562 35.027344 29.402344 34.203125 29.796875 34.167969 C 29.84375 34.164062 29.886719 34.179688 29.929688 34.214844 C 30.207031 34.441406 30.285156 35.339844 30.285156 35.347656 C 30.289062 35.367188 30.304688 35.382812 30.324219 35.390625 C 29.910156 35.402344 29.511719 35.363281 29.195312 35.308594 Z M 30.347656 35.386719 C 30.367188 35.382812 30.382812 35.363281 30.382812 35.339844 C 30.378906 35.320312 30.363281 35.117188 30.3125 34.875 C 30.3125 34.808594 30.335938 34.113281 30.691406 34.09375 C 30.695312 34.09375 30.695312 34.09375 30.699219 34.09375 C 31 34.09375 31.273438 34.871094 31.371094 35.222656 C 31.046875 35.328125 30.691406 35.375 30.347656 35.386719 Z M 32.359375 34.1875 C 32.40625 34.710938 32.035156 34.890625 32.019531 34.898438 C 32.015625 34.898438 32.011719 34.902344 32.007812 34.902344 C 31.847656 35.027344 31.660156 35.121094 31.460938 35.191406 C 31.390625 34.945312 31.105469 34 30.699219 34 C 30.695312 34 30.691406 34 30.6875 34 C 30.394531 34.015625 30.285156 34.351562 30.242188 34.601562 C 30.183594 34.410156 30.101562 34.234375 29.992188 34.140625 C 29.929688 34.089844 29.859375 34.066406 29.789062 34.074219 C 29.503906 34.101562 29.324219 34.433594 29.226562 34.695312 C 29.214844 34.375 29.144531 34.042969 28.914062 34.007812 C 28.699219 33.96875 28.523438 34.125 28.402344 34.289062 C 28.410156 34.253906 28.417969 34.222656 28.425781 34.183594 L 28.453125 34.082031 C 28.65625 33.304688 28.648438 31.675781 28.648438 31.605469 C 28.648438 31.605469 28.648438 31.390625 29.050781 31.335938 C 29.070312 31.332031 29.085938 31.316406 29.089844 31.292969 C 29.417969 31.320312 29.738281 31.332031 30.046875 31.332031 C 30.625 31.332031 31.167969 31.292969 31.652344 31.234375 C 31.65625 31.234375 31.65625 31.234375 31.65625 31.234375 C 31.828125 31.269531 31.875 31.441406 31.875 31.449219 C 31.875 31.453125 31.875 31.453125 31.875 31.457031 C 32.035156 31.867188 32.304688 33.582031 32.359375 34.1875 Z M 32.066406 31.769531 C 32.042969 31.679688 32.023438 31.601562 32.003906 31.535156 C 32.082031 31.507812 32.234375 31.433594 32.261719 31.316406 C 32.273438 31.261719 32.257812 31.207031 32.214844 31.152344 C 32.773438 31.0625 33.226562 30.957031 33.535156 30.875 C 33.410156 30.984375 32.933594 31.375 32.066406 31.769531 Z M 36.402344 31.769531 C 36.386719 31.835938 36.273438 31.925781 35.8125 31.988281 C 34.4375 32.179688 33.144531 31.640625 32.816406 31.488281 C 33.289062 31.210938 33.550781 30.984375 33.617188 30.929688 C 33.636719 30.910156 33.636719 30.878906 33.621094 30.859375 C 33.617188 30.859375 33.613281 30.855469 33.609375 30.851562 C 33.832031 30.792969 33.960938 30.75 33.964844 30.746094 C 34.035156 30.722656 34.140625 30.695312 34.261719 30.660156 C 34.40625 30.621094 34.582031 30.570312 34.769531 30.511719 C 35 30.730469 35.34375 30.945312 35.648438 31.132812 C 36.035156 31.375 36.433594 31.625 36.402344 31.769531 Z M 36.402344 31.769531 " fill-opacity="1" fill-rule="nonzero"/></g></svg>